<?xml version="1.0" encoding="UTF-8"?>
<svg xmlns="http://www.w3.org/2000/svg" width="587.95" height="724.11" version="1.1" viewBox="0 0 587.95 724.11">
  <g id="planet">
    <path id="planet_2" d="M386.11,79.46c.8-1.1,1.6-2.31,2.37-3.6-10.58-.57-19-10.5-19-22.66s8.94-22.69,19.97-22.69c4.02,0,7.77,1.36,10.9,3.68.03-1.87-.05-3.62-.22-5.22-3.27-1.44-6.88-2.25-10.68-2.25-14.62,0-26.48,11.85-26.48,26.48,0,13.49,10.09,24.62,23.14,26.26Z" fill="#fff" stroke-width="0"/>
    <path id="planet_1" d="M409.87,36.34c-.44,2.83-.99,5.83-1.67,9.02.79,2.44,1.22,5.08,1.22,7.84,0,7.78-3.45,14.64-8.7,18.73-.79,2.2-1.58,4.27-2.38,6.22,10.25-3.65,17.59-13.44,17.59-24.95,0-6.41-2.27-12.28-6.06-16.86Z" fill="#fff" stroke-width="0"/>
  </g>
  <g id="planetRing">
    <path id="planetRing-2" data-name="planetRing" d="M403.64,57.31c-7.76,26.85-20.41,46.77-28.25,44.51-5.24-1.52-7-12.59-5.27-27.78,2.02,1.87,4.31,3.45,6.81,4.68.56,3.27,1.7,5.39,3.44,5.89,5.06,1.47,13.23-11.41,18.24-28.75,5.02-17.35,4.98-32.6-.09-34.06-1.73-.5-3.83.68-6.05,3.15-.99-.1-2-.16-3.02-.16-1.79,0-3.54.17-5.23.49,6.64-13.78,14.04-22.2,19.28-20.68,7.84,2.26,7.9,25.86.14,52.71Z" fill="#fff" stroke-width="0"/>
  </g>
  <g id="doorCutout">
    <g id="innerDoor">
      <path id="innerDoor_7" d="M478.12,193.77c-2.4-51.84-27.32-97.8-65.2-128.32-.67,1.29-1.44,2.51-2.31,3.66,36.78,30.18,60.96,75.5,63.29,126.6.13,2.7.19,5.41.19,8.14v107.71l4.22-.26v-109.29c0-2.76-.06-5.5-.19-8.23Z" fill="#fff" stroke-width="0"/>
      <polygon id="innerDoor_6" points="478.31 343.51 474.1 335.03 474.1 365.68 478.31 357.2 478.31 343.51" fill="#fff" stroke-width="0"/>
      <path id="innerDoor_5" d="M474.1,389.16v310.83c0,.78-.63,1.4-1.4,1.4H133.33c-.78,0-1.4-.63-1.4-1.4v-56.28c-1.18-.54-2.61-1.2-4.22-1.93v61.43c0,1.11.9,2.01,2.01,2.01h346.59c1.11,0,2.01-.9,2.01-2.01v-313.79l-4.22-.26Z" fill="#fff" stroke-width="0"/>
      <path id="innerDoor_4" d="M128.41,630.53c1.12.54,2.31,1.1,3.52,1.67v-104.24c-.58.4-1.18.8-1.78,1.2-.81.54-1.63,1.06-2.43,1.57v99.46c.23.11.46.23.7.34Z" fill="#fff" stroke-width="0"/>
      <path id="innerDoor_3" d="M127.71,453.19v67.33c1.34-.9,2.81-1.91,4.22-2.87v-62.66c-1.27-.5-2.7-1.1-4.22-1.8Z" fill="#fff" stroke-width="0"/>
      <path id="innerDoor_2" d="M127.71,399.86v44.96c.71.38,1.44.77,2.18,1.14.64.33,1.33.67,2.03,1v-49.8c-1.16.82-2.62,1.79-4.22,2.69Z" fill="#fff" stroke-width="0"/>
      <path id="innerDoor_1" d="M367.21,38.84c-19.88-7.83-41.54-12.14-64.2-12.14-94.06,0-170.81,74.08-175.11,167.07-.13,2.73-.19,5.47-.19,8.23v189.86c1.45-.87,2.97-1.87,4.22-2.73v-185.29c0-2.73.06-5.44.19-8.14,4.2-91.94,79.1-165.19,170.9-165.19,21.97,0,42.98,4.21,62.28,11.85.55-1.23,1.2-2.41,1.92-3.53Z" fill="#fff" stroke-width="0"/>
    </g>
    <g id="outerDoor">
      <path id="outerDoor_6" d="M486.31,190.2c-2.56-54-29.68-101.75-70.71-132.88-.04.24-.08.48-.13.72,40.66,31.01,67.33,78.77,69.89,132.82.14,2.78.2,5.56.2,8.37v111.61l.95-.06v-112.17c0-2.82-.06-5.61-.2-8.4Z" fill="#fff" stroke-width="0"/>
      <path id="outerDoor_5" d="M485.57,389.87v319.64c0,.8-.67,1.44-1.5,1.44H121.96c-.83,0-1.5-.65-1.5-1.44v-71.11c-.32-.15-.63-.3-.95-.46v72.26c0,1.13.94,2.05,2.1,2.05h362.8c1.16,0,2.1-.92,2.1-2.05v-320.26l-.95-.06Z" fill="#fff" stroke-width="0"/>
      <path id="outerDoor_4" d="M120.46,626.48v-91.45c-.37.21-.69.38-.95.52v90.42c.3.17.62.34.95.51Z" fill="#fff" stroke-width="0"/>
      <path id="outerDoor_3" d="M119.51,448.87v76.89c.3-.18.61-.37.95-.58v-75.77c-.32-.18-.64-.36-.95-.54Z" fill="#fff" stroke-width="0"/>
      <path id="outerDoor_2" d="M119.51,403.17v36.82c.25.16.57.36.95.6v-37.69c-.34.1-.66.19-.95.27Z" fill="#fff" stroke-width="0"/>
      <path id="outerDoor_1" d="M372.43,32.92c-21.41-8.54-44.85-13.25-69.42-13.25-98.46,0-178.8,75.61-183.3,170.53-.14,2.79-.2,5.58-.2,8.4v197.21c.29-.12.6-.24.95-.39v-196.2c0-2.81.06-5.59.2-8.37,4.48-94.56,86.09-169.89,184.04-169.89,23.78,0,46.4,4.45,67.08,12.53.22-.19.43-.38.66-.57Z" fill="#fff" stroke-width="0"/>
    </g>
  </g>
  <g id="smallStar">
    <path id="smallStar-2" data-name="smallStar" d="M529.14,57.48l1.92,2.89c.08.12.2.19.34.2l3.46.22c.32.02.51.36.37.64l-1.54,3.1c-.06.13-.06.27,0,.4l1.54,3.1c.14.29-.05.62-.37.64l-3.46.22c-.14,0-.27.08-.34.2l-1.92,2.89c-.18.27-.57.27-.74,0l-1.92-2.89c-.08-.12-.2-.19-.34-.2l-3.46-.22c-.32-.02-.51-.36-.37-.64l1.54-3.1c.06-.13.06-.27,0-.4l-1.54-3.1c-.14-.29.05-.62.37-.64l3.46-.22c.14,0,.27-.08.34-.2l1.92-2.89c.18-.27.57-.27.74,0Z" fill="#fff" stroke-width="0"/>
  </g>
  <g id="ellipticle_ringCutout">
    <path id="ellipticle_4" d="M143.28,577.68c-3.15-1.71-6.29-3.36-9.41-4.95v2.72c2.74,1.41,5.49,2.86,8.25,4.36,54.04,29.27,92.14,63.55,85.09,76.57-7.05,13.01-56.57-.17-110.62-29.44-54.04-29.27-92.14-63.55-85.09-76.57,5.93-10.95,41.91-3.36,85.36,16.75v-2.62c-44.3-20.2-81.18-27.24-87.62-15.35-7.69,14.19,30.9,49.97,86.19,79.92,55.29,29.95,106.34,42.72,114.03,28.53,7.69-14.19-30.9-49.97-86.19-79.92Z" fill="#fff" stroke-width="0"/>
    <path id="ellipticle_3" d="M200.49,453.93c-4.56-5.91-33.52,8.79-64.7,32.83-.64.5-1.28.99-1.92,1.49v2.44c1.02-.8,2.05-1.61,3.09-2.41,29.98-23.11,57.44-37.75,61.35-32.68,3.91,5.07-17.23,27.91-47.2,51.02-29.98,23.11-57.44,37.75-61.35,32.68-2.95-3.83,8.42-17.83,27.1-34.43v-2.49c-20.45,18.16-32.84,33.99-29.28,38.6,4.56,5.91,33.52-8.79,64.7-32.83s52.76-48.32,48.2-54.23Z" fill="#fff" stroke-width="0"/>
    <path id="ellipticle_2" d="M133.87,425.83v1.96c17.67,11.17,29.46,23.13,26.83,27.56-2.83,4.74-21.19-.99-41.02-12.81s-33.61-25.24-30.78-29.99c2.19-3.67,13.69-1.06,27.97,5.78v-1.77c-14.81-6.86-26.87-9.13-29.41-4.87-3.3,5.53,10.75,19.98,31.37,32.27,20.62,12.29,40.01,17.77,43.31,12.24,3.13-5.25-9.36-18.53-28.27-30.37Z" fill="#fff" stroke-width="0"/>
    <path id="ellipticle_1" d="M157.11,364.14c-2.3-3.02-12.2.55-23.24,8.06v1.35c10.77-7.5,20.35-11.35,22.35-8.73,2.25,2.95-5.93,12.97-18.27,22.38-12.34,9.41-24.17,14.64-26.42,11.69-1.3-1.71.89-5.77,5.34-10.72v-1.51c-5.28,5.8-7.87,10.76-6.24,12.91,2.63,3.44,15.16-1.7,28-11.49,12.84-9.79,21.12-20.51,18.49-23.96Z" fill="#fff" stroke-width="0"/>
  </g>
  <g id="outerRing4">
    <circle id="outerRing4_dot11" cx="47.78" cy="538.03" r=".24" fill="#fff" stroke-width="0"/>
    <circle id="outerRing4_dot10" cx="45.48" cy="537.79" r=".3" fill="#fff" stroke-width="0"/>
    <circle id="outerRing4_dot9" cx="43.26" cy="537.63" r=".46" fill="#fff" stroke-width="0"/>
    <path id="outerRing4_path5" d="M39.53,537.5c0,.25-.2.45-.45.46,0,0-1.26-.01-2.54.05s-2.66.2-2.66.2c-.25,0-.46-.2-.46-.46s.2-.46.46-.46c0,0,1.3-.14,2.59-.2s2.6-.05,2.6-.05c.25,0,.45.21.45.46Z" fill="#fff" stroke-width="0"/>
    <circle id="outerRing4_dot8" cx="32.16" cy="537.97" r=".46" fill="#fff" stroke-width="0"/>
    <path id="outerRing4_path4" d="M28.26,538.82c.09.23-.02.49-.25.59,0,0-.38.05-1.55.56-.23.1-1.52.68-2.77,1.61-.79.59-1.52,1.34-2.08,2.1-.45.62-.88,1.41-1.2,2.28s-.5,1.78-.54,2.62c-.2,4.28,1.73,8.31,1.73,8.31.1.23,0,.5-.24.6s-.5,0-.6-.24c0,0-2.14-4.44-1.88-8.76.05-.85.22-1.89.54-2.85s.86-1.92,1.34-2.58c.66-.89,1.52-1.72,2.41-2.35,1.33-.94,2.65-1.48,2.89-1.59,1.19-.52,1.61-.59,1.61-.59.23-.08.49.04.58.27Z" fill="#fff" stroke-width="0"/>
    <path id="outerRing4_path3" d="M233.04,666.95c.08.24.02.51-.21.59,0,0-2.33,1.05-6.36,1.71-1.89.31-4.23.41-6.8.48-6.27.15-14.51-1.15-22.88-3-6.62-1.46-13.6-3.4-20.45-5.61-7.93-2.56-15.6-5.62-22.46-8.41-14.97-6.09-26.3-11.96-26.68-12.17-.42-.23-15.49-7.61-33.73-18.6-5.27-3.17-10.74-6.64-16.24-10.36-3.39-2.3-6.76-4.77-10.17-7.09-1.88-1.28-3.63-2.78-5.41-4.13-1.99-1.5-3.95-2.94-5.83-4.51-3.43-2.87-6.82-5.72-9.99-8.44-2.68-2.31-9.29-8.78-11.32-10.95s-5.02-5.61-6.56-7.6c-4.85-6.28-6.25-9.65-6.25-9.65-.11-.23-.02-.5.2-.61s.5-.02.61.2c0,0,1.43,3.35,6.22,9.58,1.55,2.02,4.43,5.37,6.57,7.57,1.98,2.04,8.58,8.45,11.16,10.66,3.2,2.75,6.59,5.59,10.06,8.5,1.88,1.58,3.85,3.02,5.85,4.52,1.75,1.31,3.51,2.69,5.34,3.95,3.39,2.32,6.76,4.77,10.15,7.05,5.51,3.71,11.01,7.16,16.27,10.35,18.17,11.02,33.07,18.3,33.48,18.53.38.21,11.87,6.11,26.71,12.2,6.83,2.8,14.55,5.81,22.44,8.39,6.81,2.22,13.68,4.26,20.24,5.73,8.27,1.85,16.38,3.09,22.57,2.95,2.55-.06,4.87-.16,6.74-.45,3.95-.63,6.16-1.66,6.16-1.66.24-.07.49.06.56.3Z" fill="#fff" stroke-width="0"/>
    <path id="outerRing4_path2" d="M233.65,666.66c-.15-.24-.08-.55.15-.7,0,0,.65-.41,1.54-1.1.54-.41,1.04-.86,1.46-1.4.51-.66.91-1.35,1.1-1.75.62-1.34.77-2.28.77-2.29.06-.28.33-.45.61-.39s.45.33.39.61c0,0-.19,1.14-.8,2.46-.2.42-.63,1.21-1.21,1.95-.51.64-1.13,1.24-1.73,1.7-.85.66-1.58,1.07-1.58,1.07-.24.14-.55.07-.69-.16Z" fill="#fff" stroke-width="0"/>
    <circle id="outerRing4_dot7" cx="239.34" cy="656.92" r=".46" fill="#fff" stroke-width="0"/>
    <circle id="outerRing4_dot6" cx="239.23" cy="655.46" r=".46" fill="#fff" stroke-width="0"/>
    <path id="outerRing4_path1" d="M239.06,654.52c-.28.04-.53-.14-.58-.41,0,0-.13-.57-.44-1.66-.19-.65-.49-1.37-.72-2.01-.28-.78-1.25-2.72-1.25-2.73-.15-.24-.08-.55.15-.71s.55-.08.71.15c0,0,1.02,1.98,1.34,2.86.27.77.6,1.48.82,2.21.3,1.03.41,1.71.41,1.71.04.27-.15.53-.43.57Z" fill="#fff" stroke-width="0"/>
    <circle id="outerRing4_dot5" cx="235.67" cy="645.97" r=".46" fill="#fff" stroke-width="0"/>
    <circle id="outerRing4_dot4" cx="234.91" cy="644.63" r=".46" fill="#fff" stroke-width="0"/>
    <circle id="outerRing4_dot3" cx="233.14" cy="641.89" r=".46" fill="#fff" stroke-width="0"/>
    <circle id="outerRing4_dot2" cx="231.81" cy="640.06" r=".33" fill="#fff" stroke-width="0"/>
    <circle id="outerRing4_dot1" cx="229.97" cy="637.7" r=".24" fill="#fff" stroke-width="0"/>
  </g>
  <g id="outerRing3">
    <circle id="outerRing3_dot8" cx="90.84" cy="524.84" r=".18" fill="#fff" stroke-width="0"/>
    <circle id="outerRing3_dot7" cx="89.43" cy="526.59" r=".3" fill="#fff" stroke-width="0"/>
    <circle id="outerRing3_dot6" cx="88.08" cy="528.29" r=".38" fill="#fff" stroke-width="0"/>
    <path id="outerRing3_path10" d="M87.5,529.04c.17.12.22.35.1.53,0,0-.65.87-.65.87-.12.17-.36.22-.53.1s-.22-.36-.1-.53c0,0,.65-.87.65-.87.12-.17.35-.21.53-.1Z" fill="#fff" stroke-width="0"/>
    <path id="outerRing3_path9" d="M86.02,531.12c.17.12.22.35.1.53,0,0-.37.51-.73,1.05s-.71,1.1-.71,1.1c-.12.17-.36.22-.53.1s-.22-.36-.1-.53c0,0,.36-.58.72-1.12s.71-1.03.71-1.03c.12-.17.35-.21.53-.1Z" fill="#fff" stroke-width="0"/>
    <path id="outerRing3_path8" d="M83.47,535.13c.17.12.22.35.1.53,0,0-.31.5-.6,1.08-.09.19-.87,1.48-1.38,2.76-.39.98-.95,3.05-.85,4.18.05.64.19,1.25.42,1.66.45.81,1.09,1.1,1.09,1.1.15.15.15.39,0,.54s-.39.15-.54,0c0,0-.69-.39-1.19-1.32-.25-.48-.42-1.22-.47-1.93-.09-1.25.49-3.36.91-4.45.57-1.49,1.25-2.7,1.35-2.9.29-.57.64-1.14.64-1.14.12-.17.35-.21.53-.1Z" fill="#fff" stroke-width="0"/>
    <path id="outerRing3_path7" d="M83.09,547.32c.02-.21.2-.37.41-.35,0,0,1.65.33,3.46.2,1.97-.14,4.14-.74,4.47-.82.29-.07,2.96-.8,5.57-1.8,2.94-1.12,5.63-2.39,5.63-2.39.2-.08.42.02.5.21s-.02.42-.21.5c0,0-2.82,1.25-5.62,2.34-2.65,1.03-5.41,1.81-5.72,1.89-.32.08-2.56.68-4.59.83-1.87.13-3.56-.19-3.56-.19-.21-.02-.36-.2-.34-.41Z" fill="#fff" stroke-width="0"/>
    <path id="outerRing3_path6" d="M103.31,542.28c-.09-.19,0-.42.18-.51,0,0,3.05-1.4,6.75-3.33,3.21-1.68,7.4-3.99,11.92-6.7,2.42-1.45,5.32-3.3,7.85-4.92,3.4-2.17,6.38-4.21,9.55-6.43,9.8-6.89,15.54-11.45,17.83-13.26,1.47-1.16,14.45-11.42,25.31-22.04,2.57-2.51,7.09-7.16,9.3-9.56,6.41-6.97,8.76-10.56,8.76-10.56.15-.15.39-.16.54-.01s.16.39.01.54c0,0-2.32,3.55-8.7,10.48-2.22,2.41-6.77,7.09-9.37,9.62-10.88,10.63-23.92,20.92-25.54,22.23-2.12,1.71-7.93,6.3-17.66,13.15-3.17,2.23-6.17,4.28-9.58,6.46-2.56,1.64-5.51,3.52-7.96,4.99-4.45,2.67-8.58,4.95-11.77,6.62-3.79,1.98-6.9,3.41-6.9,3.41-.19.09-.41,0-.5-.19Z" fill="#fff" stroke-width="0"/>
    <path id="outerRing3_path5" d="M201.4,464.8c-.18-.12-.23-.35-.11-.53,0,0,2.32-3.31,3.64-5.71,1.12-2.05,1.62-3.3,2.02-4.53.29-.88.54-2.06.32-3.3-.09-.51-.22-.96-.44-1.29-.34-.52-.77-.79-.77-.79-.13-.17-.1-.41.07-.54s.41-.1.54.07c0,0,.4.28.73.81.26.41.45.98.57,1.61.25,1.33.03,2.56-.26,3.46-.45,1.39-.96,2.61-2.14,4.79-1.33,2.47-3.65,5.82-3.65,5.82-.12.17-.35.22-.53.1Z" fill="#fff" stroke-width="0"/>
    <path id="outerRing3_path4" d="M205.64,447.98c-.09.19-.32.27-.51.18,0,0-.53-.19-1.13-.3-.49-.09-1.01-.1-1.3-.12-.64-.04-1.49.01-1.49.01-.21.02-.4-.14-.41-.35s.14-.4.35-.41c0,0,1-.05,1.65,0,.28.02.84.04,1.35.14.68.13,1.32.35,1.32.35.19.09.26.32.17.51Z" fill="#fff" stroke-width="0"/>
    <circle id="outerRing3_dot5" cx="199.28" cy="447.62" r=".38" fill="#fff" stroke-width="0"/>
    <path id="outerRing3_path3" d="M198.62,447.77c.05.2-.08.41-.29.46,0,0-.62.12-1.25.27s-1.27.32-1.27.32c-.21.05-.41-.08-.46-.29s.08-.41.29-.46c0,0,.66-.18,1.29-.32s1.22-.27,1.23-.27c.2-.04.4.09.45.29Z" fill="#fff" stroke-width="0"/>
    <path id="outerRing3_path2" d="M195.24,448.58c.06.2-.05.41-.24.48,0,0-.6.18-1.22.38s-1.24.43-1.24.43c-.2.06-.42-.05-.48-.25s.05-.42.25-.48c0,0,.64-.23,1.26-.43s1.2-.37,1.2-.37c.2-.06.41.05.47.25Z" fill="#fff" stroke-width="0"/>
    <path id="outerRing3_path1" d="M191.92,449.7c.07.2-.03.42-.22.49,0,0-.59.21-1.2.44s-1.21.49-1.21.49c-.2.07-.42-.03-.49-.23s.03-.42.23-.49c0,0,.63-.26,1.24-.5s1.18-.43,1.18-.43c.2-.07.41.03.49.23Z" fill="#fff" stroke-width="0"/>
    <circle id="outerRing3_dot4" cx="187.91" cy="451.26" r=".38" fill="#fff" stroke-width="0"/>
    <circle id="outerRing3_dot3" cx="185.79" cy="452.19" r=".38" fill="#fff" stroke-width="0"/>
    <circle id="outerRing3_dot2" cx="183.65" cy="453.16" r=".32" fill="#fff" stroke-width="0"/>
    <circle id="outerRing3_dot1" cx="181.56" cy="454.2" r=".2" fill="#fff" stroke-width="0"/>
  </g>
  <g id="outerRing2">
    <circle id="outerRing2_dot10" cx="106.56" cy="409.29" r=".16" fill="#fff" stroke-width="0"/>
    <circle id="outerRing2_dot9" cx="105.19" cy="408.83" r=".23" fill="#fff" stroke-width="0"/>
    <circle id="outerRing2_dot8" cx="103.8" cy="408.39" r=".3" fill="#fff" stroke-width="0"/>
    <circle id="outerRing2_dot7" cx="100.48" cy="407.45" r=".3" fill="#fff" stroke-width="0"/>
    <circle id="outerRing2_dot6" cx="99.84" cy="407.3" r=".3" fill="#fff" stroke-width="0"/>
    <circle id="outerRing2_dot5" cx="99.14" cy="407.12" r=".3" fill="#fff" stroke-width="0"/>
    <path id="outerRing2_path9" d="M102.85,408.1c-.04.16-.2.25-.36.21,0,0-1.29-.36-1.29-.36-.16-.04-.25-.2-.21-.36s.2-.25.36-.21c0,0,1.29.36,1.29.36.15.05.24.2.2.36Z" fill="#fff" stroke-width="0"/>
    <path id="outerRing2_path8" d="M98.41,406.96c-.03.16-.18.26-.34.23,0,0-.98-.2-1.96-.37s-1.96-.32-1.96-.32c-.16-.03-.26-.19-.23-.35s.19-.26.35-.23c0,0,.98.14,1.96.31s1.97.37,1.97.37c.16.03.26.19.23.35Z" fill="#fff" stroke-width="0"/>
    <path id="outerRing2_path7" d="M92.38,406.01c0,.16-.14.29-.3.28,0,0-1.44-.14-2.86-.05s-2.81.46-2.82.46c-.16.03-.32-.07-.35-.23s.07-.32.23-.35c0,0,1.45-.37,2.91-.47s2.92.04,2.92.04c.16.01.28.15.28.31Z" fill="#fff" stroke-width="0"/>
    <path id="outerRing2_path6" d="M85.32,406.78c.07.14.01.32-.13.39,0,0-.78.21-1.73,1.26-.43.48-.7,1-.92,1.7-.14.47-.15.84-.16,1.35-.02,1.46.56,2.87.56,2.87.05.16-.04.32-.19.37s-.32-.04-.37-.19c0,0-.58-1.54-.54-3.12.02-.53.02-1,.17-1.5.25-.84.54-1.33,1.04-1.91.95-1.1,1.88-1.37,1.88-1.37.15-.07.32,0,.39.14Z" fill="#fff" stroke-width="0"/>
    <path id="outerRing2_path5" d="M82.81,414.89c.14-.07.32-.02.39.13,0,0,.52,1.25,1.13,2.32s1.71,2.9,4.58,6.28c2.5,2.93,5.99,6.34,9.97,9.56,3.31,2.67,6.81,5.4,10.26,7.72,8.35,5.62,15.87,9.52,15.87,9.52.13.1.15.29.05.41s-.29.15-.41.05c0,0-7.5-3.9-15.84-9.53-3.45-2.32-6.95-5.06-10.27-7.74-4-3.24-7.52-6.67-10.05-9.63-2.93-3.43-4.16-5.46-4.68-6.38-.58-1.02-1.13-2.32-1.13-2.32-.07-.14,0-.32.13-.39Z" fill="#fff" stroke-width="0"/>
    <path id="outerRing2_path4" d="M125.15,450.91c.08-.14.25-.2.39-.12,0,0,2.33,1.12,3.22,1.58.45.23,9.3,4.7,19.19,7.5,2.36.67,4.94,1.25,7.4,1.56,2.7.34,5.25.36,7.14,0,1.31-.25,2.47-.78,3.17-1.43,1.05-.97,1.33-2.05,1.33-2.05.07-.15.25-.21.39-.14s.21.25.14.39c0,0-.32,1.12-1.48,2.13-.78.68-2.05,1.29-3.46,1.57-1.95.39-4.59.38-7.33.05-2.51-.3-5.11-.89-7.41-1.54-9.96-2.82-18.9-7.3-19.36-7.53-.89-.45-3.22-1.58-3.22-1.58-.14-.08-.19-.25-.12-.4Z" fill="#fff" stroke-width="0"/>
    <path id="outerRing2_path3" d="M167.47,457.36c-.16,0-.3-.11-.31-.27,0,0,.05-.49-.03-1.49-.03-.4-.29-1.85-.95-3.26-.95-2.05-2.41-4.17-2.41-4.17-.07-.15,0-.32.15-.39s.32,0,.39.15c0,0,1.42,2.08,2.37,4.14.7,1.51,1.01,3.08,1.04,3.49.08,1,.03,1.5.03,1.5,0,.16-.12.3-.28.3Z" fill="#fff" stroke-width="0"/>
    <path id="outerRing2_path2" d="M163.54,447.35c-.12.11-.31.09-.41-.03,0,0-1.21-1.53-2.2-2.71-.79-.94-1.87-2.08-1.87-2.08-.11-.12-.11-.31.01-.42s.31-.11.42.01c0,0,.99,1.06,1.87,2.09s2.21,2.73,2.21,2.73c.1.12.09.31-.03.41Z" fill="#fff" stroke-width="0"/>
    <path id="outerRing2_path1" d="M158.73,441.76c-.12.11-.31.09-.41-.03,0,0-.28-.28-.52-.53s-.46-.47-.46-.47c-.11-.12-.11-.31.01-.42s.31-.11.42.01c0,0,.24.23.47.48s.54.55.54.55c.1.12.09.31-.03.41Z" fill="#fff" stroke-width="0"/>
    <circle id="outerRing2_dot4" cx="156.21" cy="439.23" r=".3" fill="#fff" stroke-width="0"/>
    <circle id="outerRing2_dot3" cx="155.07" cy="438.18" r=".3" fill="#fff" stroke-width="0"/>
    <circle id="outerRing2_dot2" cx="153.47" cy="436.71" r=".22" fill="#fff" stroke-width="0"/>
    <circle id="outerRing2_dot1" cx="152.07" cy="435.53" r=".14" fill="#fff" stroke-width="0"/>
  </g>
  <g id="outerRing1">
    <circle id="outerRing1_dot8" cx="139.12" cy="365.96" r=".08" fill="#fff" stroke-width="0"/>
    <circle id="outerRing1_dot7" cx="140.15" cy="365.37" r=".15" fill="#fff" stroke-width="0"/>
    <circle id="outerRing1_dot6" cx="141.16" cy="364.82" r=".2" fill="#fff" stroke-width="0"/>
    <circle id="outerRing1_dot5" cx="142.17" cy="364.29" r=".2" fill="#fff" stroke-width="0"/>
    <path id="outerRing1_path11" d="M143.32,363.7c.05.1.01.22-.09.27,0,0-.21.11-.21.11-.1.05-.22.01-.27-.09s-.01-.22.09-.27c0,0,.21-.11.21-.11.1-.05.22,0,.27.09Z" fill="#fff" stroke-width="0"/>
    <path id="outerRing1_path10" d="M145.34,362.72c.05.1.01.22-.09.27,0,0-.37.17-.72.34s-.69.34-.69.34c-.1.05-.22.01-.27-.09s-.01-.22.09-.27c0,0,.34-.17.69-.34s.72-.34.73-.34c.1-.05.22,0,.27.09Z" fill="#fff" stroke-width="0"/>
    <path id="outerRing1_path9" d="M147.61,361.76c.04.1,0,.22-.1.27,0,0-.38.15-.74.3s-.71.3-.71.3c-.1.05-.22,0-.27-.1s0-.22.1-.27c0,0,.35-.15.7-.3s.74-.3.74-.3c.1-.04.22,0,.27.11Z" fill="#fff" stroke-width="0"/>
    <circle id="outerRing1_dot4" cx="145.57" cy="362.63" r=".2" fill="#fff" stroke-width="0"/>
    <path id="outerRing1_path8" d="M157.11,359.37c0,.11-.09.2-.2.2,0,0-.91.04-2.08.23-.68.11-1.44.27-2.18.46-1.65.42-3.15.98-3.32,1.04-.36.14-.72.27-.72.27-.1.04-.22,0-.26-.11s0-.22.11-.26c0,0,.35-.14.71-.27.17-.06,1.7-.62,3.4-1.05.73-.19,1.49-.35,2.17-.46,1.22-.19,2.17-.24,2.17-.24.11,0,.2.09.2.2Z" fill="#fff" stroke-width="0"/>
    <path id="outerRing1_path7" d="M161.6,365.89c-.11-.02-.18-.12-.17-.23,0,0,.48-1.62.4-2.8-.05-.69-.22-1.36-.74-1.92-.65-.71-1.23-.98-1.9-1.18-.88-.26-1.65-.18-1.65-.18-.11,0-.21-.09-.21-.2s.09-.21.2-.21c0,0,.84-.05,1.78.25.74.23,1.32.47,2.07,1.26.52.55.79,1.44.83,2.12.08,1.23-.4,2.92-.4,2.92-.02.11-.12.18-.23.16Z" fill="#fff" stroke-width="0"/>
    <path id="outerRing1_path6" d="M145.19,386.01c-.07-.08-.06-.21.02-.28,0,0,2.98-2.55,6.13-5.73,1.42-1.43,2.85-3.01,4.09-4.52,1.41-1.72,2.64-3.37,3.53-4.8,1.65-2.66,2.33-4.53,2.33-4.53.05-.1.17-.14.27-.09s.14.17.09.27c0,0-.69,1.89-2.35,4.56-.89,1.44-2.12,3.09-3.54,4.82-1.25,1.52-2.68,3.1-4.1,4.54-3.17,3.22-6.18,5.79-6.18,5.79-.09.07-.21.06-.28-.02Z" fill="#fff" stroke-width="0"/>
    <path id="outerRing1_path5" d="M145.08,386.08c.07.08.07.21-.01.28,0,0-3.51,3.12-8.59,6.64-2.12,1.46-4.35,2.96-6.89,4.47-2.2,1.32-4.6,2.55-6.94,3.61-1.31.59-2.61,1.15-3.84,1.61-2.36.87-4.59,1.48-6.33,1.7-2.07.25-3.44.03-3.44.03-.11-.03-.17-.14-.14-.25s.14-.17.25-.14c0,0,1.29.25,3.3,0,1.69-.2,3.88-.81,6.27-1.71,1.21-.45,2.51-.96,3.78-1.59,2.34-1.16,4.73-2.3,6.91-3.61,2.52-1.5,4.67-2.96,6.76-4.42,5.05-3.5,8.63-6.65,8.63-6.65.08-.07.21-.06.28.02Z" fill="#fff" stroke-width="0"/>
    <path id="outerRing1_path4" d="M106.92,395.92c.1.04.15.16.11.26,0,0-.54,1.11-.87,2.45-.18.74-.27,1.56-.23,2.26.05.81.37,1.6.84,2.08.68.7,1.59.87,1.59.87.11.03.17.15.13.26s-.15.17-.26.13c0,0-1.05-.3-1.78-1.06-.52-.54-.88-1.42-.93-2.25-.05-.73.06-1.6.25-2.38.34-1.37.88-2.52.88-2.52.04-.1.16-.15.26-.11Z" fill="#fff" stroke-width="0"/>
    <path id="outerRing1_path3" d="M108.15,393.63c.1.05.14.17.09.27,0,0-.2.35-.39.7s-.36.68-.36.68c-.05.1-.18.14-.28.09s-.14-.18-.09-.28c0,0,.18-.34.36-.68s.39-.7.39-.7c.05-.1.17-.13.27-.08Z" fill="#fff" stroke-width="0"/>
    <path id="outerRing1_path2" d="M108.8,392.63c.09.06.12.18.07.28,0,0-.25.38-.25.38-.06.1-.19.12-.28.07s-.12-.19-.07-.28c0,0,.25-.38.25-.38.06-.09.18-.12.28-.06Z" fill="#fff" stroke-width="0"/>
    <path id="outerRing1_path1" d="M109.45,391.69c.09.06.11.19.05.28,0,0-.14.19-.14.2-.06.09-.19.12-.28.05s-.12-.19-.05-.28c0,0,.14-.19.14-.19.07-.09.19-.11.28-.05Z" fill="#fff" stroke-width="0"/>
    <circle id="outerRing1_dot3" cx="109.86" cy="391.1" r=".2" fill="#fff" stroke-width="0"/>
    <circle id="outerRing1_dot2" cx="110.55" cy="390.16" r=".14" fill="#fff" stroke-width="0"/>
    <circle id="outerRing1_dot1" cx="111.24" cy="389.27" r=".08" fill="#fff" stroke-width="0"/>
  </g>
  <g id="bigRingsCutout">
    <path id="bigRingsCutout_lgRing2" d="M268.1,102.72c33.5-15.91,66.09-29.62,96.35-40.78-.17-.48-.32-.96-.46-1.45-30.35,11.15-63.02,24.87-96.57,40.8C132.79,165.25,34.9,240.79,48.79,270.03c5.72,12.05,29.55,14.35,65,8.41v-1.35c-34.57,5.86-57.73,3.72-63.25-7.89-13.51-28.45,83.89-102.99,217.56-166.48Z" fill="#fff" stroke-width="0"/>
    <path id="bigRingsCutout_lgRing1" d="M536.35,38.44c-8.42-17.73-56.01-14.36-122.18,5.3.17.45.33.9.48,1.36,65.11-19.45,111.79-22.99,119.94-5.82,7.22,15.2-17.23,43.56-61.96,76.37.22.42.44.84.65,1.26,45.61-33.55,70.54-62.71,63.06-78.45Z" fill="#fff" stroke-width="0"/>
    <path id="bigRingsCutout_smRing2" d="M101.89,299.2c-10.28-11.87,13.31-50.46,57.07-98.31-.27-.31-.52-.63-.76-.96-44.17,48.48-67.86,87.78-57.23,100.06,2.55,2.94,6.91,4.15,12.81,3.79v-.98c-5.48.29-9.53-.86-11.9-3.6Z" fill="#fff" stroke-width="0"/>
    <path id="bigRingsCutout_smRing1" d="M437.37,8.81c-16.06-18.56-104.39,31.58-197.29,111.99-23.09,19.99-44.29,39.97-62.87,58.99.36.23.71.48,1.05.74,18.54-18.91,39.68-38.8,62.69-58.72C333.35,41.84,420.88-8.4,436.46,9.6c6.07,7.02.32,23.36-14.43,45.43.27.21.53.42.79.63,15.05-22.67,20.88-39.54,14.55-46.85Z" fill="#fff" stroke-width="0"/>
  </g>
  <g id="bigStarString">
    <path id="bigStarString_star" d="M570.91,350.61c-.06-.12-.06-.27,0-.39l16.54-33.27c.14-.28-.05-.62-.37-.64l-37.09-2.31c-.14,0-.26-.08-.34-.2l-20.54-30.96c-.18-.26-.56-.26-.74,0l-20.54,30.96c-.08.12-.2.19-.34.2l-37.09,2.31c-.32.02-.51.36-.37.64l16.54,33.27c.06.12.06.27,0,.39l-16.54,33.27c-.14.28.05.62.37.64l37.09,2.31c.14,0,.26.08.34.2l20.54,30.96c.18.26.56.26.74,0l20.54-30.96c.08-.12.2-.19.34-.2l37.09-2.31c.32-.02.51-.36.37-.64l-16.54-33.27ZM564.22,350.66l13.75,27.65c.17.35-.07.76-.46.79l-30.82,1.92c-.17.01-.33.1-.42.24l-17.07,25.73c-.22.33-.69.33-.91,0l-17.07-25.73c-.09-.14-.25-.23-.42-.24l-30.82-1.92c-.39-.02-.63-.44-.46-.79l13.75-27.65c.08-.15.08-.33,0-.49l-13.75-27.65c-.17-.35.07-.76.46-.79l30.82-1.92c.17-.01.33-.1.42-.24l17.07-25.73c.22-.33.69-.33.91,0l17.07,25.73c.09.14.25.23.42.24l30.82,1.92c.39.02.63.44.46.79l-13.75,27.65c-.08.15-.08.33,0,.49Z" fill="#fff" stroke-width="0"/>
    <path id="bigStarString_string" d="M528.36,265.84s-.08.09.41.09.41-.09.41-.09V83.33s-.11-.13-.41-.13-.41.13-.41.13v182.51Z" fill="#fff" stroke-width="0"/>
    <circle id="bigStarString_dot5" cx="528.77" cy="267.36" r=".7" fill="#fff" stroke-width="0"/>
    <circle id="bigStarString_dot4" cx="528.77" cy="270.27" r=".7" fill="#fff" stroke-width="0"/>
    <circle id="bigStarString_dot3" cx="528.77" cy="274.55" r=".7" fill="#fff" stroke-width="0"/>
    <circle id="bigStarString_dot2" cx="528.77" cy="280.24" r=".7" fill="#fff" stroke-width="0"/>
    <circle id="bigStarString_dot1" cx="528.77" cy="76.13" r=".7" fill="#fff" stroke-width="0"/>
  </g>
  <g id="medStarString">
    <path id="medStarString_circle" d="M169.66,177.58c-7.8,0-14.12,6.32-14.12,14.12s6.32,14.12,14.12,14.12,14.12-6.32,14.12-14.12-6.32-14.12-14.12-14.12ZM169.66,204.12c-6.86,0-12.42-5.56-12.42-12.42s5.56-12.42,12.42-12.42,12.42,5.56,12.42,12.42-5.56,12.42-12.42,12.42Z" fill="#fff" stroke-width="0"/>
    <path id="medStarString_string3" d="M169.25,267.43s-.08.03.41.03.41-.03.41-.03v-56.84s-.11-.04-.41-.04-.41.04-.41.04v56.84Z" fill="#fff" stroke-width="0"/>
    <path id="medStarString_string2" d="M169.25,342.13s-.08.03.41.03.41-.03.41-.03v-56.84s-.11-.04-.41-.04-.41.04-.41.04v56.84Z" fill="#fff" stroke-width="0"/>
    <path id="medStarString_string1" d="M169.25,415.59s-.08.03.41.03.41-.03.41-.03v-56.84s-.11-.04-.41-.04-.41.04-.41.04v56.84Z" fill="#fff" stroke-width="0"/>
    <circle id="medStarString_dot4" cx="169.66" cy="207.34" r=".7" fill="#fff" stroke-width="0"/>
    <circle id="medStarString_dot3" cx="169.66" cy="276.36" r="2.29" fill="#fff" stroke-width="0"/>
    <circle id="medStarString_dot2" cx="169.66" cy="350.43" r="2.29" fill="#fff" stroke-width="0"/>
    <path id="medStarString_star" d="M170.03,420.25l3.05,4.59c.08.12.2.19.34.2l5.5.34c.32.02.51.36.37.64l-2.45,4.94c-.06.13-.06.27,0,.4l2.45,4.94c.14.29-.05.62-.37.64l-5.5.34c-.14,0-.27.08-.34.2l-3.05,4.59c-.18.27-.57.27-.74,0l-3.05-4.59c-.08-.12-.2-.19-.34-.2l-5.5-.34c-.32-.02-.51-.36-.37-.64l2.45-4.94c.06-.13.06-.27,0-.4l-2.45-4.94c-.14-.29.05-.62.37-.64l5.5-.34c.14,0,.27-.08.34-.2l3.05-4.59c.18-.27.57-.27.74,0Z" fill="#fff" stroke-width="0"/>
    <circle id="medStarString_dot1" cx="169.66" cy="417.42" r=".7" fill="#fff" stroke-width="0"/>
  </g>
  <g id="smallStarString">
    <circle id="smallStarString_circle" cx="195.59" cy="140.86" r="7.61" fill="#fff" stroke-width="0"/>
    <path id="smallStarString_string" d="M195.18,295.6s-.08.07.41.07.41-.07.41-.07v-139.09s-.11-.1-.41-.1-.41.1-.41.1v139.09Z" fill="#fff" stroke-width="0"/>
    <circle id="smallStarString_dot2" cx="195.59" cy="152.26" r=".7" fill="#fff" stroke-width="0"/>
    <path id="smallStarString_star" d="M195.96,304.06l1.35,2.03c.08.12.2.19.34.2l2.43.15c.32.02.51.36.37.64l-1.09,2.18c-.06.13-.06.27,0,.4l1.09,2.18c.14.29-.05.62-.37.64l-2.43.15c-.14,0-.27.08-.34.2l-1.35,2.03c-.18.27-.57.27-.74,0l-1.35-2.03c-.08-.12-.2-.19-.34-.2l-2.43-.15c-.32-.02-.51-.36-.37-.64l1.09-2.18c.06-.13.06-.27,0-.4l-1.09-2.18c-.14-.29.05-.62.37-.64l2.43-.15c.14,0,.27-.08.34-.2l1.35-2.03c.18-.27.57-.27.74,0Z" fill="#fff" stroke-width="0"/>
    <circle id="smallStarString_dot1" cx="195.59" cy="299.76" r=".7" fill="#fff" stroke-width="0"/>
  </g>
  <g id="setlist">
    <g id="setlistGroup">
      <path id="set_S" d="M243.54,179.74c.5-12.31-16.35-13.18-16.35-23.19,0-4.75,3.82-7.2,7.92-7.2,2.16,0,3.31.65,4.03,1.01.29.14.5.29.72.29.29,0,.36-.22.36-.72,0-.14,0-.43-.07-.65h.29l2.16,6.26h-.36c-.79-1.66-2.74-5.83-7.06-5.83-3.1,0-5.83,2.16-5.83,5.83,0,9.14,17.35,11.02,16.71,23.47-.36,7.06-6.34,12.31-13.75,11.95-7.06-.36-11.45-5.62-11.16-10.37.22-4.18,3.89-7.34,7.78-7.06,2.95.22,5.11,2.3,4.9,4.46-.07.86-.58,1.87-1.37,2.3-.07-.07-.14-.22-.14-.29.5-.36.94-.94.94-1.87.07-2.23-1.8-4.1-4.18-4.25-3.38-.22-5.9,2.95-6.12,6.77-.29,4.61,3.1,9.5,9.36,9.79,6.48.29,11.02-4.61,11.23-10.73Z" fill="#fff" stroke-width="0"/>
      <path id="set_E" d="M251.46,156.05v9.29c0,.43.36.79.79.79h6.12c.86,0,2.66-.94,2.66-2.74h.36v5.98h-.36c0-1.87-1.8-2.81-2.66-2.81h-6.12c-.43,0-.79.36-.79.79v19.08c0,.43.36.79.79.79h8.06c2.88,0,4.9-4.1,4.9-4.1h.36l-2.59,5.76h-.36c.29-1.08-1.01-1.22-2.02-1.22h-12.82v-.43h.58c.36,0,.79-.36.79-.79v-30.39c0-.43-.43-.79-.79-.79h-.58v-.43h12.17c.58,0,2.59.14,2.02-1.22h.36l2.52,5.62h-.36s-1.94-3.96-4.82-3.96h-7.42c-.43,0-.79.36-.79.79Z" fill="#fff" stroke-width="0"/>
      <path id="set_T" d="M285.02,153.89h.36l2.45,5.47h-.36s-1.87-3.82-4.75-3.82h-3.74c-.43,0-.79.36-.79.79v30.1c0,.43.36.79.79.79h.65v.43h-5.11v-.43h.58c.36,0,.79-.36.79-.79v-30.24c0-.43-.29-.65-.79-.65h-3.74c-2.88,0-4.75,3.82-4.75,3.82h-.36l2.45-5.47h.36c-.36,1.22,1.01,1.22,2.02,1.22h11.95c.94,0,2.38-.07,2.02-1.22Z" fill="#fff" stroke-width="0"/>
      <path id="list_L" d="M314.75,187.23h.58c.36,0,.79-.36.79-.79v-35.35c0-.43-.36-.79-.79-.79h-4.39c-7.13,0-10.87,5.11-10.95,10.8,0,4.97,2.88,10.58,9.22,10.58,2.38,0,3.6-1.15,3.89-1.66l.43.14c-.29.79-1.73,1.94-4.54,1.94-7.34,0-11.38-5.33-11.38-10.8,0-5.9,4.39-11.45,13.32-11.45h8.86v.43h-.58c-.43,0-.79.36-.79.79v35.35c0,.43.36.79.79.79h6.98c2.88,0,4.9-4.1,4.9-4.1h.36l-2.59,5.76h-.36c.29-1.08-1.01-1.22-2.02-1.22h-11.74v-.43Z" fill="#fff" stroke-width="0"/>
      <path id="list_I" d="M337.43,187.23h.58v.43h-5.04v-.43h.58c.36,0,.79-.36.79-.79v-30.39c0-.43-.36-.79-.79-.79h-.58v-.43h5.04v.43h-.58c-.43,0-.79.36-.79.79v30.39c0,.43.36.79.79.79Z" fill="#fff" stroke-width="0"/>
      <path id="list_S" d="M356.94,179.24c0-9-14.26-10.3-14.26-18.65,0-4.25,3.31-6.26,7.2-6.26,2.67,0,3.67,1.08,4.1,1.08.22,0,.36-.22.36-.58,0-.14,0-.36-.07-.65h.36l2.16,5.98h-.43c-.29-.65-2.52-5.47-6.41-5.47-2.88,0-5.18,1.8-5.18,5.04,0,7.7,14.47,8.5,14.47,18.87,0,5.76-4.82,10.08-10.73,10.08s-9.58-3.74-9.58-7.71c0-3.31,2.38-5.98,6.12-6.12,2.3-.07,4.25,1.3,4.25,3.24,0,.79-.36,1.66-1.15,1.94l-.22-.29c.5-.22.86-.65.86-1.44,0-1.8-1.58-3.24-3.6-3.1-2.52.14-4.39,2.88-4.39,5.76,0,3.82,3.1,7.2,7.71,7.27,4.39,0,8.42-3.6,8.42-9Z" fill="#fff" stroke-width="0"/>
      <path id="list_T" d="M379.12,153.89h.36l2.45,5.47h-.36s-1.87-3.82-4.75-3.82h-3.74c-.43,0-.79.36-.79.79v30.1c0,.43.36.79.79.79h.65v.43h-5.11v-.43h.58c.36,0,.79-.36.79-.79v-30.24c0-.43-.29-.65-.79-.65h-3.74c-2.88,0-4.75,3.82-4.75,3.82h-.36l2.45-5.47h.36c-.36,1.22,1.01,1.22,2.02,1.22h11.95c.94,0,2.38-.07,2.02-1.22Z" fill="#fff" stroke-width="0"/>
    </g>
  </g>
</svg>