<?xml version="1.0" encoding="UTF-8"?>
<svg version="1.1" xmlns="http://www.w3.org/2000/svg" width="332" height="277">
    <path
        d="M0 0 C1.14548813 -0.01328842 2.29097626 -0.02657684 3.47117615 -0.04026794 C7.25396671 -0.07892514 11.03637268 -0.09455387 14.81933594 -0.10668945 C17.4548145 -0.1214127 20.0902922 -0.13629229 22.72576904 -0.15132141 C28.25029536 -0.17962482 33.77472665 -0.19188233 39.29931641 -0.19824219 C45.6651987 -0.20610501 52.02987345 -0.2553091 58.39537072 -0.32330769 C64.53997546 -0.38663092 70.68399545 -0.40544613 76.82891083 -0.40830421 C79.43317414 -0.41552126 82.03743661 -0.43594177 84.64148712 -0.47000694 C88.29201025 -0.51411105 91.93917573 -0.50724605 95.58984375 -0.48828125 C96.65720261 -0.51233032 97.72456146 -0.53637939 98.82426453 -0.56115723 C107.23459267 -0.43301836 111.60962458 2.72446831 117.55371094 8.4675293 C118.27047123 9.13946477 118.98723152 9.81140024 119.72571182 10.5036974 C121.60604109 12.28730163 123.42847257 14.11539408 125.24121094 15.9675293 C125.89057617 16.62551514 126.53994141 17.28350098 127.20898438 17.96142578 C131.49502841 22.32806302 135.69644958 26.71343291 139.55371094 31.4675293 C139.95509277 31.95511719 140.35647461 32.44270508 140.77001953 32.94506836 C165.70533844 63.34087243 175.93128009 96.5808571 172.23730469 135.8293457 C171.37579486 142.45690733 170.06232674 148.95997221 168.55371094 155.4675293 C168.38242676 156.24418945 168.21114258 157.02084961 168.03466797 157.82104492 C162.66618616 181.6465838 151.37070391 203.9193288 135.55371094 222.4675293 C130.51188877 228.45213122 125.52472992 234.42694414 120.86621094 240.7175293 C116.24535811 246.95486421 111.37861272 253.28983883 105.55371094 258.4675293 C104.89371094 258.4675293 104.23371094 258.4675293 103.55371094 258.4675293 C103.28558594 259.1069043 103.01746094 259.7462793 102.74121094 260.4050293 C101.55371094 262.4675293 101.55371094 262.4675293 98.55371094 263.4675293 C98.22371094 264.4575293 97.89371094 265.4475293 97.55371094 266.4675293 C92.1021472 273.320553 86.07208161 277.46932963 77.25085449 278.49398804 C70.10576802 278.96879093 62.96443457 278.94320943 55.80887127 278.84631515 C52.17809008 278.80686139 48.54748884 278.82437036 44.91656494 278.83332825 C38.82721562 278.83958473 32.73937041 278.80189971 26.65039062 278.73681641 C19.63432473 278.66231223 12.62067579 278.65547269 5.60433173 278.68515509 C-1.18230306 278.71250156 -7.96807886 278.69431113 -14.75463104 278.65487099 C-17.62696449 278.63881035 -20.49868982 278.63792251 -23.37104034 278.64958763 C-27.38733441 278.66324702 -31.40014261 278.61002618 -35.41601562 278.55029297 C-36.59236572 278.56177368 -37.76871582 278.57325439 -38.98071289 278.58508301 C-47.77651056 278.37084779 -52.19645586 275.47007146 -58.44628906 269.4675293 C-59.83594425 268.29351044 -61.23076411 267.12553741 -62.63378906 265.9675293 C-70.61727432 258.84626045 -76.58131079 250.35238026 -82.44628906 241.4675293 C-83.12949219 240.43499023 -83.81269531 239.40245117 -84.51660156 238.33862305 C-102.29332146 210.48842854 -110.57403684 177.84548421 -105.94628906 144.90893555 C-105.34786493 140.29008062 -105.17539785 135.65468285 -104.95339966 131.00518799 C-103.636672 103.64620576 -103.636672 103.64620576 -99.44628906 90.4675293 C-99.20249512 89.64929688 -98.95870117 88.83106445 -98.70751953 87.98803711 C-89.4017304 56.80137654 -71.82037819 31.9587485 -43.06347656 16.1237793 C-40.54131063 14.52766235 -39.066861 13.06736078 -37.19628906 10.7800293 C-33.04408677 6.17448482 -27.09733029 5.5613338 -21.28613281 4.3894043 C-17.53103353 3.69355803 -17.53103353 3.69355803 -14.92169189 1.93913269 C-9.94417027 -0.16851873 -5.35452925 0.00887495 0 0 Z "
        fill="#FCF6D5" transform="translate(134.4462890625,-0.467529296875)" />
    <path
        d="M0 0 C1.30477193 0.81266072 2.60171559 1.63884146 3.875 2.5 C3.875 3.16 3.875 3.82 3.875 4.5 C4.71224609 4.67015625 4.71224609 4.67015625 5.56640625 4.84375 C9.07832024 5.84206058 12.12689125 7.63547232 15.33984375 9.34375 C20.4603914 11.67916156 25.27707556 11.56185645 30.8125 11.4375 C39.5749722 11.33189366 48.49629419 11.70709806 56.875 14.5 C56.875 15.16 56.875 15.82 56.875 16.5 C57.49375 16.603125 58.1125 16.70625 58.75 16.8125 C60.875 17.5 60.875 17.5 62.875 20.5 C62.97509766 23.58422852 62.97509766 23.58422852 62.7890625 27.37890625 C62.73803681 28.78164035 62.68988745 30.18448139 62.64428711 31.58740234 C62.61930145 32.319328 62.5943158 33.05125366 62.568573 33.80535889 C62.13108395 48.20569945 63.29718623 58.90769212 70.875 71.5 C72.20298292 75.48394876 72.09832082 79.14054275 72.125 83.3125 C72.1559375 84.50456055 72.1559375 84.50456055 72.1875 85.72070312 C72.23003861 92.14935095 70.83461198 96.22261311 66.5625 101.1875 C62.17509166 104.96271183 57.33207331 106.79309886 51.90234375 108.55859375 C46.06549037 111.26896305 43.51552826 115.2978399 40.75 120.8125 C40.41613281 121.45123047 40.08226562 122.08996094 39.73828125 122.74804688 C37.24238973 127.57833106 34.93636571 132.49279716 33.125 137.625 C30.38402074 141.73646889 26.31671397 143.98098297 21.75 145.625 C13.39531039 145.35549388 5.95746472 141.27955068 -1.0625 137 C-11.9091429 130.43191413 -24.1236148 126.57344975 -36.8203125 126.41015625 C-37.66182861 126.39178711 -38.50334473 126.37341797 -39.37036133 126.35449219 C-41.04706379 126.32706539 -42.72462416 126.33028459 -44.40112305 126.36816406 C-48.51350177 126.30542496 -51.52339534 125.82529565 -54.67578125 123.05859375 C-58.78461292 117.46402672 -57.69280422 109.85861593 -57.5475769 103.24075317 C-57.25416097 87.87979849 -58.56713335 76.11652458 -66.125 62.5 C-68.35686256 56.69715734 -69.39398456 51.26770674 -67.3671875 45.25 C-65.60469775 41.47521881 -63.91429298 38.52095625 -60.125 36.5 C-59.465 36.5 -58.805 36.5 -58.125 36.5 C-58.125 35.84 -58.125 35.18 -58.125 34.5 C-57.54492188 34.32984375 -56.96484375 34.1596875 -56.3671875 33.984375 C-55.58601563 33.74203125 -54.80484375 33.4996875 -54 33.25 C-52.85144531 32.90195313 -52.85144531 32.90195313 -51.6796875 32.546875 C-38.13311322 26.99567942 -29.43394358 14.0436643 -23.125 1.5 C-22.465 1.5 -21.805 1.5 -21.125 1.5 C-21.125 0.84 -21.125 0.18 -21.125 -0.5 C-13.80936581 -3.58026703 -6.98263671 -3.88168624 0 0 Z "
        fill="#FBF3CC" transform="translate(164.125,69.5)" />
    <path
        d="M0 0 C1.14548813 -0.01328842 2.29097626 -0.02657684 3.47117615 -0.04026794 C7.25396671 -0.07892514 11.03637268 -0.09455387 14.81933594 -0.10668945 C17.4548145 -0.1214127 20.0902922 -0.13629229 22.72576904 -0.15132141 C28.25029536 -0.17962482 33.77472665 -0.19188233 39.29931641 -0.19824219 C45.6651987 -0.20610501 52.02987345 -0.2553091 58.39537072 -0.32330769 C64.53997546 -0.38663092 70.68399545 -0.40544613 76.82891083 -0.40830421 C79.43317414 -0.41552126 82.03743661 -0.43594177 84.64148712 -0.47000694 C88.29201025 -0.51411105 91.93917573 -0.50724605 95.58984375 -0.48828125 C96.65720261 -0.51233032 97.72456146 -0.53637939 98.82426453 -0.56115723 C107.23459267 -0.43301836 111.60962458 2.72446831 117.55371094 8.4675293 C118.27047123 9.13946477 118.98723152 9.81140024 119.72571182 10.5036974 C121.60604109 12.28730163 123.42847257 14.11539408 125.24121094 15.9675293 C125.89057617 16.62551514 126.53994141 17.28350098 127.20898438 17.96142578 C131.49502841 22.32806302 135.69644958 26.71343291 139.55371094 31.4675293 C139.95509277 31.95511719 140.35647461 32.44270508 140.77001953 32.94506836 C165.70533844 63.34087243 175.93128009 96.5808571 172.23730469 135.8293457 C171.37579486 142.45690733 170.06232674 148.95997221 168.55371094 155.4675293 C168.38242676 156.24418945 168.21114258 157.02084961 168.03466797 157.82104492 C162.66618616 181.6465838 151.37070391 203.9193288 135.55371094 222.4675293 C130.51188877 228.45213122 125.52472992 234.42694414 120.86621094 240.7175293 C116.24535811 246.95486421 111.37861272 253.28983883 105.55371094 258.4675293 C104.89371094 258.4675293 104.23371094 258.4675293 103.55371094 258.4675293 C103.28558594 259.1069043 103.01746094 259.7462793 102.74121094 260.4050293 C101.55371094 262.4675293 101.55371094 262.4675293 98.55371094 263.4675293 C98.22371094 264.4575293 97.89371094 265.4475293 97.55371094 266.4675293 C92.1021472 273.320553 86.07208161 277.46932963 77.25085449 278.49398804 C70.10576802 278.96879093 62.96443457 278.94320943 55.80887127 278.84631515 C52.17809008 278.80686139 48.54748884 278.82437036 44.91656494 278.83332825 C38.82721562 278.83958473 32.73937041 278.80189971 26.65039062 278.73681641 C19.63432473 278.66231223 12.62067579 278.65547269 5.60433173 278.68515509 C-1.18230306 278.71250156 -7.96807886 278.69431113 -14.75463104 278.65487099 C-17.62696449 278.63881035 -20.49868982 278.63792251 -23.37104034 278.64958763 C-27.38733441 278.66324702 -31.40014261 278.61002618 -35.41601562 278.55029297 C-36.59236572 278.56177368 -37.76871582 278.57325439 -38.98071289 278.58508301 C-47.77651056 278.37084779 -52.19645586 275.47007146 -58.44628906 269.4675293 C-59.83594425 268.29351044 -61.23076411 267.12553741 -62.63378906 265.9675293 C-70.61727432 258.84626045 -76.58131079 250.35238026 -82.44628906 241.4675293 C-83.12949219 240.43499023 -83.81269531 239.40245117 -84.51660156 238.33862305 C-102.29332146 210.48842854 -110.57403684 177.84548421 -105.94628906 144.90893555 C-105.34786493 140.29008062 -105.17539785 135.65468285 -104.95339966 131.00518799 C-103.636672 103.64620576 -103.636672 103.64620576 -99.44628906 90.4675293 C-99.20249512 89.64929688 -98.95870117 88.83106445 -98.70751953 87.98803711 C-89.4017304 56.80137654 -71.82037819 31.9587485 -43.06347656 16.1237793 C-40.54131063 14.52766235 -39.066861 13.06736078 -37.19628906 10.7800293 C-33.04408677 6.17448482 -27.09733029 5.5613338 -21.28613281 4.3894043 C-17.53103353 3.69355803 -17.53103353 3.69355803 -14.92169189 1.93913269 C-9.94417027 -0.16851873 -5.35452925 0.00887495 0 0 Z M-37.44628906 31.4675293 C-37.44628906 32.1275293 -37.44628906 32.7875293 -37.44628906 33.4675293 C-38.12691406 33.6944043 -38.80753906 33.9212793 -39.50878906 34.1550293 C-45.42260366 36.79737199 -49.56211665 40.28863275 -53.44628906 45.4675293 C-54.20167969 46.21389648 -54.95707031 46.96026367 -55.73535156 47.72924805 C-69.11446296 61.24330726 -78.26894754 77.24097754 -83.44628906 95.4675293 C-83.80335937 96.65733398 -84.16042969 97.84713867 -84.52832031 99.07299805 C-95.06836449 135.90393892 -96.99948144 184.09341272 -78.26367188 218.64868164 C-70.76387516 231.7248738 -61.92595892 242.73615661 -50.50878906 252.5925293 C-49.91388672 253.11717773 -49.31898437 253.64182617 -48.70605469 254.18237305 C-45.13560434 257.26505695 -41.77009105 259.49605481 -37.44628906 261.4675293 C-36.29515625 262.08370117 -35.14402344 262.69987305 -33.95800781 263.3347168 C-6.41972589 277.94524508 22.86131958 279.49782399 52.55371094 270.4675293 C68.1550074 265.16594457 83.28474724 256.42780353 95.55371094 245.4675293 C96.57851563 244.59741211 96.57851563 244.59741211 97.62402344 243.7097168 C101.36702459 240.51918814 104.55920376 237.39136629 107.55371094 233.4675293 C109.2203776 231.80086263 110.88704427 230.13419596 112.55371094 228.4675293 C119.05849364 221.67744911 124.36234425 214.2687119 129.55371094 206.4675293 C130.15054688 205.60643555 130.74738281 204.7453418 131.36230469 203.8581543 C152.85052968 171.89876192 161.50149276 131.90759881 154.15332031 94.13208008 C146.87442306 61.78603587 128.46146781 35.86862819 101.05371094 17.7175293 C99.23307388 16.61299187 97.39914005 15.53012687 95.55371094 14.4675293 C94.02423828 13.57420898 94.02423828 13.57420898 92.46386719 12.6628418 C52.65758654 -8.98211361 -2.35259296 6.18045486 -37.44628906 31.4675293 Z "
        fill="#FFFFDC" transform="translate(134.4462890625,-0.467529296875)" />
    <path
        d="M0 0 C0.97453125 0.01353516 1.9490625 0.02707031 2.953125 0.04101562 C5.34432863 0.07618038 7.73436975 0.1253933 10.125 0.1875 C7.52093206 2.79156794 4.55841081 3.75723029 1.1875 5.0625 C0.515979 5.32788574 -0.15554199 5.59327148 -0.84741211 5.86669922 C-4.84895221 7.43759307 -8.87597391 8.90271408 -12.9375 10.3125 C-17.04899794 11.77612039 -20.29455892 13.66491651 -23.875 16.1875 C-26.20624929 17.19234883 -28.53943537 18.19272247 -30.875 19.1875 C-32.23661311 20.14863866 -33.57355198 21.14634159 -34.875 22.1875 C-36.54166667 23.1875 -38.20833333 24.1875 -39.875 25.1875 C-42.21948852 26.7749141 -44.55711622 28.37128112 -46.88671875 29.98046875 C-48.875 31.1875 -48.875 31.1875 -50.875 31.1875 C-51.1225 31.77015625 -51.37 32.3528125 -51.625 32.953125 C-53.06025446 35.51864236 -54.65163013 37.02474798 -56.875 38.9375 C-57.926875 39.85789062 -57.926875 39.85789062 -59 40.796875 C-60.875 42.1875 -60.875 42.1875 -62.875 42.1875 C-62.875 42.8475 -62.875 43.5075 -62.875 44.1875 C-63.535 44.1875 -64.195 44.1875 -64.875 44.1875 C-65.13023438 44.75984375 -65.38546875 45.3321875 -65.6484375 45.921875 C-67.00657685 48.43054003 -68.6189643 50.29416849 -70.5 52.4375 C-83.22702705 68.16183415 -88.94203463 88.39233133 -92.44140625 107.92919922 C-93.02038716 110.94472477 -93.80333382 113.9003825 -94.5625 116.875 C-96.64143449 126.47877346 -96.60833263 136.31993624 -96.80322266 146.10986328 C-96.86703771 148.84609638 -96.97734753 151.57480051 -97.10546875 154.30859375 C-97.84020101 174.50161983 -95.94498978 199.47695569 -85.87255859 217.37890625 C-84.74222347 219.42822652 -83.72508815 221.51774378 -82.70703125 223.625 C-79.19465385 230.76929594 -75.88115008 237.03784697 -69.83203125 242.37109375 C-67.57929226 244.46195928 -65.84728955 246.73308522 -64 249.1875 C-60.56340058 253.59148862 -56.8143337 256.93990519 -52.3671875 260.30078125 C-49.875 262.1875 -49.875 262.1875 -47.078125 264.69140625 C-43.64205027 267.57746774 -39.88611244 269.15498555 -35.75 270.8125 C-34.34949839 271.38297955 -32.95098595 271.95837127 -31.5546875 272.5390625 C-30.94351074 272.78479004 -30.33233398 273.03051758 -29.70263672 273.28369141 C-27.54638328 274.35000856 -25.75955787 275.70012895 -23.875 277.1875 C-47.75086719 278.67011893 -47.75086719 278.67011893 -53.875 273.625 C-55.24718204 272.1817993 -56.58363774 270.703447 -57.875 269.1875 C-59.25496816 268.00210991 -60.65051811 266.83456972 -62.0625 265.6875 C-70.04598525 258.56623115 -76.01002172 250.07235096 -81.875 241.1875 C-82.55820313 240.15496094 -83.24140625 239.12242187 -83.9453125 238.05859375 C-101.7220324 210.20839924 -110.00274778 177.56545491 -105.375 144.62890625 C-104.77657587 140.01005132 -104.60410879 135.37465356 -104.3821106 130.72515869 C-103.06538294 103.36617646 -103.06538294 103.36617646 -98.875 90.1875 C-98.63120605 89.36926758 -98.38741211 88.55103516 -98.13623047 87.70800781 C-88.83044134 56.52134724 -71.24908912 31.67871921 -42.4921875 15.84375 C-39.97002157 14.24763305 -38.49557194 12.78733149 -36.625 10.5 C-32.47279771 5.89445553 -26.52604122 5.28130451 -20.71484375 4.109375 C-16.92271012 3.38625721 -16.92271012 3.38625721 -14.05859375 1.58984375 C-9.3892667 -0.46695184 -5.0372913 -0.13309916 0 0 Z "
        fill="#FFFFFF" transform="translate(133.875,-0.1875)" />
    <path
        d="M0 0 C21.71575633 -1.48152628 21.71575633 -1.48152628 27.4375 3.0625 C29.00338411 4.66553099 30.51775734 6.31932808 32 8 C33.2153091 9.20539797 34.44010768 10.40126908 35.671875 11.58984375 C42.06543967 17.78529797 48.38598401 24.08069362 54 31 C54.60207275 31.73138184 54.60207275 31.73138184 55.21630859 32.47753906 C80.15162751 62.87334313 90.37756915 96.11332781 86.68359375 135.36181641 C85.82208393 141.98937803 84.50861581 148.49244291 83 155 C82.82871582 155.77666016 82.65743164 156.55332031 82.48095703 157.35351562 C77.11247522 181.1790545 65.81699298 203.45179951 50 222 C44.95817783 227.98460192 39.97101898 233.95941484 35.3125 240.25 C30.69164717 246.48733491 25.82490178 252.82230953 20 258 C19.34 258 18.68 258 18 258 C17.731875 258.639375 17.46375 259.27875 17.1875 259.9375 C16 262 16 262 13 263 C12.67 263.99 12.34 264.98 12 266 C7.36258329 271.40380261 2.21385057 276.29006891 -5.01416016 277.5078125 C-12.02465363 277.96206976 -19.0084817 277.6160877 -26 277 C-23.41350745 275.27567163 -20.87587554 273.87007762 -18.125 272.4375 C-12.45578905 269.37387342 -7.27006065 265.82212544 -2.01953125 262.109375 C0.44970903 260.3844206 2.93025208 258.75548178 5.5 257.1875 C10.6783494 253.99165675 14.53410735 250.44484766 18.40234375 245.78515625 C19.97893935 244.02353231 21.6122202 242.5611078 23.4375 241.0625 C29.53218148 235.99922615 34.31800692 229.72838626 39.09399414 223.44604492 C40.29942912 221.89906746 41.53638124 220.37571344 42.81445312 218.88818359 C48.79028978 211.85968033 52.94406506 204.18312758 57.0625 196 C57.58583923 194.9705426 57.58583923 194.9705426 58.11975098 193.92028809 C77.21057022 156.32299543 83.43409239 117.60432152 70.29589844 76.81396484 C62.8403448 54.60626003 50.00881027 36.0125984 32 21 C31.31550781 20.42765625 30.63101563 19.8553125 29.92578125 19.265625 C20.81682089 11.92457746 10.89537638 5.32058029 0 1 C0 0.67 0 0.34 0 0 Z "
        fill="#FFFFFF" transform="translate(220,0)" />
    <path
        d="M0 0 C1.30477193 0.81266072 2.60171559 1.63884146 3.875 2.5 C3.875 3.16 3.875 3.82 3.875 4.5 C4.71224609 4.67015625 4.71224609 4.67015625 5.56640625 4.84375 C9.07832024 5.84206058 12.12689125 7.63547232 15.33984375 9.34375 C20.4603914 11.67916156 25.27707556 11.56185645 30.8125 11.4375 C39.5749722 11.33189366 48.49629419 11.70709806 56.875 14.5 C56.875 15.16 56.875 15.82 56.875 16.5 C57.49375 16.603125 58.1125 16.70625 58.75 16.8125 C60.875 17.5 60.875 17.5 62.875 20.5 C62.97509766 23.58422852 62.97509766 23.58422852 62.7890625 27.37890625 C62.73803681 28.78164035 62.68988745 30.18448139 62.64428711 31.58740234 C62.61930145 32.319328 62.5943158 33.05125366 62.568573 33.80535889 C62.13108395 48.20569945 63.29718623 58.90769212 70.875 71.5 C72.20298292 75.48394876 72.09832082 79.14054275 72.125 83.3125 C72.1559375 84.50456055 72.1559375 84.50456055 72.1875 85.72070312 C72.23003861 92.14935095 70.83461198 96.22261311 66.5625 101.1875 C62.17509166 104.96271183 57.33207331 106.79309886 51.90234375 108.55859375 C46.06549037 111.26896305 43.51552826 115.2978399 40.75 120.8125 C40.41613281 121.45123047 40.08226562 122.08996094 39.73828125 122.74804688 C37.24238973 127.57833106 34.93636571 132.49279716 33.125 137.625 C30.38402074 141.73646889 26.31671397 143.98098297 21.75 145.625 C13.39531039 145.35549388 5.95746472 141.27955068 -1.0625 137 C-11.9091429 130.43191413 -24.1236148 126.57344975 -36.8203125 126.41015625 C-37.66182861 126.39178711 -38.50334473 126.37341797 -39.37036133 126.35449219 C-41.04706379 126.32706539 -42.72462416 126.33028459 -44.40112305 126.36816406 C-48.51350177 126.30542496 -51.52339534 125.82529565 -54.67578125 123.05859375 C-58.78461292 117.46402672 -57.69280422 109.85861593 -57.5475769 103.24075317 C-57.25416097 87.87979849 -58.56713335 76.11652458 -66.125 62.5 C-68.36205673 56.68365251 -69.31723159 51.34088245 -67.4375 45.28515625 C-65.31015457 40.52522085 -62.86797821 37.92194632 -58.125 35.5 C-57.135 35.5 -56.145 35.5 -55.125 35.5 C-55.125 36.16 -55.125 36.82 -55.125 37.5 C-56.77502828 38.85386936 -58.4424387 40.18678142 -60.125 41.5 C-60.455 42.16 -60.785 42.82 -61.125 43.5 C-61.785 43.5 -62.445 43.5 -63.125 43.5 C-63.7689546 53.63632247 -62.65192775 64.82719693 -57.125 73.5 C-56.2109375 75.859375 -56.2109375 75.859375 -55.5 78.25 C-55.26023437 79.02859375 -55.02046875 79.8071875 -54.7734375 80.609375 C-52.87867448 89.05590894 -53.06226004 97.43006131 -53.33984375 106.03515625 C-53.42092525 111.12854845 -53.29957965 114.27830769 -50.125 118.5 C-50.125 119.16 -50.125 119.82 -50.125 120.5 C-49.32835938 120.63277344 -48.53171875 120.76554687 -47.7109375 120.90234375 C-45.5859375 121.25651042 -43.4609375 121.61067708 -41.3359375 121.96484375 C-40.27632812 122.14144531 -39.21671875 122.31804687 -38.125 122.5 C-37.15820312 122.68433594 -36.19140625 122.86867188 -35.1953125 123.05859375 C-31.64974128 123.568326 -28.20590489 123.57486733 -24.625 123.625 C-15.79182448 123.96402628 -9.69902106 127.10898526 -2.125 131.5 C-0.13338927 132.51660548 1.86672357 133.516727 3.875 134.5 C4.9371875 135.02980469 5.999375 135.55960938 7.09375 136.10546875 C8.71796875 136.88857422 8.71796875 136.88857422 10.375 137.6875 C11.4578125 138.21730469 12.540625 138.74710938 13.65625 139.29296875 C17.05679441 140.5681729 19.28062942 140.92315997 22.875 140.5 C28.5551615 137.53643748 31.65257191 132.30596047 33.875 126.5 C34.31920174 125.02283207 34.75658785 123.54359925 35.1875 122.0625 C37.47161698 114.9138312 42.47534546 108.75956521 48.71484375 104.609375 C52.60074127 102.61372419 56.74378754 101.2693766 60.88671875 99.90625 C64.340608 98.28089035 65.79067814 96.66309266 67.875 93.5 C69.05294853 89.96615441 69.00764317 87.09722447 69 83.375 C69.00257813 82.11429687 69.00515625 80.85359375 69.0078125 79.5546875 C69.22510022 76.62485868 69.22510022 76.62485868 67.875 75.5 C67.83436168 73.83382885 67.832279 72.16611905 67.875 70.5 C67.215 70.5 66.555 70.5 65.875 70.5 C65.10148475 68.52187996 64.33134296 66.54244071 63.5625 64.5625 C63.13324219 63.46035156 62.70398438 62.35820312 62.26171875 61.22265625 C61.80410156 59.99417969 61.34648437 58.76570313 60.875 57.5 C60.60518311 56.85909424 60.33536621 56.21818848 60.05737305 55.55786133 C57.32003794 48.51654021 57.39341559 41.54141237 57.3125 34.0625 C57.27819292 31.54283592 57.23566319 29.02326585 57.18359375 26.50390625 C57.16510376 24.84597046 57.16510376 24.84597046 57.14624023 23.15454102 C57.14155108 20.34550683 57.14155108 20.34550683 54.875 18.5 C46.35337509 16.01635443 37.90699988 16.17247892 29.08789062 16.19726562 C18.17890184 16.00587986 9.396839 12.90073124 0.8125 6.1875 C-4.15520712 2.73878994 -7.63771697 1.64668829 -13.65234375 1.828125 C-19.50755612 3.41911478 -22.51649847 8.09522017 -25.6875 12.9375 C-31.14749882 21.13221325 -31.14749882 21.13221325 -34.125 24.5 C-34.785 24.5 -35.445 24.5 -36.125 24.5 C-36.455 25.49 -36.785 26.48 -37.125 27.5 C-39.2077738 29.04537749 -41.23124679 30.40852139 -43.4375 31.75 C-44.01951172 32.12640625 -44.60152344 32.5028125 -45.20117188 32.890625 C-49.54078248 35.56417898 -49.54078248 35.56417898 -52.54296875 35.234375 C-53.06503906 34.99203125 -53.58710937 34.7496875 -54.125 34.5 C-53.55394531 34.21769531 -52.98289062 33.93539062 -52.39453125 33.64453125 C-38.82874568 26.29010696 -29.88119886 15.1144551 -23.125 1.5 C-22.465 1.5 -21.805 1.5 -21.125 1.5 C-21.125 0.84 -21.125 0.18 -21.125 -0.5 C-13.80936581 -3.58026703 -6.98263671 -3.88168624 0 0 Z "
        fill="#CA9353" transform="translate(164.125,69.5)" />
    <path
        d="M0 0 C-3.04797898 2.03198598 -5.37730223 2.80766017 -8.875 3.8125 C-18.15356487 6.58778503 -27.1510713 10.0671428 -36 14 C-37.3303125 14.5878125 -37.3303125 14.5878125 -38.6875 15.1875 C-43.30059046 17.24866808 -47.69252964 19.34977579 -52 22 C-52.76699219 22.43699219 -53.53398438 22.87398437 -54.32421875 23.32421875 C-62.25643692 27.89999419 -69.13339099 33.47216931 -76 39.5 C-79 42 -79 42 -81 42 C-81.24621094 42.55042969 -81.49242187 43.10085937 -81.74609375 43.66796875 C-83.25374367 46.47191579 -85.09747558 48.80683394 -87.0625 51.3125 C-101.59783241 70.50810539 -110.05676374 91.76294387 -113.60620117 115.59350586 C-113.86432549 117.17089666 -114.17043625 118.74133862 -114.52856445 120.29907227 C-116.72123347 130.17144031 -116.3544324 140.25405744 -116.3125 150.3125 C-116.30934784 151.29964996 -116.30619568 152.28679993 -116.302948 153.30386353 C-116.17069718 181.42073043 -113.27094836 207.11124484 -97 231 C-96.32710937 232.02996094 -95.65421875 233.05992187 -94.9609375 234.12109375 C-91.95911162 238.50553402 -89.23073583 241.74558782 -85 245 C-84.08185005 246.25480493 -83.18847587 247.52789851 -82.3125 248.8125 C-78.71077528 253.79026826 -74.11269339 256.71104175 -69 260 C-67.9171875 260.75410156 -67.9171875 260.75410156 -66.8125 261.5234375 C-56.47715373 268.70498325 -46.48568911 273.85434148 -34 276 C-34 276.33 -34 276.66 -34 277 C-47.21077392 278.83270852 -60.00687629 271.99810262 -70.39453125 264.203125 C-72.93968277 262.14726755 -75.47488043 260.08042011 -78 258 C-79.06154297 257.14535156 -79.06154297 257.14535156 -80.14453125 256.2734375 C-84.69661692 252.48452201 -88.344453 248.32311711 -91.9453125 243.625 C-93.04260303 242.22313834 -94.15637938 240.83005167 -95.36181641 239.52001953 C-99.9703238 234.48176545 -103.012517 228.92483908 -106.125 222.875 C-106.63675781 221.91851562 -107.14851563 220.96203125 -107.67578125 219.9765625 C-113.49041147 208.79573112 -116.50428914 197.37356041 -118.25 184.9375 C-118.41910889 183.74012207 -118.58821777 182.54274414 -118.76245117 181.30908203 C-120.45739343 168.19274442 -120.42149906 155.1958418 -120 142 C-119.96664551 140.64165039 -119.96664551 140.64165039 -119.93261719 139.25585938 C-119.70667059 130.54848454 -118.91984518 122.23716875 -116.87109375 113.73828125 C-116.21884091 110.93915135 -115.65683602 108.18223694 -115.16015625 105.35546875 C-111.33610175 83.86491452 -104.01329506 64.95786085 -90 48 C-89.48050781 47.26007812 -88.96101563 46.52015625 -88.42578125 45.7578125 C-87.95527344 45.17773438 -87.48476562 44.59765625 -87 44 C-86.34 44 -85.68 44 -85 44 C-85 43.34 -85 42.68 -85 42 C-83.30096977 40.48259024 -81.53927277 39.034872 -79.75 37.625 C-77.0077953 35.45590157 -74.35057911 33.35317119 -71.88671875 30.87109375 C-70.04105961 29.04071957 -68.2844591 27.77067546 -66.0625 26.4375 C-65.36382812 26.01339844 -64.66515625 25.58929687 -63.9453125 25.15234375 C-62.44532501 24.26379695 -60.94208792 23.38073439 -59.4375 22.5 C-57.40033051 21.24635724 -55.53942949 19.9262712 -53.625 18.5 C-50.28353451 16.07380549 -46.8286354 14.55981442 -43 13 C-42.2059375 12.51402344 -41.411875 12.02804687 -40.59375 11.52734375 C-38.1157633 10.06816785 -35.83928979 9.11340259 -33.125 8.1875 C-29.15452835 6.81413363 -25.32382633 5.26877425 -21.47827148 3.57788086 C-14.21084035 0.43733556 -7.95992269 -0.80043915 0 0 Z "
        fill="#FFFFC7" transform="translate(156,0)" />
    <path
        d="M0 0 C6.37211298 -0.40491688 10.34754659 0.56316234 15.9375 3.5625 C16.99106689 4.11103638 16.99106689 4.11103638 18.06591797 4.6706543 C23.545027 7.59533955 28.25774875 10.99649141 33 15 C34.09628305 15.84891137 35.19691426 16.69222395 36.30078125 17.53125 C63.97402466 38.61133001 81.16036066 68.28258719 86 103 C90.09023875 137.05953735 80.72100576 167.16955582 65.5625 197.0625 C65.25597504 197.67542908 64.94945007 198.28835815 64.63363647 198.91986084 C60.78952249 206.56445674 56.57084757 213.23022142 50.97143555 219.71142578 C49.27128507 221.68507415 47.73857376 223.67826153 46.25 225.8125 C43.26905415 229.84849972 39.89965419 233.50517686 36.5 237.1875 C35.68063965 238.07949097 35.68063965 238.07949097 34.84472656 238.98950195 C31.43280062 242.64272176 27.88126383 245.8519863 24 249 C23.175 249.825 22.35 250.65 21.5 251.5 C16.6705012 256.3294988 11.79492986 259.83086536 5.91796875 263.25390625 C3.73964839 264.55739916 1.61079569 265.88819742 -0.51171875 267.27734375 C-1.424375 267.87434082 -1.424375 267.87434082 -2.35546875 268.48339844 C-3.5445107 269.26489562 -4.73088442 270.05047341 -5.9140625 270.84082031 C-11.47883769 274.48748304 -16.6500334 277.46643698 -23.4375 277.1875 C-24.30246094 277.16042969 -25.16742188 277.13335937 -26.05859375 277.10546875 C-27.01958984 277.05326172 -27.01958984 277.05326172 -28 277 C-25.67946663 274.67946663 -23.79160591 273.96989542 -20.75 272.75 C-19.66976562 272.30527344 -18.58953125 271.86054688 -17.4765625 271.40234375 C-15.18752913 270.47901456 -12.89067675 269.57480173 -10.5859375 268.69140625 C1.18416434 264.00196387 10.91801123 257.11353337 20.2734375 248.57421875 C21.99141133 247.00783084 23.76644431 245.53811404 25.5625 244.0625 C29.46243841 240.7146877 32.69549033 236.92450472 36 233 C36.89091781 231.97047991 37.78292222 230.94189951 38.67578125 229.9140625 C43.26644775 224.60292293 47.75002132 219.33810713 51.49609375 213.3828125 C52.60940835 211.61885949 53.77710392 209.88897222 54.97265625 208.1796875 C71.67050032 183.73663533 82.30458468 153.69423435 83 124 C83.01828857 123.25717773 83.03657715 122.51435547 83.05541992 121.74902344 C83.53143731 87.30021877 70.8015495 55.68472388 47 31 C34.99442828 18.72721364 21.2743742 10.03023053 5.609375 3.19140625 C3 2 3 2 0 0 Z "
        fill="#FFFFC7" transform="translate(212,0)" />
    <path
        d="M0 0 C0 0.66 0 1.32 0 2 C-1.65002828 3.35386936 -3.3174387 4.68678142 -5 6 C-5.33 6.66 -5.66 7.32 -6 8 C-6.66 8 -7.32 8 -8 8 C-8.64751559 18.19237503 -7.47893271 29.25342618 -2 38 C0.74994043 43.83697033 0.01124693 49.60234992 -0.375 55.875 C-0.43171875 56.94492188 -0.4884375 58.01484375 -0.546875 59.1171875 C-0.68767923 61.7455331 -0.83902274 64.37282566 -1 67 C-1.33 67 -1.66 67 -2 67 C-1.9690625 65.05673828 -1.9690625 65.05673828 -1.9375 63.07421875 C-1.9949908 50.15836112 -4.4772318 40.4915642 -10.10253906 28.92089844 C-13.03298917 22.64865103 -14.4013798 16.51467242 -12.3125 9.78515625 C-9.88601387 4.35589354 -6.3899616 0 0 0 Z "
        fill="#CA9150" transform="translate(109,105)" />
    <path
        d="M0 0 C0.33 0 0.66 0 1 0 C1.38613383 2.62571005 1.38493778 4.3843879 -0.04296875 6.66796875 C-1.375 8.3125 -1.375 8.3125 -4 11 C-4.66 11 -5.32 11 -6 11 C-6.33 11.99 -6.66 12.98 -7 14 C-9.0827738 15.54537749 -11.10624679 16.90852139 -13.3125 18.25 C-13.89451172 18.62640625 -14.47652344 19.0028125 -15.07617188 19.390625 C-19.41578248 22.06417898 -19.41578248 22.06417898 -22.41796875 21.734375 C-22.94003906 21.49203125 -23.46210937 21.2496875 -24 21 C-23.42894531 20.71769531 -22.85789062 20.43539062 -22.26953125 20.14453125 C-14.35692615 15.85486775 -4.13825645 8.2765129 0 0 Z "
        fill="#CA9353" transform="translate(134,83)" />
    <path
        d="M0 0 C2.97534805 0.43755118 5.07069048 1.03914853 7.72265625 2.5078125 C11.44615197 4.20313475 14.2418506 4.42924749 18.3125 4.5625 C20.54510487 4.63948637 22.77819792 4.76752005 25 5 C25.33 5.66 25.66 6.32 26 7 C7.52238072 7.75590261 7.52238072 7.75590261 1 3 C0.67 2.01 0.34 1.02 0 0 Z "
        fill="#C78E4B" transform="translate(174,78)" />
    <path
        d="M0 0 C1 2 2 4 3 6 C1.92481882 8.44332726 0.80191434 10.76754523 -0.4375 13.125 C-0.77587891 13.78371094 -1.11425781 14.44242188 -1.46289062 15.12109375 C-2.30149926 16.75106547 -3.14984811 18.37601909 -4 20 C-4.33 19.01 -4.66 18.02 -5 17 C-5.66 16.67 -6.32 16.34 -7 16 C-6.66226563 15.43152344 -6.32453125 14.86304688 -5.9765625 14.27734375 C-3.25311261 9.56246952 -1.24133018 5.30386531 0 0 Z "
        fill="#CE995C" transform="translate(200,189)" />
    <path
        d="M0 0 C0 0.66 0 1.32 0 2 C-1.65002828 3.35386936 -3.3174387 4.68678142 -5 6 C-5.33 6.66 -5.66 7.32 -6 8 C-6.66 8 -7.32 8 -8 8 C-8.33 9.32 -8.66 10.64 -9 12 C-9.99 11.67 -10.98 11.34 -12 11 C-10.60466338 6.56029258 -8.43871468 4.09484321 -5 1 C-3 0 -3 0 0 0 Z "
        fill="#CC9455" transform="translate(109,105)" />
    <path
        d="M0 0 C3.64147862 6.31189627 3.02139223 12.87030018 2.5625 19.875 C2.51029297 20.75414062 2.45808594 21.63328125 2.40429688 22.5390625 C2.27552439 24.69307499 2.13858537 26.84659659 2 29 C1.67 29 1.34 29 1 29 C0.98018066 28.39526855 0.96036133 27.79053711 0.93994141 27.16748047 C0.84413701 24.40291491 0.73468445 21.63904826 0.625 18.875 C0.5940625 17.92367187 0.563125 16.97234375 0.53125 15.9921875 C0.32252954 10.98289652 -0.05505365 6.69633387 -2 2 C-1.34 1.34 -0.68 0.68 0 0 Z "
        fill="#D6A975" transform="translate(106,143)" />
    <path
        d="M0 0 C0.33 0 0.66 0 1 0 C1.12117188 0.67546875 1.24234375 1.3509375 1.3671875 2.046875 C1.53476563 2.93890625 1.70234375 3.8309375 1.875 4.75 C2.03742188 5.63171875 2.19984375 6.5134375 2.3671875 7.421875 C2.89930097 10.00013367 2.89930097 10.00013367 4.09375 12.1875 C5 14 5 14 4.625 16.25 C4.41875 16.8275 4.2125 17.405 4 18 C-0.28670939 11.97181491 -0.474377 7.28695785 0 0 Z "
        fill="#D09D61" transform="translate(101,128)" />
    <path
        d="M0 0 C0.99 0.33 1.98 0.66 3 1 C-0.53094222 3.90783477 -4.02864881 6.71858548 -8 9 C-10.18359375 8.60546875 -10.18359375 8.60546875 -12 8 C-11.30132812 7.59007813 -10.60265625 7.18015625 -9.8828125 6.7578125 C-8.97273438 6.21898438 -8.06265625 5.68015625 -7.125 5.125 C-6.22007813 4.59132813 -5.31515625 4.05765625 -4.3828125 3.5078125 C-1.93396718 2.08024648 -1.93396718 2.08024648 0 0 Z "
        fill="#D3A46D" transform="translate(122,96)" />
    <path
        d="M0 0 C0.97582031 0.00902344 1.95164063 0.01804688 2.95703125 0.02734375 C3.69308594 0.03894531 4.42914063 0.05054688 5.1875 0.0625 C5.1875 0.3925 5.1875 0.7225 5.1875 1.0625 C4.28 1.206875 3.3725 1.35125 2.4375 1.5 C-0.63191773 1.95809057 -0.63191773 1.95809057 -2.8125 2.6875 C-5.62377313 3.21461371 -8.03601473 2.63041744 -10.8125 2.0625 C-10.8125 1.7325 -10.8125 1.4025 -10.8125 1.0625 C-7.13862505 0.20951624 -3.7677607 -0.04539471 0 0 Z "
        fill="#D2A169" transform="translate(142.8125,193.9375)" />
    <path
        d="M0 0 C0.66 0.33 1.32 0.66 2 1 C-0.52788007 3.79872437 -2.20411134 5.45773019 -6 6 C-4.98545548 3.4636387 -4.3146444 2.20648539 -2 0.6875 C-1.34 0.460625 -0.68 0.23375 0 0 Z "
        fill="#C58944" transform="translate(220,172)" />
    <path
        d="M0 0 C0.66 0.33 1.32 0.66 2 1 C1.21625 1.4125 0.4325 1.825 -0.375 2.25 C-3.05891656 4.0392777 -3.88098949 5.04988139 -5 8 C-5.66 8 -6.32 8 -7 8 C-6.875 5.6875 -6.875 5.6875 -6 3 C-3.0625 1.125 -3.0625 1.125 0 0 Z "
        fill="#CE9A5E" transform="translate(218,172)" />
    <path
        d="M0 0 C0.66 0.33 1.32 0.66 2 1 C1.67 1.33 1.34 1.66 1 2 C1.99 2.66 2.98 3.32 4 4 C1.69 4.66 -0.62 5.32 -3 6 C-3 4.68 -3 3.36 -3 2 C-2.01 1.34 -1.02 0.68 0 0 Z "
        fill="#D1A169" transform="translate(223,170)" />
    <path
        d="M0 0 C-1.49097658 3.7952131 -3.75700849 5.61042731 -7 8 C-4.18918919 0 -4.18918919 0 0 0 Z "
        fill="#EDD7AC" transform="translate(147,73)" />
</svg>