<?xml version="1.0" encoding="UTF-8" standalone="no"?>
<!DOCTYPE svg PUBLIC "-//W3C//DTD SVG 1.1//EN" "http://www.w3.org/Graphics/SVG/1.1/DTD/svg11.dtd">
<svg width="213.00" height="207.00" viewBox="0.00 0.00 213.00 207.00"
    xmlns="http://www.w3.org/2000/svg" xmlns:xlink="http://www.w3.org/1999/xlink">
    <g stroke-linecap="round" id="レイヤー_3">
        <path
            d="M83.63,94.43 C82.90,94.12 81.91,92.68 82.23,90.58 C82.59,88.46 87.50,83.34 90.31,82.03 C92.09,81.25 93.29,81.29 94.84,81.56 C94.84,81.56 95.87,82.78 95.87,82.78 C96.27,87.73 91.67,90.32 90.49,90.61 C90.49,90.61 89.29,89.91 89.29,89.91 C88.68,87.93 89.20,85.63 89.76,84.55 C90.35,83.48 92.23,81.41 94.62,80.78 C95.96,81.29 96.99,82.17 97.26,83.35 C97.73,85.45 96.49,88.02 95.77,89.02 C94.71,88.35 94.34,87.54 94.69,86.11 C95.02,84.73 95.61,83.75 96.51,82.87 C96.51,82.87 97.89,82.89 97.89,82.89 C97.89,82.89 100.89,89.17 100.89,89.17"
            fill="none" stroke="rgb(252, 244, 205)" stroke-width="40.00" stroke-opacity="1.00"
            stroke-linejoin="round" />
        <path
            d="M83.92,55.50 C83.92,55.50 82.87,55.81 82.87,55.81 C80.81,53.03 88.07,45.67 89.48,44.34 C89.48,44.34 87.22,47.20 87.22,47.20 C87.22,47.20 87.95,43.75 87.95,43.75 C87.95,43.75 85.78,47.59 85.78,47.59 C85.78,47.59 88.12,42.53 88.12,42.53 C88.12,42.53 85.63,46.62 85.63,46.62 C85.63,46.62 91.07,39.97 91.07,39.97 C91.09,39.95 89.80,39.16 92.27,39.13 C92.27,39.13 91.54,39.99 91.54,39.99 C91.54,39.99 94.63,38.26 94.63,38.26 C95.11,39.22 93.97,40.43 93.23,40.67 C92.41,40.91 91.29,40.33 91.35,39.75 C91.43,39.16 92.65,38.21 93.44,38.17 C94.28,38.16 95.30,39.19 95.02,39.90 C94.70,40.62 92.82,41.50 91.91,41.35 C91.06,41.17 90.25,39.79 90.41,39.02 C90.59,38.28 91.81,37.65 92.49,37.91 C94.09,38.59 92.13,41.00 91.10,40.84 C90.06,40.03 92.26,37.23 93.02,38.36 C93.83,39.67 92.83,40.62 92.56,40.74 C91.73,40.21 91.99,38.82 92.79,38.39 C94.94,37.32 100.28,40.51 100.40,41.55 C97.66,42.23 96.30,39.57 96.16,38.92 C97.00,37.99 97.64,37.64 98.52,37.82 C102.31,38.62 102.85,41.00 102.78,41.65 C102.19,42.52 100.35,42.67 99.47,41.91 C98.61,41.13 98.43,38.72 99.17,37.91 C99.99,37.08 102.37,37.73 103.03,39.03 C103.67,40.39 102.95,43.19 101.90,43.71 C99.68,44.69 97.92,40.48 98.25,39.34 C99.07,38.59 101.55,39.07 103.13,40.14 C104.54,41.12 106.06,43.11 106.03,43.91 C104.67,44.24 102.67,42.52 102.28,41.49 C102.04,40.84 102.17,40.19 102.51,39.66 C104.36,38.95 109.12,43.08 109.64,44.30 C108.84,44.75 106.69,43.47 106.01,42.70 C104.55,41.01 104.71,38.96 104.79,38.60 C104.79,38.60 108.59,42.77 108.59,42.77 C108.59,42.77 105.37,39.73 105.37,39.73 C105.37,39.73 117.14,47.74 117.14,47.74 C117.14,47.74 115.03,46.80 115.03,46.80 C115.03,46.80 123.29,52.51 123.29,52.51 C119.65,51.08 115.09,45.96 114.95,45.50 C114.95,45.50 124.39,52.23 124.39,52.23 C124.39,52.23 116.45,47.00 116.45,47.00 C118.06,46.05 126.56,52.56 126.51,52.46 C126.51,52.46 121.97,49.41 121.97,49.41 C126.90,49.96 131.99,54.81 133.13,55.22 C133.13,55.22 128.10,52.90 128.10,52.90 C128.10,52.90 138.85,54.21 138.85,54.21 C138.85,54.21 132.24,52.42 132.24,52.42 C132.24,52.42 142.95,53.48 142.95,53.48 C142.95,53.48 134.11,52.39 134.11,52.39 C134.11,52.39 145.21,53.62 145.21,53.62 C145.21,53.62 144.29,53.17 144.29,53.17 C144.29,53.17 151.20,53.02 151.20,53.02 C151.20,53.02 146.38,53.82 146.38,53.82 C146.38,53.82 155.97,53.62 155.97,53.62 C155.97,53.62 150.41,53.77 150.41,53.77 C150.42,51.95 153.97,52.22 154.57,52.36 C154.07,53.23 150.09,53.61 147.92,53.46 C145.67,53.28 142.31,52.26 142.48,52.11 C142.48,52.11 154.39,53.48 154.39,53.48 C154.39,53.48 144.24,52.36 144.24,52.36 C144.63,50.84 154.14,50.87 155.43,51.72 C155.43,51.72 149.33,52.10 149.33,52.10 C150.34,51.34 155.45,51.38 156.75,51.98 C157.89,52.55 158.16,53.42 158.15,53.88 C157.07,55.47 155.31,54.25 154.99,53.85 C154.92,53.00 156.32,51.77 157.50,51.70 C158.68,51.66 160.19,53.03 160.24,54.04 C160.25,54.97 159.15,56.21 158.51,56.06 C157.85,55.88 157.38,54.17 157.80,53.28 C158.27,52.37 159.97,51.99 160.71,52.65 C162.38,54.25 160.80,56.93 159.98,57.07 C159.19,56.76 158.66,55.27 159.06,54.42 C159.51,53.54 161.20,53.35 161.81,54.13 C163.34,56.24 161.54,57.81 161.09,57.99 C160.29,57.83 159.55,56.26 159.81,55.11 C160.13,53.78 161.12,53.24 161.74,53.12 C162.75,53.49 163.59,55.55 163.52,57.33 C163.44,58.88 162.75,61.12 162.21,61.60 C160.53,60.36 161.30,58.15 161.52,57.89 C162.59,58.58 161.21,67.67 159.46,70.68 C159.46,70.68 160.83,66.09 160.83,66.09 C160.83,66.09 160.33,74.90 160.33,74.90 C160.33,74.90 161.38,61.50 161.38,61.50 C161.38,61.50 161.35,82.87 161.35,82.87 C161.35,82.87 159.50,69.50 159.50,69.50 C159.50,69.50 161.01,90.80 161.01,90.80 C161.01,90.80 160.27,82.01 160.27,82.01 C160.27,82.01 162.76,97.08 162.76,97.08 C162.76,97.08 161.02,86.46 161.02,86.46 C161.02,86.46 164.68,96.32 164.68,96.32 C164.29,96.87 159.81,83.32 159.84,81.82 C159.85,81.67 159.90,81.53 160.01,81.40 C160.01,81.40 164.39,96.81 164.39,96.81 C164.39,96.81 161.43,83.99 161.43,83.99 C161.43,83.99 164.95,98.03 164.95,98.03 C164.95,98.03 163.66,82.87 163.66,82.87 C162.32,82.84 164.00,94.21 164.21,94.60 C164.21,94.60 162.46,84.19 162.46,84.19 C162.46,84.19 166.65,103.71 166.65,103.71 C166.65,103.71 166.66,98.96 166.66,98.96 C166.66,98.96 169.10,105.15 169.10,105.15 C167.49,104.01 164.87,95.71 165.03,94.93 C166.96,96.81 170.24,108.17 169.88,109.37 C168.87,108.92 166.96,105.32 166.26,103.20 C165.92,102.09 165.88,99.86 166.56,99.19 C167.98,99.94 168.79,100.73 169.39,102.18 C171.60,107.67 171.19,112.51 170.58,113.10 C169.72,113.10 167.96,111.08 167.08,109.11 C166.20,107.07 166.03,104.39 166.75,103.77 C167.76,103.90 169.49,106.59 170.06,109.21 C170.58,111.67 170.49,115.51 170.00,116.71 C168.89,116.35 168.30,112.84 168.41,110.95 C168.49,109.75 168.86,109.08 169.38,108.47 C170.54,109.62 171.11,110.57 171.28,111.94 C171.90,117.51 169.96,119.18 169.41,119.32 C168.51,118.67 167.81,115.58 168.06,113.30 C168.22,112.05 168.69,111.34 169.32,110.67 C170.68,111.83 171.31,112.80 171.48,114.27 C171.96,118.65 170.91,120.74 170.43,121.47 C169.59,120.88 169.22,120.25 169.18,119.07 C169.13,116.90 169.84,114.01 170.71,113.48 C171.57,113.88 172.32,116.67 172.11,118.54 C171.85,120.59 170.92,121.68 170.35,122.02 C169.34,121.27 168.91,120.62 168.97,119.69 C169.12,117.80 170.00,116.63 170.66,116.13 C171.89,116.93 172.41,117.67 172.33,118.90 C172.17,121.10 171.00,124.17 169.99,125.14 C169.02,124.84 168.59,124.45 168.47,123.61 C168.03,120.37 168.98,118.45 169.20,118.21 C169.64,119.19 169.10,122.03 168.49,123.32 C167.67,125.00 166.56,125.75 165.93,125.95 C165.12,125.15 164.86,124.54 165.16,123.81 C165.76,122.43 166.80,121.91 167.46,121.79 C167.46,121.79 168.32,122.75 168.32,122.75 C167.55,125.13 163.64,125.94 162.60,125.74 C162.21,125.66 161.86,125.45 161.51,125.15"
            fill="none" stroke="rgb(252, 244, 205)" stroke-width="10.00" stroke-opacity="1.00"
            stroke-linejoin="round" />
        <path
            d="M170.49,127.08 C170.30,127.17 169.19,127.72 168.34,128.13 C165.95,129.30 162.81,130.04 161.68,129.74 C161.43,128.72 161.51,128.10 162.12,127.41 C164.30,125.00 170.72,121.79 171.67,122.26 C171.67,122.26 165.70,127.19 165.70,127.19 C165.26,126.11 167.16,123.39 168.31,122.28 C169.86,120.82 171.13,120.33 171.78,120.24 C172.12,121.26 172.07,121.97 171.48,122.84 C170.37,124.46 168.33,126.22 167.28,126.47 C166.71,125.41 168.22,122.82 169.05,121.84 C169.58,121.23 170.14,120.75 170.62,120.44 C171.29,121.52 167.93,124.52 167.10,124.84 C166.35,123.74 168.91,122.10 169.44,122.28 C169.44,122.28 168.96,124.89 168.96,124.89 C168.96,124.89 171.22,121.16 171.22,121.16 C171.55,121.85 168.40,126.31 167.75,126.65 C167.71,126.67 167.61,126.69 167.45,126.72 C167.90,123.83 171.35,121.21 171.55,121.30 C171.55,121.30 168.62,125.36 168.62,125.36 C168.14,123.78 171.09,120.85 171.61,120.87 C171.61,120.87 167.00,126.07 167.00,126.07 C166.19,124.69 167.87,123.09 168.16,122.95 C168.25,123.94 166.48,126.15 165.07,127.07 C161.93,129.08 157.72,129.22 157.04,128.91 C157.13,126.80 161.46,126.75 162.41,126.92 C162.58,127.73 159.71,129.24 157.33,130.09 C155.74,130.65 154.80,130.90 153.61,131.10 C153.61,131.10 163.15,127.56 163.15,127.56 C163.15,127.56 149.94,132.20 149.94,132.20 C150.36,131.63 157.12,129.31 159.04,129.50 C159.24,129.52 159.37,129.60 159.44,129.75 C159.44,129.75 152.51,133.51 152.51,133.51 C152.51,133.51 160.59,129.46 160.59,129.46 C160.59,129.46 154.13,132.59 154.13,132.59 C154.13,132.59 159.28,129.44 159.28,129.44 C159.28,129.44 148.02,136.15 148.02,136.15 C148.02,136.15 152.93,132.48 152.93,132.48 C152.93,132.48 142.13,139.86 142.13,139.86 C142.13,139.86 147.32,135.42 147.32,135.42 C147.32,135.42 135.52,147.31 135.52,147.31 C135.52,147.31 145.72,138.20 145.72,138.20 C145.72,138.20 139.03,146.01 139.03,146.01 C139.03,146.01 146.81,137.26 146.81,137.26 C146.81,137.26 140.65,147.38 140.65,147.38 C140.65,147.38 147.60,136.62 147.60,136.62 C147.60,136.62 137.74,152.83 137.74,152.83 C137.74,152.83 141.05,142.54 141.05,142.54 C141.05,142.54 137.38,154.76 137.38,154.76 C136.17,153.81 137.60,150.08 137.81,149.68 C138.63,150.52 136.01,158.02 134.99,159.16 C134.42,158.34 135.37,154.56 136.07,152.93 C137.04,150.75 138.07,149.81 138.58,149.60 C139.10,151.53 137.65,156.08 136.77,157.78 C135.69,159.82 134.43,160.99 133.79,161.41 C132.89,160.78 132.58,160.08 132.87,158.81 C134.14,153.47 138.10,149.17 139.22,148.94 C139.86,150.33 140.01,151.33 139.61,152.69 C138.00,158.02 135.78,159.70 135.20,159.94 C134.47,158.91 134.23,158.09 134.49,156.92 C135.63,151.92 138.45,150.39 139.19,150.23 C139.89,151.49 140.01,152.43 139.47,153.76 C137.34,158.81 134.49,161.21 133.88,161.57 C133.27,160.22 134.76,156.44 135.87,154.65 C136.50,153.67 138.36,151.86 139.42,151.85 C139.89,153.46 139.85,154.58 139.09,155.91 C136.08,161.14 132.99,161.63 132.28,161.48 C131.57,160.51 132.05,157.56 133.16,155.58 C133.78,154.52 134.57,153.89 135.52,153.28 C136.83,154.02 137.34,154.69 137.20,155.81 C136.93,157.88 135.24,161.06 134.00,162.01 C132.88,162.81 131.97,162.61 131.52,162.32 C130.52,160.32 133.36,157.95 134.48,158.07 C135.15,159.37 135.30,160.22 134.84,161.16 C133.17,164.53 129.37,165.94 128.39,165.55 C127.11,163.80 130.66,160.22 132.17,159.92 C132.17,159.92 133.13,160.34 133.13,160.34 C133.86,161.52 133.39,164.28 132.38,165.46 C131.37,166.60 130.14,166.72 129.50,166.59 C127.81,165.16 129.58,161.53 130.56,161.03 C131.54,161.59 131.94,162.10 131.83,162.88 C131.59,164.32 129.92,166.57 128.70,167.07 C127.54,167.51 125.94,166.63 125.96,165.69 C126.02,164.75 127.59,163.26 128.49,163.32 C129.41,163.41 130.03,165.13 129.51,166.09 C128.99,167.01 127.05,167.77 126.22,167.44 C124.61,166.73 125.29,164.00 125.79,163.52 C126.62,163.83 126.57,165.47 126.17,166.06 C125.67,166.74 124.35,166.48 123.80,165.64 C123.34,164.89 123.10,162.72 123.11,162.15"
            fill="none" stroke="rgb(252, 244, 205)" stroke-width="10.00" stroke-opacity="1.00"
            stroke-linejoin="round" />
        <path
            d="M99.16,153.80 C99.16,153.80 98.79,153.02 98.79,153.02 C98.79,153.02 118.52,160.90 118.52,160.90 C118.52,160.90 98.88,151.90 98.88,151.90 C98.83,154.04 114.63,160.51 116.93,161.42 C116.93,161.42 97.12,153.68 97.12,153.68 C97.12,153.68 123.49,164.02 123.49,164.02 C123.49,164.02 110.80,158.60 110.80,158.60 C110.80,158.60 125.15,162.73 125.15,162.73 C125.15,162.73 112.29,158.90 112.29,158.90 C112.29,158.90 120.68,162.30 120.68,162.30 C117.63,164.16 103.15,154.88 100.59,153.11 C105.33,158.81 122.03,164.11 122.01,164.10 C122.01,164.10 102.62,156.54 102.62,156.54 C102.62,156.54 117.81,163.80 117.81,163.80 C117.84,163.82 106.89,158.48 102.46,155.18 C101.04,154.13 95.47,151.12 93.50,150.41 C93.29,150.34 93.05,150.24 92.76,150.14"
            fill="none" stroke="rgb(252, 244, 205)" stroke-width="10.00" stroke-opacity="1.00"
            stroke-linejoin="round" />
        <path
            d="M87.46,149.20 C87.46,149.20 101.56,150.91 101.56,150.91 C87.65,150.26 83.84,149.13 81.95,148.14 C81.95,148.14 92.24,150.23 92.24,150.23 C89.37,149.64 80.70,147.83 80.19,147.69 C79.67,147.56 78.54,147.24 76.80,146.73"
            fill="none" stroke="rgb(252, 244, 205)" stroke-width="10.00" stroke-opacity="1.00"
            stroke-linejoin="round" />
        <path
            d="M66.20,148.72 C66.20,148.72 64.81,148.76 64.81,148.76 C64.81,148.76 83.60,147.77 83.60,147.77 C83.60,147.77 68.36,148.25 68.36,148.25 C68.36,148.25 80.42,148.44 80.42,148.44 C80.42,148.44 68.38,149.09 68.38,149.09 C68.38,149.09 76.44,149.17 76.44,149.17 C76.44,149.17 61.33,148.17 61.33,148.17 C61.33,148.17 72.03,147.92 72.03,147.92 C68.76,148.06 63.18,147.70 61.95,147.24 C60.97,146.83 60.25,145.99 60.16,145.71 C59.82,145.70 58.73,145.13 58.40,144.49 C57.59,142.78 58.34,139.36 58.49,139.16 C58.49,139.16 59.52,143.88 59.52,143.88 C59.52,143.88 57.84,139.88 57.84,139.88 C57.84,139.88 58.81,144.03 58.81,144.03 C58.81,144.03 59.22,140.27 59.22,140.27 C59.22,140.27 59.75,146.39 59.75,146.39 C59.75,146.39 58.64,144.29 58.64,144.29 C58.64,144.29 60.34,147.95 60.34,147.95 C60.64,147.89 60.95,147.73 61.13,147.45 C61.21,147.33 61.37,147.04 61.61,146.58"
            fill="none" stroke="rgb(252, 244, 205)" stroke-width="10.00" stroke-opacity="1.00"
            stroke-linejoin="round" />
        <path
            d="M60.82,125.87 C60.67,124.49 60.12,122.03 59.72,120.34 C59.63,119.92 59.58,119.48 59.57,119.01 C59.57,119.01 61.27,139.14 61.27,139.14 C61.27,139.14 59.72,117.77 59.72,117.77 C59.72,117.77 60.66,138.98 60.66,138.98 C60.66,138.98 59.49,123.97 59.49,123.97 C59.49,123.97 59.61,137.38 59.61,137.38 C59.61,137.38 59.32,125.93 59.32,125.93 C59.32,125.93 59.59,136.30 59.59,136.30 C59.59,136.30 61.10,118.40 61.10,118.40 C61.10,118.40 61.14,130.47 61.14,130.47 C61.12,129.98 60.94,128.33 60.69,126.60 C60.50,125.28 60.17,123.24 60.03,122.42"
            fill="none" stroke="rgb(252, 244, 205)" stroke-width="10.00" stroke-opacity="1.00"
            stroke-linejoin="round" />
        <path
            d="M56.07,95.76 C56.07,95.76 55.39,95.59 55.39,95.59 C54.62,97.52 60.54,118.05 61.33,120.05 C61.33,120.05 53.97,97.02 53.97,97.02 C53.97,97.02 60.37,117.17 60.37,117.17 C59.35,115.97 53.89,102.50 53.47,100.50 C53.46,100.41 53.47,100.35 53.50,100.31 C53.50,100.31 59.90,115.46 59.90,115.46 C59.90,115.46 53.92,101.33 53.92,101.33 C53.92,101.33 58.45,112.32 58.45,112.32 C58.45,112.32 53.73,102.21 53.73,102.21 C53.73,102.21 57.52,113.54 57.52,113.54 C57.52,113.54 52.35,97.07 52.35,97.07 C52.35,97.07 56.06,108.83 56.06,108.83 C56.06,108.83 52.15,93.46 52.15,93.46 C52.15,93.46 56.92,111.62 56.92,111.62 C56.92,111.62 51.99,96.46 51.99,96.46 C51.99,96.46 60.18,121.61 60.18,121.61 C60.19,121.64 55.74,109.20 54.60,102.97 C54.18,100.55 53.42,96.14 53.09,94.73 C53.09,94.73 54.18,96.68 54.18,96.68 C54.18,96.68 51.40,90.25 51.40,90.25 C51.40,90.25 53.12,95.75 53.12,95.75 C51.14,92.90 50.69,86.10 50.65,84.72 C50.65,84.72 52.65,92.75 52.65,92.75 C52.65,92.75 50.67,85.37 50.67,85.37 C50.67,85.37 51.41,88.84 51.41,88.84 C50.07,86.54 50.04,80.86 50.97,80.46 C50.97,80.46 51.68,81.48 51.68,81.48 C51.68,81.48 52.86,76.96 52.86,76.96 C52.86,76.96 52.16,78.69 52.16,78.69 C52.16,78.69 55.16,74.65 55.16,74.65 C55.90,75.49 56.13,76.10 55.85,76.86 C54.83,79.54 51.87,81.00 51.14,80.77 C50.63,80.23 50.42,78.56 50.71,77.65 C51.05,76.65 52.60,75.70 53.42,76.07 C54.28,76.50 54.77,78.57 54.26,79.59 C53.73,80.59 52.76,80.90 52.23,80.92 C51.47,80.55 50.97,78.90 51.14,77.61 C51.32,76.36 52.16,74.97 52.81,74.90 C54.10,75.67 53.07,79.22 52.03,79.55 C51.40,79.38 50.86,77.99 51.00,76.95 C51.20,75.80 52.57,74.34 53.49,74.45 C55.60,74.79 55.24,78.78 54.38,79.16 C53.63,78.21 54.11,75.88 54.78,74.86 C56.34,72.59 59.10,72.82 59.54,73.32 C59.76,74.55 56.62,75.70 55.91,74.94 C55.73,74.08 56.75,72.20 57.91,71.42 C60.16,69.95 64.11,70.28 64.55,70.41 C64.55,70.41 59.75,71.10 59.75,71.10 C60.54,69.16 65.29,67.49 66.19,67.39 C66.59,67.35 66.95,67.45 67.38,67.66"
            fill="none" stroke="rgb(252, 244, 205)" stroke-width="10.00" stroke-opacity="1.00"
            stroke-linejoin="round" />
        <path
            d="M70.69,69.07 C70.69,69.07 67.90,70.16 67.90,70.16 C67.90,70.16 82.42,61.07 82.42,61.07 C82.42,61.07 68.23,68.67 68.23,68.67 C68.23,68.67 80.72,59.64 80.72,59.64 C80.72,59.64 70.10,66.02 70.10,66.02 C70.10,66.02 75.67,62.17 75.67,62.17 C75.67,62.17 66.75,67.03 66.75,67.03 C66.75,67.03 72.73,63.44 72.73,63.44 C72.73,63.44 62.97,69.97 62.97,69.97 C62.97,69.97 74.43,62.30 74.43,62.30 C74.43,62.30 70.24,65.33 70.24,65.33 C70.24,65.33 83.81,52.89 83.81,52.89 C83.81,52.89 74.30,61.31 74.30,61.31 C74.30,61.31 84.95,50.89 84.95,50.89 C84.95,50.89 75.35,60.12 75.35,60.12 C75.35,60.12 85.40,50.95 85.40,50.95 C85.40,50.95 78.45,56.20 78.45,56.20 C78.45,56.20 83.46,51.67 83.46,51.67 C83.46,51.67 68.20,66.26 68.20,66.26 C68.20,66.26 74.52,59.92 74.52,59.92 C74.52,59.92 64.25,68.74 64.25,68.74 C64.36,68.32 73.85,60.50 75.46,59.95 C75.51,59.93 75.58,59.93 75.66,59.96 C75.66,59.96 67.09,68.24 67.09,68.24 C67.21,68.22 79.98,59.02 84.33,56.40 C87.86,54.28 88.80,54.00 90.14,53.70 C89.79,55.95 89.22,57.37 87.88,59.06 C80.07,69.09 71.94,76.14 71.08,76.51 C70.85,75.60 72.58,72.65 73.81,70.90 C77.89,65.16 87.97,55.21 92.65,52.45 C94.90,51.15 98.96,49.96 100.45,50.24 C101.98,50.58 103.17,53.54 102.76,55.78 C102.31,57.96 99.78,63.13 97.95,65.68 C96.22,68.06 92.54,71.90 90.63,73.39 C89.74,74.07 87.38,75.13 86.50,74.80 C85.48,74.37 84.91,71.33 85.45,69.05 C86.05,66.69 88.90,61.29 90.85,58.99 C93.01,56.51 97.48,53.64 100.03,53.12 C101.09,52.93 103.94,53.55 104.69,54.73 C105.48,56.06 104.72,60.01 103.27,62.21 C101.79,64.38 97.46,68.16 95.09,69.34 C92.65,70.51 88.28,70.81 86.64,69.84 C85.02,68.81 83.46,64.70 83.67,62.01 C83.92,59.30 86.34,53.70 88.26,51.39 C90.24,49.10 94.84,46.60 97.02,46.62 C99.13,46.69 102.15,49.12 102.79,51.18 C103.35,53.19 102.78,58.12 101.80,60.66 C100.90,62.93 98.25,67.10 97.11,68.23 C94.83,70.45 92.41,71.48 91.98,71.49 C91.82,71.49 91.44,71.44 90.86,71.35"
            fill="none" stroke="rgb(252, 244, 205)" stroke-width="10.00" stroke-opacity="1.00"
            stroke-linejoin="round" />
        <path
            d="M108.89,72.19 C108.42,72.59 105.79,77.24 105.02,77.77 C103.91,78.45 102.01,78.02 101.18,76.04 C100.87,75.23 100.62,71.26 101.13,69.11 C102.03,65.37 104.85,61.27 106.18,60.43 C107.49,59.66 109.93,59.97 110.79,61.02 C111.62,62.12 112.16,65.70 111.82,67.85 C111.44,70.05 109.52,74.35 108.09,76.18 C106.67,77.95 103.27,80.53 101.50,81.22 C99.75,81.88 96.29,81.94 94.67,81.34 C93.04,80.70 90.33,78.23 89.46,76.55 C88.58,74.77 88.26,70.78 88.90,68.81 C89.61,66.79 92.64,63.41 94.85,62.25 C97.07,61.14 102.26,60.30 104.78,60.61 C107.36,60.96 110.78,62.68 111.88,63.67 C112.95,64.71 114.41,67.41 114.44,69.25 C114.42,70.87 113.04,73.90 111.85,75.11 C110.66,76.28 107.90,77.52 106.59,77.43 C105.23,77.29 103.07,75.46 102.57,74.00 C102.10,72.48 102.74,69.02 103.83,67.46 C105.00,65.84 108.52,63.84 110.45,63.73 C111.89,63.67 114.68,64.44 115.81,65.22 C117.22,66.22 118.63,69.37 118.54,71.20 C118.42,72.88 117.04,76.25 116.03,77.68 C115.06,79.03 113.30,80.41 112.34,80.45 C111.57,79.51 111.29,78.83 111.46,77.94 C111.80,76.19 113.57,72.79 115.08,71.19 C116.82,69.40 121.00,67.26 123.09,67.19 C124.63,67.16 127.44,68.10 128.45,68.94 C129.71,70.04 130.28,73.14 129.48,74.60 C128.61,76.06 125.06,78.19 122.71,78.64 C120.26,79.07 114.94,78.42 112.34,77.34 C109.80,76.24 105.46,72.89 103.86,70.88 C102.50,69.14 101.12,65.97 100.96,65.08 C100.65,63.17 101.41,60.62 102.44,59.89 C103.47,59.20 106.36,59.24 107.88,59.97 C109.43,60.75 112.07,63.51 112.99,65.32 C113.86,67.08 114.69,71.02 114.60,72.77 C114.49,74.48 113.33,76.99 112.36,77.60 C111.38,78.19 108.98,77.87 107.73,76.98 C106.46,76.03 104.16,72.80 103.47,70.90 C102.83,69.08 102.64,65.87 102.83,64.95 C103.25,63.04 105.01,60.99 106.29,60.78 C107.52,60.62 109.93,61.95 110.81,63.20 C111.62,64.38 112.33,67.06 112.19,68.19 C111.99,69.54 111.30,70.17 110.31,70.78 C108.76,70.29 107.69,68.40 107.44,67.33 C107.13,65.93 107.49,62.99 108.20,61.81 C109.02,60.53 111.59,59.44 113.26,59.72 C114.87,60.02 118.20,62.05 119.59,63.53 C120.89,64.95 122.66,68.21 123.02,69.74 C123.33,71.21 122.81,73.43 121.97,74.06 C121.06,74.70 118.38,74.58 116.82,73.76 C115.19,72.87 111.91,69.60 110.56,67.51 C107.72,62.98 107.61,58.09 108.30,57.02 C109.26,56.50 111.21,57.30 112.55,58.67 C117.24,63.58 121.98,77.07 122.57,78.23 C123.79,77.93 124.60,77.32 125.56,75.84 C127.25,73.22 129.47,70.52 130.45,69.98 C131.42,69.50 133.22,70.16 134.00,71.22 C137.93,76.73 135.60,83.75 134.89,84.54 C134.89,84.54 133.48,84.80 133.48,84.80 C132.55,84.29 130.98,82.16 130.19,79.66 C129.69,78.02 129.57,74.01 130.02,71.63 C130.28,70.44 131.78,67.54 132.95,66.85 C134.03,66.26 136.21,66.89 137.02,67.92 C140.86,73.08 137.39,78.53 136.69,79.38 C135.98,78.02 135.85,76.68 136.52,74.93 C137.64,72.03 139.98,68.76 140.95,67.95 C141.94,67.15 144.43,66.48 145.89,67.58 C147.13,68.57 146.36,73.94 145.07,75.00 C144.91,75.13 144.50,75.40 143.85,75.82 C143.85,75.82 142.77,75.62 142.77,75.62 C141.70,74.05 141.85,69.84 143.35,67.13 C143.95,66.09 145.93,64.57 146.92,64.50 C147.89,64.46 149.71,65.68 150.12,66.55 C151.74,70.17 150.40,73.12 149.78,74.14 C148.32,73.64 147.62,72.95 147.29,71.36 C146.70,68.54 146.57,64.67 146.94,63.43 C147.77,64.72 147.80,70.31 147.17,74.48 C146.20,80.67 143.40,85.55 142.25,86.14 C140.14,85.70 139.71,81.50 139.78,80.95 C141.96,83.02 142.36,97.91 142.37,101.85 C142.37,101.85 145.03,96.18 145.03,96.18 C145.03,96.18 146.13,95.81 146.13,95.81 C148.70,97.84 148.91,106.19 148.39,107.90 C147.52,107.19 147.04,106.18 146.80,104.12 C146.04,97.37 148.12,92.30 149.09,91.45 C149.09,91.45 150.79,91.34 150.79,91.34 C151.82,92.02 152.97,94.07 153.28,95.71 C153.85,98.89 152.74,104.54 151.43,106.41 C151.43,106.41 150.33,106.55 150.33,106.55 C147.55,103.69 147.50,96.33 147.95,95.13 C147.95,95.13 149.02,94.72 149.02,94.72 C149.81,95.27 151.16,97.55 151.93,100.26 C152.43,102.04 152.98,107.04 152.79,109.23 C152.55,111.80 151.12,115.87 150.06,117.08 C149.01,118.21 146.94,118.94 145.90,118.54 C144.86,118.11 143.32,115.81 143.02,114.19 C142.74,112.47 143.36,108.65 144.26,106.83 C145.19,105.01 148.01,102.08 149.68,101.21 C151.37,100.37 154.71,100.16 156.07,100.81 C157.42,101.49 158.96,104.13 159.04,105.94 C159.09,107.79 157.75,111.91 156.45,113.90 C155.14,115.84 151.50,119.18 149.68,120.14 C148.25,120.87 145.51,121.55 144.20,121.47 C142.60,121.34 140.01,119.54 139.32,118.14 C138.69,116.75 138.75,113.54 139.42,112.11 C140.13,110.70 142.60,108.75 144.17,108.34 C145.72,107.97 148.82,108.44 150.08,109.23 C151.27,110.01 152.69,112.27 152.89,113.56 C153.28,116.48 151.84,117.92 150.97,118.51 C150.97,118.51 150.06,117.89 150.06,117.89 C149.16,114.25 151.46,108.91 152.19,108.07 C152.15,109.85 143.30,117.39 139.75,118.71 C136.82,119.76 133.01,119.78 131.69,119.24 C130.29,118.63 128.56,116.31 128.31,114.79 C128.09,113.30 128.87,110.37 129.72,109.39 C130.61,108.42 132.84,108.12 133.87,108.90 C134.93,109.77 136.20,113.14 136.25,115.40 C136.27,117.68 135.18,122.44 134.08,125.01 C132.88,127.74 129.23,132.61 128.31,132.80 C128.09,132.84 127.51,132.85 126.57,132.81 C125.90,131.97 125.61,129.27 126.21,126.47 C127.43,121.06 129.94,118.74 130.71,118.20 C130.71,118.20 132.39,118.23 132.39,118.23 C133.13,119.09 133.36,121.53 132.91,123.46 C131.92,127.48 126.41,135.97 124.11,137.28 C122.95,137.89 121.34,137.06 121.00,135.73 C120.67,134.30 121.14,129.68 122.15,127.13 C122.83,125.49 124.87,123.52 125.88,123.58 C126.89,123.71 128.22,125.90 128.36,127.73 C128.48,129.54 127.69,133.85 126.89,136.02 C125.21,140.45 123.04,142.41 122.38,142.86 C122.38,142.86 120.86,142.74 120.86,142.74 C118.93,140.27 119.79,131.69 120.51,130.07 C120.86,129.34 121.36,129.01 122.47,128.67 C123.49,129.42 124.34,130.64 124.76,132.29 C125.49,135.29 125.05,141.33 124.16,143.41 C123.41,142.58 123.22,141.25 123.61,138.84 C124.29,134.78 127.36,126.68 128.83,125.77 C129.38,127.23 129.50,127.98 129.15,129.09 C125.08,142.47 121.01,144.56 120.01,144.97 C120.01,144.97 118.15,141.58 118.15,141.58 C118.98,141.46 119.72,143.69 119.75,144.65 C119.75,145.65 118.97,147.40 118.30,147.77 C116.64,148.63 115.21,146.19 115.02,145.69 C116.26,144.81 117.98,149.45 117.80,150.78 C117.80,150.78 118.85,147.73 118.85,147.73 C119.39,146.21 121.38,140.27 122.58,138.40 C123.27,137.34 133.45,128.23 134.08,128.03 C134.08,128.03 136.41,125.28 136.41,125.28 C136.20,124.59 120.43,133.41 116.95,135.03 C114.68,136.08 110.29,137.65 107.18,138.14 C106.11,138.29 103.01,137.73 101.91,136.71 C100.89,135.69 100.07,132.45 100.26,130.32 C100.46,128.26 101.84,123.72 102.90,121.60 C103.93,119.55 106.41,116.18 107.71,115.03 C109.00,113.91 111.35,113.05 112.40,113.32 C113.42,113.62 115.06,115.52 115.50,116.90 C115.92,118.31 115.88,121.80 115.40,123.57 C114.90,125.38 113.15,128.53 111.94,129.88 C110.80,131.12 108.44,132.65 107.40,132.76 C106.29,132.83 104.44,131.52 103.76,130.18 C103.11,128.86 102.53,125.40 102.68,123.67 C102.86,121.84 104.14,119.07 105.13,118.37 C106.11,117.73 108.18,118.15 108.87,119.11 C109.55,120.12 109.75,123.09 109.28,124.82 C108.83,126.41 107.26,129.18 106.13,130.43 C105.54,131.07 104.80,131.32 103.41,131.49 C102.57,130.85 101.99,128.50 102.15,126.45 C102.34,124.22 103.83,118.94 105.12,116.33 C106.53,113.55 110.32,108.95 112.34,107.56 C113.91,106.50 116.78,105.48 118.00,105.48 C119.52,105.51 121.31,107.35 121.35,108.80 C121.35,110.14 120.03,113.16 118.95,114.47 C117.88,115.74 115.63,117.06 114.69,116.85 C113.70,116.58 112.39,114.09 112.17,112.04 C111.98,109.94 112.63,104.97 113.46,102.71 C114.42,100.19 116.76,97.22 117.97,96.31 C119.12,95.52 121.87,94.77 123.34,95.23 C124.67,95.70 126.17,97.85 126.15,99.29 C126.09,100.74 124.48,103.95 123.09,105.49 C121.71,106.99 118.41,109.30 116.89,109.76 C115.31,110.21 112.87,109.32 112.25,108.03 C111.67,106.70 111.95,102.85 112.81,100.74 C113.74,98.53 116.87,94.74 118.77,93.65 C120.27,92.81 123.19,92.13 124.48,92.27 C126.12,92.48 128.02,94.63 127.90,96.19 C127.73,97.78 125.27,101.27 123.15,102.89 C121.04,104.48 115.78,106.86 113.17,107.38 C110.46,107.88 105.66,107.31 103.71,106.24 C101.82,105.15 99.47,101.96 98.90,99.79 C98.68,98.86 98.79,95.88 99.46,94.64 C100.23,93.28 102.73,92.40 104.05,93.05 C105.39,93.76 107.28,97.11 107.54,99.42 C107.77,101.79 106.70,106.98 105.49,109.53 C104.34,111.90 101.20,116.00 99.58,117.46 C98.00,118.84 95.30,119.93 94.29,119.53 C93.32,119.09 92.32,116.56 92.27,114.68 C92.24,112.94 92.83,108.77 93.34,106.99 C94.04,104.65 94.80,103.75 95.85,102.89 C97.01,103.91 97.22,106.83 97.03,108.58 C96.53,113.00 93.51,120.99 91.49,123.32 C91.00,123.88 90.45,124.07 89.41,124.14 C88.06,122.58 87.00,117.07 87.12,115.03 C87.28,113.04 87.77,112.01 88.18,111.46 C88.18,111.46 89.53,111.44 89.53,111.44 C90.40,112.32 91.43,114.92 91.68,116.87 C91.91,118.89 91.51,122.98 90.91,124.76 C89.57,128.57 87.52,129.74 86.18,130.27 C85.02,129.94 84.03,129.21 83.40,127.98 C81.26,123.77 82.38,120.88 82.89,120.07 C84.25,121.40 84.90,122.47 85.19,124.11 C85.64,126.79 85.43,130.05 85.09,130.83 C84.37,132.40 81.92,133.19 80.56,132.52 C77.99,131.18 77.64,128.08 77.66,127.62 C77.66,127.62 80.46,131.61 80.46,131.61 C80.46,131.61 76.02,129.85 76.02,129.85 C76.02,129.85 76.27,132.14 76.27,132.14 C76.27,132.14 73.82,132.03 73.82,132.03 C73.82,132.03 74.11,134.61 74.11,134.61 C74.11,134.61 72.90,131.71 72.90,131.71 C72.90,131.71 73.60,134.14 73.60,134.14 C73.63,134.23 88.54,134.09 94.17,133.26 C95.62,133.07 96.47,133.47 96.51,133.77 C96.20,134.18 93.94,133.93 92.66,133.33 C91.44,132.73 88.23,129.58 86.37,127.07 C84.51,124.54 81.36,118.86 80.77,117.00 C79.97,114.41 80.23,112.20 80.91,111.69 C83.29,111.69 86.41,116.99 86.52,118.55 C85.50,119.41 84.73,119.64 83.76,119.12 C81.63,117.92 77.78,113.40 76.59,110.44 C75.50,107.61 75.75,103.92 76.77,102.56 C76.77,102.56 77.78,102.36 77.78,102.36 C79.26,103.42 80.91,108.02 81.04,111.43 C81.11,114.46 79.88,118.03 78.93,118.54 C77.97,118.04 76.71,114.05 76.34,110.33 C75.68,103.41 76.28,101.56 76.55,101.08 C77.51,102.96 78.37,117.62 77.80,119.72 C77.76,119.86 77.68,120.02 77.55,120.21 C77.55,120.21 74.45,103.94 74.45,103.94 C74.45,103.94 76.38,109.26 76.38,109.26 C76.38,109.26 72.83,94.81 72.83,94.81 C72.83,94.81 74.47,104.31 74.47,104.31 C74.47,104.31 69.06,92.56 69.06,92.56 C69.06,92.56 71.02,97.85 71.02,97.85 C71.02,97.85 69.08,88.93 69.08,88.93 C70.45,90.34 69.54,93.20 69.22,93.71 C68.14,93.40 67.53,92.89 67.09,91.68 C65.51,87.26 65.96,84.77 66.33,83.52 C66.33,83.52 67.28,82.85 67.28,82.85 C70.30,83.22 72.94,87.10 72.94,87.93 C71.06,87.72 70.50,83.12 71.01,82.29 C72.39,82.71 73.15,84.54 73.64,86.91 C73.66,86.96 73.71,87.11 73.72,87.05 C73.72,87.05 75.00,82.76 75.00,82.76 C75.00,82.76 76.02,85.44 76.02,85.44 C76.25,85.15 76.46,85.10 76.63,85.29 C76.81,85.48 77.20,86.18 77.81,87.39"
            fill="none" stroke="rgb(252, 244, 205)" stroke-width="30.00" stroke-opacity="1.00"
            stroke-linejoin="round" />
        <path
            d="M52.08,69.00 C56.61,66.38 66.96,60.44 70.93,57.22 C74.67,54.14 80.40,46.79 82.16,43.47 C84.51,38.90 85.80,36.65 86.75,35.61 C87.67,34.65 90.26,33.19 91.68,32.76 C93.17,32.34 96.61,32.16 98.63,32.29 C100.84,32.45 104.16,33.15 106.79,34.32 C107.81,34.77 108.66,35.36 108.90,35.66"
            fill="none" stroke="rgb(196, 134, 63)" stroke-width="5.00" stroke-opacity="1.00"
            stroke-linejoin="round" />
        <path
            d="M104.70,34.18 C105.06,34.09 105.98,34.51 108.34,35.97 C114.41,39.89 124.15,44.07 127.69,46.07 C129.75,47.24 135.35,47.70 141.50,47.25 C150.65,46.48 160.61,46.64 162.13,47.22 C163.05,47.60 164.67,49.10 165.56,50.47 C166.58,52.07 167.90,56.13 168.17,57.86 C168.34,58.99 168.42,60.05 168.36,60.17 C168.35,60.18 168.34,60.21 168.33,60.25"
            fill="none" stroke="rgb(196, 134, 63)" stroke-width="5.00" stroke-opacity="1.00"
            stroke-linejoin="round" />
        <path
            d="M167.30,55.12 C167.31,55.33 167.66,57.70 167.37,61.33 C166.49,72.05 167.14,82.79 167.64,85.98 C167.91,87.68 168.20,89.49 168.19,89.57"
            fill="none" stroke="rgb(196, 134, 63)" stroke-width="5.00" stroke-opacity="1.00"
            stroke-linejoin="round" />
        <path
            d="M167.41,84.94 C167.24,85.14 167.92,88.44 168.97,90.93 C169.49,92.16 172.58,97.64 173.25,99.41 C174.33,102.27 176.66,112.16 177.19,116.26 C177.49,118.69 177.29,122.76 176.90,123.86 C175.61,127.19 172.45,130.52 171.10,131.34"
            fill="none" stroke="rgb(196, 134, 63)" stroke-width="5.00" stroke-opacity="1.00"
            stroke-linejoin="round" />
        <path
            d="M173.55,129.56 C172.82,130.58 169.66,132.84 167.29,133.80 C165.68,134.44 157.66,137.24 155.18,138.51 C153.23,139.52 150.66,141.43 149.62,142.67 C148.49,144.05 147.10,146.50 146.10,148.80 C145.18,150.96 143.51,154.93 143.16,155.64"
            fill="none" stroke="rgb(196, 134, 63)" stroke-width="5.00" stroke-opacity="1.00"
            stroke-linejoin="round" />
        <path
            d="M145.01,149.85 C145.00,149.84 145.02,149.80 145.06,149.75 C145.15,149.61 145.52,149.14 145.54,149.11"
            fill="none" stroke="rgb(196, 134, 63)" stroke-width="5.00" stroke-opacity="1.00"
            stroke-linejoin="round" />
        <path
            d="M145.39,149.42 C145.39,149.42 145.79,149.04 145.79,149.04 C145.61,150.24 143.91,155.82 143.39,157.01 C141.95,160.26 136.16,169.08 133.97,170.73 C131.63,172.45 127.43,173.46 125.61,173.47 C125.27,173.47 124.69,173.43 123.87,173.36"
            fill="none" stroke="rgb(196, 134, 63)" stroke-width="5.00" stroke-opacity="1.00"
            stroke-linejoin="round" />
        <path
            d="M94.85,158.03 C95.04,158.13 96.09,158.71 96.39,158.90 C99.24,160.73 122.56,171.00 124.18,171.76 C128.84,173.94 131.15,173.92 131.51,173.89"
            fill="none" stroke="rgb(196, 134, 63)" stroke-width="5.00" stroke-opacity="1.00"
            stroke-linejoin="round" />
        <path
            d="M53.56,139.36 C53.56,139.36 53.82,139.35 53.82,139.35 C53.88,139.46 53.73,146.57 54.46,148.10 C55.25,149.70 57.51,151.94 59.05,152.90 C61.88,154.62 67.92,155.07 75.83,154.84 C82.00,154.68 88.39,155.73 91.71,156.87 C93.31,157.42 94.46,157.92 96.56,158.92 C96.87,159.07 97.08,159.17 97.20,159.23"
            fill="none" stroke="rgb(196, 134, 63)" stroke-width="5.00" stroke-opacity="1.00"
            stroke-linejoin="round" />
        <path
            d="M49.42,105.06 C49.48,105.12 51.03,108.92 51.99,111.22 C54.37,117.21 54.84,123.90 54.93,133.10 C54.94,134.79 54.87,136.39 54.72,137.72 C54.60,138.79 54.38,140.11 54.14,141.33"
            fill="none" stroke="rgb(196, 134, 63)" stroke-width="5.00" stroke-opacity="1.00"
            stroke-linejoin="round" />
        <path
            d="M53.26,69.03 C53.16,69.02 52.97,69.06 52.71,69.23 C51.16,70.27 48.30,72.95 47.22,74.69 C46.28,76.28 45.15,79.83 45.09,82.03 C45.02,86.13 47.30,97.07 48.28,100.84 C49.92,107.16 51.72,111.15 52.05,111.76"
            fill="none" stroke="rgb(196, 134, 63)" stroke-width="5.00" stroke-opacity="1.00"
            stroke-linejoin="round" />
    </g>
</svg>