<?xml version="1.0" encoding="UTF-8" standalone="no"?>
<!DOCTYPE svg PUBLIC "-//W3C//DTD SVG 1.1//EN" "http://www.w3.org/Graphics/SVG/1.1/DTD/svg11.dtd">
<svg width="47.00" height="46.00" viewBox="0.00 0.00 47.00 46.00" xmlns="http://www.w3.org/2000/svg" xmlns:xlink="http://www.w3.org/1999/xlink">
<g stroke-linecap="round" id="レイヤー_3">
<path d="M17.45,17.98 C16.40,17.53 18.86,14.94 19.93,15.13 C20.04,15.26 20.27,16.81 18.97,17.14 C18.83,17.06 18.21,15.39 19.88,14.95 C19.88,14.95 20.13,16.78 20.13,16.78 C20.13,16.78 20.30,15.41 20.30,15.41 C20.30,15.41 21.26,16.82 21.26,16.82" fill="none" stroke="rgb(252, 244, 205)" stroke-width="8.86" stroke-opacity="1.00" stroke-linejoin="round"/>
<path d="M17.52,9.33 C17.52,9.33 17.29,9.40 17.29,9.40 C17.29,9.40 18.74,6.85 18.74,6.85 C18.74,6.85 17.93,7.58 17.93,7.58 C17.93,7.58 18.45,6.45 18.45,6.45 C18.45,6.45 17.90,7.36 17.90,7.36 C17.90,7.36 19.09,5.88 19.09,5.88 C19.59,5.47 19.13,6.17 19.16,5.83 C19.20,5.50 20.12,5.48 19.97,5.87 C19.79,6.28 18.86,6.10 18.95,5.67 C19.04,5.28 19.76,5.58 19.49,5.91 C19.37,6.07 19.19,6.09 19.10,6.07 C18.87,5.90 19.36,5.27 19.52,5.52 C19.70,5.82 19.48,6.03 19.42,6.05 C19.01,5.79 19.95,5.29 20.72,5.75 C21.04,5.95 21.14,6.14 21.15,6.23 C21.15,6.23 20.22,5.65 20.22,5.65 C20.22,5.65 21.68,6.25 21.68,6.25 C21.39,6.69 20.47,5.88 20.88,5.42 C21.36,4.94 22.08,6.42 21.48,6.71 C21.00,6.93 20.61,6.00 20.68,5.74 C20.68,5.74 22.40,6.76 22.40,6.76 C22.40,6.76 21.62,5.81 21.62,5.81 C21.62,5.81 23.19,6.84 23.19,6.84 C21.96,7.53 22.10,5.66 22.12,5.58 C22.12,5.58 22.96,6.51 22.96,6.51 C22.96,6.51 24.85,7.61 24.85,7.61 C24.85,7.61 26.20,8.67 26.20,8.67 C26.20,8.67 24.36,7.11 24.36,7.11 C24.36,7.11 26.45,8.61 26.45,8.61 C26.45,8.61 24.69,7.44 24.69,7.44 C24.69,7.44 26.92,8.66 26.92,8.66 C26.92,8.66 25.91,7.98 25.91,7.98 C25.91,7.98 28.38,9.27 28.38,9.27 C28.38,9.27 27.27,8.76 27.27,8.76 C27.27,8.76 29.64,9.05 29.64,9.05 C29.64,9.05 28.18,8.65 28.18,8.65 C28.18,8.65 30.54,8.89 30.54,8.89 C30.54,8.89 28.59,8.64 28.59,8.64 C28.59,8.64 31.04,8.92 31.04,8.92 C31.04,8.92 32.36,8.78 32.36,8.78 C32.36,8.78 31.30,8.96 31.30,8.96 C31.30,8.96 33.42,8.92 33.42,8.92 C33.42,8.92 32.19,8.95 32.19,8.95 C32.19,8.95 30.44,8.58 30.44,8.58 C30.44,8.58 33.07,8.88 33.07,8.88 C33.07,8.88 30.83,8.64 30.83,8.64 C30.83,8.64 33.30,8.49 33.30,8.49 C33.30,8.49 31.95,8.58 31.95,8.58 C31.95,8.58 33.90,8.97 33.90,8.97 C33.57,9.45 34.33,8.47 34.36,9.01 C34.36,9.55 33.58,9.35 33.82,8.84 C34.07,8.35 34.83,9.06 34.56,9.52 C34.51,9.61 34.41,9.66 34.30,9.68 C33.89,9.52 34.36,8.58 34.70,9.03 C35.04,9.50 34.65,9.85 34.55,9.89 C34.55,9.89 34.69,8.81 34.69,8.81 C34.69,8.81 34.79,10.69 34.79,10.69 C34.79,10.69 34.19,12.71 34.19,12.71 C34.19,12.71 34.49,11.69 34.49,11.69 C34.49,11.69 34.38,13.64 34.38,13.64 C34.38,13.64 34.61,10.67 34.61,10.67 C34.61,10.67 34.60,15.42 34.60,15.42 C34.60,15.42 34.19,12.44 34.19,12.44 C34.19,12.44 34.53,17.18 34.53,17.18 C34.53,17.18 34.36,15.22 34.36,15.22 C34.36,15.22 34.92,18.57 34.92,18.57 C34.92,18.57 34.53,16.21 34.53,16.21 C34.53,16.21 35.34,18.40 35.34,18.40 C35.34,18.40 34.31,15.09 34.31,15.09 C34.31,15.09 35.27,18.51 35.27,18.51 C35.27,18.51 34.62,15.66 34.62,15.66 C34.62,15.66 35.40,18.78 35.40,18.78 C35.40,18.78 35.11,15.42 35.11,15.42 C35.11,15.42 35.23,18.02 35.23,18.02 C35.23,18.02 34.85,15.71 34.85,15.71 C34.85,15.71 35.77,20.05 35.77,20.05 C35.77,20.05 35.78,18.99 35.78,18.99 C35.78,18.99 36.31,20.37 36.31,20.37 C36.31,20.37 35.41,18.10 35.41,18.10 C35.41,18.10 36.49,21.30 36.49,21.30 C36.49,21.30 35.75,19.04 35.75,19.04 C35.75,19.04 36.64,22.13 36.64,22.13 C36.64,22.13 35.79,20.06 35.79,20.06 C35.79,20.06 36.51,22.94 36.51,22.94 C36.51,22.94 36.37,21.10 36.37,21.10 C36.37,21.10 36.38,23.52 36.38,23.52 C36.38,23.52 36.36,21.59 36.36,21.59 C36.36,21.59 36.61,23.99 36.61,23.99 C36.61,23.99 36.67,22.22 36.67,22.22 C36.67,22.22 36.59,24.12 36.59,24.12 C36.59,24.12 36.66,22.81 36.66,22.81 C36.66,22.81 36.51,24.81 36.51,24.81 C36.51,24.81 36.33,23.27 36.33,23.27 C36.33,23.27 35.61,24.99 35.61,24.99 C34.88,24.26 35.87,25.14 34.88,24.94 C34.79,24.92 34.72,24.88 34.64,24.81" fill="none" stroke="rgb(252, 244, 205)" stroke-width="2.21" stroke-opacity="1.00" stroke-linejoin="round"/>
<path d="M36.62,25.24 C36.65,25.22 35.88,25.60 35.70,25.68 C35.14,25.91 34.82,25.87 34.68,25.83 C34.42,24.77 36.77,24.11 36.88,24.17 C36.88,24.17 35.56,25.26 35.56,25.26 C35.56,25.26 36.90,23.72 36.90,23.72 C36.90,23.72 35.91,25.10 35.91,25.10 C35.91,25.10 36.65,23.76 36.65,23.76 C36.65,23.76 35.87,24.74 35.87,24.74 C35.21,23.77 35.63,24.46 36.78,23.92 C36.78,23.92 35.95,25.16 35.95,25.16 C35.95,25.16 36.85,23.96 36.85,23.96 C36.85,23.96 36.21,24.86 36.21,24.86 C36.21,24.86 36.87,23.86 36.87,23.86 C36.87,23.86 35.85,25.02 35.85,25.02 C35.60,24.58 36.34,26.88 33.65,25.65 C33.65,25.65 34.84,25.20 34.84,25.20 C34.84,25.20 32.90,26.13 32.90,26.13 C32.90,26.13 35.00,25.35 35.00,25.35 C35.00,25.35 32.09,26.38 32.09,26.38 C32.09,26.38 34.18,25.83 34.18,25.83 C34.18,25.83 32.65,26.67 32.65,26.67 C32.65,26.67 34.44,25.77 34.44,25.77 C34.44,25.77 33.01,26.46 33.01,26.46 C33.01,26.46 34.15,25.76 34.15,25.76 C34.15,25.76 31.66,27.26 31.66,27.26 C31.66,27.26 32.75,26.44 32.75,26.44 C32.75,26.44 30.36,28.08 30.36,28.08 C30.36,28.08 31.51,27.09 31.51,27.09 C31.51,27.09 28.90,29.73 28.90,29.73 C28.90,29.73 31.15,27.71 31.15,27.71 C31.15,27.71 29.68,29.45 29.68,29.45 C29.68,29.45 31.40,27.50 31.40,27.50 C31.40,27.50 30.03,29.75 30.03,29.75 C30.03,29.75 31.57,27.36 31.57,27.36 C31.57,27.36 29.39,30.96 29.39,30.96 C29.39,30.96 30.12,28.68 30.12,28.68 C30.12,28.68 29.31,31.39 29.31,31.39 C29.31,31.39 29.41,30.26 29.41,30.26 C29.41,30.26 28.79,32.37 28.79,32.37 C28.79,32.37 29.58,30.25 29.58,30.25 C29.58,30.25 28.52,32.87 28.52,32.87 C28.52,32.87 29.72,30.10 29.72,30.10 C29.72,30.10 28.83,32.54 28.83,32.54 C28.83,32.54 29.71,30.39 29.71,30.39 C29.71,30.39 28.54,32.90 28.54,32.90 C28.54,32.90 29.77,30.74 29.77,30.74 C29.77,30.74 28.19,32.89 28.19,32.89 C28.19,32.89 28.90,31.06 28.90,31.06 C28.90,31.06 28.02,33.07 28.02,33.07 C28.02,33.07 28.67,32.13 28.67,32.13 C28.67,32.13 27.33,33.79 27.33,33.79 C27.33,33.79 28.16,32.54 28.16,32.54 C28.27,32.58 29.46,34.41 27.57,34.02 C27.57,34.02 27.81,32.78 27.81,32.78 C28.34,33.09 27.41,34.36 26.96,34.13 C26.53,33.88 27.44,33.02 27.63,33.50 C27.79,33.98 26.77,34.38 26.62,33.95 C26.56,33.78 26.65,33.45 26.76,33.34 C27.13,33.48 26.60,34.24 26.32,33.81 C26.22,33.64 26.16,33.16 26.17,33.03" fill="none" stroke="rgb(252, 244, 205)" stroke-width="2.21" stroke-opacity="1.00" stroke-linejoin="round"/>
<path d="M20.88,31.18 C20.88,31.18 20.80,31.00 20.80,31.00 C20.80,31.00 25.15,32.76 25.15,32.76 C25.15,32.76 20.82,30.75 20.82,30.75 C20.82,30.75 24.80,32.87 24.80,32.87 C24.80,32.87 20.43,31.15 20.43,31.15 C20.43,31.15 26.25,33.45 26.25,33.45 C26.25,33.45 23.45,32.24 23.45,32.24 C23.45,32.24 26.62,33.16 26.62,33.16 C26.62,33.16 23.78,32.31 23.78,32.31 C23.78,32.31 25.63,33.07 25.63,33.07 C25.63,33.07 21.20,31.03 21.20,31.03 C21.20,31.03 25.92,33.47 25.92,33.47 C25.92,33.47 21.64,31.79 21.64,31.79 C21.64,31.79 25.00,33.40 25.00,33.40 C25.00,33.40 19.86,30.51 19.63,30.42 C19.59,30.41 19.53,30.39 19.47,30.36" fill="none" stroke="rgb(252, 244, 205)" stroke-width="2.21" stroke-opacity="1.00" stroke-linejoin="round"/>
<path d="M18.30,30.16 C18.30,30.16 21.41,30.54 21.41,30.54 C21.41,30.54 17.08,29.92 17.08,29.92 C17.08,29.92 19.35,30.38 19.35,30.38 C17.91,30.08 17.03,29.90 16.69,29.82 C16.36,29.74 16.11,29.67 15.95,29.61" fill="none" stroke="rgb(252, 244, 205)" stroke-width="2.21" stroke-opacity="1.00" stroke-linejoin="round"/>
<path d="M13.61,30.05 C13.61,30.05 13.30,30.06 13.30,30.06 C13.30,30.06 17.45,29.84 17.45,29.84 C17.45,29.84 14.08,29.94 14.08,29.94 C14.08,29.94 16.74,29.99 16.74,29.99 C16.74,29.99 14.09,30.13 14.09,30.13 C14.09,30.13 15.87,30.15 15.87,30.15 C15.87,30.15 12.53,29.93 12.53,29.93 C12.53,29.93 14.89,29.87 14.89,29.87 C14.89,29.87 12.27,29.38 12.27,29.38 C12.27,29.38 11.91,27.92 11.91,27.92 C11.91,27.92 12.13,28.97 12.13,28.97 C11.90,28.68 12.43,29.85 12.49,29.77 C12.51,29.74 12.54,29.68 12.59,29.57" fill="none" stroke="rgb(252, 244, 205)" stroke-width="2.21" stroke-opacity="1.00" stroke-linejoin="round"/>
<path d="M12.42,24.97 C12.39,24.66 12.27,24.12 12.18,23.74 C12.16,23.65 12.15,23.55 12.14,23.45 C12.14,23.45 12.52,27.92 12.52,27.92 C12.52,27.92 12.18,23.17 12.18,23.17 C12.18,23.17 12.38,27.88 12.38,27.88 C12.38,27.88 12.13,24.55 12.13,24.55 C12.13,24.55 12.15,27.53 12.15,27.53 C12.15,27.53 12.09,24.98 12.09,24.98 C12.09,24.98 12.15,27.29 12.15,27.29 C12.15,27.29 12.48,23.31 12.48,23.31 C12.48,23.31 12.49,25.99 12.49,25.99 C12.49,25.88 12.45,25.52 12.39,25.13 C12.35,24.84 12.28,24.39 12.25,24.21" fill="none" stroke="rgb(252, 244, 205)" stroke-width="2.21" stroke-opacity="1.00" stroke-linejoin="round"/>
<path d="M11.37,18.28 C11.37,18.28 11.22,18.24 11.22,18.24 C11.22,18.24 12.53,23.68 12.53,23.68 C12.53,23.68 10.91,18.56 10.91,18.56 C10.91,18.56 12.32,23.04 12.32,23.04 C12.32,23.04 10.81,19.29 10.81,19.29 C10.81,19.29 12.22,22.66 12.22,22.66 C12.22,22.66 10.90,19.52 10.90,19.52 C10.90,19.52 11.90,21.96 11.90,21.96 C11.90,21.96 10.86,19.71 10.86,19.71 C10.86,19.71 11.69,22.23 11.69,22.23 C11.69,22.23 10.55,18.57 10.55,18.57 C10.55,18.57 11.37,21.18 11.37,21.18 C11.37,21.18 10.51,17.77 10.51,17.77 C10.51,17.77 11.56,21.80 11.56,21.80 C11.56,21.80 10.47,18.44 10.47,18.44 C10.47,18.44 12.28,24.02 12.28,24.02 C12.28,24.02 10.71,18.05 10.71,18.05 C10.71,18.05 10.34,17.06 10.34,17.06 C10.34,17.06 10.72,18.28 10.72,18.28 C10.72,18.28 10.18,15.83 10.18,15.83 C10.18,15.83 10.62,17.61 10.62,17.61 C10.62,17.61 10.18,15.97 10.18,15.97 C10.18,15.97 10.25,14.88 10.25,14.88 C10.39,14.98 9.74,13.85 11.17,13.59 C11.17,13.59 10.28,14.95 10.28,14.95 C10.05,14.70 10.37,13.72 10.79,13.90 C11.24,14.14 10.82,14.97 10.52,14.98 C10.52,14.98 10.65,13.64 10.65,13.64 C10.65,13.64 10.48,14.68 10.48,14.68 C10.18,14.60 10.35,13.49 10.80,13.54 C11.27,13.62 11.19,14.51 11.00,14.59 C9.77,13.01 12.04,13.18 12.14,13.29 C12.41,14.79 10.98,11.93 13.24,12.65 C13.24,12.65 12.18,12.80 12.18,12.80 C12.36,12.37 13.41,12.00 13.61,11.98 C13.69,11.97 13.77,11.99 13.87,12.04" fill="none" stroke="rgb(252, 244, 205)" stroke-width="2.21" stroke-opacity="1.00" stroke-linejoin="round"/>
<path d="M14.60,12.35 C14.60,12.35 13.98,12.59 13.98,12.59 C13.98,12.59 17.19,10.57 17.19,10.57 C17.19,10.57 14.06,12.26 14.06,12.26 C14.06,12.26 16.81,10.25 16.81,10.25 C16.81,10.25 14.47,11.67 14.47,11.67 C14.47,11.67 15.70,10.81 15.70,10.81 C15.70,10.81 13.73,11.90 13.73,11.90 C13.73,11.90 15.05,11.10 15.05,11.10 C15.05,11.10 12.89,12.55 12.89,12.55 C12.89,12.55 15.42,10.84 15.42,10.84 C15.42,10.84 14.50,11.52 14.50,11.52 C14.50,11.52 17.49,8.75 17.49,8.75 C17.49,8.75 15.40,10.62 15.40,10.62 C15.40,10.62 17.75,8.31 17.75,8.31 C17.75,8.31 15.63,10.36 15.63,10.36 C15.63,10.36 17.84,8.32 17.84,8.32 C17.84,8.32 16.31,9.49 16.31,9.49 C16.31,9.49 17.42,8.48 17.42,8.48 C17.42,8.48 14.05,11.73 14.05,11.73 C14.05,11.73 15.44,10.32 15.44,10.32 C15.44,10.32 13.18,12.28 13.18,12.28 C13.18,12.28 15.70,10.32 15.70,10.32 C15.70,10.32 13.80,12.17 13.80,12.17 C13.80,12.17 18.89,8.93 18.89,8.93 C18.89,8.93 14.68,14.00 14.68,14.00 C14.59,13.63 17.28,10.16 18.82,9.06 C20.09,8.18 21.68,8.14 21.72,8.94 C21.73,9.78 20.30,12.16 19.38,12.99 C18.74,13.56 17.72,13.75 17.78,12.81 C17.86,11.83 19.51,9.36 20.57,8.94 C21.36,8.65 22.50,9.30 22.05,10.35 C21.60,11.35 19.38,12.86 18.51,12.68 C17.61,12.47 17.35,10.19 18.09,8.96 C18.86,7.72 20.97,7.15 21.50,7.96 C21.95,8.70 21.38,10.92 20.71,11.84 C20.39,12.26 19.55,12.88 19.30,12.89 C19.26,12.89 19.18,12.88 19.05,12.85" fill="none" stroke="rgb(252, 244, 205)" stroke-width="2.21" stroke-opacity="1.00" stroke-linejoin="round"/>
<path d="M23.03,13.04 C22.92,13.13 22.34,14.16 22.17,14.28 C21.63,14.62 21.10,13.30 21.31,12.36 C21.66,10.92 23.04,10.06 23.45,10.56 C23.83,11.07 23.50,13.09 22.85,13.93 C22.22,14.73 20.61,15.35 19.89,15.08 C19.14,14.78 18.33,13.17 18.62,12.29 C18.94,11.35 20.94,10.32 22.12,10.47 C23.08,10.60 24.24,11.69 24.25,12.39 C24.25,13.11 23.12,14.25 22.52,14.21 C21.87,14.14 21.41,12.72 21.91,11.99 C22.47,11.21 24.03,11.13 24.55,11.49 C25.88,12.44 24.17,14.86 23.79,14.88 C23.42,14.43 24.33,12.65 25.21,12.19 C26.03,11.78 27.57,12.30 27.69,12.92 C27.81,13.63 26.15,14.64 24.95,14.50 C23.76,14.35 21.83,12.85 21.40,11.88 C21.15,11.26 21.48,10.15 22.15,10.16 C22.83,10.17 24.02,11.42 24.22,12.36 C24.40,13.24 23.86,14.41 23.31,14.34 C22.75,14.26 21.72,12.79 21.66,11.85 C21.63,11.19 22.40,10.29 23.00,10.62 C24.66,11.57 23.56,12.59 23.34,12.73 C22.85,12.57 22.56,11.27 22.88,10.74 C23.25,10.15 24.73,10.41 25.39,11.12 C25.97,11.76 26.29,13.17 25.91,13.46 C24.82,14.23 22.41,10.43 22.90,9.67 C24.04,9.05 25.97,14.27 26.05,14.38 C26.33,14.38 28.03,12.33 28.39,12.63 C29.32,13.44 28.98,15.54 28.76,15.79 C28.61,15.82 27.26,15.18 27.69,12.92 C27.85,12.14 28.84,11.58 29.23,12.09 C30.08,13.24 29.32,14.45 29.16,14.64 C28.77,13.88 30.10,11.99 30.61,11.84 C32.12,11.45 31.10,13.62 30.74,13.85 C30.62,13.83 28.96,11.51 31.42,11.33 C33.08,11.26 32.19,13.25 32.05,13.48 C32.05,13.48 31.42,11.10 31.42,11.10 C33.08,13.66 30.54,16.06 30.39,16.14 C30.39,16.14 29.84,14.99 29.84,14.99 C29.84,14.99 30.42,19.63 30.42,19.63 C30.42,19.63 31.00,18.37 31.00,18.37 C31.12,18.33 32.30,19.13 31.74,20.98 C31.74,20.98 31.90,17.32 31.90,17.32 C32.09,17.31 33.96,18.43 32.41,20.65 C32.41,20.65 31.65,18.14 31.65,18.14 C31.76,18.09 34.03,19.57 32.31,22.74 C31.92,23.39 30.91,23.37 30.65,22.72 C30.39,22.01 30.96,20.27 31.67,19.72 C32.40,19.17 33.84,19.44 34.04,20.17 C34.23,20.92 33.31,22.80 32.44,23.44 C31.78,23.91 30.37,24.06 29.92,23.54 C29.48,22.99 29.83,21.53 30.49,21.20 C32.10,20.43 32.99,22.88 32.31,23.34 C32.31,23.34 32.58,21.02 32.58,21.02 C32.57,21.41 30.62,23.09 29.84,23.38 C28.74,23.78 27.43,23.22 27.31,22.51 C27.21,21.79 28.06,20.83 28.54,21.20 C29.70,22.15 27.81,26.55 26.93,26.51 C26.93,26.51 27.84,23.27 27.84,23.27 C28.03,23.27 26.05,28.52 25.70,27.16 C25.52,26.36 26.29,24.43 26.78,24.46 C27.96,24.61 26.57,28.36 26.00,28.75 C25.84,28.73 23.78,26.28 26.02,25.59 C26.02,25.59 26.40,28.87 26.40,28.87 C26.40,28.87 27.43,24.95 27.43,24.95 C27.67,25.59 26.20,28.87 25.74,29.11 C25.71,29.12 25.63,29.16 25.48,29.21 C25.03,29.05 25.43,29.66 25.10,29.84 C24.74,30.03 24.42,29.49 24.38,29.38 C24.38,29.38 24.99,30.51 24.99,30.51 C25.04,29.98 26.42,26.44 28.59,25.45 C28.58,25.46 23.34,27.74 22.45,27.71 C21.59,27.64 20.98,26.53 21.19,25.48 C21.40,24.49 22.47,22.73 23.04,22.35 C23.59,22.01 24.46,22.59 24.56,23.31 C24.65,24.06 24.03,25.60 23.45,26.11 C22.90,26.59 22.00,26.34 21.77,25.61 C21.54,24.86 21.92,23.33 22.42,23.21 C23.89,22.91 22.54,26.13 21.82,26.22 C21.47,25.96 21.64,23.99 22.20,22.85 C22.85,21.55 24.46,20.44 25.04,20.44 C25.76,20.45 25.78,21.79 25.25,22.44 C24.73,23.06 23.85,22.84 23.75,21.90 C23.66,20.86 24.39,18.88 25.03,18.40 C25.64,17.98 26.85,18.38 26.84,19.06 C26.81,19.72 25.49,21.18 24.79,21.39 C24.05,21.60 23.49,20.38 23.89,19.39 C24.34,18.31 25.87,17.44 26.47,17.51 C27.28,17.61 27.14,19.12 26.17,19.87 C25.17,20.62 22.76,21.09 21.88,20.61 C21.08,20.14 20.67,18.54 20.95,18.03 C21.32,17.36 22.61,18.03 22.73,19.09 C22.83,20.16 21.78,22.38 20.97,23.10 C20.25,23.74 19.38,23.37 19.36,22.48 C19.35,21.66 19.77,20.17 20.15,19.86 C20.15,19.86 18.73,24.59 18.73,24.59 C18.73,24.59 18.46,21.77 18.46,21.77 C18.61,21.77 21.50,24.57 18.02,25.95 C18.02,25.95 17.29,23.68 17.29,23.68 C17.95,24.33 17.81,26.35 17.36,26.51 C16.74,26.70 16.12,25.68 16.14,25.36 C16.14,25.36 16.75,26.25 16.75,26.25 C16.75,26.25 15.77,25.85 15.77,25.85 C15.77,25.85 15.35,26.91 15.35,26.91 C15.35,26.91 20.30,26.73 20.30,26.73 C19.71,27.48 16.03,22.45 16.85,21.82 C16.85,21.82 18.09,23.34 18.09,23.34 C17.54,23.82 15.62,21.55 15.69,20.42 C15.71,20.19 15.81,19.96 15.94,19.79 C16.05,19.77 19.10,21.88 16.42,23.34 C16.42,23.34 15.89,19.46 15.89,19.46 C15.89,19.46 16.11,23.71 16.11,23.71 C16.11,23.71 15.43,20.10 15.43,20.10 C15.43,20.10 15.85,21.28 15.85,21.28 C15.85,21.28 15.07,18.07 15.07,18.07 C15.07,18.07 15.43,20.18 15.43,20.18 C15.43,20.18 14.24,17.57 14.24,17.57 C14.24,17.57 14.67,18.74 14.67,18.74 C14.67,18.74 14.24,16.76 14.24,16.76 C14.24,16.76 14.27,17.82 14.27,17.82 C14.27,17.82 13.64,15.56 13.64,15.56 C13.64,15.56 15.10,16.54 15.10,16.54 C15.10,16.54 14.67,15.29 14.67,15.29 C14.67,15.29 15.27,16.34 15.27,16.34 C15.47,15.49 15.85,15.89 15.91,15.95 C15.95,16.00 16.03,16.15 16.17,16.42" fill="none" stroke="rgb(252, 244, 205)" stroke-width="6.64" stroke-opacity="1.00" stroke-linejoin="round"/>
<path d="M10.49,12.33 C13.75,10.53 16.33,8.23 17.48,5.98 C18.28,4.41 20.22,4.10 21.16,4.21 C21.61,4.27 22.66,4.64 22.93,4.82 C22.96,4.85 22.99,4.88 23.03,4.92" fill="none" stroke="rgb(196, 134, 63)" stroke-width="1.11" stroke-opacity="1.00" stroke-linejoin="round"/>
<path d="M22.10,4.60 C22.18,4.58 22.46,4.70 22.91,4.99 C24.04,5.73 27.40,7.37 27.66,7.45 C28.23,7.61 32.41,7.32 33.42,7.35 C34.77,7.39 35.64,8.21 35.92,9.06 C36.26,10.14 36.15,10.38 36.14,10.39" fill="none" stroke="rgb(196, 134, 63)" stroke-width="1.11" stroke-opacity="1.00" stroke-linejoin="round"/>
<path d="M35.92,9.25 C35.92,9.30 36.00,9.82 35.93,10.63 C35.85,11.60 35.81,14.13 35.84,14.80 C35.87,15.25 35.95,15.84 36.07,16.63 C36.08,16.70 36.11,16.87 36.11,16.91" fill="none" stroke="rgb(196, 134, 63)" stroke-width="1.11" stroke-opacity="1.00" stroke-linejoin="round"/>
<path d="M35.94,15.88 C35.90,15.92 36.04,16.60 36.28,17.21 C36.36,17.39 37.83,20.89 38.10,22.84 C38.24,23.94 37.75,25.26 37.20,25.85 C37.09,25.96 36.93,26.08 36.75,26.19" fill="none" stroke="rgb(196, 134, 63)" stroke-width="1.11" stroke-opacity="1.00" stroke-linejoin="round"/>
<path d="M37.30,25.79 C36.92,26.32 33.12,27.76 32.54,28.21 C31.97,28.68 31.44,29.57 31.04,30.54 C30.86,30.97 30.62,31.53 30.59,31.59" fill="none" stroke="rgb(196, 134, 63)" stroke-width="1.11" stroke-opacity="1.00" stroke-linejoin="round"/>
<path d="M31.00,30.30 C31.00,30.30 31.00,30.29 31.01,30.28 C31.03,30.25 31.11,30.14 31.11,30.14" fill="none" stroke="rgb(196, 134, 63)" stroke-width="1.11" stroke-opacity="1.00" stroke-linejoin="round"/>
<path d="M31.08,30.20 C31.08,30.20 31.17,30.12 31.17,30.12 C31.16,30.34 30.67,31.87 30.42,32.34 C29.58,33.86 28.60,34.99 28.01,35.27 C27.74,35.40 27.12,35.55 26.72,35.55 C26.64,35.55 26.51,35.54 26.33,35.52" fill="none" stroke="rgb(196, 134, 63)" stroke-width="1.11" stroke-opacity="1.00" stroke-linejoin="round"/>
<path d="M19.93,32.12 C19.97,32.14 20.20,32.27 20.27,32.31 C20.81,32.65 24.95,34.52 26.40,35.17 C27.42,35.65 27.94,35.65 28.02,35.64" fill="none" stroke="rgb(196, 134, 63)" stroke-width="1.11" stroke-opacity="1.00" stroke-linejoin="round"/>
<path d="M10.82,27.97 C10.82,27.97 10.87,27.97 10.87,27.97 C10.89,27.99 10.85,29.57 11.02,29.91 C11.32,30.53 12.63,31.34 13.64,31.44 C15.42,31.43 18.51,31.52 19.72,32.04 C19.80,32.07 20.00,32.17 20.31,32.32 C20.37,32.35 20.42,32.37 20.45,32.38" fill="none" stroke="rgb(196, 134, 63)" stroke-width="1.11" stroke-opacity="1.00" stroke-linejoin="round"/>
<path d="M9.90,20.35 C9.92,20.38 10.64,22.13 10.78,22.53 C10.94,23.02 11.09,24.07 11.11,25.05 C11.13,26.94 11.09,27.61 11.01,28.04 C11.00,28.10 10.98,28.23 10.95,28.41" fill="none" stroke="rgb(196, 134, 63)" stroke-width="1.11" stroke-opacity="1.00" stroke-linejoin="round"/>
<path d="M10.75,12.34 C10.73,12.34 10.69,12.35 10.63,12.38 C8.99,13.49 8.93,16.16 9.18,17.38 C9.38,18.34 9.91,20.42 10.19,21.15 C10.31,21.47 10.41,21.70 10.49,21.84" fill="none" stroke="rgb(196, 134, 63)" stroke-width="1.11" stroke-opacity="1.00" stroke-linejoin="round"/>
<path d="M13.78,15.90 C13.78,15.90 15.31,14.73 15.31,14.73 C15.31,14.73 14.56,16.51 14.56,16.51 C14.56,16.51 14.79,15.17 14.79,15.17 C14.79,15.17 14.30,16.43 14.30,16.43 C14.30,16.43 14.66,14.61 14.66,14.61 C14.66,14.61 15.34,15.55 15.34,15.55 C15.34,15.55 19.18,12.45 19.18,12.45 C19.18,12.45 19.62,11.20 19.62,11.20 C19.62,11.20 19.83,12.18 19.83,12.18 C19.83,12.18 20.52,10.11 20.52,10.11 C20.52,10.11 20.39,11.95 20.39,11.95 C19.44,11.55 20.61,9.35 21.24,10.32 C21.48,10.71 21.46,11.67 21.25,12.05 C21.25,12.05 21.04,9.79 21.04,9.79 C21.83,10.12 20.38,11.49 20.14,10.44 C20.04,9.94 20.38,9.55 20.63,9.40 C20.63,9.40 22.63,12.46 22.63,12.46 C22.63,12.46 23.77,13.16 23.77,13.16" fill="none" stroke="rgb(252, 244, 205)" stroke-width="8.00" stroke-opacity="1.00" stroke-linejoin="round"/>
<path d="M24.87,12.32 C25.24,11.67 27.79,10.54 28.42,11.41 C29.17,12.54 26.84,12.78 26.84,11.73 C27.36,11.84 27.74,13.35 27.58,14.17 C27.38,15.09 26.43,16.33 25.88,16.90 C25.72,17.07 25.46,17.32 25.09,17.66" fill="none" stroke="rgb(252, 244, 205)" stroke-width="8.00" stroke-opacity="1.00" stroke-linejoin="round"/>
<path d="M24.44,26.22 C24.44,26.22 24.19,26.87 24.19,26.87 C24.19,26.87 24.71,29.76 24.71,29.76 C25.37,29.69 26.98,29.41 27.20,28.30 C27.24,28.09 27.26,27.57 27.26,26.60" fill="none" stroke="rgb(252, 244, 205)" stroke-width="8.00" stroke-opacity="1.00" stroke-linejoin="round"/>
<path d="M27.13,26.19 C27.13,26.19 30.28,23.53 30.28,23.53 C30.22,23.57 29.46,23.30 25.67,25.38 C25.19,25.64 20.58,26.34 19.74,26.56 C19.74,26.56 21.06,27.98 21.06,27.98 C21.06,27.98 18.89,26.92 18.89,26.92 C18.89,26.92 22.15,27.68 22.15,27.68 C22.15,27.68 20.38,27.07 20.38,27.07 C20.79,27.09 16.12,25.20 14.62,26.84 C14.62,26.84 15.08,23.37 15.08,23.37 C15.08,23.37 15.21,24.79 15.21,24.79 C15.21,24.79 16.41,19.83 16.41,19.83" fill="none" stroke="rgb(252, 244, 205)" stroke-width="8.00" stroke-opacity="1.00" stroke-linejoin="round"/>
<path d="M15.02,16.02 C15.07,15.99 16.35,15.75 17.07,15.66 C17.78,15.57 19.27,15.58 19.89,15.64 C20.07,15.66 20.31,15.70 20.64,15.77" fill="none" stroke="rgb(252, 244, 205)" stroke-width="8.00" stroke-opacity="1.00" stroke-linejoin="round"/>
<path d="M22.21,11.00 C22.53,11.07 24.00,11.42 24.21,11.46 C25.89,11.80 28.94,12.15 28.97,12.05" fill="none" stroke="rgb(252, 244, 205)" stroke-width="8.00" stroke-opacity="1.00" stroke-linejoin="round"/>
<path d="M26.69,11.78 C26.69,11.78 29.90,12.11 29.90,12.11 C29.90,12.11 24.51,12.02 24.51,12.02 C24.51,12.02 27.69,12.12 27.69,12.12 C27.69,12.12 22.70,10.23 22.70,10.23 C21.49,11.21 20.59,11.36 20.46,10.66 C20.25,9.48 21.58,9.54 21.68,9.83 C21.57,10.17 20.36,9.86 20.64,9.20 C21.03,8.40 22.26,9.27 22.03,10.09 C21.99,10.24 21.90,10.34 21.80,10.39 C21.80,10.39 21.37,9.29 21.37,9.29 C21.37,9.29 21.69,10.71 21.69,10.71" fill="none" stroke="rgb(252, 244, 205)" stroke-width="8.00" stroke-opacity="1.00" stroke-linejoin="round"/>
</g>
</svg>
