<?xml version="1.0" encoding="UTF-8" standalone="no"?>
<!DOCTYPE svg PUBLIC "-//W3C//DTD SVG 1.1//EN" "http://www.w3.org/Graphics/SVG/1.1/DTD/svg11.dtd">
<svg width="47.00" height="46.00" viewBox="0.00 0.00 47.00 46.00" xmlns="http://www.w3.org/2000/svg" xmlns:xlink="http://www.w3.org/1999/xlink">
<g stroke-linecap="round" id="レイヤー_3">
<path d="M18.45,20.98 C17.40,20.53 19.86,17.94 20.93,18.13 C21.04,18.26 21.27,19.81 19.97,20.14 C19.83,20.06 19.21,18.39 20.88,17.95 C20.88,17.95 21.13,19.78 21.13,19.78 C21.13,19.78 21.30,18.41 21.30,18.41 C21.30,18.41 22.26,19.82 22.26,19.82" fill="none" stroke="rgb(252, 244, 205)" stroke-width="8.86" stroke-opacity="1.00" stroke-linejoin="round"/>
<path d="M18.52,12.33 C18.52,12.33 18.29,12.40 18.29,12.40 C18.29,12.40 19.74,9.85 19.74,9.85 C19.74,9.85 18.93,10.58 18.93,10.58 C18.93,10.58 19.45,9.45 19.45,9.45 C19.45,9.45 18.90,10.36 18.90,10.36 C18.90,10.36 20.09,8.88 20.09,8.88 C20.59,8.47 20.13,9.17 20.16,8.83 C20.20,8.50 21.12,8.48 20.97,8.87 C20.79,9.28 19.86,9.10 19.95,8.67 C20.04,8.28 20.76,8.58 20.49,8.91 C20.37,9.07 20.19,9.09 20.10,9.07 C19.87,8.90 20.36,8.27 20.52,8.52 C20.70,8.82 20.48,9.03 20.42,9.05 C20.01,8.79 20.95,8.29 21.72,8.75 C22.04,8.95 22.14,9.14 22.15,9.23 C22.15,9.23 21.22,8.65 21.22,8.65 C21.22,8.65 22.68,9.25 22.68,9.25 C22.39,9.69 21.47,8.88 21.88,8.42 C22.36,7.94 23.08,9.42 22.48,9.71 C22.00,9.93 21.61,9.00 21.68,8.74 C21.68,8.74 23.40,9.76 23.40,9.76 C23.40,9.76 22.62,8.81 22.62,8.81 C22.62,8.81 24.19,9.84 24.19,9.84 C22.96,10.53 23.10,8.66 23.12,8.58 C23.12,8.58 23.96,9.51 23.96,9.51 C23.96,9.51 25.85,10.61 25.85,10.61 C25.85,10.61 27.20,11.67 27.20,11.67 C27.20,11.67 25.36,10.11 25.36,10.11 C25.36,10.11 27.45,11.61 27.45,11.61 C27.45,11.61 25.69,10.44 25.69,10.44 C25.69,10.44 27.92,11.66 27.92,11.66 C27.92,11.66 26.91,10.98 26.91,10.98 C26.91,10.98 29.38,12.27 29.38,12.27 C29.38,12.27 28.27,11.76 28.27,11.76 C28.27,11.76 30.64,12.05 30.64,12.05 C30.64,12.05 29.18,11.65 29.18,11.65 C29.18,11.65 31.54,11.89 31.54,11.89 C31.54,11.89 29.59,11.64 29.59,11.64 C29.59,11.64 32.04,11.92 32.04,11.92 C32.04,11.92 33.36,11.78 33.36,11.78 C33.36,11.78 32.30,11.96 32.30,11.96 C32.30,11.96 34.42,11.92 34.42,11.92 C34.42,11.92 33.19,11.95 33.19,11.95 C33.19,11.95 31.44,11.58 31.44,11.58 C31.44,11.58 34.07,11.88 34.07,11.88 C34.07,11.88 31.83,11.64 31.83,11.64 C31.83,11.64 34.30,11.49 34.30,11.49 C34.30,11.49 32.95,11.58 32.95,11.58 C32.95,11.58 34.90,11.97 34.90,11.97 C34.57,12.45 35.33,11.47 35.36,12.01 C35.36,12.55 34.58,12.35 34.82,11.84 C35.07,11.35 35.83,12.06 35.56,12.52 C35.51,12.61 35.41,12.66 35.30,12.68 C34.89,12.52 35.36,11.58 35.70,12.03 C36.04,12.50 35.65,12.85 35.55,12.89 C35.55,12.89 35.69,11.81 35.69,11.81 C35.69,11.81 35.79,13.69 35.79,13.69 C35.79,13.69 35.19,15.71 35.19,15.71 C35.19,15.71 35.49,14.69 35.49,14.69 C35.49,14.69 35.38,16.64 35.38,16.64 C35.38,16.64 35.61,13.67 35.61,13.67 C35.61,13.67 35.60,18.42 35.60,18.42 C35.60,18.42 35.19,15.44 35.19,15.44 C35.19,15.44 35.53,20.18 35.53,20.18 C35.53,20.18 35.36,18.22 35.36,18.22 C35.36,18.22 35.92,21.57 35.92,21.57 C35.92,21.57 35.53,19.21 35.53,19.21 C35.53,19.21 36.34,21.40 36.34,21.40 C36.34,21.40 35.31,18.09 35.31,18.09 C35.31,18.09 36.27,21.51 36.27,21.51 C36.27,21.51 35.62,18.66 35.62,18.66 C35.62,18.66 36.40,21.78 36.40,21.78 C36.40,21.78 36.11,18.42 36.11,18.42 C36.11,18.42 36.23,21.02 36.23,21.02 C36.23,21.02 35.85,18.71 35.85,18.71 C35.85,18.71 36.77,23.05 36.77,23.05 C36.77,23.05 36.78,21.99 36.78,21.99 C36.78,21.99 37.31,23.37 37.31,23.37 C37.31,23.37 36.41,21.10 36.41,21.10 C36.41,21.10 37.49,24.30 37.49,24.30 C37.49,24.30 36.75,22.04 36.75,22.04 C36.75,22.04 37.64,25.13 37.64,25.13 C37.64,25.13 36.79,23.06 36.79,23.06 C36.79,23.06 37.51,25.94 37.51,25.94 C37.51,25.94 37.37,24.10 37.37,24.10 C37.37,24.10 37.38,26.52 37.38,26.52 C37.38,26.52 37.36,24.59 37.36,24.59 C37.36,24.59 37.61,26.99 37.61,26.99 C37.61,26.99 37.67,25.22 37.67,25.22 C37.67,25.22 37.59,27.12 37.59,27.12 C37.59,27.12 37.66,25.81 37.66,25.81 C37.66,25.81 37.51,27.81 37.51,27.81 C37.51,27.81 37.33,26.27 37.33,26.27 C37.33,26.27 36.61,27.99 36.61,27.99 C35.88,27.26 36.87,28.14 35.88,27.94 C35.79,27.92 35.72,27.88 35.64,27.81" fill="none" stroke="rgb(252, 244, 205)" stroke-width="2.21" stroke-opacity="1.00" stroke-linejoin="round"/>
<path d="M37.62,28.24 C37.65,28.22 36.88,28.60 36.70,28.68 C36.14,28.91 35.82,28.87 35.68,28.83 C35.42,27.77 37.77,27.11 37.88,27.17 C37.88,27.17 36.56,28.26 36.56,28.26 C36.56,28.26 37.90,26.72 37.90,26.72 C37.90,26.72 36.91,28.10 36.91,28.10 C36.91,28.10 37.65,26.76 37.65,26.76 C37.65,26.76 36.87,27.74 36.87,27.74 C36.21,26.77 36.63,27.46 37.78,26.92 C37.78,26.92 36.95,28.16 36.95,28.16 C36.95,28.16 37.85,26.96 37.85,26.96 C37.85,26.96 37.21,27.86 37.21,27.86 C37.21,27.86 37.87,26.86 37.87,26.86 C37.87,26.86 36.85,28.02 36.85,28.02 C36.60,27.58 37.34,29.88 34.65,28.65 C34.65,28.65 35.84,28.20 35.84,28.20 C35.84,28.20 33.90,29.13 33.90,29.13 C33.90,29.13 36.00,28.35 36.00,28.35 C36.00,28.35 33.09,29.38 33.09,29.38 C33.09,29.38 35.18,28.83 35.18,28.83 C35.18,28.83 33.65,29.67 33.65,29.67 C33.65,29.67 35.44,28.77 35.44,28.77 C35.44,28.77 34.01,29.46 34.01,29.46 C34.01,29.46 35.15,28.76 35.15,28.76 C35.15,28.76 32.66,30.26 32.66,30.26 C32.66,30.26 33.75,29.44 33.75,29.44 C33.75,29.44 31.36,31.08 31.36,31.08 C31.36,31.08 32.51,30.09 32.51,30.09 C32.51,30.09 29.90,32.73 29.90,32.73 C29.90,32.73 32.15,30.71 32.15,30.71 C32.15,30.71 30.68,32.45 30.68,32.45 C30.68,32.45 32.40,30.50 32.40,30.50 C32.40,30.50 31.03,32.75 31.03,32.75 C31.03,32.75 32.57,30.36 32.57,30.36 C32.57,30.36 30.39,33.96 30.39,33.96 C30.39,33.96 31.12,31.68 31.12,31.68 C31.12,31.68 30.31,34.39 30.31,34.39 C30.31,34.39 30.41,33.26 30.41,33.26 C30.41,33.26 29.79,35.37 29.79,35.37 C29.79,35.37 30.58,33.25 30.58,33.25 C30.58,33.25 29.52,35.87 29.52,35.87 C29.52,35.87 30.72,33.10 30.72,33.10 C30.72,33.10 29.83,35.54 29.83,35.54 C29.83,35.54 30.71,33.39 30.71,33.39 C30.71,33.39 29.54,35.90 29.54,35.90 C29.54,35.90 30.77,33.74 30.77,33.74 C30.77,33.74 29.19,35.89 29.19,35.89 C29.19,35.89 29.90,34.06 29.90,34.06 C29.90,34.06 29.02,36.07 29.02,36.07 C29.02,36.07 29.67,35.13 29.67,35.13 C29.67,35.13 28.33,36.79 28.33,36.79 C28.33,36.79 29.16,35.54 29.16,35.54 C29.27,35.58 30.46,37.41 28.57,37.02 C28.57,37.02 28.81,35.78 28.81,35.78 C29.34,36.09 28.41,37.36 27.96,37.13 C27.53,36.88 28.44,36.02 28.63,36.50 C28.79,36.98 27.77,37.38 27.62,36.95 C27.56,36.78 27.65,36.45 27.76,36.34 C28.13,36.48 27.60,37.24 27.32,36.81 C27.22,36.64 27.16,36.16 27.17,36.03" fill="none" stroke="rgb(252, 244, 205)" stroke-width="2.21" stroke-opacity="1.00" stroke-linejoin="round"/>
<path d="M21.88,34.18 C21.88,34.18 21.80,34.00 21.80,34.00 C21.80,34.00 26.15,35.76 26.15,35.76 C26.15,35.76 21.82,33.75 21.82,33.75 C21.82,33.75 25.80,35.87 25.80,35.87 C25.80,35.87 21.43,34.15 21.43,34.15 C21.43,34.15 27.25,36.45 27.25,36.45 C27.25,36.45 24.45,35.24 24.45,35.24 C24.45,35.24 27.62,36.16 27.62,36.16 C27.62,36.16 24.78,35.31 24.78,35.31 C24.78,35.31 26.63,36.07 26.63,36.07 C26.63,36.07 22.20,34.03 22.20,34.03 C22.20,34.03 26.92,36.47 26.92,36.47 C26.92,36.47 22.64,34.79 22.64,34.79 C22.64,34.79 26.00,36.40 26.00,36.40 C26.00,36.40 20.86,33.51 20.63,33.42 C20.59,33.41 20.53,33.39 20.47,33.36" fill="none" stroke="rgb(252, 244, 205)" stroke-width="2.21" stroke-opacity="1.00" stroke-linejoin="round"/>
<path d="M19.30,33.16 C19.30,33.16 22.41,33.54 22.41,33.54 C22.41,33.54 18.08,32.92 18.08,32.92 C18.08,32.92 20.35,33.38 20.35,33.38 C18.91,33.08 18.03,32.90 17.69,32.82 C17.36,32.74 17.11,32.67 16.95,32.61" fill="none" stroke="rgb(252, 244, 205)" stroke-width="2.21" stroke-opacity="1.00" stroke-linejoin="round"/>
<path d="M14.61,33.05 C14.61,33.05 14.30,33.06 14.30,33.06 C14.30,33.06 18.45,32.84 18.45,32.84 C18.45,32.84 15.08,32.94 15.08,32.94 C15.08,32.94 17.74,32.99 17.74,32.99 C17.74,32.99 15.09,33.13 15.09,33.13 C15.09,33.13 16.87,33.15 16.87,33.15 C16.87,33.15 13.53,32.93 13.53,32.93 C13.53,32.93 15.89,32.87 15.89,32.87 C15.89,32.87 13.27,32.38 13.27,32.38 C13.27,32.38 12.91,30.92 12.91,30.92 C12.91,30.92 13.13,31.97 13.13,31.97 C12.90,31.68 13.43,32.85 13.49,32.77 C13.51,32.74 13.54,32.68 13.59,32.57" fill="none" stroke="rgb(252, 244, 205)" stroke-width="2.21" stroke-opacity="1.00" stroke-linejoin="round"/>
<path d="M13.42,27.97 C13.39,27.66 13.27,27.12 13.18,26.74 C13.16,26.65 13.15,26.55 13.14,26.45 C13.14,26.45 13.52,30.92 13.52,30.92 C13.52,30.92 13.18,26.17 13.18,26.17 C13.18,26.17 13.38,30.88 13.38,30.88 C13.38,30.88 13.13,27.55 13.13,27.55 C13.13,27.55 13.15,30.53 13.15,30.53 C13.15,30.53 13.09,27.98 13.09,27.98 C13.09,27.98 13.15,30.29 13.15,30.29 C13.15,30.29 13.48,26.31 13.48,26.31 C13.48,26.31 13.49,28.99 13.49,28.99 C13.49,28.88 13.45,28.52 13.39,28.13 C13.35,27.84 13.28,27.39 13.25,27.21" fill="none" stroke="rgb(252, 244, 205)" stroke-width="2.21" stroke-opacity="1.00" stroke-linejoin="round"/>
<path d="M12.37,21.28 C12.37,21.28 12.22,21.24 12.22,21.24 C12.22,21.24 13.53,26.68 13.53,26.68 C13.53,26.68 11.91,21.56 11.91,21.56 C11.91,21.56 13.32,26.04 13.32,26.04 C13.32,26.04 11.81,22.29 11.81,22.29 C11.81,22.29 13.22,25.66 13.22,25.66 C13.22,25.66 11.90,22.52 11.90,22.52 C11.90,22.52 12.90,24.96 12.90,24.96 C12.90,24.96 11.86,22.71 11.86,22.71 C11.86,22.71 12.69,25.23 12.69,25.23 C12.69,25.23 11.55,21.57 11.55,21.57 C11.55,21.57 12.37,24.18 12.37,24.18 C12.37,24.18 11.51,20.77 11.51,20.77 C11.51,20.77 12.56,24.80 12.56,24.80 C12.56,24.80 11.47,21.44 11.47,21.44 C11.47,21.44 13.28,27.02 13.28,27.02 C13.28,27.02 11.71,21.05 11.71,21.05 C11.71,21.05 11.34,20.06 11.34,20.06 C11.34,20.06 11.72,21.28 11.72,21.28 C11.72,21.28 11.18,18.83 11.18,18.83 C11.18,18.83 11.62,20.61 11.62,20.61 C11.62,20.61 11.18,18.97 11.18,18.97 C11.18,18.97 11.25,17.88 11.25,17.88 C11.39,17.98 10.74,16.85 12.17,16.59 C12.17,16.59 11.28,17.95 11.28,17.95 C11.05,17.70 11.37,16.72 11.79,16.90 C12.24,17.14 11.82,17.97 11.52,17.98 C11.52,17.98 11.65,16.64 11.65,16.64 C11.65,16.64 11.48,17.68 11.48,17.68 C11.18,17.60 11.35,16.49 11.80,16.54 C12.27,16.62 12.19,17.51 12.00,17.59 C10.77,16.01 13.04,16.18 13.14,16.29 C13.41,17.79 11.98,14.93 14.24,15.65 C14.24,15.65 13.18,15.80 13.18,15.80 C13.36,15.37 14.41,15.00 14.61,14.98 C14.69,14.97 14.77,14.99 14.87,15.04" fill="none" stroke="rgb(252, 244, 205)" stroke-width="2.21" stroke-opacity="1.00" stroke-linejoin="round"/>
<path d="M15.60,15.35 C15.60,15.35 14.98,15.59 14.98,15.59 C14.98,15.59 18.19,13.57 18.19,13.57 C18.19,13.57 15.06,15.26 15.06,15.26 C15.06,15.26 17.81,13.25 17.81,13.25 C17.81,13.25 15.47,14.67 15.47,14.67 C15.47,14.67 16.70,13.81 16.70,13.81 C16.70,13.81 14.73,14.90 14.73,14.90 C14.73,14.90 16.05,14.10 16.05,14.10 C16.05,14.10 13.89,15.55 13.89,15.55 C13.89,15.55 16.42,13.84 16.42,13.84 C16.42,13.84 15.50,14.52 15.50,14.52 C15.50,14.52 18.49,11.75 18.49,11.75 C18.49,11.75 16.40,13.62 16.40,13.62 C16.40,13.62 18.75,11.31 18.75,11.31 C18.75,11.31 16.63,13.36 16.63,13.36 C16.63,13.36 18.84,11.32 18.84,11.32 C18.84,11.32 17.31,12.49 17.31,12.49 C17.31,12.49 18.42,11.48 18.42,11.48 C18.42,11.48 15.05,14.73 15.05,14.73 C15.05,14.73 16.44,13.32 16.44,13.32 C16.44,13.32 14.18,15.28 14.18,15.28 C14.18,15.28 16.70,13.32 16.70,13.32 C16.70,13.32 14.80,15.17 14.80,15.17 C14.80,15.17 19.89,11.93 19.89,11.93 C19.89,11.93 15.68,17.00 15.68,17.00 C15.59,16.63 18.28,13.16 19.82,12.06 C21.09,11.18 22.68,11.14 22.72,11.94 C22.73,12.78 21.30,15.16 20.38,15.99 C19.74,16.56 18.72,16.75 18.78,15.81 C18.86,14.83 20.51,12.36 21.57,11.94 C22.36,11.65 23.50,12.30 23.05,13.35 C22.60,14.35 20.38,15.86 19.51,15.68 C18.61,15.47 18.35,13.19 19.09,11.96 C19.86,10.72 21.97,10.15 22.50,10.96 C22.95,11.70 22.38,13.92 21.71,14.84 C21.39,15.26 20.55,15.88 20.30,15.89 C20.26,15.89 20.18,15.88 20.05,15.85" fill="none" stroke="rgb(252, 244, 205)" stroke-width="2.21" stroke-opacity="1.00" stroke-linejoin="round"/>
<path d="M24.03,16.04 C23.92,16.13 23.34,17.16 23.17,17.28 C22.63,17.62 22.10,16.30 22.31,15.36 C22.66,13.92 24.04,13.06 24.45,13.56 C24.83,14.07 24.50,16.09 23.85,16.93 C23.22,17.73 21.61,18.35 20.89,18.08 C20.14,17.78 19.33,16.17 19.62,15.29 C19.94,14.35 21.94,13.32 23.12,13.47 C24.08,13.60 25.24,14.69 25.25,15.39 C25.25,16.11 24.12,17.25 23.52,17.21 C22.87,17.14 22.41,15.72 22.91,14.99 C23.47,14.21 25.03,14.13 25.55,14.49 C26.88,15.44 25.17,17.86 24.79,17.88 C24.42,17.43 25.33,15.65 26.21,15.19 C27.03,14.78 28.57,15.30 28.69,15.92 C28.81,16.63 27.15,17.64 25.95,17.50 C24.76,17.35 22.83,15.85 22.40,14.88 C22.15,14.26 22.48,13.15 23.15,13.16 C23.83,13.17 25.02,14.42 25.22,15.36 C25.40,16.24 24.86,17.41 24.31,17.34 C23.75,17.26 22.72,15.79 22.66,14.85 C22.63,14.19 23.40,13.29 24.00,13.62 C25.66,14.57 24.56,15.59 24.34,15.73 C23.85,15.57 23.56,14.27 23.88,13.74 C24.25,13.15 25.73,13.41 26.39,14.12 C26.97,14.76 27.29,16.17 26.91,16.46 C25.82,17.23 23.41,13.43 23.90,12.67 C25.04,12.05 26.97,17.27 27.05,17.38 C27.33,17.38 29.03,15.33 29.39,15.63 C30.32,16.44 29.98,18.54 29.76,18.79 C29.61,18.82 28.26,18.18 28.69,15.92 C28.85,15.14 29.84,14.58 30.23,15.09 C31.08,16.24 30.32,17.45 30.16,17.64 C29.77,16.88 31.10,14.99 31.61,14.84 C33.12,14.45 32.10,16.62 31.74,16.85 C31.62,16.83 29.96,14.51 32.42,14.33 C34.08,14.26 33.19,16.25 33.05,16.48 C33.05,16.48 32.42,14.10 32.42,14.10 C34.08,16.66 31.54,19.06 31.39,19.14 C31.39,19.14 30.84,17.99 30.84,17.99 C30.84,17.99 31.42,22.63 31.42,22.63 C31.42,22.63 32.00,21.37 32.00,21.37 C32.12,21.33 33.30,22.13 32.74,23.98 C32.74,23.98 32.90,20.32 32.90,20.32 C33.09,20.31 34.96,21.43 33.41,23.65 C33.41,23.65 32.65,21.14 32.65,21.14 C32.76,21.09 35.03,22.57 33.31,25.74 C32.92,26.39 31.91,26.37 31.65,25.72 C31.39,25.01 31.96,23.27 32.67,22.72 C33.40,22.17 34.84,22.44 35.04,23.17 C35.23,23.92 34.31,25.80 33.44,26.44 C32.78,26.91 31.37,27.06 30.92,26.54 C30.48,25.99 30.83,24.53 31.49,24.20 C33.10,23.43 33.99,25.88 33.31,26.34 C33.31,26.34 33.58,24.02 33.58,24.02 C33.57,24.41 31.62,26.09 30.84,26.38 C29.74,26.78 28.43,26.22 28.31,25.51 C28.21,24.79 29.06,23.83 29.54,24.20 C30.70,25.15 28.81,29.55 27.93,29.51 C27.93,29.51 28.84,26.27 28.84,26.27 C29.03,26.27 27.05,31.52 26.70,30.16 C26.52,29.36 27.29,27.43 27.78,27.46 C28.96,27.61 27.57,31.36 27.00,31.75 C26.84,31.73 24.78,29.28 27.02,28.59 C27.02,28.59 27.40,31.87 27.40,31.87 C27.40,31.87 28.43,27.95 28.43,27.95 C28.67,28.59 27.20,31.87 26.74,32.11 C26.71,32.12 26.63,32.16 26.48,32.21 C26.03,32.05 26.43,32.66 26.10,32.84 C25.74,33.03 25.42,32.49 25.38,32.38 C25.38,32.38 25.99,33.51 25.99,33.51 C26.04,32.98 27.42,29.44 29.59,28.45 C29.58,28.46 24.34,30.74 23.45,30.71 C22.59,30.64 21.98,29.53 22.19,28.48 C22.40,27.49 23.47,25.73 24.04,25.35 C24.59,25.01 25.46,25.59 25.56,26.31 C25.65,27.06 25.03,28.60 24.45,29.11 C23.90,29.59 23.00,29.34 22.77,28.61 C22.54,27.86 22.92,26.33 23.42,26.21 C24.89,25.91 23.54,29.13 22.82,29.22 C22.47,28.96 22.64,26.99 23.20,25.85 C23.85,24.55 25.46,23.44 26.04,23.44 C26.76,23.45 26.78,24.79 26.25,25.44 C25.73,26.06 24.85,25.84 24.75,24.90 C24.66,23.86 25.39,21.88 26.03,21.40 C26.64,20.98 27.85,21.38 27.84,22.06 C27.81,22.72 26.49,24.18 25.79,24.39 C25.05,24.60 24.49,23.38 24.89,22.39 C25.34,21.31 26.87,20.44 27.47,20.51 C28.28,20.61 28.14,22.12 27.17,22.87 C26.17,23.62 23.76,24.09 22.88,23.61 C22.08,23.14 21.67,21.54 21.95,21.03 C22.32,20.36 23.61,21.03 23.73,22.09 C23.83,23.16 22.78,25.38 21.97,26.10 C21.25,26.74 20.38,26.37 20.36,25.48 C20.35,24.66 20.77,23.17 21.15,22.86 C21.15,22.86 19.73,27.59 19.73,27.59 C19.73,27.59 19.46,24.77 19.46,24.77 C19.61,24.77 22.50,27.57 19.02,28.95 C19.02,28.95 18.29,26.68 18.29,26.68 C18.95,27.33 18.81,29.35 18.36,29.51 C17.74,29.70 17.12,28.68 17.14,28.36 C17.14,28.36 17.75,29.25 17.75,29.25 C17.75,29.25 16.77,28.85 16.77,28.85 C16.77,28.85 16.35,29.91 16.35,29.91 C16.35,29.91 21.30,29.73 21.30,29.73 C20.71,30.48 17.03,25.45 17.85,24.82 C17.85,24.82 19.09,26.34 19.09,26.34 C18.54,26.82 16.62,24.55 16.69,23.42 C16.71,23.19 16.81,22.96 16.94,22.79 C17.05,22.77 20.10,24.88 17.42,26.34 C17.42,26.34 16.89,22.46 16.89,22.46 C16.89,22.46 17.11,26.71 17.11,26.71 C17.11,26.71 16.43,23.10 16.43,23.10 C16.43,23.10 16.85,24.28 16.85,24.28 C16.85,24.28 16.07,21.07 16.07,21.07 C16.07,21.07 16.43,23.18 16.43,23.18 C16.43,23.18 15.24,20.57 15.24,20.57 C15.24,20.57 15.67,21.74 15.67,21.74 C15.67,21.74 15.24,19.76 15.24,19.76 C15.24,19.76 15.27,20.82 15.27,20.82 C15.27,20.82 14.64,18.56 14.64,18.56 C14.64,18.56 16.10,19.54 16.10,19.54 C16.10,19.54 15.67,18.29 15.67,18.29 C15.67,18.29 16.27,19.34 16.27,19.34 C16.47,18.49 16.85,18.89 16.91,18.95 C16.95,19.00 17.03,19.15 17.17,19.42" fill="none" stroke="rgb(252, 244, 205)" stroke-width="6.64" stroke-opacity="1.00" stroke-linejoin="round"/>
<path d="M11.49,15.33 C14.75,13.53 17.33,11.23 18.48,8.98 C19.28,7.41 21.22,7.10 22.16,7.21 C22.61,7.27 23.66,7.64 23.93,7.82 C23.96,7.85 23.99,7.88 24.03,7.92" fill="none" stroke="rgb(196, 134, 63)" stroke-width="1.11" stroke-opacity="1.00" stroke-linejoin="round"/>
<path d="M23.10,7.60 C23.18,7.58 23.46,7.70 23.91,7.99 C25.04,8.73 28.40,10.37 28.66,10.45 C29.23,10.61 33.41,10.32 34.42,10.35 C35.77,10.39 36.64,11.21 36.92,12.06 C37.26,13.14 37.15,13.38 37.14,13.39" fill="none" stroke="rgb(196, 134, 63)" stroke-width="1.11" stroke-opacity="1.00" stroke-linejoin="round"/>
<path d="M36.92,12.25 C36.92,12.30 37.00,12.82 36.93,13.63 C36.85,14.60 36.81,17.13 36.84,17.80 C36.87,18.25 36.95,18.84 37.07,19.63 C37.08,19.70 37.11,19.87 37.11,19.91" fill="none" stroke="rgb(196, 134, 63)" stroke-width="1.11" stroke-opacity="1.00" stroke-linejoin="round"/>
<path d="M36.94,18.88 C36.90,18.92 37.04,19.60 37.28,20.21 C37.36,20.39 38.83,23.89 39.10,25.84 C39.24,26.94 38.75,28.26 38.20,28.85 C38.09,28.96 37.93,29.08 37.75,29.19" fill="none" stroke="rgb(196, 134, 63)" stroke-width="1.11" stroke-opacity="1.00" stroke-linejoin="round"/>
<path d="M38.30,28.79 C37.92,29.32 34.12,30.76 33.54,31.21 C32.97,31.68 32.44,32.57 32.04,33.54 C31.86,33.97 31.62,34.53 31.59,34.59" fill="none" stroke="rgb(196, 134, 63)" stroke-width="1.11" stroke-opacity="1.00" stroke-linejoin="round"/>
<path d="M32.00,33.30 C32.00,33.30 32.00,33.29 32.01,33.28 C32.03,33.25 32.11,33.14 32.11,33.14" fill="none" stroke="rgb(196, 134, 63)" stroke-width="1.11" stroke-opacity="1.00" stroke-linejoin="round"/>
<path d="M32.08,33.20 C32.08,33.20 32.17,33.12 32.17,33.12 C32.16,33.34 31.67,34.87 31.42,35.34 C30.58,36.86 29.60,37.99 29.01,38.27 C28.74,38.40 28.12,38.55 27.72,38.55 C27.64,38.55 27.51,38.54 27.33,38.52" fill="none" stroke="rgb(196, 134, 63)" stroke-width="1.11" stroke-opacity="1.00" stroke-linejoin="round"/>
<path d="M20.93,35.12 C20.97,35.14 21.20,35.27 21.27,35.31 C21.81,35.65 25.95,37.52 27.40,38.17 C28.42,38.65 28.94,38.65 29.02,38.64" fill="none" stroke="rgb(196, 134, 63)" stroke-width="1.11" stroke-opacity="1.00" stroke-linejoin="round"/>
<path d="M11.82,30.97 C11.82,30.97 11.87,30.97 11.87,30.97 C11.89,30.99 11.85,32.57 12.02,32.91 C12.32,33.53 13.63,34.34 14.64,34.44 C16.42,34.43 19.51,34.52 20.72,35.04 C20.80,35.07 21.00,35.17 21.31,35.32 C21.37,35.35 21.42,35.37 21.45,35.38" fill="none" stroke="rgb(196, 134, 63)" stroke-width="1.11" stroke-opacity="1.00" stroke-linejoin="round"/>
<path d="M10.90,23.35 C10.92,23.38 11.64,25.13 11.78,25.53 C11.94,26.02 12.09,27.07 12.11,28.05 C12.13,29.94 12.09,30.61 12.01,31.04 C12.00,31.10 11.98,31.23 11.95,31.41" fill="none" stroke="rgb(196, 134, 63)" stroke-width="1.11" stroke-opacity="1.00" stroke-linejoin="round"/>
<path d="M11.75,15.34 C11.73,15.34 11.69,15.35 11.63,15.38 C9.99,16.49 9.93,19.16 10.18,20.38 C10.38,21.34 10.91,23.42 11.19,24.15 C11.31,24.47 11.41,24.70 11.49,24.84" fill="none" stroke="rgb(196, 134, 63)" stroke-width="1.11" stroke-opacity="1.00" stroke-linejoin="round"/>
</g>
</svg>
