<?xml version="1.0" encoding="UTF-8" standalone="no"?>
<!DOCTYPE svg PUBLIC "-//W3C//DTD SVG 1.1//EN" "http://www.w3.org/Graphics/SVG/1.1/DTD/svg11.dtd">
<svg width="47.00" height="46.00" viewBox="0.00 0.00 47.00 46.00" xmlns="http://www.w3.org/2000/svg" xmlns:xlink="http://www.w3.org/1999/xlink">
<g stroke-linecap="round" id="レイヤー_3">
<path d="M19.29,17.73 C19.29,17.73 21.32,15.38 21.32,15.38 C21.32,15.38 20.53,17.03 20.53,17.03 C20.42,16.97 19.91,15.60 21.28,15.24 C21.28,15.24 21.49,16.74 21.49,16.74 C21.49,16.74 21.62,15.62 21.62,15.62 C21.62,15.62 22.41,16.77 22.41,16.77" fill="none" stroke="rgb(252, 244, 205)" stroke-width="7.25" stroke-opacity="1.00" stroke-linejoin="round"/>
<path d="M19.34,10.64 C19.34,10.64 19.15,10.70 19.15,10.70 C19.15,10.70 20.35,8.61 20.35,8.61 C20.35,8.61 20.85,7.66 20.85,7.66 C20.84,7.71 20.66,8.05 20.69,7.78 C20.72,7.50 21.47,7.48 21.35,7.80 C21.20,8.14 20.44,8.00 20.52,7.64 C20.59,7.33 20.83,8.00 20.64,7.97 C20.45,7.83 20.85,7.32 20.99,7.52 C21.13,7.76 20.95,7.93 20.90,7.96 C20.90,7.96 22.32,8.10 22.32,8.10 C21.69,8.26 21.76,7.81 22.10,7.44 C22.49,7.04 23.08,8.25 22.59,8.50 C22.19,8.68 21.87,7.91 21.93,7.70 C21.93,7.70 23.34,8.53 23.34,8.53 C23.34,8.53 22.70,7.76 22.70,7.76 C22.70,7.76 23.99,8.60 23.99,8.60 C22.98,9.17 23.10,7.63 23.11,7.57 C23.11,7.57 23.80,8.33 23.80,8.33 C23.80,8.33 25.35,9.23 25.35,9.23 C25.35,9.23 26.46,10.10 26.46,10.10 C26.46,10.10 24.95,8.82 24.95,8.82 C24.95,8.82 26.66,10.05 26.66,10.05 C26.66,10.05 25.22,9.10 25.22,9.10 C25.22,9.10 27.04,10.09 27.04,10.09 C27.04,10.09 28.23,10.59 28.23,10.59 C28.23,10.59 27.33,10.17 27.33,10.17 C27.33,10.17 29.27,10.41 29.27,10.41 C29.27,10.41 28.07,10.08 28.07,10.08 C28.07,10.08 30.01,10.28 30.01,10.28 C30.01,10.28 28.41,10.08 28.41,10.08 C28.41,10.08 30.42,10.30 30.42,10.30 C30.42,10.30 31.50,10.19 31.50,10.19 C31.50,10.19 29.92,10.03 29.92,10.03 C29.92,10.03 32.08,10.27 32.08,10.27 C32.08,10.27 30.24,10.07 30.24,10.07 C30.24,10.07 32.26,9.95 32.26,9.95 C32.26,9.95 31.16,10.02 31.16,10.02 C31.16,10.02 32.75,10.35 32.75,10.35 C32.49,10.74 33.11,9.93 33.13,10.38 C33.14,10.82 32.50,10.65 32.69,10.24 C32.90,9.83 33.23,10.90 33.09,10.93 C32.75,10.80 33.13,10.03 33.42,10.39 C33.69,10.78 33.37,11.06 33.29,11.10 C33.29,11.10 32.99,13.40 32.99,13.40 C32.99,13.40 33.34,11.73 33.34,11.73 C33.34,11.73 33.33,15.62 33.33,15.62 C33.33,15.62 33.00,13.19 33.00,13.19 C33.00,13.19 33.27,17.07 33.27,17.07 C33.27,17.07 33.14,15.47 33.14,15.47 C33.14,15.47 33.59,18.21 33.59,18.21 C33.59,18.21 33.27,16.28 33.27,16.28 C33.27,16.28 33.93,18.07 33.93,18.07 C33.93,18.07 33.09,15.35 33.09,15.35 C33.09,15.35 33.88,18.16 33.88,18.16 C33.88,18.16 33.35,15.83 33.35,15.83 C33.35,15.83 33.98,18.38 33.98,18.38 C33.98,18.38 33.75,15.62 33.75,15.62 C33.75,15.62 33.85,17.76 33.85,17.76 C33.85,17.76 33.53,15.86 33.53,15.86 C33.53,15.86 34.29,19.41 34.29,19.41 C34.29,19.41 34.00,17.82 34.00,17.82 C34.00,17.82 34.87,20.44 34.87,20.44 C34.87,20.44 34.28,18.59 34.28,18.59 C34.28,18.59 35.00,21.12 35.00,21.12 C35.00,21.12 34.31,19.43 34.31,19.43 C34.31,19.43 34.90,21.78 34.90,21.78 C34.90,21.78 34.78,20.28 34.78,20.28 C34.78,20.28 34.79,22.26 34.79,22.26 C34.79,22.26 34.77,20.68 34.77,20.68 C34.77,20.68 34.97,22.65 34.97,22.65 C34.97,22.65 35.02,21.19 35.02,21.19 C35.02,21.19 34.96,22.75 34.96,22.75 C34.96,22.75 35.02,21.67 35.02,21.67 C35.02,21.67 34.89,23.31 34.89,23.31 C34.89,23.31 34.75,22.05 34.75,22.05 C34.75,22.05 34.16,23.46 34.16,23.46 C33.56,22.87 34.37,23.58 33.56,23.42 C33.49,23.41 33.43,23.37 33.36,23.32" fill="none" stroke="rgb(252, 244, 205)" stroke-width="1.81" stroke-opacity="1.00" stroke-linejoin="round"/>
<path d="M34.99,23.67 C35.01,23.65 34.38,23.96 34.23,24.03 C33.77,24.21 33.51,24.18 33.39,24.15 C33.39,24.15 35.20,22.79 35.20,22.79 C35.20,22.79 34.12,23.69 34.12,23.69 C34.12,23.69 35.22,22.42 35.22,22.42 C35.22,22.42 34.41,23.56 34.41,23.56 C34.41,23.56 35.01,22.46 35.01,22.46 C35.01,22.46 34.37,23.26 34.37,23.26 C34.37,23.26 35.12,22.59 35.12,22.59 C35.12,22.59 34.44,23.60 34.44,23.60 C34.44,23.60 35.18,22.62 35.18,22.62 C35.18,22.62 34.35,23.48 34.35,23.48 C34.15,23.13 34.76,25.01 32.55,24.00 C32.55,24.00 33.52,23.64 33.52,23.64 C33.52,23.64 31.93,24.40 31.93,24.40 C31.93,24.40 33.66,23.75 33.66,23.75 C33.66,23.75 31.27,24.60 31.27,24.60 C31.27,24.60 32.99,24.15 32.99,24.15 C32.99,24.15 31.74,24.84 31.74,24.84 C31.74,24.84 33.20,24.10 33.20,24.10 C33.20,24.10 32.03,24.67 32.03,24.67 C32.03,24.67 32.96,24.10 32.96,24.10 C32.96,24.10 30.92,25.32 30.92,25.32 C30.92,25.32 31.81,24.65 31.81,24.65 C31.81,24.65 29.86,25.99 29.86,25.99 C29.86,25.99 30.80,25.18 30.80,25.18 C30.80,25.18 28.67,27.35 28.67,27.35 C28.67,27.35 30.51,25.69 30.51,25.69 C30.51,25.69 29.30,27.11 29.30,27.11 C29.30,27.11 30.71,25.52 30.71,25.52 C30.71,25.52 29.59,27.36 29.59,27.36 C29.59,27.36 30.85,25.40 30.85,25.40 C30.85,25.40 29.07,28.35 29.07,28.35 C29.07,28.35 29.67,26.48 29.67,26.48 C29.67,26.48 29.00,28.70 29.00,28.70 C29.00,28.70 28.35,29.91 28.35,29.91 C28.35,29.91 29.33,27.64 29.33,27.64 C29.33,27.64 28.61,29.65 28.61,29.65 C28.61,29.65 29.33,27.88 29.33,27.88 C29.33,27.88 28.37,29.94 28.37,29.94 C28.37,29.94 29.37,28.17 29.37,28.17 C29.37,28.17 28.08,29.93 28.08,29.93 C28.08,29.93 28.67,28.43 28.67,28.43 C28.67,28.43 27.94,30.08 27.94,30.08 C27.64,29.46 27.44,31.14 27.07,30.94 C26.73,30.74 27.47,30.03 27.62,30.43 C27.75,30.82 26.92,31.15 26.79,30.80 C26.75,30.66 26.82,30.39 26.91,30.30 C27.21,30.41 26.78,31.03 26.55,30.68 C26.47,30.55 26.42,30.15 26.42,30.05" fill="none" stroke="rgb(252, 244, 205)" stroke-width="1.81" stroke-opacity="1.00" stroke-linejoin="round"/>
<path d="M22.10,28.53 C22.10,28.53 22.03,28.39 22.03,28.39 C22.03,28.39 25.59,29.82 25.59,29.82 C25.59,29.82 22.05,28.18 22.05,28.18 C22.05,28.18 25.31,29.92 25.31,29.92 C25.31,29.92 21.73,28.51 21.73,28.51 C21.73,28.51 26.49,30.39 26.49,30.39 C26.49,30.39 24.20,29.40 24.20,29.40 C24.20,29.40 26.79,30.15 26.79,30.15 C26.79,30.15 24.47,29.46 24.47,29.46 C24.47,29.46 25.99,30.08 25.99,30.08 C25.99,30.08 22.35,28.40 22.35,28.40 C22.35,28.40 26.23,30.40 26.23,30.40 C26.23,30.40 22.72,29.03 22.72,29.03 C22.72,29.03 25.47,30.35 25.47,30.35 C25.47,30.35 21.26,27.98 21.07,27.91 C21.04,27.90 20.99,27.88 20.94,27.86" fill="none" stroke="rgb(252, 244, 205)" stroke-width="1.81" stroke-opacity="1.00" stroke-linejoin="round"/>
<path d="M19.98,27.69 C19.98,27.69 22.53,28.00 22.53,28.00 C22.53,28.00 18.99,27.50 18.99,27.50 C18.99,27.50 20.85,27.88 20.85,27.88 C19.67,27.63 18.94,27.48 18.67,27.42 C18.40,27.35 18.19,27.30 18.06,27.24" fill="none" stroke="rgb(252, 244, 205)" stroke-width="1.81" stroke-opacity="1.00" stroke-linejoin="round"/>
<path d="M16.14,27.60 C16.14,27.60 15.89,27.61 15.89,27.61 C15.89,27.61 19.29,27.43 19.29,27.43 C19.29,27.43 16.53,27.52 16.53,27.52 C16.53,27.52 18.71,27.55 18.71,27.55 C18.71,27.55 16.54,27.67 16.54,27.67 C16.54,27.67 17.99,27.69 17.99,27.69 C17.99,27.69 15.26,27.50 15.26,27.50 C15.26,27.50 17.19,27.46 17.19,27.46 C17.19,27.46 15.05,27.06 15.05,27.06 C15.05,27.06 14.75,25.86 14.75,25.86 C14.75,25.86 14.98,27.18 14.98,27.18 C14.83,26.92 15.18,27.44 15.23,27.37 C15.24,27.35 15.27,27.30 15.31,27.21" fill="none" stroke="rgb(252, 244, 205)" stroke-width="1.81" stroke-opacity="1.00" stroke-linejoin="round"/>
<path d="M15.17,23.45 C15.14,23.19 15.04,22.75 14.97,22.44 C14.96,22.36 14.95,22.28 14.94,22.20 C14.94,22.20 15.25,25.86 15.25,25.86 C15.25,25.86 14.97,21.97 14.97,21.97 C14.97,21.97 15.14,25.83 15.14,25.83 C15.14,25.83 14.93,23.10 14.93,23.10 C14.93,23.10 14.95,25.54 14.95,25.54 C14.95,25.54 14.90,23.46 14.90,23.46 C14.90,23.46 14.95,25.34 14.95,25.34 C14.95,25.34 15.22,22.09 15.22,22.09 C15.22,22.09 15.23,24.28 15.23,24.28 C15.22,24.19 15.19,23.90 15.15,23.58 C15.11,23.34 15.05,22.97 15.03,22.82" fill="none" stroke="rgb(252, 244, 205)" stroke-width="1.81" stroke-opacity="1.00" stroke-linejoin="round"/>
<path d="M14.31,17.97 C14.31,17.97 14.19,17.94 14.19,17.94 C14.19,17.94 15.26,22.39 15.26,22.39 C15.26,22.39 13.93,18.20 13.93,18.20 C13.93,18.20 15.09,21.86 15.09,21.86 C15.09,21.86 13.85,18.80 13.85,18.80 C13.85,18.80 15.00,21.55 15.00,21.55 C15.00,21.55 13.92,18.98 13.92,18.98 C13.92,18.98 14.74,20.98 14.74,20.98 C14.74,20.98 13.89,19.14 13.89,19.14 C13.89,19.14 14.57,21.20 14.57,21.20 C14.57,21.20 13.64,18.21 13.64,18.21 C13.64,18.21 14.31,20.35 14.31,20.35 C14.31,20.35 13.60,17.55 13.60,17.55 C13.60,17.55 14.47,20.85 14.47,20.85 C14.47,20.85 13.57,18.09 13.57,18.09 C13.57,18.09 15.05,22.67 15.05,22.67 C15.05,22.67 13.77,17.78 13.77,17.78 C13.77,17.78 13.33,15.96 13.33,15.96 C13.33,15.96 13.69,17.42 13.69,17.42 C13.69,17.42 13.34,16.08 13.34,16.08 C13.34,16.08 13.73,14.55 13.73,14.55 C13.68,15.32 13.49,14.23 13.83,14.39 C14.21,14.57 13.86,15.26 13.62,15.27 C13.62,15.27 13.72,14.17 13.72,14.17 C14.59,14.69 13.48,14.05 13.85,14.09 C14.23,14.15 14.16,14.88 14.01,14.95 C13.00,13.65 14.86,13.79 14.94,13.88 C15.16,15.11 13.99,12.77 15.84,13.36 C15.28,13.79 15.21,12.91 16.14,12.81 C16.21,12.80 16.28,12.82 16.36,12.86" fill="none" stroke="rgb(252, 244, 205)" stroke-width="1.81" stroke-opacity="1.00" stroke-linejoin="round"/>
<path d="M16.95,13.11 C16.95,13.11 16.45,13.31 16.45,13.31 C16.45,13.31 19.07,11.66 19.07,11.66 C19.07,11.66 16.51,13.04 16.51,13.04 C16.51,13.04 18.77,11.40 18.77,11.40 C18.77,11.40 16.85,12.56 16.85,12.56 C16.85,12.56 17.85,11.86 17.85,11.86 C17.85,11.86 16.24,12.74 16.24,12.74 C16.24,12.74 17.32,12.09 17.32,12.09 C17.32,12.09 15.56,13.28 15.56,13.28 C15.56,13.28 17.63,11.88 17.63,11.88 C17.63,11.88 19.32,10.17 19.32,10.17 C19.32,10.17 17.61,11.70 17.61,11.70 C17.61,11.70 19.53,9.80 19.53,9.80 C19.53,9.80 17.79,11.48 17.79,11.48 C17.79,11.48 19.61,9.82 19.61,9.82 C19.61,9.82 18.36,10.77 18.36,10.77 C18.36,10.77 19.26,9.95 19.26,9.95 C19.26,9.95 16.50,12.60 16.50,12.60 C16.50,12.60 17.65,11.45 17.65,11.45 C17.65,11.45 15.79,13.05 15.79,13.05 C15.79,13.05 17.85,11.45 17.85,11.45 C17.85,11.45 16.30,12.96 16.30,12.96 C16.30,12.96 20.47,10.31 20.47,10.31 C20.47,10.31 17.02,14.47 17.02,14.47 C16.95,14.16 19.15,11.32 20.41,10.42 C21.45,9.70 22.75,9.66 22.78,10.32 C22.80,11.01 21.62,12.96 20.87,13.63 C20.35,14.10 19.51,14.26 19.56,13.49 C19.62,12.69 20.97,10.66 21.84,10.32 C22.49,10.08 23.42,10.62 23.06,11.47 C22.68,12.30 20.87,13.53 20.16,13.38 C19.42,13.21 19.20,11.34 19.81,10.34 C20.44,9.32 22.17,8.86 22.60,9.52 C22.97,10.12 22.50,11.94 21.95,12.69 C21.69,13.04 21.00,13.55 20.80,13.55 C20.77,13.55 20.70,13.54 20.60,13.53" fill="none" stroke="rgb(252, 244, 205)" stroke-width="1.81" stroke-opacity="1.00" stroke-linejoin="round"/>
<path d="M23.86,13.68 C23.77,13.75 22.71,14.97 22.46,14.38 C22.27,13.89 22.73,11.94 23.37,11.54 C24.72,10.73 24.07,14.71 22.52,15.32 C21.88,15.56 20.67,15.10 20.34,14.47 C20.01,13.79 20.51,12.30 21.32,11.87 C22.14,11.45 23.90,11.68 24.40,12.13 C24.85,12.58 24.85,13.74 24.39,14.21 C23.93,14.67 22.90,14.58 22.71,14.01 C22.53,13.41 23.40,12.18 24.14,12.14 C24.68,12.12 25.63,12.79 25.60,13.50 C25.56,14.09 24.79,15.17 24.48,15.18 C24.18,14.81 24.92,13.36 25.64,12.98 C26.32,12.64 27.57,13.07 27.68,13.58 C27.77,14.16 26.41,14.99 25.43,14.88 C24.45,14.75 22.88,13.52 22.53,12.73 C22.31,12.22 22.58,11.31 23.13,11.32 C24.45,11.35 25.19,14.88 24.09,14.75 C22.85,14.56 22.66,11.06 23.83,11.69 C25.19,12.48 24.29,13.31 24.11,13.42 C23.71,13.30 23.47,12.22 23.73,11.79 C24.45,10.66 26.99,13.43 26.22,14.02 C25.32,14.65 23.35,11.54 23.75,10.92 C24.69,10.41 26.27,14.68 26.33,14.78 C26.56,14.78 27.95,13.10 28.25,13.34 C29.01,14.01 28.73,15.73 28.55,15.93 C28.43,15.95 28.05,11.76 28.94,12.90 C29.63,13.84 29.01,14.83 28.88,14.99 C28.55,14.36 29.65,12.81 30.06,12.69 C31.30,12.38 30.46,14.15 30.17,14.34 C30.07,14.32 28.71,12.43 30.73,12.28 C32.09,12.22 31.35,13.85 31.24,14.03 C31.24,14.03 30.73,12.09 30.73,12.09 C32.09,14.18 30.00,16.15 29.88,16.22 C29.88,16.22 29.44,15.27 29.44,15.27 C29.44,15.27 29.90,19.08 29.90,19.08 C29.90,19.08 30.38,18.04 30.38,18.04 C30.38,18.04 30.99,20.18 30.99,20.18 C30.99,20.18 31.12,17.18 31.12,17.18 C31.27,17.17 32.81,18.09 31.54,19.91 C31.54,19.91 30.91,17.85 30.91,17.85 C31.01,17.82 32.87,19.03 31.45,21.62 C31.14,22.15 30.31,22.14 30.10,21.60 C29.89,21.03 30.35,19.59 30.93,19.14 C31.53,18.70 32.71,18.92 32.87,19.51 C33.24,20.96 30.24,23.14 29.50,22.27 C29.14,21.82 29.42,20.63 29.96,20.36 C31.28,19.73 32.01,21.73 31.46,22.11 C31.46,22.11 31.68,20.21 31.68,20.21 C31.67,20.53 30.07,21.90 29.43,22.14 C28.53,22.47 27.46,22.01 27.36,21.43 C27.28,20.84 27.98,20.06 28.37,20.36 C29.32,21.14 27.77,24.74 27.05,24.71 C27.05,24.71 27.80,22.05 27.80,22.05 C27.95,22.05 26.33,26.35 26.04,25.24 C25.89,24.58 26.53,23.00 26.93,23.03 C27.89,23.15 26.76,26.22 26.29,26.54 C26.15,26.53 24.47,24.52 26.31,23.96 C26.31,23.96 26.61,26.64 26.61,26.64 C26.61,26.64 27.46,23.43 27.46,23.43 C28.30,25.68 26.04,26.85 25.86,26.92 C25.49,26.79 25.82,27.28 25.56,27.43 C25.26,27.59 25.00,27.14 24.96,27.05 C24.96,27.05 25.46,27.98 25.46,27.98 C25.46,27.98 28.41,23.84 28.41,23.84 C28.40,23.85 24.11,25.71 23.38,25.69 C22.68,25.63 22.18,24.73 22.35,23.87 C22.52,23.05 23.40,21.61 23.87,21.30 C24.91,20.65 25.27,23.42 24.20,24.38 C23.75,24.77 23.02,24.57 22.83,23.97 C22.64,23.35 22.95,22.10 23.36,22.00 C24.57,21.76 23.46,24.40 22.87,24.47 C22.10,23.89 24.17,19.74 25.50,19.74 C26.09,19.75 26.11,20.84 25.67,21.37 C25.25,21.88 24.53,21.70 24.45,20.93 C24.37,20.08 24.97,18.46 25.50,18.07 C26.00,17.72 26.98,18.05 26.97,18.61 C26.95,19.15 25.87,20.34 25.30,20.52 C23.72,20.97 25.27,17.18 26.67,17.33 C27.34,17.42 27.22,18.65 26.43,19.27 C25.61,19.88 23.63,20.27 22.92,19.87 C22.26,19.49 21.93,18.18 22.15,17.76 C22.46,17.22 23.51,17.76 23.61,18.63 C23.69,19.51 22.83,21.32 22.17,21.92 C21.58,22.44 20.87,22.13 20.85,21.41 C20.84,20.73 21.19,19.52 21.50,19.26 C21.50,19.26 20.34,23.13 20.34,23.13 C20.34,23.13 20.11,20.83 20.11,20.83 C20.24,20.82 22.61,23.12 19.75,24.25 C19.75,24.25 19.16,22.39 19.16,22.39 C19.70,22.92 19.59,24.58 19.22,24.71 C18.71,24.87 18.20,24.02 18.21,23.77 C18.21,23.77 17.52,24.57 17.52,24.57 C17.52,24.57 21.62,24.88 21.62,24.88 C21.62,24.88 18.80,20.87 18.80,20.87 C18.80,20.87 19.81,22.11 19.81,22.11 C19.36,22.50 17.79,20.64 17.85,19.72 C17.86,19.53 17.95,19.35 18.05,19.21 C18.14,19.19 20.64,20.91 18.44,22.11 C18.44,22.11 18.01,18.94 18.01,18.94 C18.01,18.94 18.19,22.42 18.19,22.42 C18.19,22.42 17.63,19.46 17.63,19.46 C17.63,19.46 17.98,20.42 17.98,20.42 C17.98,20.42 17.34,17.80 17.34,17.80 C17.34,17.80 17.64,19.52 17.64,19.52 C17.64,19.52 16.66,17.39 16.66,17.39 C16.66,17.39 17.01,18.35 17.01,18.35 C17.01,18.35 16.66,16.72 16.66,16.72 C17.01,17.08 15.70,17.31 16.17,15.74 C16.17,15.74 17.36,16.54 17.36,16.54 C17.36,16.54 17.01,15.52 17.01,15.52 C17.01,15.52 17.92,16.09 17.92,16.09 C17.96,16.04 17.99,16.03 18.03,16.06 C18.06,16.10 18.13,16.22 18.24,16.45" fill="none" stroke="rgb(252, 244, 205)" stroke-width="5.44" stroke-opacity="1.00" stroke-linejoin="round"/>
<path d="M13.59,13.10 C16.26,11.62 18.37,9.74 19.31,7.90 C19.97,6.61 21.55,6.36 22.32,6.45 C22.70,6.50 23.56,6.80 23.77,6.95 C23.80,6.97 23.83,7.00 23.86,7.03" fill="none" stroke="rgb(196, 134, 63)" stroke-width="0.91" stroke-opacity="1.00" stroke-linejoin="round"/>
<path d="M23.10,6.76 C23.16,6.75 23.39,6.85 23.76,7.09 C24.69,7.69 27.44,9.03 27.65,9.10 C28.12,9.23 31.54,8.99 32.37,9.01 C33.47,9.05 34.18,9.72 34.41,10.41 C34.69,11.30 34.60,11.50 34.59,11.51" fill="none" stroke="rgb(196, 134, 63)" stroke-width="0.91" stroke-opacity="1.00" stroke-linejoin="round"/>
<path d="M34.41,10.57 C34.41,10.61 34.47,11.04 34.42,11.70 C34.36,12.50 34.32,14.57 34.35,15.12 C34.37,15.48 34.43,15.97 34.54,16.61 C34.55,16.68 34.57,16.81 34.57,16.84" fill="none" stroke="rgb(196, 134, 63)" stroke-width="0.91" stroke-opacity="1.00" stroke-linejoin="round"/>
<path d="M34.43,16.00 C34.40,16.04 34.51,16.59 34.71,17.09 C34.77,17.24 35.98,20.11 36.20,21.70 C36.31,22.60 35.91,23.69 35.46,24.17 C35.37,24.26 35.24,24.35 35.09,24.44" fill="none" stroke="rgb(196, 134, 63)" stroke-width="0.91" stroke-opacity="1.00" stroke-linejoin="round"/>
<path d="M35.54,24.12 C35.23,24.55 32.12,25.73 31.64,26.10 C31.18,26.48 30.75,27.21 30.41,28.01 C30.26,28.36 30.07,28.82 30.05,28.86" fill="none" stroke="rgb(196, 134, 63)" stroke-width="0.91" stroke-opacity="1.00" stroke-linejoin="round"/>
<path d="M30.38,27.81 C30.38,27.81 30.38,27.80 30.39,27.79 C30.41,27.77 30.47,27.68 30.48,27.68" fill="none" stroke="rgb(196, 134, 63)" stroke-width="0.91" stroke-opacity="1.00" stroke-linejoin="round"/>
<path d="M30.45,27.73 C30.45,27.73 30.52,27.66 30.52,27.66 C30.51,27.84 30.11,29.09 29.91,29.48 C29.22,30.73 28.42,31.65 27.93,31.88 C27.72,31.98 27.20,32.11 26.88,32.11 C26.81,32.11 26.71,32.10 26.56,32.09" fill="none" stroke="rgb(196, 134, 63)" stroke-width="0.91" stroke-opacity="1.00" stroke-linejoin="round"/>
<path d="M21.32,29.30 C21.35,29.32 21.54,29.42 21.60,29.46 C22.04,29.74 25.43,31.27 26.62,31.80 C27.45,32.19 27.88,32.19 27.94,32.18" fill="none" stroke="rgb(196, 134, 63)" stroke-width="0.91" stroke-opacity="1.00" stroke-linejoin="round"/>
<path d="M13.86,25.90 C13.86,25.90 13.90,25.90 13.90,25.90 C13.92,25.92 13.89,27.21 14.02,27.49 C14.27,28.00 15.34,28.66 16.17,28.74 C17.63,28.74 20.16,28.81 21.14,29.23 C21.21,29.26 21.37,29.34 21.63,29.46 C21.68,29.49 21.72,29.51 21.74,29.52" fill="none" stroke="rgb(196, 134, 63)" stroke-width="0.91" stroke-opacity="1.00" stroke-linejoin="round"/>
<path d="M13.11,19.66 C13.13,19.68 13.72,21.12 13.82,21.44 C13.96,21.85 14.08,22.71 14.09,23.51 C14.11,25.06 14.08,25.60 14.02,25.96 C14.01,26.01 13.99,26.11 13.96,26.26" fill="none" stroke="rgb(196, 134, 63)" stroke-width="0.91" stroke-opacity="1.00" stroke-linejoin="round"/>
<path d="M13.80,13.10 C13.79,13.10 13.75,13.11 13.71,13.14 C12.36,14.05 12.31,16.23 12.52,17.23 C12.68,18.02 13.12,19.72 13.34,20.31 C13.44,20.58 13.53,20.77 13.59,20.88" fill="none" stroke="rgb(196, 134, 63)" stroke-width="0.91" stroke-opacity="1.00" stroke-linejoin="round"/>
<path d="M16.28,16.02 C16.28,16.02 17.53,15.06 17.53,15.06 C17.53,15.06 16.92,16.52 16.92,16.52 C16.92,16.52 17.11,15.42 17.11,15.42 C17.11,15.42 16.71,16.45 16.71,16.45 C16.71,16.45 17.00,14.96 17.00,14.96 C17.00,14.96 20.71,13.19 20.71,13.19 C20.71,13.19 21.06,12.17 21.06,12.17 C21.06,12.17 21.80,11.28 21.80,11.28 C21.80,11.28 21.70,12.78 21.70,12.78 C20.92,12.46 21.88,10.66 22.39,11.45 C22.59,11.77 22.58,12.55 22.40,12.86 C22.40,12.86 22.23,11.02 22.23,11.02 C22.87,11.29 21.69,12.41 21.49,11.55 C21.41,11.14 21.69,10.82 21.89,10.70 C21.89,10.70 23.53,13.21 23.53,13.21 C23.53,13.21 24.47,13.78 24.47,13.78" fill="none" stroke="rgb(252, 244, 205)" stroke-width="6.55" stroke-opacity="1.00" stroke-linejoin="round"/>
<path d="M25.37,13.09 C25.66,12.56 27.76,11.63 28.27,12.34 C28.89,13.27 26.98,13.47 26.98,12.60 C27.41,12.70 27.71,13.93 27.58,14.60 C27.42,15.35 26.64,16.37 26.19,16.84 C26.06,16.97 25.85,17.18 25.54,17.46" fill="none" stroke="rgb(252, 244, 205)" stroke-width="6.55" stroke-opacity="1.00" stroke-linejoin="round"/>
<path d="M25.01,24.47 C25.01,24.47 24.81,25.00 24.81,25.00 C24.81,25.00 25.23,27.36 25.23,27.36 C25.77,27.31 27.09,27.08 27.27,26.17 C27.31,26.00 27.32,25.57 27.32,24.78" fill="none" stroke="rgb(252, 244, 205)" stroke-width="6.55" stroke-opacity="1.00" stroke-linejoin="round"/>
<path d="M27.21,24.44 C27.21,24.44 29.80,22.27 29.80,22.27 C29.75,22.30 29.12,22.08 26.02,23.78 C25.62,24.00 21.85,24.57 21.17,24.74 C21.17,24.74 22.25,25.91 22.25,25.91 C22.25,25.91 20.47,25.04 20.47,25.04 C20.47,25.04 23.13,25.66 23.13,25.66 C23.13,25.66 21.69,25.17 21.69,25.17 C22.02,25.18 18.20,23.63 16.97,24.97 C16.97,24.97 17.35,22.13 17.35,22.13 C17.35,22.13 17.45,23.30 17.45,23.30 C17.45,23.30 18.44,19.24 18.44,19.24" fill="none" stroke="rgb(252, 244, 205)" stroke-width="6.55" stroke-opacity="1.00" stroke-linejoin="round"/>
<path d="M17.30,16.11 C17.34,16.09 18.39,15.90 18.98,15.82 C19.56,15.75 20.78,15.75 21.29,15.81 C21.43,15.82 21.63,15.86 21.90,15.91" fill="none" stroke="rgb(252, 244, 205)" stroke-width="6.55" stroke-opacity="1.00" stroke-linejoin="round"/>
<path d="M23.19,12.01 C23.44,12.06 24.65,12.35 24.82,12.38 C26.20,12.66 28.69,12.95 28.72,12.86" fill="none" stroke="rgb(252, 244, 205)" stroke-width="6.55" stroke-opacity="1.00" stroke-linejoin="round"/>
<path d="M26.85,12.65 C26.85,12.65 29.48,12.92 29.48,12.92 C29.48,12.92 25.07,12.84 25.07,12.84 C25.07,12.84 27.67,12.93 27.67,12.93 C27.67,12.93 23.59,11.38 23.59,11.38 C22.60,12.18 21.86,12.30 21.75,11.73 C21.58,10.77 22.67,10.81 22.75,11.05 C22.66,11.32 21.67,11.07 21.90,10.54 C22.22,9.88 23.23,10.59 23.04,11.26 C23.00,11.39 22.93,11.47 22.85,11.51 C22.85,11.51 22.76,11.77 22.76,11.77" fill="none" stroke="rgb(252, 244, 205)" stroke-width="6.55" stroke-opacity="1.00" stroke-linejoin="round"/>
</g>
</svg>
