<?xml version="1.0" encoding="UTF-8"?>
<svg id="_レイヤー_1" data-name="レイヤー 1" xmlns="http://www.w3.org/2000/svg" viewBox="0 0 219.12 123.25">
  <defs>
    <style>
      .cls-1 {
      fill: #feeb90;
      }

      .cls-1, .cls-2, .cls-3, .cls-4, .cls-5, .cls-6, .cls-7, .cls-8, .cls-9, .cls-10, .cls-11,
      .cls-12, .cls-13, .cls-14, .cls-15, .cls-16, .cls-17 {
      stroke-width: 0px;
      }

      .cls-2 {
      fill: #8dd4c9;
      }

      .cls-3 {
      fill: #f7a18b;
      }

      .cls-4 {
      fill: #8cd3c9;
      }

      .cls-5 {
      fill: #f7a18a;
      }

      .cls-6 {
      fill: #a8e5dc;
      }

      .cls-7 {
      fill: #fec6b6;
      }

      .cls-8 {
      fill: #a7e5dc;
      }

      .cls-9 {
      fill: #f7a28b;
      }

      .cls-10 {
      fill: #8cd4c9;
      }

      .cls-11 {
      fill: #8bd3c8;
      }

      .cls-12 {
      fill: #8ed4c9;
      }

      .cls-13 {
      fill: #daf1ed;
      }

      .cls-14 {
      fill: #8cd3c8;
      }

      .cls-15 {
      fill: #ecf7f6;
      }

      .cls-16 {
      fill: #eef8f6;
      }

      .cls-17 {
      fill: #93d6cc;
      }
    </style>
  </defs>
  <path class="cls-7"
    d="M167.8,66.49c-.76.77-.93,1.82-1.15,2.79-1.11,4.83-.27,9.33,2.72,13.3,2.85,3.78,6.68,5.92,11.43,6.32,5.23.44,9.6-1.4,13.12-5.2,2.3-2.49,3.58-5.47,4.01-8.86.18-1.44,0-2.83-.04-4.24-.05-1.65.82-2.82,2.11-2.91,1.92-.13,2.98.73,3.2,2.6.65,5.57-.55,10.7-3.88,15.23-3.45,4.7-8.06,7.61-13.86,8.52-6.55,1.02-12.37-.68-17.35-4.97-3.86-3.32-6.19-7.59-6.99-12.65-.67-4.2-.06-8.24,1.57-12.15,1.7.74,3.4,1.49,5.1,2.23Z" />
  <path class="cls-7"
    d="M114.98,73.88c-.05,4.04-.9,7.89-2.87,11.44-2.23,4.02-5.33,7.17-9.36,9.43-4.26,2.4-8.85,3.22-13.65,2.83-4.7-.39-8.91-2.15-12.59-5.13-3.18-2.58-5.54-5.77-7.07-9.56-.08-.21-.13-.43-.19-.65,1.78-.34,3.56-.69,5.34-1.03.75,2.13,2.02,3.95,3.59,5.52,4.34,4.36,9.6,6.24,15.73,5.4,8.66-1.18,15.17-8.33,15.7-17.24,1.79-.34,3.58-.69,5.36-1.03Z" />
  <path class="cls-11"
    d="M48.05,50.43c1.83,6.61-2.43,13.42-9.25,14.47-7.75,1.18-13.07-4.78-13.38-10.67-.32-6.04,3.92-11.36,9.9-12.12,4.53-.58,8.28,1.02,11.03,4.75-1.61.98-3.36,1.61-5.13,2.21-1.03-.96-2.26-1.55-3.65-1.7-2.61-.27-5,1.08-6.18,3.41-1.15,2.26-.74,5.04,1.02,6.99,1.59,1.75,4.36,2.41,6.68,1.55,2.24-.83,4.31-3.17,4.01-6.65,0-.36.04-.61.46-.78,1.27-.49,2.5-1.06,3.75-1.58.26-.11.54-.19.74.13Z" />
  <path class="cls-11"
    d="M48.74,38.81c-8.04,0-16.08-.01-24.12-.02-1.47,0-2.45-.63-2.88-1.84-.62-1.76.63-3.47,2.63-3.58.45-.02.91,0,1.37,0,7.35,0,14.71-.01,22.06.02.73,0,1-.16.97-.94-.06-1.65-.02-3.3-.02-4.96,0-1.73,1.18-3,2.74-2.97,1.5.02,2.67,1.29,2.69,2.96.02,1.62.03,3.25-.01,4.87-.02.73.11,1.06.96,1.04,1.29-.02,2.25.8,2.59,1.97.32,1.11-.07,2.23-1.05,2.93-.74.53-1.61.5-2.46.51-.26.22-.16.53-.16.8,0,1.17-.03,2.33,0,3.5.01.5-.17.79-.63.97-1.26.5-2.53,1.01-3.77,1.56-.58.26-.75.13-.75-.49.02-1.82.01-3.64,0-5.46,0-.3.12-.63-.17-.88Z" />
  <path class="cls-8"
    d="M148.63,39c2.39.25,4.45-.4,6.08-2.23,1.04-1.17,1.63-2.52,1.64-4.1,0-1.11-.01-2.22,0-3.33.02-1.31.76-2.12,1.87-2.1,1.03.02,1.67.87,1.71,2.16.06,1.78-.23,3.58.42,5.32.91,2.45,3.33,4.24,5.93,4.27,1.14.01,2.28-.02,3.42,0,1.02.03,1.69.5,1.95,1.36.23.78-.1,1.38-.69,1.87-.35.29-.77.32-1.2.34-1.5.05-3.01-.14-4.51.15-2.86.55-5.23,3.28-5.3,6.2-.03,1.14,0,2.28-.01,3.42-.01,1.18-.76,2.03-1.74,2.02-1.08-.01-1.79-.81-1.84-2.03-.07-1.59.21-3.19-.17-4.76-.7-2.85-3.43-4.98-6.37-5-1.08,0-2.17,0-3.25,0-1.1,0-1.97-.74-1.99-1.68-.03-.98.72-1.79,1.84-1.88.74-.06,1.48-.01,2.22-.01Z" />
  <path class="cls-7"
    d="M95.42,74.34c.26-.17.34-.39.38-.7.13-1.19.93-2.12,1.94-2.33,1.27-.27,2.42.23,3.02,1.36.2.39.44.56.86.52-.27.17-.65.29-.5.74.27.83.14,1.66-.02,2.49-.37,2.43-1.61,4.37-3.57,5.78-4.02,2.9-9.57,1.89-12.43-2.17-.19-.28-.36-.59-.78-.56.08-.11.26-.26.23-.31-.4-.73-.58-1.54-.86-2.31-.1-.27-.35-.25-.57-.28.55-.14.56-.54.52-.99-.22-2.46.61-4.58,2.14-6.46.78-.96,1.8-1.28,2.97-1.04.93.19,1.58.81,1.83,1.72.29,1.08.08,2.07-.74,2.91-.59.61-.95,1.34-.91,2.23.01.26.07.45.36.48-.09.15-.32.19-.28.46.13,1.07,1.25,2.17,2.36,2.27.78.63,2.24.39,3.22-.52.58-.37.94-.94,1.08-1.56.13-.56.5-1.25-.25-1.72Z" />
  <path class="cls-7"
    d="M68.06,79.3c.23-.25.13-.5.08-.79-1.23-7.4.51-14.02,5.3-19.79,1.27-1.53,2.76-2.87,4.43-3.97,1.42-.95,3.16-.71,4.01.55.86,1.28.49,2.84-.95,3.85-4.32,3.04-6.8,7.22-7.68,12.38-.39,2.27-.22,4.52.34,6.75-1.84.34-3.68.69-5.52,1.03Z" />
  <path class="cls-11"
    d="M38.27,77.27c-1.94-.11-4.25.21-6.53-.34-4.5-1.08-8.16-5.55-8-10.22.06-1.6.97-2.73,2.38-2.79,1.63-.07,2.76.91,2.95,2.55.42,3.74,2.37,5.48,6.13,5.48,2.73,0,5.47,0,8.2,0,1.59,0,2.64,1.04,2.66,2.59.01,1.6-1.04,2.7-2.64,2.72-1.59.02-3.19,0-5.14,0Z" />
  <path class="cls-5"
    d="M68.06,79.3c1.84-.34,3.68-.69,5.52-1.03,3.18-.57,6.35-1.13,9.53-1.7.22.03.47,0,.57.28.29.77.46,1.58.86,2.31.03.05-.15.2-.23.31-3.24.58-6.48,1.17-9.72,1.75-1.78.34-3.56.69-5.34,1.03-1.96.02-2.04.1-1.24,1.83,3.04,6.6,7.93,11.23,14.78,13.74.13.05.27.1.4.14.59.2.97.59.73,1.22-.23.61-.78.58-1.31.4-3.05-1.04-5.83-2.56-8.34-4.58-3.83-3.1-6.61-6.96-8.37-11.55-.24-.62-.6-.58-1.06-.5-1.37.26-2.73.53-4.1.78-1.38.25-2.23-.43-2.1-1.69.09-.92.74-1.21,1.52-1.35,1.31-.24,2.63-.48,3.94-.69.53-.08.7-.24.58-.83-.33-1.64-.52-3.31-.54-4.99,0-.61.06-1.2.86-1.19.8,0,.85.6.85,1.21-.02,1.46.23,2.88.43,4.32.12.86.43,1.17,1.27.83.15-.06.34-.04.51-.06Z" />
  <path class="cls-11"
    d="M121.42,52.94c0-.77,0-1.54,0-2.31.02-1.63,1.08-2.74,2.62-2.76,1.47-.02,2.65,1.16,2.69,2.73.03,1.22,0,2.45.01,3.67.06,4.41,3.42,7.82,7.82,7.96,1.33.04,2.37.78,2.72,1.94.32,1.05-.13,2.33-1.04,2.95-1.01.69-2.17.5-3.24.36-5.6-.73-10-4.75-11.3-10.21-.34-1.43-.28-2.88-.29-4.33Z" />
  <path class="cls-1"
    d="M93.41,58.8c.03-1.14.02-2.27-.56-3.32-1.01-1.83-2.54-2.78-4.63-2.82-.83-.02-1.65.02-2.48,0-.89-.03-1.42-.56-1.42-1.37,0-.81.55-1.31,1.43-1.36,1.25-.06,2.5.14,3.74-.17,2.26-.57,3.86-2.56,3.9-4.9.01-.85,0-1.71.01-2.56.02-.94.54-1.46,1.41-1.45.81.02,1.27.54,1.32,1.46.06,1.22-.14,2.44.16,3.66.55,2.25,2.64,3.93,4.95,3.96.83,0,1.65,0,2.48,0,.97.02,1.49.51,1.49,1.36,0,.85-.53,1.32-1.5,1.37-1.38.08-2.78-.21-4.15.3-2,.74-3.4,2.61-3.44,4.74-.02.85,0,1.71,0,2.56-.02.9-.52,1.44-1.32,1.46-.85.02-1.38-.53-1.4-1.47-.01-.48,0-.97,0-1.45Z" />
  <path class="cls-8"
    d="M48.74,38.81c.29.25.17.58.17.88.01,1.82.02,3.64,0,5.46,0,.62.17.74.75.49,1.24-.55,2.51-1.06,3.77-1.56.46-.18.64-.47.63-.97-.03-1.16-.02-2.33,0-3.5,0-.27-.1-.58.16-.8,0,1.37.01,2.73,0,4.1,0,.56.08.79.72.52,3.34-1.44,6.7-2.84,10.04-4.26,1.05-.44,2.06-.13,2.47.78.41.9,0,1.9-1.05,2.35-3.84,1.64-7.69,3.26-11.54,4.88-.1.04-.19.12-.28.18-1.25.35-2.41.93-3.59,1.45-.44.2-1.03.18-1.21.78-.7-.15-1.51.24-1.72.84-.2-.32-.48-.24-.74-.13-1.25.53-2.49,1.09-3.75,1.58-.42.16-.47.42-.46.78-.15-.27-.25-.53-.68-.29-.54.3-1.15.49-1.73.73-1.22.5-2.12.2-2.56-.85-.39-.94.12-1.86,1.26-2.33.62-.26,1.29-.44,1.84-.86,1.77-.6,3.52-1.23,5.13-2.21.79-.03,1.43-.51,2.14-.77.37-.14.26-.53.26-.82,0-2.15,0-4.3,0-6.46Z" />
  <path class="cls-7"
    d="M164.03,61.41c.86-.3,1.1-1.19,1.61-1.8,3.22-3.79,7.19-6.29,12.08-7.31,1.44-.3,2.9-.51,4.38-.49,1.32.02,2.42.95,2.62,2.13.23,1.39-.44,2.7-1.72,3.04-.81.22-1.68.18-2.53.28-4.59.51-8.27,2.62-11.08,6.26-.05.06-.04.16-.07.24-1.77-.79-3.53-1.58-5.3-2.37Z" />
  <path class="cls-8"
    d="M61.92,67.91c-.11.53-.34.99-1.07,1-.94,0-1.87-.01-2.81.13-1.89.29-3.43,1.95-3.47,3.86-.01.71.01,1.42,0,2.14-.02.78-.54,1.37-1.15,1.34-.66-.03-1.05-.55-1.08-1.38-.03-1.13.15-2.28-.33-3.37-.81-1.86-2.3-2.65-4.25-2.72-.6-.02-1.2,0-1.8,0-.57,0-.91-.3-.97-.87-.07-.6.08-1.06.75-1.24.76-.2,1.54-.15,2.29-.08,2.04.18,4.31-1.66,4.31-4.33,0-.6,0-1.2,0-1.79,0-.69.29-1.17,1.01-1.24.6-.06,1.16.5,1.2,1.2.04.71,0,1.42.01,2.14.02,2.18,1.78,3.96,3.95,4,.71.01,1.43-.02,2.14.02.74.03,1.28.54,1.27,1.21Z" />
  <path class="cls-11"
    d="M49.77,49.59c.18-.6.77-.58,1.21-.78,1.18-.53,2.34-1.11,3.59-1.45,1.29,2.59,3.32,4.03,6.27,4.1,1.36.03,2.45,1.22,2.46,2.57.01,1.42-1.06,2.64-2.41,2.73-4.54.3-9.49-2.89-11.11-7.17Z" />
  <path class="cls-5"
    d="M164.03,61.41c1.77.79,3.53,1.58,5.3,2.37,1.26.58,2.52,1.16,3.79,1.73,1.03.46,1.45,1.27,1.1,2.16-.33.85-1.25,1.15-2.31.69-1.38-.6-2.74-1.24-4.11-1.86-1.7-.74-3.4-1.49-5.1-2.23-1.96-.9-3.92-1.8-5.88-2.7-.34-.15-.68-.29-1.01-.46-.99-.5-1.31-1.29-.9-2.17.37-.8,1.23-1.05,2.19-.62,2.31,1.03,4.62,2.06,6.93,3.09Z" />
  <path class="cls-3"
    d="M182.33,97.25c-8.35-.25-14.89-3.49-19.78-9.93-.14-.18-.29-.37-.35-.58-.13-.42-.16-.85.33-1.11.46-.25.84-.1,1.12.28.65.87,1.31,1.72,2.05,2.51,3.4,3.59,7.54,5.83,12.37,6.74,4.63.87,9.11.25,13.4-1.67.13-.06.26-.13.38-.19.55-.25,1.01-.19,1.28.4.26.57-.07.93-.54,1.16-2.12,1.01-4.33,1.73-6.65,2.06-1.29.19-2.6.25-3.61.34Z" />
  <path class="cls-11"
    d="M21.57,71.32c0,1.11.01,2.22,0,3.33-.02,1.49-1.11,2.58-2.59,2.62-1.41.03-2.67-1.1-2.7-2.53-.05-2.28-.05-4.56,0-6.84.03-1.48,1.24-2.47,2.83-2.44,1.4.03,2.45,1.1,2.47,2.52.02,1.11,0,2.22,0,3.33Z" />
  <path class="cls-3"
    d="M101.09,76.41c.16-.83.29-1.66.02-2.49-.15-.45.23-.56.5-.74,4.28-.77,8.55-1.55,12.83-2.32,1.03-.19,2.06-.39,3.1-.57.89-.15,1.66.41,1.81,1.29.14.8-.41,1.58-1.27,1.75-1.03.2-2.07.37-3.1.55-1.79.34-3.58.69-5.36,1.03-2.84.5-5.68,1-8.52,1.5Z" />
  <path class="cls-8"
    d="M132.18,82.58c-1.36-.74-1.88.24-2.3,1.41-.09.24-.21.51-.51.51-.3,0-.41-.26-.53-.49-.04-.08-.07-.15-.11-.23-.6-1.37-.6-1.36-2.06-1.24-.35.03-.78.19-1.03-.19-.27-.42.2-.65.35-.96.11-.23.28-.42.45-.62.37-.41.37-.79-.03-1.19-.2-.2-.35-.44-.51-.68-.18-.27-.51-.54-.25-.9.22-.31.56-.2.86-.14.19.04.39.06.59.1.72.13,1.16-.12,1.44-.83.18-.44.24-1.18.82-1.17.63.01.63.77.84,1.24.37.84.61.94,1.97.67.36-.07.68-.13.92.21.23.34-.08.54-.23.74-1.13,1.54-1.1,1.21-.02,2.74.16.23.39.44.24.76-.17.35-.49.2-.92.25Z" />
  <path class="cls-6"
    d="M32.76,31.63c-1.62,0-3.24,0-4.86,0-.95,0-1.56-.51-1.55-1.29,0-.74.58-1.26,1.52-1.26,2.61-.02,5.23,0,7.85,0,.74,0,1.48-.02,2.22,0,.91.02,1.44.54,1.42,1.34-.02.84-.44,1.22-1.39,1.22-1.73,0-3.47,0-5.2,0Z" />
  <path class="cls-7"
    d="M201,64.06c-.04,1.1-.62,1.87-1.57,2.34-1,.49-2.13.36-2.82-.46-.93-1.1-2.06-2.19-1.64-3.89.47-1.93,2.6-2.67,4.25-1.48.73.53,1.78,2.59,1.79,3.48Z" />
  <path class="cls-14"
    d="M188.76,46.13c.74.23,1.13-.14,1.38-.83.1-.27.13-.67.55-.67.36,0,.45.36.51.61.26,1.03.99,1.01,1.79.87.2-.04.4-.11.55.08.18.23.06.45-.11.61-.78.76-.75,1.46,0,2.25.4.42.2.73-.4.69-.2-.01-.41.03-.59-.03-.66-.24-.95.1-1.12.67-.06.19-.16.37-.25.54-.26.49-.53.47-.78-.01-.09-.18-.18-.36-.24-.55-.18-.59-.51-.86-1.14-.66-.16.05-.34.03-.51.03-.22,0-.49.09-.61-.17-.12-.24.05-.45.21-.6.75-.7.72-1.38-.01-2.07-.16-.15-.33-.36-.19-.6.24-.42.63-.06.97-.16Z" />
  <path class="cls-7"
    d="M23.61,84.95c.81.24,1.08-.34,1.31-.95.09-.24.12-.54.45-.54.33,0,.41.31.46.54.2.92.75,1.16,1.62.98.23-.05.54-.13.7.14.17.29-.1.5-.26.66-.63.67-.58,1.28.06,1.91.18.18.37.39.18.67-.17.25-.4.11-.62.06-.85-.19-1.43.08-1.68.96-.06.22-.14.53-.48.52-.32-.01-.43-.31-.47-.54-.19-.98-.83-1.11-1.65-.93-.23.05-.45.14-.6-.13-.13-.24-.01-.48.14-.62.76-.7.63-1.35-.05-2-.15-.15-.22-.37-.09-.55.25-.34.63-.1.98-.18Z" />
  <path class="cls-3"
    d="M91.37,78.14c-1.11-.11-2.23-1.21-2.36-2.27-.03-.27.19-.31.28-.46,2.04-.36,4.09-.71,6.13-1.07.74.47.37,1.16.25,1.72-.14.62-.5,1.19-1.08,1.56-1.07.17-2.15.35-3.22.52Z" />
  <path class="cls-4"
    d="M68.58,33.67c.17-.63.34-1.26.5-1.89.08-.32.23-.52.58-.5.32.02.41.23.48.5.17.69.37,1.37.58,2.13.38-.66.36-1.38.56-2.02.11-.35.2-.71.66-.57.42.13.28.52.21.8-.22.91-.47,1.81-.72,2.71-.08.3-.17.6-.6.58-.41-.02-.53-.29-.62-.6-.18-.58-.34-1.17-.68-1.75-.19.61-.39,1.21-.56,1.82-.1.36-.27.54-.65.52-.37-.01-.47-.28-.55-.55-.25-.93-.49-1.86-.73-2.8-.08-.31-.17-.66.27-.75.4-.08.53.19.6.54.1.5.23.99.34,1.49-.02.22-.05.46.19.56.11.05.13-.12.12-.23Z" />
  <path class="cls-9"
    d="M56.63,83.29c-.02,1-.73,1.68-1.75,1.67-1.01,0-1.7-.71-1.7-1.72,0-1.05.72-1.74,1.79-1.71,1.01.02,1.67.73,1.66,1.76Z" />
  <path class="cls-9"
    d="M123.06,34.38c.9,0,1.7.75,1.73,1.65.04.91-.78,1.75-1.71,1.75-.93,0-1.76-.82-1.73-1.73.02-.89.81-1.66,1.71-1.67Z" />
  <path class="cls-9"
    d="M20.96,45.99c.96,0,1.63.7,1.63,1.68,0,.97-.69,1.7-1.63,1.71-.97,0-1.68-.74-1.67-1.76.01-.97.7-1.64,1.67-1.63Z" />
  <path class="cls-2"
    d="M79.85,33.25c.38-.36.65-.64.94-.9.21-.19.48-.26.69-.04.24.25-.02.43-.18.56-.71.56-.48,1.08,0,1.64.19.22.64.51.2.82-.34.24-.69.03-.92-.34-.13-.21-.32-.39-.46-.57-.29.03-.25.23-.26.39-.01.36-.13.62-.55.58-.38-.03-.43-.31-.43-.62,0-1.05,0-2.11,0-3.16,0-.3.04-.61.41-.63.38-.02.55.27.56.62.02.51,0,1.02,0,1.65Z" />
  <path class="cls-2"
    d="M108.69,32.14c.97,0,1.64.68,1.63,1.67,0,1.04-.63,1.72-1.59,1.73-.96.01-1.63-.68-1.64-1.69,0-1.02.64-1.71,1.6-1.72ZM109.33,33.8c.01-.36-.02-.84-.59-.87-.57-.03-.66.43-.66.89,0,.45.03.9.64.89.56,0,.61-.41.61-.92Z" />
  <path class="cls-10"
    d="M76.95,34.11c-.05.71.21,1.61-1.02,1.16-.12-.04-.3.13-.46.18-.64.2-1.14,0-1.38-.62-.23-.6.16-1.1.87-1.3.33-.09,1.03.22.91-.37-.13-.65-.67-.17-1.03-.05-.21.07-.4.05-.52-.16-.14-.24.04-.38.19-.49.46-.36.99-.4,1.53-.26.53.14.79.53.85,1.05.04.31.04.62.05.86ZM75.45,34.82c.24-.09.53-.14.48-.48-.03-.23-.23-.32-.44-.28-.24.04-.55.07-.53.41.02.27.28.31.5.35Z" />
  <path class="cls-2"
    d="M94.59,35.56c-.7-.07-1.23-.26-1.49-.84-.32-.72-.29-1.45.23-2.08.43-.51,1.02-.6,1.63-.44.58.15.91.56.99,1.15.06.43-.03.73-.57.7-.31-.02-.63-.02-.94,0-.2.01-.51-.1-.52.26-.01.31.25.46.51.47.21.01.44-.08.65-.15.24-.08.52-.22.66.1.12.3-.14.48-.37.58-.28.13-.59.19-.79.26ZM94.43,32.83c-.14.09-.45.09-.45.37,0,.3.28.3.51.3.22,0,.51.03.49-.29-.02-.24-.25-.35-.55-.37Z" />
  <path class="cls-4"
    d="M86.55,33.84c0,.34,0,.68,0,1.02,0,.21-.11.53-.25.47-.63-.29-1.13.29-1.71.2-.38-.06-.72-.24-.84-.63-.24-.77-.11-1.57-.09-2.36,0-.22.23-.32.45-.29.26.04.38.22.38.48,0,.45,0,.91,0,1.36,0,.36.15.6.54.62.4.02.59-.22.62-.56.05-.45.03-.91.03-1.36,0-.29.07-.53.4-.54.37-.01.47.24.46.57,0,.34,0,.68,0,1.02Z" />
  <path class="cls-12"
    d="M89.8,35.56c-.15-.03-.36-.04-.53-.12-.32-.14-.87-.23-.71-.67.17-.48.61-.2.94-.04.27.13.63.24.73-.1.12-.41-.32-.37-.56-.44-.5-.13-1.05-.23-1.17-.83-.09-.46.17-.83.59-1.04.57-.29,1.16-.28,1.7.07.18.11.41.28.27.55-.13.26-.37.22-.59.12-.35-.14-.84-.53-1,0-.11.37.52.36.85.47.5.16,1.01.34.92,1.02-.11.81-.74.91-1.43,1.01Z" />
  <path class="cls-10"
    d="M138.7,75.92c-.81,0-1.34-.54-1.34-1.32,0-.79.65-1.44,1.41-1.4.69.03,1.33.72,1.33,1.43,0,.74-.61,1.3-1.39,1.3Z" />
  <path class="cls-12"
    d="M103.33,32.63c.41-.34.4-.93.85-1.13.41-.18.48.28.72.48.52.45.64.63.06,1.18-.27.25-.51,1.17.28,1.57.17.09.27.2.21.4-.05.17-.19.34-.35.33-.47-.03-.97-.01-1.17-.6-.25-.73.26-1.62-.59-2.23Z" />
  <path class="cls-17"
    d="M101.59,33.35c0,.48,0,.97,0,1.45,0,.32-.09.57-.47.59-.34.02-.48-.23-.48-.49-.02-1.05-.02-2.1,0-3.16,0-.27.17-.49.5-.46.32.03.43.24.44.53,0,.51,0,1.03,0,1.54Z" />
  <path class="cls-13" d="M68.58,33.67c0,.1-.02.27-.12.23-.24-.1-.2-.35-.19-.56.1.11.21.22.31.33Z" />
  <path class="cls-15"
    d="M75.45,34.82c-.22-.04-.48-.08-.5-.35-.02-.34.3-.37.53-.41.21-.04.41.04.44.28.05.34-.24.4-.48.48Z" />
  <path class="cls-16"
    d="M94.43,32.83c.3.02.53.13.55.37.03.33-.27.29-.49.29-.22,0-.51,0-.51-.3,0-.28.3-.27.45-.37Z" />
  <path class="cls-6"
    d="M35.53,52.13c.86.01,1.45.61,1.42,1.45-.03.77-.76,1.48-1.49,1.46-.74-.02-1.42-.75-1.42-1.52,0-.83.61-1.39,1.48-1.38Z" />
</svg>