<?xml version="1.0" encoding="UTF-8" standalone="no"?>
<!DOCTYPE svg PUBLIC "-//W3C//DTD SVG 1.1//EN" "http://www.w3.org/Graphics/SVG/1.1/DTD/svg11.dtd">
<svg width="500.00" height="130.00" viewBox="0.00 0.00 500.00 130.00" xmlns="http://www.w3.org/2000/svg" xmlns:xlink="http://www.w3.org/1999/xlink">
<g stroke-linecap="round" id="レイヤー_2_のコピー">
<path d="M483.19,101.95 C480.90,103.64 474.47,106.21 471.64,106.56 C468.81,106.87 461.94,105.87 459.31,104.75 C456.69,103.61 451.22,99.30 449.49,97.02 C447.79,94.72 445.18,88.26 444.81,85.43 C444.48,82.59 445.45,75.71 446.54,73.08 C447.67,70.47 451.94,65.01 454.20,63.29 C456.49,61.60 462.92,59.03 465.75,58.68 C468.58,58.36 475.45,59.37 478.08,60.48 C480.70,61.63 486.17,65.94 487.90,68.22 C489.60,70.52 492.21,76.98 492.57,79.81 C492.90,82.65 491.94,89.53 490.85,92.16 C489.72,94.77 485.45,100.23 483.19,101.95 Z" fill="none" stroke="rgb(0, 0, 0)" stroke-width="2.85" stroke-opacity="1.00" stroke-linejoin="round"/>
<path d="M487.26,63.79 C487.26,63.79 487.03,63.99 487.03,63.99" fill="none" stroke="rgb(0, 0, 0)" stroke-width="2.85" stroke-opacity="1.00" stroke-linejoin="round"/>
<path d="M486.59,64.41 C486.59,64.41 485.97,64.98 485.97,64.98 C485.94,64.98 488.87,63.95 492.02,64.34 C493.88,64.59 496.04,65.63 496.64,66.65 C497.17,67.61 497.12,69.89 496.66,71.22 C495.59,74.20 489.92,80.46 485.48,83.58 C481.20,86.53 451.18,103.16 447.09,104.35 C444.48,105.07 441.91,104.41 441.28,103.39 C440.74,102.44 440.84,100.21 441.23,99.16 C441.91,97.37 443.83,94.42 444.74,93.48 C445.62,92.59 446.25,92.39 446.47,92.38 C446.47,92.38 446.47,92.54 446.47,92.54" fill="none" stroke="rgb(0, 0, 0)" stroke-width="2.85" stroke-opacity="1.00" stroke-linejoin="round"/>
<path d="M484.70,-22.72 C484.70,-22.72 484.59,-22.72 484.59,-22.72 C484.59,-22.72 484.49,-22.72 484.49,-22.72 C484.40,-22.73 484.60,-21.80 484.76,-21.06 C484.89,-20.32 484.94,-18.92 484.94,-17.63" fill="none" stroke="rgb(255, 255, 255)" stroke-width="3.00" stroke-opacity="1.00" stroke-linejoin="round"/>
<path d="M484.31,-22.79 C484.29,-22.58 484.22,-22.25 484.16,-22.01 C484.09,-21.66 484.10,-21.18 484.17,-20.59" fill="none" stroke="rgb(255, 255, 255)" stroke-width="3.00" stroke-opacity="1.00" stroke-linejoin="round"/>
<path d="M484.17,-20.59 L484.22,-9.69" fill="none" stroke="rgb(255, 255, 255)" stroke-width="3.00" stroke-opacity="1.00" stroke-linejoin="round"/>
<path d="M484.55,-21.21 C484.55,-21.21 484.29,-21.27 484.29,-21.27 C484.18,-21.09 484.12,-20.96 484.09,-20.89 C484.05,-20.72 484.05,-20.52 484.10,-20.29 C484.18,-19.92 484.54,-18.85 484.77,-17.89" fill="none" stroke="rgb(0, 0, 0)" stroke-width="3.00" stroke-opacity="1.00" stroke-linejoin="round"/>
<path d="M486.03,-22.72 C485.91,-22.71 485.84,-22.61 485.80,-22.60 C485.77,-22.59 485.71,-22.60 485.60,-22.61" fill="none" stroke="rgb(0, 0, 0)" stroke-width="2.00" stroke-opacity="1.00" stroke-linejoin="round"/>
<path d="M485.28,-22.35 C485.28,-22.35 485.09,-22.46 485.09,-22.46 C485.02,-22.43 484.98,-22.41 484.96,-22.39 C484.88,-22.31 484.83,-22.20 484.81,-22.07 C484.79,-21.96 484.78,-21.72 484.77,-21.32" fill="none" stroke="rgb(0, 0, 0)" stroke-width="2.00" stroke-opacity="1.00" stroke-linejoin="round"/>
<path d="M468.65,32.32 C468.65,32.32 472.68,28.19 472.68,28.19 C472.89,28.24 473.44,29.30 473.98,31.64 C474.22,32.69 474.34,33.11 474.45,33.35" fill="none" stroke="rgb(0, 0, 0)" stroke-width="3.00" stroke-opacity="1.00" stroke-linejoin="round"/>
<path d="M474.13,32.69 C474.12,32.69 474.15,32.69 474.16,32.69 C477.52,32.69 478.42,32.90 478.58,33.16 C478.57,33.31 478.31,33.82 477.90,34.39 C477.43,35.04 476.40,36.31 476.07,36.68" fill="none" stroke="rgb(0, 0, 0)" stroke-width="3.00" stroke-opacity="1.00" stroke-linejoin="round"/>
<path d="M476.37,36.56 C476.73,36.58 478.28,37.21 478.78,37.65 C479.36,38.17 479.46,38.65 478.99,39.01 C478.77,39.18 477.47,39.75 476.58,40.10 C476.08,40.28 475.44,40.51 475.35,40.57" fill="none" stroke="rgb(0, 0, 0)" stroke-width="3.00" stroke-opacity="1.00" stroke-linejoin="round"/>
<path d="M475.26,40.52 C475.26,40.52 475.20,40.52 475.20,40.52 C475.08,40.74 475.33,43.38 475.28,43.93 C475.14,45.15 472.87,43.63 472.39,43.21 C472.14,42.99 471.70,42.54 471.05,41.86" fill="none" stroke="rgb(0, 0, 0)" stroke-width="3.00" stroke-opacity="1.00" stroke-linejoin="round"/>
<path d="M471.29,42.39 C471.29,42.39 469.24,45.42 469.24,45.42 C469.06,45.46 468.29,44.46 467.72,42.92 C467.50,42.31 467.19,40.92 467.04,40.11" fill="none" stroke="rgb(0, 0, 0)" stroke-width="3.00" stroke-opacity="1.00" stroke-linejoin="round"/>
<path d="M467.05,40.30 C467.06,40.30 466.85,40.34 466.70,40.39 C465.00,40.91 462.81,40.86 462.53,40.81 C462.51,40.54 462.58,40.31 462.94,39.76 C464.07,38.06 465.38,36.40 465.46,36.31" fill="none" stroke="rgb(0, 0, 0)" stroke-width="3.00" stroke-opacity="1.00" stroke-linejoin="round"/>
<path d="M465.80,36.18 C465.60,36.16 465.45,36.13 465.29,36.02 C464.51,35.50 463.44,34.15 463.22,33.63 C463.04,33.18 463.26,32.86 464.05,32.76 C464.55,32.70 465.63,32.61 466.40,32.57" fill="none" stroke="rgb(0, 0, 0)" stroke-width="3.00" stroke-opacity="1.00" stroke-linejoin="round"/>
<path d="M466.44,32.36 C466.44,32.36 466.27,32.40 466.27,32.40 C466.27,32.40 466.02,29.07 466.02,29.07 C466.48,29.12 468.11,29.87 469.01,30.81 C469.26,31.07 469.47,31.43 469.46,31.47" fill="none" stroke="rgb(0, 0, 0)" stroke-width="3.00" stroke-opacity="1.00" stroke-linejoin="round"/>
<path d="M468.23,32.19 C468.23,32.18 468.21,32.17 468.18,32.16 C467.99,32.07 467.80,32.00 467.74,31.98 C467.74,31.98 469.55,33.31 469.55,33.31 C469.55,33.31 468.75,32.55 468.75,32.55 C468.75,32.55 470.34,33.67 470.34,33.67" fill="none" stroke="rgb(255, 255, 255)" stroke-width="3.00" stroke-opacity="1.00" stroke-linejoin="round"/>
<path d="M467.62,32.11 C468.23,32.44 469.36,33.05 469.70,33.29 C469.86,33.41 470.24,33.70 470.85,34.16" fill="none" stroke="rgb(255, 255, 255)" stroke-width="3.00" stroke-opacity="1.00" stroke-linejoin="round"/>
<path d="M451.51,24.16 C451.51,24.16 454.59,21.01 454.59,21.01 C454.75,21.05 455.17,21.86 455.58,23.64 C455.77,24.44 455.86,24.77 455.94,24.95" fill="none" stroke="rgb(0, 0, 0)" stroke-width="3.00" stroke-opacity="1.00" stroke-linejoin="round"/>
<path d="M455.70,24.44 C455.69,24.44 455.71,24.44 455.72,24.44 C458.28,24.44 458.97,24.61 459.09,24.80 C459.08,24.91 458.89,25.31 458.57,25.74 C458.21,26.23 457.43,27.20 457.18,27.49" fill="none" stroke="rgb(0, 0, 0)" stroke-width="3.00" stroke-opacity="1.00" stroke-linejoin="round"/>
<path d="M457.41,27.40 C461.61,27.53 459.10,29.49 457.56,30.09 C457.18,30.23 456.70,30.41 456.62,30.46" fill="none" stroke="rgb(0, 0, 0)" stroke-width="3.00" stroke-opacity="1.00" stroke-linejoin="round"/>
<path d="M456.56,30.42 C456.56,30.42 456.51,30.42 456.51,30.42 C456.42,30.59 456.61,32.60 456.57,33.01 C456.47,33.95 454.73,32.79 454.37,32.47 C454.18,32.30 453.84,31.95 453.35,31.44" fill="none" stroke="rgb(0, 0, 0)" stroke-width="3.00" stroke-opacity="1.00" stroke-linejoin="round"/>
<path d="M453.53,31.84 C453.53,31.84 451.97,34.15 451.97,34.15 C451.83,34.18 451.24,33.43 450.81,32.25 C450.64,31.78 450.40,30.72 450.29,30.10" fill="none" stroke="rgb(0, 0, 0)" stroke-width="3.00" stroke-opacity="1.00" stroke-linejoin="round"/>
<path d="M450.30,30.25 C450.30,30.25 450.14,30.28 450.03,30.32 C448.73,30.71 447.06,30.68 446.85,30.64 C446.83,30.43 446.89,30.25 447.16,29.84 C448.02,28.54 449.02,27.27 449.08,27.20" fill="none" stroke="rgb(0, 0, 0)" stroke-width="3.00" stroke-opacity="1.00" stroke-linejoin="round"/>
<path d="M449.34,27.10 C449.19,27.09 449.08,27.07 448.95,26.99 C447.84,26.25 447.15,24.61 448.01,24.50 C448.39,24.45 449.21,24.38 449.80,24.35" fill="none" stroke="rgb(0, 0, 0)" stroke-width="3.00" stroke-opacity="1.00" stroke-linejoin="round"/>
<path d="M449.83,24.19 C449.83,24.19 449.70,24.22 449.70,24.22 C449.70,24.22 449.51,21.68 449.51,21.68 C449.86,21.72 451.10,22.29 451.79,23.01 C451.98,23.21 452.14,23.49 452.13,23.51" fill="none" stroke="rgb(0, 0, 0)" stroke-width="3.00" stroke-opacity="1.00" stroke-linejoin="round"/>
<path d="M451.20,24.06 C451.20,24.06 451.18,24.05 451.16,24.04 C451.01,23.97 450.87,23.91 450.82,23.90 C450.82,23.90 452.21,24.92 452.21,24.92 C452.21,24.92 451.57,24.05 451.57,24.05 C451.57,24.05 452.80,25.19 452.80,25.19" fill="none" stroke="rgb(255, 255, 255)" stroke-width="3.00" stroke-opacity="1.00" stroke-linejoin="round"/>
<path d="M450.73,24.00 C451.19,24.25 452.06,24.72 452.31,24.90 C452.44,24.99 452.73,25.21 453.19,25.56" fill="none" stroke="rgb(255, 255, 255)" stroke-width="3.00" stroke-opacity="1.00" stroke-linejoin="round"/>
<path d="M470.23,8.56 L470.33,29.49" fill="none" stroke="rgb(255, 255, 255)" stroke-width="3.00" stroke-opacity="1.00" stroke-linejoin="round"/>
<path d="M470.36,29.47 C470.39,29.51 470.42,29.54 470.44,29.56 C470.52,29.63 470.58,29.73 470.69,29.96" fill="none" stroke="rgb(255, 255, 255)" stroke-width="3.00" stroke-opacity="1.00" stroke-linejoin="round"/>
<path d="M471.35,-21.10 C471.35,-21.10 471.29,-21.15 471.29,-21.15 C471.20,-20.99 471.12,-20.85 471.07,-20.77 C470.93,-20.49 470.85,-20.28 470.85,-20.13 C470.86,-19.93 471.20,-18.80 471.33,-18.35" fill="none" stroke="rgb(0, 0, 0)" stroke-width="2.00" stroke-opacity="1.00" stroke-linejoin="round"/>
<path d="M471.33,-18.35 L471.52,28.73" fill="none" stroke="rgb(0, 0, 0)" stroke-width="2.00" stroke-opacity="1.00" stroke-linejoin="round"/>
<path d="M471.52,28.77 C471.52,28.77 471.52,29.04 471.52,29.04 C471.52,29.04 471.35,29.06 471.35,29.06" fill="none" stroke="rgb(0, 0, 0)" stroke-width="2.00" stroke-opacity="1.00" stroke-linejoin="round"/>
<path d="M452.79,-21.14 C452.79,-21.14 452.68,-20.87 452.68,-20.87" fill="none" stroke="rgb(0, 0, 0)" stroke-width="2.00" stroke-opacity="1.00" stroke-linejoin="round"/>
<path d="M453.06,-22.06 C453.06,-22.06 452.74,-21.74 452.74,-21.74" fill="none" stroke="rgb(0, 0, 0)" stroke-width="2.00" stroke-opacity="1.00" stroke-linejoin="round"/>
<path d="M452.74,-21.74 L452.81,22.47" fill="none" stroke="rgb(0, 0, 0)" stroke-width="2.00" stroke-opacity="1.00" stroke-linejoin="round"/>
<path d="M452.76,22.44 C452.76,22.44 452.90,22.33 452.90,22.33" fill="none" stroke="rgb(0, 0, 0)" stroke-width="2.00" stroke-opacity="1.00" stroke-linejoin="round"/>
<path d="M61.50,76.16 C63.03,74.25 67.83,71.28 70.49,70.79 C73.44,70.30 78.38,71.10 81.07,72.50 C83.49,73.81 87.29,78.17 88.26,80.48 C89.19,82.80 89.51,88.48 88.67,91.03 C87.70,93.83 84.66,97.66 82.16,99.24 C79.87,100.63 74.26,101.62 71.79,101.24 C69.32,100.82 64.21,98.10 62.38,96.05 C60.41,93.75 58.51,89.12 58.32,86.13 C58.19,83.43 59.99,78.09 61.50,76.16 Z" fill="none" stroke="rgb(0, 0, 0)" stroke-width="2.00" stroke-opacity="1.00" stroke-linejoin="round"/>
<path d="M86.05,77.08 C86.11,76.97 86.44,76.68 86.82,76.44 C87.65,75.90 89.45,75.30 89.44,75.34" fill="none" stroke="rgb(0, 0, 0)" stroke-width="2.00" stroke-opacity="1.00" stroke-linejoin="round"/>
<path d="M86.67,76.99 C86.67,76.99 86.65,76.89 86.65,76.89 C86.67,76.37 90.05,74.71 95.82,72.71 C98.98,71.63 103.20,71.33 105.05,71.71 C106.74,72.10 107.75,73.38 107.43,75.14 C107.26,75.98 105.10,81.26 104.97,82.75 C104.91,83.49 105.44,87.98 105.20,89.27 C104.91,90.57 103.50,92.46 102.64,93.14 C102.57,93.19 102.48,93.25 102.36,93.33" fill="none" stroke="rgb(0, 0, 0)" stroke-width="2.00" stroke-opacity="1.00" stroke-linejoin="round"/>
<path d="M102.82,92.61 C102.82,92.61 102.83,92.62 102.83,92.62 C102.79,93.37 102.77,94.57 102.80,95.14 C102.84,96.24 102.72,97.03 102.34,97.65 C101.83,98.47 99.82,99.78 99.85,99.72" fill="none" stroke="rgb(0, 0, 0)" stroke-width="2.00" stroke-opacity="1.00" stroke-linejoin="round"/>
<path d="M86.64,96.09 C86.64,96.09 86.68,96.03 86.68,96.03 C86.90,96.69 89.66,99.96 90.93,100.72 C92.85,101.84 96.03,102.23 96.92,102.12 C98.93,101.82 100.86,100.54 102.22,98.96 C102.34,98.81 102.53,98.55 102.78,98.20" fill="none" stroke="rgb(0, 0, 0)" stroke-width="2.00" stroke-opacity="1.00" stroke-linejoin="round"/>
<path d="M58.83,90.28 C58.80,90.29 58.77,90.29 58.73,90.30 C56.09,90.77 47.65,88.97 44.26,87.23 C42.71,86.42 40.73,84.90 39.80,83.56 C39.07,82.50 38.83,81.00 39.41,79.91 C39.63,79.50 43.60,75.39 44.10,74.52 C44.66,73.53 45.09,70.53 45.32,69.87 C45.80,68.56 47.47,66.88 49.05,66.28 C51.17,65.51 53.90,65.68 53.89,65.65" fill="none" stroke="rgb(0, 0, 0)" stroke-width="2.00" stroke-opacity="1.00" stroke-linejoin="round"/>
<path d="M52.82,65.34 C53.17,65.11 53.82,64.15 53.91,63.65 C54.20,62.15 55.88,60.47 57.40,60.02 C58.85,59.63 61.46,59.90 61.88,60.43 C62.68,61.60 64.38,67.01 64.92,70.56 C65.04,71.38 65.14,73.08 65.13,73.47 C65.12,73.69 65.09,73.79 65.07,73.76 C65.06,73.75 65.06,73.74 65.05,73.73" fill="none" stroke="rgb(0, 0, 0)" stroke-width="2.00" stroke-opacity="1.00" stroke-linejoin="round"/>
<path d="M52.93,76.84 C52.96,76.85 53.82,77.67 54.01,77.83 C54.61,78.33 56.51,79.54 57.66,80.19 C57.89,80.32 58.03,80.39 58.09,80.39 C58.09,80.39 57.96,80.11 57.96,80.11 C58.08,79.63 58.17,79.33 58.27,79.18 C58.31,79.12 58.42,78.98 58.59,78.75" fill="none" stroke="rgb(0, 0, 0)" stroke-width="2.00" stroke-opacity="1.00" stroke-linejoin="round"/>
<path d="M59.33,71.38 C59.33,71.38 59.35,71.36 59.35,71.36 C59.70,72.92 60.27,75.51 60.41,76.05 C60.56,76.64 60.69,76.90 60.79,76.96 C60.79,76.96 60.87,76.91 60.87,76.91 C60.96,76.68 61.06,76.48 61.17,76.30 C61.29,76.13 61.57,75.72 62.02,75.10" fill="none" stroke="rgb(0, 0, 0)" stroke-width="2.00" stroke-opacity="1.00" stroke-linejoin="round"/>
<path d="M89.81,88.89 C89.81,88.89 89.81,88.89 89.81,88.89 C90.48,89.14 93.82,90.80 94.27,90.73 C94.33,90.72 94.42,90.69 94.53,90.63 C94.54,90.51 94.48,90.29 94.33,89.88 C94.13,89.33 93.93,88.84 93.92,88.85" fill="none" stroke="rgb(0, 0, 0)" stroke-width="2.00" stroke-opacity="1.00" stroke-linejoin="round"/>
<path d="M89.45,83.31 C92.42,82.86 95.41,82.09 95.53,82.28 C95.55,82.35 95.51,82.42 95.51,82.49" fill="none" stroke="rgb(0, 0, 0)" stroke-width="2.00" stroke-opacity="1.00" stroke-linejoin="round"/>
<path d="M25.79,27.79 C25.79,27.79 25.05,27.88 25.05,27.88" fill="none" stroke="rgb(0, 0, 0)" stroke-width="2.21" stroke-opacity="1.00" stroke-linejoin="round"/>
<path d="M25.05,27.88 L19.77,36.27" fill="none" stroke="rgb(0, 0, 0)" stroke-width="2.21" stroke-opacity="1.00" stroke-linejoin="round"/>
<path d="M19.77,36.27 C19.73,36.26 19.71,36.25 19.70,36.25 C19.69,36.25 19.68,36.30 19.67,36.32" fill="none" stroke="rgb(0, 0, 0)" stroke-width="2.21" stroke-opacity="1.00" stroke-linejoin="round"/>
<path d="M19.60,36.32 C19.57,36.35 19.55,36.38 19.53,36.41 C19.50,36.43 19.49,36.50 19.48,36.66" fill="none" stroke="rgb(0, 0, 0)" stroke-width="2.21" stroke-opacity="1.00" stroke-linejoin="round"/>
<path d="M19.48,36.66 L25.90,44.48" fill="none" stroke="rgb(0, 0, 0)" stroke-width="2.21" stroke-opacity="1.00" stroke-linejoin="round"/>
<path d="M25.90,44.48 C25.85,44.50 25.89,44.27 25.89,44.16 C25.90,44.01 25.90,43.64 25.91,43.04" fill="none" stroke="rgb(0, 0, 0)" stroke-width="2.21" stroke-opacity="1.00" stroke-linejoin="round"/>
<path d="M25.55,27.25 C25.55,27.25 25.42,27.27 25.42,27.27 C25.48,27.36 25.52,27.42 25.56,27.46 C25.68,27.57 25.81,27.68 25.93,27.80 C26.02,27.90 26.24,28.13 26.57,28.50" fill="none" stroke="rgb(0, 0, 0)" stroke-width="2.21" stroke-opacity="1.00" stroke-linejoin="round"/>
<path d="M26.57,28.50 L32.33,36.43" fill="none" stroke="rgb(0, 0, 0)" stroke-width="2.21" stroke-opacity="1.00" stroke-linejoin="round"/>
<path d="M32.33,36.43 C32.30,36.43 32.23,36.43 32.17,36.43 C32.09,36.43 32.02,36.43 31.94,36.43" fill="none" stroke="rgb(0, 0, 0)" stroke-width="2.21" stroke-opacity="1.00" stroke-linejoin="round"/>
<path d="M32.38,36.29 C32.19,36.34 32.08,36.38 32.04,36.39 C32.01,36.41 31.91,36.52 31.77,36.65" fill="none" stroke="rgb(0, 0, 0)" stroke-width="2.21" stroke-opacity="1.00" stroke-linejoin="round"/>
<path d="M31.77,36.65 L26.25,44.55" fill="none" stroke="rgb(0, 0, 0)" stroke-width="2.21" stroke-opacity="1.00" stroke-linejoin="round"/>
<path d="M26.25,44.56 C26.25,44.53 26.24,44.51 26.23,44.50 C26.18,44.47 26.04,44.42 25.98,44.36" fill="none" stroke="rgb(0, 0, 0)" stroke-width="2.21" stroke-opacity="1.00" stroke-linejoin="round"/>
<path d="M25.34,27.68 C25.34,27.68 25.25,27.25 25.25,27.25 C25.34,27.32 25.45,27.44 25.56,27.59 C25.68,27.75 25.96,28.17 26.42,28.86" fill="none" stroke="rgb(0, 0, 0)" stroke-width="2.21" stroke-opacity="1.00" stroke-linejoin="round"/>
<path d="M25.87,44.87 C25.87,44.87 25.84,44.77 25.84,44.77 C25.84,44.77 25.78,44.74 25.78,44.74 C25.78,44.74 25.67,44.83 25.67,44.83" fill="none" stroke="rgb(0, 0, 0)" stroke-width="2.21" stroke-opacity="1.00" stroke-linejoin="round"/>
<path d="M25.47,27.22 C25.47,27.33 25.51,27.43 25.57,27.54 C25.72,27.80 26.23,28.51 26.27,28.54" fill="none" stroke="rgb(0, 0, 0)" stroke-width="2.21" stroke-opacity="1.00" stroke-linejoin="round"/>
<path d="M119.35,105.58 C119.35,105.58 110.47,103.11 110.47,103.11 C116.32,104.65 128.54,108.05 132.83,108.92 C137.51,109.86 154.67,111.50 160.89,111.83 C169.80,112.21 204.08,111.23 219.13,110.70 C253.93,108.98 319.77,105.47 350.82,103.67 C363.83,102.37 392.99,99.31 409.15,97.53 C421.73,95.92 457.39,89.79 467.27,86.81 C474.35,84.65 486.21,78.56 491.18,75.04 C497.19,70.74 503.82,63.77 509.86,55.83 C510.86,54.51 512.76,52.43 513.49,51.83 C515.56,50.12 517.08,45.38 518.30,39.78 C519.91,31.62 523.09,13.81 524.47,6.01 C524.62,5.18 524.77,4.35 524.91,3.52" fill="none" stroke="rgb(255, 255, 255)" stroke-width="200.00" stroke-opacity="1.00" stroke-linejoin="round"/>
<path d="M106.73,117.20 C106.73,117.20 106.69,116.94 106.69,116.94 C106.55,116.91 106.46,116.90 106.42,116.89 C106.41,116.89 106.41,116.89 106.42,116.89 C106.44,116.92 106.49,116.98 106.57,117.07 C107.11,117.11 107.99,117.03 109.97,116.75 C110.72,116.64 111.47,116.53 112.22,116.43" fill="none" stroke="rgb(0, 0, 0)" stroke-width="4.00" stroke-opacity="1.00" stroke-linejoin="round"/>
<path d="M107.30,117.24 C107.25,117.28 107.09,117.38 107.08,117.38 C107.05,117.41 107.04,117.45 107.07,117.50 C107.08,117.54 107.15,117.64 107.25,117.80 C107.25,117.80 108.57,117.96 108.57,117.96" fill="none" stroke="rgb(0, 0, 0)" stroke-width="4.00" stroke-opacity="1.00" stroke-linejoin="round"/>
<path d="M106.98,117.22 C106.98,117.22 106.95,117.16 106.95,117.16 C106.74,117.09 106.60,117.05 106.55,117.04 C106.53,117.04 106.52,117.04 106.52,117.05 C106.52,117.06 106.71,117.02 107.07,116.94 C110.20,116.23 111.76,115.92 113.48,115.68" fill="none" stroke="rgb(0, 0, 0)" stroke-width="2.50" stroke-opacity="1.00" stroke-linejoin="round"/>
<path d="M106.87,116.73 C106.87,116.73 106.69,116.73 106.69,116.73 C106.70,116.72 106.72,116.72 106.74,116.73 C106.76,116.75 106.83,116.80 106.93,116.88 C106.93,116.88 109.34,116.47 109.34,116.47" fill="none" stroke="rgb(0, 0, 0)" stroke-width="2.50" stroke-opacity="1.00" stroke-linejoin="round"/>
<path d="M106.30,116.77 C106.26,116.73 106.23,116.70 106.23,116.68 C106.22,116.67 106.22,116.65 106.23,116.63 C106.26,116.69 106.32,116.75 106.43,116.82 C106.53,116.89 106.81,117.07 107.26,117.35" fill="none" stroke="rgb(0, 0, 0)" stroke-width="2.50" stroke-opacity="1.00" stroke-linejoin="round"/>
<path d="M107.26,117.35 L202.46,117.20" fill="none" stroke="rgb(0, 0, 0)" stroke-width="2.50" stroke-opacity="1.00" stroke-linejoin="round"/>
<path d="M202.42,117.20 C202.42,117.20 202.21,117.20 202.21,117.20 C202.21,117.20 202.22,116.58 202.22,116.58" fill="none" stroke="rgb(0, 0, 0)" stroke-width="2.50" stroke-opacity="1.00" stroke-linejoin="round"/>
<path d="M106.23,111.76" fill="none" stroke="rgb(0, 0, 0)" stroke-width="2.50" stroke-opacity="1.00" stroke-linejoin="round"/>
<path d="M106.95,112.19 C106.95,112.19 106.93,112.19 106.93,112.19 C106.55,112.08 106.56,112.07 106.57,112.08" fill="none" stroke="rgb(0, 0, 0)" stroke-width="2.50" stroke-opacity="1.00" stroke-linejoin="round"/>
<path d="M119.89,111.69 C119.85,111.69 119.82,111.69 119.82,111.69 C119.81,111.68 119.81,111.66 119.81,111.63" fill="none" stroke="rgb(0, 0, 0)" stroke-width="2.50" stroke-opacity="1.00" stroke-linejoin="round"/>
<path d="M119.81,111.63 L352.40,111.20" fill="none" stroke="rgb(0, 0, 0)" stroke-width="2.50" stroke-opacity="1.00" stroke-linejoin="round"/>
<path d="M352.40,111.24" fill="none" stroke="rgb(0, 0, 0)" stroke-width="2.50" stroke-opacity="1.00" stroke-linejoin="round"/>
<path d="M352.40,111.24 L352.40,111.24" fill="none" stroke="rgb(0, 0, 0)" stroke-width="2.50" stroke-opacity="1.00" stroke-linejoin="round"/>
<path d="M352.33,111.26" fill="none" stroke="rgb(0, 0, 0)" stroke-width="2.50" stroke-opacity="1.00" stroke-linejoin="round"/>
<path d="M208.89,116.92" fill="none" stroke="rgb(0, 0, 0)" stroke-width="2.50" stroke-opacity="1.00" stroke-linejoin="round"/>
<path d="M208.89,116.89 C208.89,116.89 208.83,116.89 208.83,116.89 C208.63,117.17 208.95,117.26 209.69,117.09 C209.82,117.07 209.93,116.97 210.05,116.99 C210.15,117.00 210.54,117.05 211.44,116.87" fill="none" stroke="rgb(0, 0, 0)" stroke-width="2.50" stroke-opacity="1.00" stroke-linejoin="round"/>
<path d="M210.12,117.43 C210.12,117.43 208.64,116.90 208.64,116.90 C208.64,116.90 210.07,116.90 210.07,116.90" fill="none" stroke="rgb(0, 0, 0)" stroke-width="2.50" stroke-opacity="1.00" stroke-linejoin="round"/>
<path d="M239.31,117.08 C239.31,117.08 238.88,117.08 238.88,117.08 C238.88,117.08 238.98,116.84 238.98,116.84" fill="none" stroke="rgb(0, 0, 0)" stroke-width="2.50" stroke-opacity="1.00" stroke-linejoin="round"/>
<path d="M238.98,116.84 L402.51,116.97" fill="none" stroke="rgb(0, 0, 0)" stroke-width="2.50" stroke-opacity="1.00" stroke-linejoin="round"/>
<path d="M402.51,116.97 C402.51,116.97 402.18,116.96 402.18,116.96 C402.18,116.96 402.30,116.72 402.30,116.72" fill="none" stroke="rgb(0, 0, 0)" stroke-width="2.50" stroke-opacity="1.00" stroke-linejoin="round"/>
<path d="M412.29,116.27 C412.29,116.27 411.51,115.90 411.51,115.90 C411.51,115.90 412.30,116.57 412.30,116.57 C412.30,116.57 412.06,115.89 412.06,115.89" fill="none" stroke="rgb(0, 0, 0)" stroke-width="2.50" stroke-opacity="1.00" stroke-linejoin="round"/>
<path d="M360.38,110.60 C360.38,110.60 360.25,110.22 360.25,110.22 C360.25,110.22 359.13,110.10 359.13,110.10 C359.56,110.60 359.99,110.87 360.08,111.00 C360.18,111.14 360.53,111.95 360.52,111.92" fill="none" stroke="rgb(0, 0, 0)" stroke-width="2.50" stroke-opacity="1.00" stroke-linejoin="round"/>
<path d="M429.02,-10.04 C429.02,-10.04 428.90,-10.04 428.90,-10.04 C428.52,-9.97 429.05,-5.00 430.27,-2.30 C431.60,0.57 435.26,6.11 437.85,8.86 C442.03,13.23 452.68,20.94 458.44,24.18 C464.03,27.30 475.16,31.98 481.13,33.76 C486.80,35.44 499.82,37.86 505.57,38.44 C512.86,39.16 526.17,39.19 531.43,38.74 C533.21,38.58 537.43,37.95 538.35,37.81 C538.10,37.88 537.93,37.91 537.84,37.92 C537.75,37.92 537.62,37.90 537.46,37.86 C537.46,37.86 536.53,36.17 536.53,36.17" fill="none" stroke="rgb(0, 0, 0)" stroke-width="2.50" stroke-opacity="1.00" stroke-linejoin="round"/>
<path d="M358.31,2.04 C366.65,8.18 372.54,12.01 378.40,14.47 C383.84,16.71 397.09,19.71 403.17,19.85 C409.26,19.95 419.34,18.29 424.41,16.78 C427.07,15.97 432.76,13.49 435.63,11.68 C438.51,9.82 440.74,7.79 442.55,5.61 C443.53,4.43 444.13,3.44 444.78,2.06" fill="none" stroke="rgb(0, 0, 0)" stroke-width="2.50" stroke-opacity="1.00" stroke-linejoin="round"/>
<path d="M446.24,-1.92 C446.24,-1.93 446.24,-1.92 446.24,-1.92 C445.96,-0.50 445.69,0.49 445.43,1.06 C444.95,2.13 443.26,4.37 443.27,4.26" fill="none" stroke="rgb(0, 0, 0)" stroke-width="2.50" stroke-opacity="1.00" stroke-linejoin="round"/>
<path d="M213.35,4.92 C213.35,4.92 212.72,5.19 212.72,5.19 C212.91,5.05 213.07,4.97 213.21,4.98 C213.67,5.00 214.12,5.20 214.58,5.27 C215.06,5.33 217.92,5.42 218.96,5.46" fill="none" stroke="rgb(0, 0, 0)" stroke-width="2.50" stroke-opacity="1.00" stroke-linejoin="round"/>
<path d="M218.96,5.46 L355.56,5.43" fill="none" stroke="rgb(0, 0, 0)" stroke-width="2.50" stroke-opacity="1.00" stroke-linejoin="round"/>
<path d="M355.56,5.43 C355.56,5.43 355.56,5.72 355.56,5.72 C355.56,5.72 355.56,5.60 355.56,5.60" fill="none" stroke="rgb(0, 0, 0)" stroke-width="2.50" stroke-opacity="1.00" stroke-linejoin="round"/>
<path d="M325.44,11.37 C325.40,11.39 325.33,11.43 325.29,11.45 C325.27,11.46 325.24,11.47 325.22,11.48" fill="none" stroke="rgb(0, 0, 0)" stroke-width="2.50" stroke-opacity="1.00" stroke-linejoin="round"/>
<path d="M325.22,11.48 L361.75,11.27" fill="none" stroke="rgb(0, 0, 0)" stroke-width="2.50" stroke-opacity="1.00" stroke-linejoin="round"/>
<path d="M361.75,11.29 C361.75,11.28 361.75,11.32 361.75,11.33 C361.72,11.54 361.71,11.65 361.70,11.68 C361.70,11.81 361.75,11.92 361.79,11.93" fill="none" stroke="rgb(0, 0, 0)" stroke-width="2.50" stroke-opacity="1.00" stroke-linejoin="round"/>
<path d="M318.18,11.72 C318.18,11.72 317.76,11.72 317.76,11.72 C317.72,11.25 317.43,11.22 317.45,11.24 C317.46,11.25 317.49,11.25 317.52,11.24" fill="none" stroke="rgb(0, 0, 0)" stroke-width="2.50" stroke-opacity="1.00" stroke-linejoin="round"/>
<path d="M212.54,5.45 C212.54,5.45 212.54,5.35 212.54,5.35 C212.54,5.35 212.92,5.35 212.92,5.35 C212.92,5.35 213.32,5.69 213.32,5.69 C213.32,5.69 213.56,5.78 213.56,5.78" fill="none" stroke="rgb(0, 0, 0)" stroke-width="2.50" stroke-opacity="1.00" stroke-linejoin="round"/>
<path d="M194.27,11.74 C194.30,11.65 194.32,11.56 194.34,11.47 C194.35,11.43 194.35,11.41 194.35,11.40" fill="none" stroke="rgb(0, 0, 0)" stroke-width="2.50" stroke-opacity="1.00" stroke-linejoin="round"/>
<path d="M194.31,11.57 C194.31,11.57 194.35,11.40 194.35,11.40 C194.40,11.45 194.44,11.52 194.45,11.54 C194.63,11.66 194.82,11.75 195.04,11.79 C195.50,11.87 198.70,11.93 200.37,11.95" fill="none" stroke="rgb(0, 0, 0)" stroke-width="2.50" stroke-opacity="1.00" stroke-linejoin="round"/>
<path d="M200.37,11.95 L308.00,12.00" fill="none" stroke="rgb(0, 0, 0)" stroke-width="2.50" stroke-opacity="1.00" stroke-linejoin="round"/>
<path d="M308.00,12.00" fill="none" stroke="rgb(0, 0, 0)" stroke-width="2.50" stroke-opacity="1.00" stroke-linejoin="round"/>
<path d="M308.00,12.00 L308.00,12.00" fill="none" stroke="rgb(0, 0, 0)" stroke-width="2.50" stroke-opacity="1.00" stroke-linejoin="round"/>
<path d="M307.99,11.99 C307.99,11.99 307.89,11.99 307.89,11.99" fill="none" stroke="rgb(0, 0, 0)" stroke-width="2.50" stroke-opacity="1.00" stroke-linejoin="round"/>
<path d="M21.00,61.43 C20.96,61.44 20.94,61.46 20.94,61.46 C20.92,61.49 20.92,61.53 20.92,61.59 C20.93,61.75 20.93,61.87 20.93,61.95 C20.92,62.41 20.83,64.03 20.80,64.74" fill="none" stroke="rgb(0, 0, 0)" stroke-width="2.50" stroke-opacity="1.00" stroke-linejoin="round"/>
<path d="M20.60,61.09 C20.59,61.16 20.59,61.24 20.60,61.33 C20.65,61.84 20.68,62.13 20.68,62.19 C20.68,62.37 20.64,62.72 20.59,63.25" fill="none" stroke="rgb(0, 0, 0)" stroke-width="2.50" stroke-opacity="1.00" stroke-linejoin="round"/>
<path d="M20.58,60.86 C20.54,60.97 20.45,61.20 20.46,61.30 C20.46,61.32 20.67,62.28 20.68,62.66 C20.69,62.87 20.69,63.38 20.69,64.19" fill="none" stroke="rgb(0, 0, 0)" stroke-width="2.50" stroke-opacity="1.00" stroke-linejoin="round"/>
<path d="M20.72,60.08 C20.72,60.08 20.73,60.00 20.73,60.00 C20.73,60.00 21.16,59.78 21.16,59.78 C21.16,59.78 21.04,59.93 21.04,59.93" fill="none" stroke="rgb(0, 0, 0)" stroke-width="2.50" stroke-opacity="1.00" stroke-linejoin="round"/>
<path d="M21.04,59.93 L20.64,111.25" fill="none" stroke="rgb(0, 0, 0)" stroke-width="2.50" stroke-opacity="1.00" stroke-linejoin="round"/>
<path d="M20.64,111.26 C20.64,111.26 20.90,110.50 20.90,110.50 C20.91,110.61 20.92,110.69 20.92,110.73 C20.92,110.78 20.92,110.84 20.92,110.94" fill="none" stroke="rgb(0, 0, 0)" stroke-width="2.50" stroke-opacity="1.00" stroke-linejoin="round"/>
<path d="M20.92,110.94 L20.78,111.28" fill="none" stroke="rgb(0, 0, 0)" stroke-width="2.50" stroke-opacity="1.00" stroke-linejoin="round"/>
<path d="M20.78,111.28 C20.78,111.28 20.92,111.31 20.92,111.31" fill="none" stroke="rgb(0, 0, 0)" stroke-width="2.50" stroke-opacity="1.00" stroke-linejoin="round"/>
<path d="M26.06,44.75 C26.06,44.76 26.06,44.74 26.06,44.73 C26.04,44.51 26.02,44.28 26.02,44.28 C25.88,44.47 25.79,44.60 25.76,44.66 C25.70,44.78 25.68,44.96 25.68,45.21 C25.69,45.35 25.72,45.74 25.77,46.38" fill="none" stroke="rgb(0, 0, 0)" stroke-width="2.50" stroke-opacity="1.00" stroke-linejoin="round"/>
<path d="M25.77,46.38 L25.70,108.96" fill="none" stroke="rgb(0, 0, 0)" stroke-width="2.50" stroke-opacity="1.00" stroke-linejoin="round"/>
<path d="M25.70,108.97" fill="none" stroke="rgb(0, 0, 0)" stroke-width="2.50" stroke-opacity="1.00" stroke-linejoin="round"/>
<path d="M23.78,50.86 C24.02,51.26 24.62,51.92 25.61,52.85 C25.79,53.01 25.80,53.01 25.85,53.05" fill="none" stroke="rgb(255, 255, 255)" stroke-width="2.50" stroke-opacity="1.00" stroke-linejoin="round"/>
<path d="M22.93,50.88 C23.39,51.02 25.48,53.17 25.77,53.58 C25.79,53.61 25.79,53.64 25.79,53.67 C25.79,53.67 25.66,53.68 25.66,53.68" fill="none" stroke="rgb(255, 255, 255)" stroke-width="2.50" stroke-opacity="1.00" stroke-linejoin="round"/>
<path d="M25.88,53.85 C25.89,53.84 25.87,53.84 25.86,53.85 C25.49,53.98 25.20,54.11 24.99,54.24 C24.80,54.36 24.44,54.65 23.91,55.09" fill="none" stroke="rgb(255, 255, 255)" stroke-width="2.50" stroke-opacity="1.00" stroke-linejoin="round"/>
<path d="M25.45,52.62 C25.43,52.65 25.42,52.67 25.43,52.69 C25.44,52.85 24.94,53.69 24.42,54.21 C24.22,54.41 23.83,54.72 23.26,55.13" fill="none" stroke="rgb(255, 255, 255)" stroke-width="2.50" stroke-opacity="1.00" stroke-linejoin="round"/>
<path d="M25.39,53.33 C25.40,53.32 25.34,53.33 25.32,53.34 C24.96,53.62 24.62,53.93 24.26,54.22 C23.73,54.66 23.19,55.09 22.66,55.53" fill="none" stroke="rgb(255, 255, 255)" stroke-width="2.50" stroke-opacity="1.00" stroke-linejoin="round"/>
<path d="M25.82,5.83 C25.82,5.83 29.88,10.54 29.88,10.54 C29.90,10.55 29.90,10.53 29.89,10.50 C29.82,10.38 29.74,10.27 29.66,10.18 C29.51,10.02 29.22,9.88 28.85,9.77" fill="none" stroke="rgb(255, 255, 255)" stroke-width="2.50" stroke-opacity="1.00" stroke-linejoin="round"/>
<path d="M29.93,7.22 C29.96,7.36 30.69,8.14 31.66,9.05 C33.20,10.48 33.82,11.32 34.34,12.11 C34.34,12.11 33.98,11.59 33.98,11.59" fill="none" stroke="rgb(255, 255, 255)" stroke-width="3.00" stroke-opacity="1.00" stroke-linejoin="round"/>
<path d="M7.29,8.09 C7.03,8.38 6.70,9.00 6.62,9.27 C6.59,9.34 6.59,9.41 6.60,9.47" fill="none" stroke="rgb(0, 0, 0)" stroke-width="2.50" stroke-opacity="1.00" stroke-linejoin="round"/>
<path d="M7.19,7.42 C6.95,7.88 6.92,11.66 6.91,14.40 C6.90,15.41 6.88,16.99 6.87,17.56 C6.87,17.58 6.87,17.64 6.88,17.62 C6.91,17.46 7.04,16.36 7.14,15.55 C7.16,15.35 7.18,15.17 7.20,15.02" fill="none" stroke="rgb(0, 0, 0)" stroke-width="2.50" stroke-opacity="1.00" stroke-linejoin="round"/>
<path d="M7.45,7.72 C7.45,7.72 7.26,7.74 7.26,7.74 C7.39,7.92 13.25,12.92 13.42,13.12 C13.50,13.20 13.70,13.45 14.02,13.87" fill="none" stroke="rgb(0, 0, 0)" stroke-width="2.50" stroke-opacity="1.00" stroke-linejoin="round"/>
<path d="M7.65,17.39 C7.65,17.39 7.36,17.42 7.36,17.42 C9.45,16.16 13.33,13.82 13.70,13.65 C13.77,13.62 13.87,13.59 14.00,13.55" fill="none" stroke="rgb(0, 0, 0)" stroke-width="2.50" stroke-opacity="1.00" stroke-linejoin="round"/>
<path d="M18.66,11.64 C18.51,11.74 18.28,12.01 17.63,12.91 C16.16,14.96 14.88,16.81 14.05,18.12 C13.46,19.04 13.34,19.20 13.18,19.29 C13.18,19.29 14.85,17.24 14.85,17.24" fill="none" stroke="rgb(0, 0, 0)" stroke-width="2.50" stroke-opacity="1.00" stroke-linejoin="round"/>
<path d="M18.59,11.46 C18.58,12.27 19.57,19.40 19.72,21.38 C19.74,21.68 19.75,22.00 19.75,22.36" fill="none" stroke="rgb(0, 0, 0)" stroke-width="2.50" stroke-opacity="1.00" stroke-linejoin="round"/>
<path d="M13.59,19.29 C13.59,19.29 13.54,19.29 13.54,19.29 C13.54,19.29 19.65,21.88 19.65,21.88 C19.65,21.88 19.53,22.34 19.53,22.34" fill="none" stroke="rgb(0, 0, 0)" stroke-width="2.50" stroke-opacity="1.00" stroke-linejoin="round"/>
</g>
</svg>
