<?xml version="1.0" encoding="UTF-8"?>
<svg xmlns="http://www.w3.org/2000/svg" width="608.5" height="413.46" version="1.1" viewBox="0 0 608.5 413.46">
  <g id="planet">
    <g id="ringsR">
      <path id="ringsR_4" d="M509.67,110.94c2.65,6.68-2.27,15.95-13.27,26.84h2.33c11.87-11.48,17.25-21.25,14.48-28.24-4.18-10.57-26.27-13.03-59.64-8.57.23.38.46.75.69,1.13,31.01-3.81,51.44-1.21,55.42,8.84Z" fill="#fff" stroke-width="0"/>
      <path id="ringsR_3" d="M522.67,105.8c3.09,7.8-3.53,18.91-17.76,31.98h2.41c15.19-13.7,22.32-25.35,19.11-33.47-4.93-12.44-33.22-14.31-75.31-7.29.23.36.47.72.7,1.09,39.62-6.28,66.14-4.23,70.86,7.69Z" fill="#fff" stroke-width="0"/>
      <path id="ringsR_2" d="M509,137.78h8.23c19.29-16.34,28.62-30.24,24.88-39.68-5.77-14.58-41.54-15.58-93.85-5.38.8,1.17,1.59,2.36,2.37,3.56,43.82-7.54,73.37-5.81,78.44,6.99,3.3,8.34-4.19,20.37-20.06,34.52Z" fill="#fff" stroke-width="0"/>
      <path id="ringsR_1" d="M555.06,92.97c4.17,10.52-7.08,26.3-29.85,44.81h16.04c30.1-22.96,45.45-42.64,40.42-55.35-7.81-19.73-62.88-18.08-140.51.59,1.64,2.08,3.23,4.2,4.78,6.37,60.65-12.91,102.67-12.71,109.12,3.58Z" fill="#fff" stroke-width="0"/>
    </g>
    <g id="ringsL">
      <path id="ringsL_4" d="M90.33,277.01c-3.23-8.15,4.8-20.15,21.41-34.25h-2.19c-17.55,14.69-26.1,27.2-22.75,35.65,8.61,21.74,92.95,9.2,195.48-27.46h-2.35c-99.64,35.32-181.2,47.24-189.59,26.06Z" fill="#fff" stroke-width="0"/>
      <path id="ringsL_3" d="M73.58,283.64c9.41,23.77,104.09,8.95,217.33-32.69h-2.43c-110.22,40.22-201.96,54.4-211.15,31.2-3.66-9.24,6.3-23.12,26.4-39.39h-2.29c-21.12,16.9-31.64,31.33-27.86,40.88Z" fill="#fff" stroke-width="0"/>
      <path id="ringsL_2" d="M57.89,289.85c10.36,26.15,117.26,8.62,242.99-38.9h-8.27c-115.36,42.63-212.1,57.91-221.68,33.74-3.87-9.76,7.06-24.58,28.91-41.93h-7.85c-25.46,19.53-38.4,36.25-34.11,47.09Z" fill="#fff" stroke-width="0"/>
      <path id="ringsL_1" d="M325.02,250.95h-16.11c-135.89,52.35-252.84,72.14-263.97,44.03-4.71-11.9,10.3-30.53,39.39-52.22h-15.52c-36.69,26.12-56.05,48.7-50.48,62.76,12.65,31.93,149.01,7.88,304.57-53.72.71-.28,1.41-.56,2.12-.85Z" fill="#fff" stroke-width="0"/>
    </g>
    <path id="planet_bottom" d="M456.58,250.95c-21.62,65.55-79.49,115.12-151.29,115.12-49.47,0-99.17-28.05-129.54-62.43-3.45.88-6.86,1.75-10.24,2.57,32.13,38.46,80.45,62.93,134.48,62.93,76.8,0,142.04-49.42,165.69-118.2h-9.11Z" fill="#fff" stroke-width="0"/>
    <path id="planet_side" d="M148.74,282.36c3.29-.37,6.7-.82,10.22-1.33-5.84-9.44-10.75-19.51-14.62-30.08h-10.01c3.79,11,8.63,21.52,14.42,31.41Z" fill="#fff" stroke-width="0"/>
    <path id="planet_top" d="M146.4,128.8c23.64-61.16,79.64-106.14,148.36-106.14s131.15,45.67,157.5,106.14h10.38c-25.86-64.47-88.92-110-162.63-110s-136.78,45.53-162.63,110h9.03Z" fill="#fff" stroke-width="0"/>
  </g>
  <g id="lowerLines">
    <path id="lowerLines_2" d="M126.95,239.62h365.07c1.72,0,3.43,0,5.12-.01l61.28-.28c27.09-.13,27.09-1,0-1.13l-61.28-.28c-1.68,0-3.4-.01-5.12-.01H126.95c-1.72,0-3.43,0-5.12.01l-61.28.28c-27.09.13-27.09,1,0,1.13l61.28.28c1.68,0,3.4.01,5.12.01Z" fill="#fff" stroke-width="0"/>
    <path id="lowerLines_1" d="M580.14,247.55l-53.41-.08c-1.47,0-2.96,0-4.46,0H204.11c-1.5,0-2.99,0-4.46,0l-53.41.08c-23.61.03-23.61.28,0,.31l53.41.08c1.47,0,2.96,0,4.46,0h318.17c1.5,0,2.99,0,4.46,0l53.41-.08c23.61-.03,23.61-.28,0-.31Z" fill="#fff" stroke-width="0"/>
  </g>
  <g id="upperLines">
    <path id="upperLines_4" d="M558.41,140.78l-61.28-.29c-1.68-.01-3.4-.01-5.12-.01h-99.43l.86,1.72h98.58c1.72,0,3.44,0,5.12-.01l61.28-.29c27.09-.12,27.09-1,0-1.12Z" fill="#fff" stroke-width="0"/>
    <path id="upperLines_3" d="M311.95,140.48H126.95c-1.72,0-3.43,0-5.12.01l-61.28.29c-27.09.12-27.09,1,0,1.12l61.28.29c1.69.01,3.4.01,5.12.01h184.15l.86-1.72Z" fill="#fff" stroke-width="0"/>
    <path id="upperLines_2" d="M469,132.24l-53.41-.08h-27.14l.23.47h26.91l53.41-.08c23.61-.03,23.61-.28,0-.31Z" fill="#fff" stroke-width="0"/>
    <path id="upperLines_1" d="M316.09,132.16H88.5l-53.41.08c-23.61.03-23.61.28,0,.31l53.41.08h227.36l.23-.47Z" fill="#fff" stroke-width="0"/>
  </g>
  <g id="sparkle">
    <path id="sparkle_2" d="M151.48,41.4l.61,8.98c.1,1.46,1.26,2.61,2.71,2.71l8.98.61-8.98.61c-1.46.1-2.61,1.26-2.71,2.71l-.61,8.98-.61-8.98c-.1-1.46-1.26-2.61-2.71-2.71l-8.98-.61,8.98-.61c1.46-.1,2.61-1.26,2.71-2.71l.61-8.98Z" fill="#fff" stroke-width="0"/>
    <path id="sparkle_1" d="M387.82,80.66l.61,8.98c.1,1.46,1.26,2.61,2.71,2.71l8.98.61-8.98.61c-1.46.1-2.61,1.26-2.71,2.71l-.61,8.98-.61-8.98c-.1-1.46-1.26-2.61-2.71-2.71l-8.98-.61,8.98-.61c1.46-.1,2.61-1.26,2.71-2.71l.61-8.98Z" fill="#fff" stroke-width="0"/>
  </g>
  <g id="outerStars">
    <path id="outerStar_3" d="M158.99,361.04c-.03-.06-.03-.13,0-.19l7.78-15.64c.07-.13-.02-.29-.17-.3l-17.43-1.08c-.07,0-.12-.04-.16-.09l-9.65-14.55c-.08-.12-.26-.12-.35,0l-9.65,14.55c-.04.05-.1.09-.16.09l-17.43,1.08c-.15,0-.24.17-.17.3l7.78,15.64c.03.06.03.13,0,.19l-7.78,15.64c-.07.13.02.29.17.3l17.43,1.08c.07,0,.12.04.16.09l9.65,14.55c.08.12.26.12.35,0l9.65-14.55c.04-.05.1-.09.16-.09l17.43-1.08c.15,0,.24-.17.17-.3l-7.78-15.64Z" fill="#fff" stroke-width="0"/>
    <path id="outerStar_2" d="M224.79,310.65s-.01-.06,0-.09l3.81-7.66c.03-.07-.01-.14-.08-.15l-8.54-.53s-.06-.02-.08-.05l-4.73-7.13c-.04-.06-.13-.06-.17,0l-4.73,7.13s-.05.04-.08.05l-8.54.53c-.07,0-.12.08-.08.15l3.81,7.66s.01.06,0,.09l-3.81,7.66c-.03.07.01.14.08.15l8.54.53s.06.02.08.05l4.73,7.13c.04.06.13.06.17,0l4.73-7.13s.05-.04.08-.05l8.54-.53c.07,0,.12-.08.08-.15l-3.81-7.66Z" fill="#fff" stroke-width="0"/>
    <path id="outerStar_1" d="M504.59,44.28s-.01-.05,0-.07l2.84-5.72s0-.11-.06-.11l-6.37-.4s-.05-.01-.06-.03l-3.53-5.32s-.1-.05-.13,0l-3.53,5.32s-.03.03-.06.03l-6.37.4c-.05,0-.09.06-.06.11l2.84,5.72s.01.05,0,.07l-2.84,5.72s0,.11.06.11l6.37.4s.05.01.06.03l3.53,5.32s.1.05.13,0l3.53-5.32s.03-.03.06-.03l6.37-.4c.05,0,.09-.06.06-.11l-2.84-5.72Z" fill="#fff" stroke-width="0"/>
  </g>
  <g id="centerStar">
    <path id="centerStar-2" data-name="centerStar" d="M380.43,123.96c-.04-.08-.04-.18,0-.26l11.05-22.22c.09-.19-.04-.41-.25-.43l-24.77-1.54c-.09,0-.18-.05-.23-.13l-13.72-20.68c-.12-.18-.38-.18-.49,0l-13.72,20.68c-.05.08-.14.13-.23.13l-24.77,1.54c-.21.01-.34.24-.25.43l11.05,22.22c.04.08.04.18,0,.26l-11.05,22.22c-.09.19.04.41.25.43l24.77,1.54c.09,0,.18.05.23.13l13.72,20.68c.12.18.38.18.49,0l13.72-20.68c.05-.08.14-.13.23-.13l24.77-1.54c.21-.01.34-.24.25-.43l-11.05-22.22ZM375.55,123.99l9.02,18.15c.11.23-.04.5-.3.52l-20.23,1.26c-.11,0-.21.07-.28.16l-11.2,16.89c-.14.21-.46.21-.6,0l-11.2-16.89c-.06-.09-.16-.15-.28-.16l-20.23-1.26c-.26-.02-.41-.29-.3-.52l9.02-18.15c.05-.1.05-.22,0-.32l-9.02-18.15c-.11-.23.04-.5.3-.52l20.23-1.26c.11,0,.21-.07.28-.16l11.2-16.89c.14-.21.46-.21.6,0l11.2,16.89c.06.09.16.15.28.16l20.23,1.26c.26.02.41.29.3.52l-9.02,18.15c-.05.1-.05.22,0,.32Z" fill="#fff" stroke-width="0"/>
  </g>
</svg>