<?xml version="1.0" encoding="UTF-8"?>
<svg id="_レイヤー_1" data-name="レイヤー 1" xmlns="http://www.w3.org/2000/svg" version="1.1"
  viewBox="0 0 117.5 47.8">
  <defs>
    <style>
      .cls-1 {
      fill: #feeb90;
      }

      .cls-1, .cls-2, .cls-3, .cls-4, .cls-5, .cls-6, .cls-7, .cls-8, .cls-9, .cls-10, .cls-11,
      .cls-12, .cls-13, .cls-14, .cls-15, .cls-16, .cls-17 {
      stroke-width: 0px;
      }

      .cls-2 {
      fill: #8dd4c9;
      }

      .cls-3 {
      fill: #f7a18b;
      }

      .cls-4 {
      fill: #8cd3c9;
      }

      .cls-5 {
      fill: #f7a18a;
      }

      .cls-6 {
      fill: #a8e5dc;
      }

      .cls-7 {
      fill: #fec6b6;
      }

      .cls-8 {
      fill: #a7e5dc;
      }

      .cls-9 {
      fill: #f7a28b;
      }

      .cls-10 {
      fill: #8cd4c9;
      }

      .cls-11 {
      fill: #8bd3c8;
      }

      .cls-12 {
      fill: #8ed4c9;
      }

      .cls-13 {
      fill: #daf1ed;
      }

      .cls-14 {
      fill: #8cd3c8;
      }

      .cls-15 {
      fill: #ecf7f6;
      }

      .cls-16 {
      fill: #eef8f6;
      }

      .cls-17 {
      fill: #93d6cc;
      }
    </style>
  </defs>
  <g id="surface1">
    <path class="cls-7"
      d="M94.5,26.8c-.5.5-.6,1.1-.7,1.7-.7,3-.2,5.8,1.7,8.3,1.8,2.4,4.1,3.7,7.1,3.9,3.2.3,5.9-.9,8.1-3.2,1.4-1.5,2.2-3.4,2.5-5.5.1-.9,0-1.8,0-2.6,0-1,.5-1.8,1.3-1.8,1.2,0,1.8.5,2,1.6.4,3.5-.3,6.6-2.4,9.5-2.1,2.9-5,4.7-8.6,5.3-4.1.6-7.7-.4-10.7-3.1-2.4-2.1-3.8-4.7-4.3-7.9-.4-2.6,0-5.1,1-7.6,1.1.5,2.1.9,3.2,1.4h0Z" />
    <path class="cls-7"
      d="M61.9,31.4c0,2.5-.6,4.9-1.8,7.1-1.4,2.5-3.3,4.5-5.8,5.9-2.6,1.5-5.5,2-8.4,1.8-2.9-.2-5.5-1.3-7.8-3.2-2-1.6-3.4-3.6-4.4-5.9,0-.1,0-.3-.1-.4,1.1-.2,2.2-.4,3.3-.6.5,1.3,1.2,2.5,2.2,3.4,2.7,2.7,5.9,3.9,9.7,3.4,5.4-.7,9.4-5.2,9.7-10.7,1.1-.2,2.2-.4,3.3-.6h0Z" />
    <path class="cls-11"
      d="M20.5,16.8c1.1,4.1-1.5,8.3-5.7,9-4.8.7-8.1-3-8.3-6.6-.2-3.8,2.4-7.1,6.1-7.5,2.8-.4,5.1.6,6.8,3-1,.6-2.1,1-3.2,1.4-.6-.6-1.4-1-2.3-1.1-1.6-.2-3.1.7-3.8,2.1-.7,1.4-.5,3.1.6,4.3,1,1.1,2.7,1.5,4.1,1,1.4-.5,2.7-2,2.5-4.1,0-.2,0-.4.3-.5.8-.3,1.5-.7,2.3-1,.2,0,.3-.1.5,0h0Z" />
    <path class="cls-11"
      d="M20.9,9.6c-5,0-9.9,0-14.9,0-.9,0-1.5-.4-1.8-1.1-.4-1.1.4-2.2,1.6-2.2.3,0,.6,0,.8,0,4.5,0,9.1,0,13.6,0,.5,0,.6-.1.6-.6,0-1,0-2.1,0-3.1s.7-1.9,1.7-1.8c.9,0,1.7.8,1.7,1.8,0,1,0,2,0,3,0,.5,0,.7.6.6.8,0,1.4.5,1.6,1.2.2.7,0,1.4-.7,1.8-.5.3-1,.3-1.5.3-.2.1,0,.3,0,.5,0,.7,0,1.4,0,2.2,0,.3-.1.5-.4.6-.8.3-1.6.6-2.3,1-.4.2-.5,0-.5-.3,0-1.1,0-2.3,0-3.4,0-.2,0-.4-.1-.5h0Z" />
    <path class="cls-8"
      d="M82.7,9.7c1.5.2,2.8-.3,3.8-1.4.6-.7,1-1.6,1-2.5,0-.7,0-1.4,0-2.1,0-.8.5-1.3,1.2-1.3.6,0,1,.5,1.1,1.3,0,1.1-.1,2.2.3,3.3.6,1.5,2.1,2.6,3.7,2.7.7,0,1.4,0,2.1,0,.6,0,1,.3,1.2.8.1.5,0,.9-.4,1.2-.2.2-.5.2-.7.2-.9,0-1.9,0-2.8,0-1.8.3-3.2,2-3.3,3.8,0,.7,0,1.4,0,2.1,0,.7-.5,1.3-1.1,1.3-.7,0-1.1-.5-1.1-1.3,0-1,.1-2-.1-3-.4-1.8-2.1-3.1-3.9-3.1h-2c-.7,0-1.2-.5-1.2-1,0-.6.4-1.1,1.1-1.2.5,0,.9,0,1.4,0h0Z" />
    <path class="cls-7"
      d="M49.8,31.7c.2-.1.2-.2.2-.4,0-.7.6-1.3,1.2-1.4.8-.2,1.5.1,1.9.8.1.2.3.3.5.3-.2.1-.4.2-.3.5.2.5,0,1,0,1.5-.2,1.5-1,2.7-2.2,3.6-2.5,1.8-5.9,1.2-7.7-1.3-.1-.2-.2-.4-.5-.3,0,0,.2-.2.1-.2-.2-.5-.4-1-.5-1.4,0-.2-.2-.2-.4-.2.3,0,.3-.3.3-.6-.1-1.5.4-2.8,1.3-4,.5-.6,1.1-.8,1.8-.6.6.1,1,.5,1.1,1.1.2.7,0,1.3-.5,1.8-.4.4-.6.8-.6,1.4,0,.2,0,.3.2.3,0,0-.2.1-.2.3,0,.7.8,1.3,1.5,1.4.5.4,1.4.2,2-.3.4-.2.6-.6.7-1,0-.3.3-.8-.2-1.1h0Z" />
    <path class="cls-7"
      d="M32.8,34.7c.1-.2,0-.3,0-.5-.8-4.6.3-8.7,3.3-12.3.8-.9,1.7-1.8,2.7-2.5.9-.6,2-.4,2.5.3.5.8.3,1.8-.6,2.4-2.7,1.9-4.2,4.5-4.7,7.7-.2,1.4-.1,2.8.2,4.2-1.1.2-2.3.4-3.4.6h0Z" />
    <path class="cls-11"
      d="M14.4,33.5c-1.2,0-2.6.1-4-.2-2.8-.7-5-3.4-4.9-6.4,0-1,.6-1.7,1.5-1.7,1,0,1.7.6,1.8,1.6.3,2.3,1.5,3.4,3.8,3.4h5.1c1,0,1.6.6,1.6,1.6,0,1-.6,1.7-1.6,1.7-1,0-2,0-3.2,0h0Z" />
    <path class="cls-5"
      d="M32.8,34.7c1.1-.2,2.3-.4,3.4-.6,2-.4,3.9-.7,5.9-1.1.1,0,.3,0,.4.2.2.5.3,1,.5,1.4,0,0,0,.1-.1.2-2,.4-4,.7-6,1.1-1.1.2-2.2.4-3.3.6-1.2,0-1.3,0-.8,1.1,1.9,4.1,4.9,7,9.1,8.5,0,0,.2,0,.2,0,.4.1.6.4.4.8-.1.4-.5.4-.8.3-1.9-.6-3.6-1.6-5.2-2.8-2.4-1.9-4.1-4.3-5.2-7.2-.1-.4-.4-.4-.7-.3-.8.2-1.7.3-2.5.5-.9.2-1.4-.3-1.3-1.1,0-.6.5-.8.9-.8.8-.1,1.6-.3,2.4-.4.3,0,.4-.1.4-.5-.2-1-.3-2.1-.3-3.1,0-.4,0-.7.5-.7.5,0,.5.4.5.8,0,.9.1,1.8.3,2.7,0,.5.3.7.8.5,0,0,.2,0,.3,0h0Z" />
    <path class="cls-11"
      d="M65.8,18.4v-1.4c0-1,.7-1.7,1.6-1.7.9,0,1.6.7,1.7,1.7,0,.8,0,1.5,0,2.3,0,2.7,2.1,4.9,4.8,4.9.8,0,1.5.5,1.7,1.2.2.7,0,1.5-.6,1.8-.6.4-1.3.3-2,.2-3.5-.5-6.2-3-7-6.3-.2-.9-.2-1.8-.2-2.7h0Z" />
    <path class="cls-1"
      d="M48.5,22c0-.7,0-1.4-.3-2.1-.6-1.1-1.6-1.7-2.9-1.8-.5,0-1,0-1.5,0-.6,0-.9-.3-.9-.9s.3-.8.9-.8c.8,0,1.5,0,2.3-.1,1.4-.4,2.4-1.6,2.4-3,0-.5,0-1.1,0-1.6,0-.6.3-.9.9-.9.5,0,.8.3.8.9,0,.8,0,1.5.1,2.3.3,1.4,1.6,2.4,3.1,2.5h1.5c.6,0,.9.3.9.8s-.3.8-.9.9c-.9,0-1.7-.1-2.6.2-1.2.5-2.1,1.6-2.1,2.9,0,.5,0,1.1,0,1.6,0,.6-.3.9-.8.9-.5,0-.9-.3-.9-.9,0-.3,0-.6,0-.9h0Z" />
    <path class="cls-8"
      d="M20.9,9.6c.2.2.1.4.1.5,0,1.1,0,2.3,0,3.4,0,.4.1.5.5.3.8-.3,1.6-.7,2.3-1,.3-.1.4-.3.4-.6,0-.7,0-1.4,0-2.2,0-.2,0-.4,0-.5,0,.9,0,1.7,0,2.5,0,.3,0,.5.4.3,2.1-.9,4.1-1.8,6.2-2.6.7-.3,1.3,0,1.5.5.3.6,0,1.2-.7,1.5-2.4,1-4.8,2-7.1,3,0,0-.1,0-.2.1-.8.2-1.5.6-2.2.9-.3.1-.6.1-.7.5-.4,0-.9.1-1.1.5-.1-.2-.3-.1-.5,0-.8.3-1.5.7-2.3,1-.3,0-.3.3-.3.5,0-.2-.2-.3-.4-.2-.3.2-.7.3-1.1.5-.8.3-1.3.1-1.6-.5-.2-.6,0-1.2.8-1.5.4-.2.8-.3,1.1-.5,1.1-.4,2.2-.8,3.2-1.4.5,0,.9-.3,1.3-.5.2,0,.2-.3.2-.5v-4h0Z" />
    <path class="cls-7"
      d="M92.2,23.6c.5-.2.7-.7,1-1.1,2-2.4,4.4-3.9,7.5-4.5.9-.2,1.8-.3,2.7-.3.8,0,1.5.6,1.6,1.3.1.9-.3,1.7-1.1,1.9-.5.1-1,.1-1.6.2-2.8.3-5.1,1.6-6.9,3.9,0,0,0,.1,0,.1-1.1-.5-2.2-1-3.3-1.5h0Z" />
    <path class="cls-8"
      d="M29,27.7c0,.3-.2.6-.7.6-.6,0-1.2,0-1.7,0-1.2.2-2.1,1.2-2.1,2.4,0,.4,0,.9,0,1.3,0,.5-.3.9-.7.8-.4,0-.7-.3-.7-.9,0-.7,0-1.4-.2-2.1-.5-1.2-1.4-1.6-2.6-1.7-.4,0-.7,0-1.1,0s-.6-.2-.6-.5c0-.4,0-.7.5-.8.5-.1,1,0,1.4,0,1.3.1,2.7-1,2.7-2.7v-1.1c0-.4.2-.7.6-.8.4,0,.7.3.7.7,0,.4,0,.9,0,1.3,0,1.4,1.1,2.5,2.4,2.5.4,0,.9,0,1.3,0,.5,0,.8.3.8.8h0Z" />
    <path class="cls-11"
      d="M21.5,16.3c.1-.4.5-.4.7-.5.7-.3,1.4-.7,2.2-.9.8,1.6,2.1,2.5,3.9,2.5.8,0,1.5.8,1.5,1.6,0,.9-.7,1.6-1.5,1.7-2.8.2-5.9-1.8-6.9-4.5h0Z" />
    <path class="cls-5"
      d="M92.2,23.6c1.1.5,2.2,1,3.3,1.5.8.4,1.6.7,2.3,1.1.6.3.9.8.7,1.3-.2.5-.8.7-1.4.4-.9-.4-1.7-.8-2.5-1.2-1.1-.5-2.1-.9-3.2-1.4-1.2-.6-2.4-1.1-3.6-1.7-.2,0-.4-.2-.6-.3-.6-.3-.8-.8-.6-1.3.2-.5.8-.7,1.4-.4,1.4.6,2.9,1.3,4.3,1.9Z" />
    <path class="cls-3"
      d="M103.5,45.9c-5.2-.2-9.2-2.2-12.2-6.2,0-.1-.2-.2-.2-.4,0-.3-.1-.5.2-.7.3-.2.5,0,.7.2.4.5.8,1.1,1.3,1.6,2.1,2.2,4.7,3.6,7.6,4.2,2.9.5,5.6.2,8.3-1,0,0,.2,0,.2-.1.3-.2.6-.1.8.2.2.4,0,.6-.3.7-1.3.6-2.7,1.1-4.1,1.3-.8.1-1.6.2-2.2.2h0Z" />
    <path class="cls-11"
      d="M4.1,29.8c0,.7,0,1.4,0,2.1,0,.9-.7,1.6-1.6,1.6-.9,0-1.7-.7-1.7-1.6,0-1.4,0-2.8,0-4.2,0-.9.8-1.5,1.7-1.5.9,0,1.5.7,1.5,1.6,0,.7,0,1.4,0,2.1h0Z" />
    <path class="cls-3"
      d="M53.3,32.9c.1-.5.2-1,0-1.5,0-.3.1-.3.3-.5,2.6-.5,5.3-1,7.9-1.4.6-.1,1.3-.2,1.9-.4.6,0,1,.3,1.1.8,0,.5-.3,1-.8,1.1-.6.1-1.3.2-1.9.3-1.1.2-2.2.4-3.3.6-1.8.3-3.5.6-5.3.9h0Z" />
    <path class="cls-8"
      d="M72.5,36.8c-.8-.5-1.2.1-1.4.9,0,.1-.1.3-.3.3s-.3-.2-.3-.3c0,0,0,0,0-.1-.4-.9-.4-.8-1.3-.8-.2,0-.5.1-.6-.1-.2-.3.1-.4.2-.6,0-.1.2-.3.3-.4.2-.3.2-.5,0-.7s-.2-.3-.3-.4c-.1-.2-.3-.3-.2-.6.1-.2.3-.1.5,0,.1,0,.2,0,.4,0,.4,0,.7,0,.9-.5.1-.3.1-.7.5-.7.4,0,.4.5.5.8.2.5.4.6,1.2.4.2,0,.4,0,.6.1.1.2,0,.3-.1.5-.7,1-.7.8,0,1.7,0,.1.2.3.1.5-.1.2-.3.1-.6.2h0Z" />
    <path class="cls-6"
      d="M11,5.1h-3c-.6,0-1-.3-1-.8,0-.5.4-.8.9-.8,1.6,0,3.2,0,4.9,0s.9,0,1.4,0c.6,0,.9.3.9.8,0,.5-.3.8-.9.8h-3.2Z" />
    <path class="cls-7"
      d="M115,25.3c0,.7-.4,1.2-1,1.5-.6.3-1.3.2-1.7-.3-.6-.7-1.3-1.4-1-2.4.3-1.2,1.6-1.7,2.6-.9.5.3,1.1,1.6,1.1,2.2h0Z" />
    <path class="cls-14"
      d="M107.5,14.1c.5.1.7,0,.9-.5,0-.2,0-.4.3-.4s.3.2.3.4c.2.6.6.6,1.1.5.1,0,.2,0,.3,0,.1.1,0,.3,0,.4-.5.5-.5.9,0,1.4.2.3.1.5-.2.4-.1,0-.3,0-.4,0-.4-.1-.6,0-.7.4,0,.1-.1.2-.2.3-.2.3-.3.3-.5,0,0-.1-.1-.2-.1-.3-.1-.4-.3-.5-.7-.4-.1,0-.2,0-.3,0s-.3,0-.4-.1c0-.1,0-.3.1-.4.5-.4.4-.9,0-1.3-.1,0-.2-.2-.1-.4.1-.3.4,0,.6-.1h0Z" />
    <path class="cls-7"
      d="M5.4,38.2c.5.1.7-.2.8-.6,0-.1,0-.3.3-.3s.3.2.3.3c.1.6.5.7,1,.6.1,0,.3,0,.4,0,.1.2,0,.3-.2.4-.4.4-.4.8,0,1.2.1.1.2.2.1.4s-.2,0-.4,0c-.5-.1-.9,0-1,.6,0,.1,0,.3-.3.3-.2,0-.3-.2-.3-.3-.1-.6-.5-.7-1-.6-.1,0-.3,0-.4,0,0-.1,0-.3,0-.4.5-.4.4-.8,0-1.2,0,0-.1-.2,0-.3.2-.2.4,0,.6-.1Z" />
    <path class="cls-3"
      d="M47.3,34c-.7,0-1.4-.8-1.5-1.4,0-.2.1-.2.2-.3,1.3-.2,2.5-.4,3.8-.7.5.3.2.7.2,1.1,0,.4-.3.7-.7,1-.7.1-1.3.2-2,.3Z" />
    <path class="cls-4"
      d="M33.2,6.4c.1-.4.2-.8.3-1.2,0-.2.1-.3.4-.3.2,0,.3.1.3.3.1.4.2.9.4,1.3.2-.4.2-.9.3-1.3,0-.2.1-.4.4-.4.3,0,.2.3.1.5-.1.6-.3,1.1-.4,1.7,0,.2-.1.4-.4.4-.3,0-.3-.2-.4-.4-.1-.4-.2-.7-.4-1.1-.1.4-.2.8-.3,1.1,0,.2-.2.3-.4.3-.2,0-.3-.2-.3-.3-.2-.6-.3-1.2-.5-1.7,0-.2-.1-.4.2-.5.2,0,.3.1.4.3,0,.3.1.6.2.9,0,.1,0,.3.1.3,0,0,0,0,0-.1h0Z" />
    <path class="cls-9"
      d="M25.8,37.2c0,.6-.5,1-1.1,1-.6,0-1.1-.4-1.1-1.1s.4-1.1,1.1-1.1c.6,0,1,.5,1,1.1Z" />
    <path class="cls-9"
      d="M66.9,6.8c.6,0,1.1.5,1.1,1,0,.6-.5,1.1-1.1,1.1s-1.1-.5-1.1-1.1c0-.6.5-1,1.1-1Z" />
    <path class="cls-9" d="M3.7,14c.6,0,1,.4,1,1s-.4,1.1-1,1.1c-.6,0-1-.5-1-1.1,0-.6.4-1,1-1Z" />
    <path class="cls-2"
      d="M40.1,6.1c.2-.2.4-.4.6-.6.1-.1.3-.2.4,0,.1.2,0,.3-.1.3-.4.3-.3.7,0,1,.1.1.4.3.1.5-.2.1-.4,0-.6-.2,0-.1-.2-.2-.3-.4-.2,0-.2.1-.2.2,0,.2,0,.4-.3.4-.2,0-.3-.2-.3-.4v-2c0-.2,0-.4.3-.4.2,0,.3.2.3.4,0,.3,0,.6,0,1Z" />
    <path class="cls-2"
      d="M58,5.4c.6,0,1,.4,1,1,0,.6-.4,1.1-1,1.1-.6,0-1-.4-1-1.1,0-.6.4-1.1,1-1.1h0ZM58.4,6.5c0-.2,0-.5-.4-.5-.4,0-.4.3-.4.6s0,.6.4.6c.3,0,.4-.3.4-.6h0Z" />
    <path class="cls-10"
      d="M38.3,6.7c0,.4.1,1-.6.7,0,0-.2,0-.3.1-.4.1-.7,0-.9-.4-.1-.4.1-.7.5-.8.2,0,.6.1.6-.2,0-.4-.4-.1-.6,0-.1,0-.2,0-.3-.1,0-.1,0-.2.1-.3.3-.2.6-.3.9-.2.3,0,.5.3.5.7,0,.2,0,.4,0,.5h0ZM37.4,7.1c.1,0,.3,0,.3-.3,0-.1-.1-.2-.3-.2-.1,0-.3,0-.3.3,0,.2.2.2.3.2h0Z" />
    <path class="cls-2"
      d="M49.2,7.6c-.4,0-.8-.2-.9-.5-.2-.4-.2-.9.1-1.3.3-.3.6-.4,1-.3.4,0,.6.3.6.7,0,.3,0,.5-.4.4-.2,0-.4,0-.6,0-.1,0-.3,0-.3.2,0,.2.2.3.3.3.1,0,.3,0,.4,0,.1,0,.3-.1.4,0,0,.2,0,.3-.2.4-.2,0-.4.1-.5.2h0ZM49.1,5.9c0,0-.3,0-.3.2s.2.2.3.2.3,0,.3-.2c0-.1-.2-.2-.3-.2h0Z" />
    <path class="cls-4"
      d="M44.3,6.5v.6c0,.1,0,.3-.2.3-.4-.2-.7.2-1.1.1-.2,0-.4-.1-.5-.4-.1-.5,0-1,0-1.5,0-.1.1-.2.3-.2s.2.1.2.3v.8c0,.2,0,.4.3.4.2,0,.4-.1.4-.3,0-.3,0-.6,0-.8s0-.3.2-.3c.2,0,.3.1.3.4v.6h0Z" />
    <path class="cls-12"
      d="M46.3,7.6c0,0-.2,0-.3,0-.2,0-.5-.1-.4-.4.1-.3.4-.1.6,0,.2,0,.4.1.4,0,0-.3-.2-.2-.3-.3-.3,0-.7-.1-.7-.5,0-.3.1-.5.4-.6.4-.2.7-.2,1.1,0,.1,0,.3.2.2.3,0,.2-.2.1-.4,0-.2,0-.5-.3-.6,0,0,.2.3.2.5.3.3.1.6.2.6.6,0,.5-.5.6-.9.6h0Z" />
    <path class="cls-10" d="M76.5,32.6c-.5,0-.8-.3-.8-.8s.4-.9.9-.9c.4,0,.8.4.8.9s-.4.8-.9.8h0Z" />
    <path class="cls-12"
      d="M54.7,5.7c.3-.2.2-.6.5-.7.3-.1.3.2.4.3.3.3.4.4,0,.7-.2.2-.3.7.2,1,.1,0,.2.1.1.2,0,.1-.1.2-.2.2-.3,0-.6,0-.7-.4-.2-.5.2-1-.4-1.4h0Z" />
    <path class="cls-17"
      d="M53.6,6.2v.9c0,.2,0,.4-.3.4-.2,0-.3-.1-.3-.3,0-.7,0-1.3,0-2,0-.2.1-.3.3-.3.2,0,.3.1.3.3v1h0Z" />
    <path class="cls-13" d="M33.2,6.4c0,0,0,.2,0,.1-.1,0-.1-.2-.1-.3,0,0,.1.1.2.2Z" />
    <path class="cls-15"
      d="M37.4,7.1c-.1,0-.3,0-.3-.2,0-.2.2-.2.3-.3.1,0,.3,0,.3.2,0,.2-.1.3-.3.3h0Z" />
    <path class="cls-16" d="M49.1,5.9c.2,0,.3,0,.3.2,0,.2-.2.2-.3.2s-.3,0-.3-.2.2-.2.3-.2h0Z" />
    <path class="cls-6" d="M12.7,17.9c.5,0,.9.4.9.9,0,.5-.5.9-.9.9-.5,0-.9-.5-.9-.9s.4-.9.9-.9h0Z" />
  </g>
</svg>