<?xml version="1.0" encoding="UTF-8"?>
<svg xmlns="http://www.w3.org/2000/svg" xmlns:xlink="http://www.w3.org/1999/xlink" width="267px"
    height="150px" viewBox="0 0 163 92" version="1.1">
    <g id="surface1">
        <path
            style=" stroke:none;fill-rule:nonzero;fill:rgb(99.607843%,77.647059%,71.372549%);fill-opacity:1;"
            d="M 124.757812 49.632812 C 124.195312 50.207031 124.070312 50.988281 123.90625 51.714844 C 123.082031 55.320312 123.703125 58.679688 125.925781 61.640625 C 128.042969 64.464844 130.886719 66.0625 134.414062 66.359375 C 138.300781 66.6875 141.546875 65.3125 144.160156 62.476562 C 145.871094 60.621094 146.820312 58.394531 147.140625 55.863281 C 147.273438 54.789062 147.140625 53.75 147.109375 52.699219 C 147.074219 51.46875 147.71875 50.59375 148.675781 50.527344 C 150.101562 50.429688 150.890625 51.070312 151.054688 52.46875 C 151.535156 56.625 150.644531 60.453125 148.171875 63.835938 C 145.609375 67.34375 142.183594 69.515625 137.878906 70.195312 C 133.011719 70.957031 128.6875 69.6875 124.988281 66.488281 C 122.121094 64.007812 120.390625 60.820312 119.796875 57.042969 C 119.300781 53.910156 119.753906 50.894531 120.964844 47.972656 C 122.226562 48.527344 123.488281 49.085938 124.753906 49.640625 Z M 124.757812 49.632812 " />
        <path
            style=" stroke:none;fill-rule:nonzero;fill:rgb(99.607843%,77.647059%,71.372549%);fill-opacity:1;"
            d="M 85.527344 55.148438 C 85.488281 58.164062 84.855469 61.039062 83.394531 63.6875 C 81.738281 66.6875 79.433594 69.039062 76.441406 70.726562 C 73.277344 72.519531 69.867188 73.128906 66.300781 72.839844 C 62.8125 72.546875 59.683594 71.234375 56.949219 69.007812 C 54.589844 67.082031 52.835938 64.703125 51.699219 61.875 C 51.640625 61.714844 51.601562 61.550781 51.558594 61.386719 C 52.878906 61.132812 54.203125 60.871094 55.523438 60.621094 C 56.082031 62.210938 57.023438 63.566406 58.191406 64.738281 C 61.414062 67.996094 65.320312 69.398438 69.875 68.769531 C 76.308594 67.890625 81.144531 62.550781 81.539062 55.902344 C 82.867188 55.648438 84.195312 55.386719 85.519531 55.132812 Z M 85.527344 55.148438 " />
        <path
            style=" stroke:none;fill-rule:nonzero;fill:rgb(54.509804%,82.745098%,78.431373%);fill-opacity:1;"
            d="M 35.8125 37.644531 C 37.171875 42.578125 34.007812 47.660156 28.941406 48.445312 C 23.183594 49.324219 19.234375 44.875 19.003906 40.480469 C 18.765625 35.972656 21.914062 32 26.355469 31.433594 C 29.71875 31 32.507812 32.195312 34.546875 34.980469 C 33.351562 35.710938 32.054688 36.179688 30.738281 36.628906 C 29.972656 35.910156 29.058594 35.472656 28.027344 35.359375 C 26.089844 35.15625 24.3125 36.164062 23.4375 37.90625 C 22.582031 39.589844 22.886719 41.667969 24.195312 43.121094 C 25.375 44.429688 27.433594 44.921875 29.15625 44.28125 C 30.820312 43.660156 32.359375 41.914062 32.132812 39.316406 C 32.132812 39.046875 32.164062 38.859375 32.476562 38.734375 C 33.417969 38.367188 34.332031 37.941406 35.261719 37.554688 C 35.453125 37.472656 35.664062 37.410156 35.8125 37.652344 Z M 35.8125 37.644531 " />
        <path
            style=" stroke:none;fill-rule:nonzero;fill:rgb(54.509804%,82.745098%,78.431373%);fill-opacity:1;"
            d="M 36.324219 28.96875 C 30.351562 28.96875 24.378906 28.960938 18.40625 28.953125 C 17.316406 28.953125 16.589844 28.484375 16.269531 27.582031 C 15.808594 26.269531 16.738281 24.992188 18.222656 24.910156 C 18.554688 24.894531 18.898438 24.910156 19.238281 24.910156 C 24.699219 24.910156 30.167969 24.902344 35.625 24.925781 C 36.167969 24.925781 36.367188 24.804688 36.347656 24.222656 C 36.300781 22.992188 36.332031 21.757812 36.332031 20.519531 C 36.332031 19.230469 37.207031 18.28125 38.367188 18.304688 C 39.480469 18.316406 40.351562 19.265625 40.363281 20.511719 C 40.378906 21.722656 40.386719 22.9375 40.355469 24.148438 C 40.34375 24.691406 40.4375 24.9375 41.070312 24.925781 C 42.027344 24.910156 42.742188 25.519531 42.996094 26.394531 C 43.230469 27.222656 42.941406 28.058594 42.214844 28.582031 C 41.664062 28.976562 41.019531 28.953125 40.386719 28.960938 C 40.195312 29.125 40.269531 29.359375 40.269531 29.558594 C 40.269531 30.433594 40.246094 31.296875 40.269531 32.171875 C 40.277344 32.546875 40.140625 32.761719 39.800781 32.894531 C 38.863281 33.269531 37.921875 33.648438 37 34.058594 C 36.570312 34.253906 36.441406 34.15625 36.441406 33.695312 C 36.457031 32.335938 36.449219 30.976562 36.441406 29.621094 C 36.441406 29.394531 36.53125 29.148438 36.316406 28.960938 Z M 36.324219 28.96875 " />
        <path
            style=" stroke:none;fill-rule:nonzero;fill:rgb(65.490196%,89.803922%,86.27451%);fill-opacity:1;"
            d="M 110.519531 29.113281 C 112.296875 29.296875 113.824219 28.8125 115.035156 27.445312 C 115.808594 26.574219 116.246094 25.566406 116.253906 24.386719 C 116.253906 23.558594 116.246094 22.730469 116.253906 21.902344 C 116.269531 20.921875 116.820312 20.320312 117.644531 20.332031 C 118.410156 20.347656 118.882812 20.984375 118.914062 21.945312 C 118.957031 23.273438 118.742188 24.617188 119.226562 25.917969 C 119.902344 27.746094 121.699219 29.082031 123.628906 29.105469 C 124.476562 29.113281 125.324219 29.089844 126.171875 29.105469 C 126.929688 29.125 127.425781 29.476562 127.621094 30.121094 C 127.789062 30.703125 127.546875 31.148438 127.105469 31.515625 C 126.847656 31.730469 126.535156 31.753906 126.214844 31.769531 C 125.101562 31.804688 123.980469 31.664062 122.867188 31.882812 C 120.742188 32.292969 118.980469 34.328125 118.929688 36.507812 C 118.90625 37.359375 118.929688 38.210938 118.921875 39.0625 C 118.914062 39.941406 118.355469 40.578125 117.628906 40.570312 C 116.828125 40.5625 116.300781 39.964844 116.261719 39.054688 C 116.210938 37.867188 116.417969 36.671875 116.136719 35.5 C 115.617188 33.375 113.589844 31.785156 111.40625 31.769531 C 110.601562 31.769531 109.792969 31.769531 108.992188 31.769531 C 108.171875 31.769531 107.527344 31.214844 107.511719 30.515625 C 107.488281 29.785156 108.046875 29.179688 108.878906 29.113281 C 109.429688 29.066406 109.976562 29.105469 110.527344 29.105469 Z M 110.519531 29.113281 " />
        <path
            style=" stroke:none;fill-rule:nonzero;fill:rgb(99.607843%,77.647059%,71.372549%);fill-opacity:1;"
            d="M 70.996094 55.492188 C 71.191406 55.363281 71.25 55.199219 71.28125 54.96875 C 71.375 54.082031 71.96875 53.386719 72.71875 53.230469 C 73.664062 53.027344 74.519531 53.402344 74.964844 54.246094 C 75.113281 54.535156 75.289062 54.664062 75.601562 54.632812 C 75.402344 54.757812 75.121094 54.847656 75.230469 55.183594 C 75.429688 55.804688 75.335938 56.425781 75.214844 57.042969 C 74.941406 58.859375 74.019531 60.304688 72.5625 61.359375 C 69.578125 63.523438 65.457031 62.769531 63.332031 59.738281 C 63.191406 59.53125 63.0625 59.296875 62.753906 59.320312 C 62.8125 59.238281 62.945312 59.125 62.921875 59.089844 C 62.625 58.542969 62.492188 57.941406 62.285156 57.363281 C 62.210938 57.164062 62.023438 57.179688 61.859375 57.15625 C 62.269531 57.050781 62.277344 56.753906 62.246094 56.417969 C 62.082031 54.582031 62.699219 52.996094 63.835938 51.59375 C 64.414062 50.878906 65.171875 50.640625 66.042969 50.816406 C 66.734375 50.960938 67.214844 51.421875 67.402344 52.101562 C 67.617188 52.910156 67.460938 53.648438 66.851562 54.273438 C 66.414062 54.730469 66.148438 55.273438 66.175781 55.9375 C 66.183594 56.132812 66.226562 56.273438 66.445312 56.296875 C 66.375 56.410156 66.207031 56.4375 66.234375 56.640625 C 66.332031 57.4375 67.164062 58.261719 67.988281 58.335938 C 68.566406 58.804688 69.652344 58.625 70.378906 57.945312 C 70.8125 57.671875 71.078125 57.246094 71.183594 56.78125 C 71.28125 56.363281 71.554688 55.847656 70.996094 55.5 Z M 70.996094 55.492188 " />
        <path
            style=" stroke:none;fill-rule:nonzero;fill:rgb(99.607843%,77.647059%,71.372549%);fill-opacity:1;"
            d="M 50.675781 59.195312 C 50.84375 59.007812 50.769531 58.820312 50.734375 58.605469 C 49.820312 53.082031 51.113281 48.136719 54.671875 43.832031 C 55.613281 42.691406 56.722656 41.6875 57.960938 40.867188 C 59.015625 40.160156 60.308594 40.339844 60.941406 41.277344 C 61.578125 42.234375 61.304688 43.398438 60.234375 44.152344 C 57.023438 46.421875 55.183594 49.542969 54.53125 53.394531 C 54.238281 55.089844 54.367188 56.765625 54.78125 58.433594 C 53.414062 58.6875 52.046875 58.945312 50.683594 59.199219 Z M 50.675781 59.195312 " />
        <path
            style=" stroke:none;fill-rule:nonzero;fill:rgb(54.509804%,82.745098%,78.431373%);fill-opacity:1;"
            d="M 28.546875 57.679688 C 27.105469 57.597656 25.390625 57.835938 23.695312 57.425781 C 20.355469 56.617188 17.636719 53.28125 17.753906 49.796875 C 17.800781 48.601562 18.476562 47.757812 19.523438 47.714844 C 20.734375 47.660156 21.574219 48.390625 21.714844 49.617188 C 22.027344 52.410156 23.472656 53.707031 26.265625 53.707031 C 28.292969 53.707031 30.328125 53.707031 32.359375 53.707031 C 33.539062 53.707031 34.320312 54.484375 34.332031 55.640625 C 34.339844 56.835938 33.5625 57.65625 32.371094 57.671875 C 31.191406 57.6875 30.003906 57.671875 28.554688 57.671875 Z M 28.546875 57.679688 " />
        <path
            style=" stroke:none;fill-rule:nonzero;fill:rgb(96.862745%,63.137255%,54.117647%);fill-opacity:1;"
            d="M 50.675781 59.195312 C 52.042969 58.941406 53.40625 58.679688 54.773438 58.425781 C 57.136719 58 59.492188 57.582031 61.851562 57.15625 C 62.015625 57.179688 62.203125 57.15625 62.277344 57.363281 C 62.492188 57.941406 62.617188 58.542969 62.914062 59.089844 C 62.9375 59.125 62.804688 59.238281 62.746094 59.320312 C 60.339844 59.753906 57.929688 60.195312 55.523438 60.625 C 54.203125 60.878906 52.878906 61.140625 51.558594 61.394531 C 50.101562 61.410156 50.042969 61.46875 50.636719 62.761719 C 52.894531 67.6875 56.527344 71.144531 61.617188 73.019531 C 61.710938 73.054688 61.816406 73.09375 61.914062 73.121094 C 62.351562 73.273438 62.632812 73.5625 62.453125 74.03125 C 62.285156 74.488281 61.875 74.464844 61.480469 74.332031 C 59.214844 73.554688 57.152344 72.421875 55.289062 70.914062 C 52.441406 68.597656 50.378906 65.71875 49.070312 62.292969 C 48.890625 61.828125 48.625 61.859375 48.28125 61.917969 C 47.265625 62.113281 46.253906 62.3125 45.238281 62.5 C 44.210938 62.6875 43.582031 62.179688 43.675781 61.238281 C 43.746094 60.550781 44.226562 60.335938 44.804688 60.230469 C 45.78125 60.050781 46.761719 59.871094 47.734375 59.714844 C 48.125 59.65625 48.253906 59.535156 48.164062 59.097656 C 47.917969 57.871094 47.777344 56.625 47.761719 55.371094 C 47.761719 54.917969 47.808594 54.476562 48.402344 54.484375 C 48.996094 54.484375 49.03125 54.929688 49.03125 55.386719 C 49.019531 56.476562 49.203125 57.535156 49.351562 58.609375 C 49.441406 59.253906 49.671875 59.484375 50.296875 59.230469 C 50.40625 59.1875 50.546875 59.199219 50.675781 59.1875 Z M 50.675781 59.195312 " />
        <path
            style=" stroke:none;fill-rule:nonzero;fill:rgb(54.509804%,82.745098%,78.431373%);fill-opacity:1;"
            d="M 90.308594 39.515625 C 90.308594 38.941406 90.308594 38.367188 90.308594 37.792969 C 90.324219 36.574219 91.113281 35.746094 92.253906 35.734375 C 93.347656 35.71875 94.222656 36.597656 94.253906 37.769531 C 94.277344 38.679688 94.253906 39.597656 94.261719 40.511719 C 94.304688 43.800781 96.800781 46.347656 100.070312 46.453125 C 101.058594 46.480469 101.828125 47.035156 102.089844 47.898438 C 102.328125 48.683594 101.992188 49.640625 101.316406 50.101562 C 100.566406 50.617188 99.707031 50.476562 98.910156 50.371094 C 94.75 49.824219 91.484375 46.824219 90.515625 42.75 C 90.265625 41.683594 90.308594 40.597656 90.300781 39.515625 Z M 90.308594 39.515625 " />
        <path
            style=" stroke:none;fill-rule:nonzero;fill:rgb(99.607843%,92.156863%,56.470588%);fill-opacity:1;"
            d="M 69.503906 43.890625 C 69.527344 43.039062 69.519531 42.195312 69.089844 41.414062 C 68.339844 40.046875 67.203125 39.339844 65.648438 39.308594 C 65.03125 39.292969 64.421875 39.324219 63.808594 39.308594 C 63.144531 39.285156 62.753906 38.890625 62.753906 38.285156 C 62.753906 37.679688 63.160156 37.308594 63.8125 37.269531 C 64.742188 37.226562 65.671875 37.375 66.59375 37.144531 C 68.269531 36.71875 69.460938 35.234375 69.488281 33.484375 C 69.496094 32.851562 69.488281 32.210938 69.496094 31.574219 C 69.511719 30.875 69.898438 30.484375 70.542969 30.492188 C 71.144531 30.507812 71.488281 30.894531 71.523438 31.582031 C 71.570312 32.492188 71.421875 33.402344 71.644531 34.3125 C 72.050781 35.992188 73.605469 37.246094 75.320312 37.269531 C 75.9375 37.269531 76.546875 37.269531 77.164062 37.269531 C 77.882812 37.285156 78.269531 37.652344 78.269531 38.285156 C 78.269531 38.917969 77.875 39.269531 77.15625 39.308594 C 76.128906 39.367188 75.089844 39.152344 74.070312 39.53125 C 72.585938 40.085938 71.546875 41.480469 71.515625 43.070312 C 71.503906 43.703125 71.515625 44.347656 71.515625 44.980469 C 71.503906 45.652344 71.128906 46.054688 70.535156 46.070312 C 69.90625 46.085938 69.511719 45.675781 69.496094 44.972656 C 69.488281 44.617188 69.496094 44.25 69.496094 43.890625 Z M 69.503906 43.890625 " />
        <path
            style=" stroke:none;fill-rule:nonzero;fill:rgb(65.490196%,89.803922%,86.27451%);fill-opacity:1;"
            d="M 36.324219 28.96875 C 36.539062 29.15625 36.449219 29.402344 36.449219 29.625 C 36.457031 30.984375 36.464844 32.34375 36.449219 33.703125 C 36.449219 34.164062 36.578125 34.253906 37.007812 34.066406 C 37.929688 33.65625 38.871094 33.277344 39.808594 32.902344 C 40.148438 32.769531 40.28125 32.550781 40.277344 32.179688 C 40.253906 31.3125 40.261719 30.441406 40.277344 29.566406 C 40.277344 29.367188 40.203125 29.132812 40.394531 28.96875 C 40.394531 29.992188 40.402344 31.007812 40.394531 32.03125 C 40.394531 32.449219 40.453125 32.621094 40.929688 32.417969 C 43.410156 31.34375 45.90625 30.296875 48.386719 29.238281 C 49.167969 28.910156 49.917969 29.140625 50.222656 29.820312 C 50.527344 30.492188 50.222656 31.238281 49.441406 31.574219 C 46.589844 32.800781 43.730469 34.007812 40.871094 35.21875 C 40.796875 35.246094 40.730469 35.308594 40.660156 35.351562 C 39.734375 35.613281 38.871094 36.046875 37.996094 36.433594 C 37.667969 36.582031 37.230469 36.570312 37.097656 37.015625 C 36.578125 36.90625 35.976562 37.195312 35.820312 37.644531 C 35.671875 37.40625 35.460938 37.464844 35.269531 37.546875 C 34.339844 37.941406 33.417969 38.359375 32.484375 38.726562 C 32.171875 38.84375 32.132812 39.039062 32.140625 39.308594 C 32.03125 39.105469 31.957031 38.914062 31.636719 39.089844 C 31.234375 39.316406 30.78125 39.457031 30.351562 39.636719 C 29.445312 40.007812 28.777344 39.785156 28.449219 39.003906 C 28.160156 38.300781 28.539062 37.613281 29.386719 37.261719 C 29.847656 37.070312 30.34375 36.933594 30.753906 36.621094 C 32.066406 36.171875 33.367188 35.703125 34.5625 34.972656 C 35.148438 34.949219 35.625 34.589844 36.152344 34.394531 C 36.429688 34.292969 36.347656 34 36.347656 33.785156 C 36.347656 32.179688 36.347656 30.574219 36.347656 28.960938 Z M 36.324219 28.96875 " />
        <path
            style=" stroke:none;fill-rule:nonzero;fill:rgb(99.607843%,77.647059%,71.372549%);fill-opacity:1;"
            d="M 121.960938 45.839844 C 122.597656 45.617188 122.777344 44.953125 123.15625 44.496094 C 125.546875 41.667969 128.496094 39.800781 132.128906 39.039062 C 133.199219 38.816406 134.28125 38.660156 135.382812 38.671875 C 136.363281 38.6875 137.179688 39.382812 137.328125 40.261719 C 137.5 41.300781 137 42.277344 136.050781 42.53125 C 135.449219 42.695312 134.800781 42.667969 134.171875 42.742188 C 130.761719 43.121094 128.027344 44.699219 125.941406 47.414062 C 125.902344 47.460938 125.910156 47.535156 125.890625 47.59375 C 124.574219 47.003906 123.265625 46.414062 121.953125 45.824219 Z M 121.960938 45.839844 " />
        <path
            style=" stroke:none;fill-rule:nonzero;fill:rgb(65.490196%,89.803922%,86.27451%);fill-opacity:1;"
            d="M 46.113281 50.691406 C 46.03125 51.085938 45.859375 51.429688 45.320312 51.4375 C 44.621094 51.4375 43.929688 51.429688 43.230469 51.535156 C 41.828125 51.75 40.683594 52.992188 40.65625 54.417969 C 40.648438 54.945312 40.660156 55.476562 40.65625 56.011719 C 40.640625 56.597656 40.253906 57.035156 39.800781 57.015625 C 39.308594 56.992188 39.019531 56.601562 38.996094 55.984375 C 38.976562 55.140625 39.109375 54.28125 38.753906 53.46875 C 38.152344 52.078125 37.042969 51.488281 35.597656 51.4375 C 35.148438 51.421875 34.703125 51.4375 34.257812 51.4375 C 33.835938 51.4375 33.582031 51.214844 33.539062 50.789062 C 33.488281 50.339844 33.597656 49.996094 34.09375 49.863281 C 34.660156 49.714844 35.238281 49.75 35.796875 49.804688 C 37.3125 49.9375 38.996094 48.5625 38.996094 46.570312 C 38.996094 46.125 38.996094 45.675781 38.996094 45.234375 C 38.996094 44.71875 39.214844 44.363281 39.75 44.308594 C 40.195312 44.265625 40.609375 44.683594 40.640625 45.203125 C 40.667969 45.734375 40.640625 46.265625 40.648438 46.800781 C 40.660156 48.429688 41.96875 49.757812 43.582031 49.789062 C 44.109375 49.796875 44.644531 49.773438 45.171875 49.804688 C 45.71875 49.824219 46.121094 50.207031 46.113281 50.707031 Z M 46.113281 50.691406 " />
        <path
            style=" stroke:none;fill-rule:nonzero;fill:rgb(54.509804%,82.745098%,78.431373%);fill-opacity:1;"
            d="M 37.089844 37.015625 C 37.222656 36.570312 37.660156 36.582031 37.988281 36.433594 C 38.863281 36.039062 39.726562 35.605469 40.65625 35.351562 C 41.613281 37.285156 43.121094 38.359375 45.3125 38.414062 C 46.320312 38.433594 47.132812 39.324219 47.140625 40.332031 C 47.144531 41.390625 46.351562 42.300781 45.347656 42.367188 C 41.976562 42.59375 38.300781 40.210938 37.097656 37.015625 Z M 37.089844 37.015625 " />
        <path
            style=" stroke:none;fill-rule:nonzero;fill:rgb(96.862745%,63.137255%,54.117647%);fill-opacity:1;"
            d="M 121.960938 45.839844 C 123.273438 46.429688 124.582031 47.019531 125.894531 47.609375 C 126.832031 48.042969 127.769531 48.472656 128.710938 48.898438 C 129.476562 49.242188 129.789062 49.847656 129.527344 50.511719 C 129.28125 51.148438 128.601562 51.371094 127.8125 51.027344 C 126.789062 50.578125 125.777344 50.101562 124.757812 49.640625 C 123.496094 49.085938 122.234375 48.527344 120.972656 47.972656 C 119.515625 47.300781 118.058594 46.628906 116.605469 45.957031 C 116.351562 45.847656 116.097656 45.742188 115.855469 45.617188 C 115.117188 45.242188 114.878906 44.652344 115.183594 43.996094 C 115.460938 43.398438 116.097656 43.210938 116.8125 43.53125 C 118.527344 44.300781 120.242188 45.070312 121.960938 45.839844 Z M 121.960938 45.839844 " />
        <path
            style=" stroke:none;fill-rule:nonzero;fill:rgb(96.862745%,63.137255%,54.509804%);fill-opacity:1;"
            d="M 135.550781 72.59375 C 129.351562 72.40625 124.492188 69.988281 120.859375 65.179688 C 120.757812 65.046875 120.644531 64.902344 120.601562 64.746094 C 120.503906 64.433594 120.480469 64.113281 120.84375 63.917969 C 121.1875 63.730469 121.46875 63.84375 121.675781 64.128906 C 122.160156 64.777344 122.648438 65.410156 123.199219 66 C 125.726562 68.679688 128.800781 70.351562 132.386719 71.03125 C 135.828125 71.679688 139.15625 71.21875 142.339844 69.785156 C 142.4375 69.742188 142.535156 69.6875 142.625 69.644531 C 143.03125 69.457031 143.375 69.503906 143.574219 69.941406 C 143.765625 70.367188 143.523438 70.636719 143.171875 70.808594 C 141.597656 71.5625 139.957031 72.101562 138.234375 72.347656 C 137.277344 72.488281 136.300781 72.53125 135.550781 72.601562 Z M 135.550781 72.59375 " />
        <path
            style=" stroke:none;fill-rule:nonzero;fill:rgb(54.509804%,82.745098%,78.431373%);fill-opacity:1;"
            d="M 16.140625 53.238281 C 16.140625 54.066406 16.148438 54.894531 16.140625 55.722656 C 16.128906 56.835938 15.316406 57.648438 14.21875 57.679688 C 13.171875 57.699219 12.234375 56.855469 12.214844 55.789062 C 12.175781 54.085938 12.175781 52.386719 12.214844 50.683594 C 12.234375 49.578125 13.132812 48.839844 14.316406 48.863281 C 15.355469 48.886719 16.136719 49.683594 16.148438 50.742188 C 16.164062 51.570312 16.148438 52.402344 16.148438 53.230469 Z M 16.140625 53.238281 " />
        <path
            style=" stroke:none;fill-rule:nonzero;fill:rgb(96.862745%,63.137255%,54.509804%);fill-opacity:1;"
            d="M 75.207031 57.035156 C 75.328125 56.417969 75.425781 55.796875 75.222656 55.175781 C 75.113281 54.839844 75.394531 54.757812 75.59375 54.625 C 78.773438 54.050781 81.945312 53.46875 85.125 52.894531 C 85.890625 52.75 86.65625 52.601562 87.425781 52.46875 C 88.089844 52.355469 88.660156 52.773438 88.773438 53.429688 C 88.875 54.027344 88.46875 54.609375 87.828125 54.738281 C 87.0625 54.886719 86.289062 55.011719 85.527344 55.148438 C 84.195312 55.402344 82.867188 55.664062 81.542969 55.917969 C 79.433594 56.289062 77.324219 56.664062 75.214844 57.035156 Z M 75.207031 57.035156 " />
        <path
            style=" stroke:none;fill-rule:nonzero;fill:rgb(65.490196%,89.803922%,86.27451%);fill-opacity:1;"
            d="M 98.300781 61.640625 C 97.292969 61.089844 96.90625 61.820312 96.59375 62.695312 C 96.527344 62.875 96.4375 63.074219 96.214844 63.074219 C 95.992188 63.074219 95.910156 62.882812 95.820312 62.710938 C 95.792969 62.648438 95.769531 62.597656 95.738281 62.539062 C 95.292969 61.515625 95.292969 61.523438 94.210938 61.613281 C 93.949219 61.632812 93.628906 61.753906 93.445312 61.46875 C 93.242188 61.15625 93.59375 60.984375 93.703125 60.753906 C 93.785156 60.582031 93.910156 60.441406 94.039062 60.289062 C 94.3125 59.984375 94.3125 59.699219 94.015625 59.402344 C 93.867188 59.253906 93.757812 59.074219 93.636719 58.894531 C 93.503906 58.695312 93.257812 58.492188 93.453125 58.222656 C 93.613281 57.992188 93.867188 58.074219 94.089844 58.117188 C 94.230469 58.148438 94.378906 58.164062 94.527344 58.191406 C 95.0625 58.289062 95.390625 58.105469 95.597656 57.574219 C 95.730469 57.246094 95.777344 56.691406 96.207031 56.699219 C 96.675781 56.707031 96.675781 57.273438 96.832031 57.625 C 97.105469 58.253906 97.285156 58.328125 98.292969 58.125 C 98.5625 58.074219 98.800781 58.027344 98.976562 58.28125 C 99.148438 58.535156 98.917969 58.6875 98.808594 58.835938 C 97.96875 59.984375 97.988281 59.738281 98.792969 60.878906 C 98.910156 61.050781 99.082031 61.207031 98.96875 61.449219 C 98.84375 61.710938 98.605469 61.597656 98.285156 61.632812 Z M 98.300781 61.640625 " />
        <path
            style=" stroke:none;fill-rule:nonzero;fill:rgb(65.882353%,89.803922%,86.27451%);fill-opacity:1;"
            d="M 24.453125 23.609375 C 23.25 23.609375 22.046875 23.609375 20.84375 23.609375 C 20.140625 23.609375 19.6875 23.230469 19.691406 22.648438 C 19.691406 22.09375 20.125 21.707031 20.820312 21.707031 C 22.761719 21.691406 24.707031 21.707031 26.652344 21.707031 C 27.203125 21.707031 27.753906 21.691406 28.300781 21.707031 C 28.976562 21.722656 29.371094 22.109375 29.355469 22.707031 C 29.34375 23.335938 29.03125 23.617188 28.324219 23.617188 C 27.039062 23.617188 25.746094 23.617188 24.460938 23.617188 Z M 24.453125 23.609375 " />
        <path
            style=" stroke:none;fill-rule:nonzero;fill:rgb(99.607843%,77.647059%,71.372549%);fill-opacity:1;"
            d="M 149.421875 47.816406 C 149.390625 48.640625 148.960938 49.214844 148.253906 49.5625 C 147.511719 49.929688 146.671875 49.832031 146.160156 49.222656 C 145.46875 48.398438 144.628906 47.585938 144.941406 46.316406 C 145.289062 44.875 146.871094 44.324219 148.097656 45.210938 C 148.640625 45.609375 149.421875 47.144531 149.425781 47.808594 Z M 149.421875 47.816406 " />
        <path
            style=" stroke:none;fill-rule:nonzero;fill:rgb(54.901961%,82.745098%,78.431373%);fill-opacity:1;"
            d="M 140.328125 34.433594 C 140.878906 34.605469 141.167969 34.328125 141.351562 33.8125 C 141.425781 33.613281 141.449219 33.3125 141.761719 33.3125 C 142.03125 33.3125 142.097656 33.582031 142.140625 33.769531 C 142.332031 34.539062 142.875 34.523438 143.46875 34.417969 C 143.617188 34.390625 143.765625 34.335938 143.878906 34.480469 C 144.011719 34.648438 143.921875 34.8125 143.796875 34.933594 C 143.21875 35.5 143.238281 36.023438 143.796875 36.613281 C 144.09375 36.925781 143.945312 37.160156 143.5 37.128906 C 143.351562 37.121094 143.195312 37.152344 143.0625 37.105469 C 142.570312 36.925781 142.355469 37.179688 142.230469 37.605469 C 142.183594 37.746094 142.109375 37.882812 142.042969 38.007812 C 141.851562 38.375 141.652344 38.359375 141.464844 38 C 141.398438 37.867188 141.332031 37.734375 141.285156 37.589844 C 141.152344 37.152344 140.90625 36.949219 140.441406 37.097656 C 140.320312 37.136719 140.1875 37.121094 140.0625 37.121094 C 139.898438 37.121094 139.695312 37.1875 139.609375 36.992188 C 139.519531 36.816406 139.644531 36.65625 139.765625 36.546875 C 140.320312 36.023438 140.296875 35.515625 139.757812 35 C 139.636719 34.890625 139.511719 34.730469 139.617188 34.554688 C 139.792969 34.238281 140.082031 34.507812 140.335938 34.433594 Z M 140.328125 34.433594 " />
        <path
            style=" stroke:none;fill-rule:nonzero;fill:rgb(99.607843%,77.647059%,71.372549%);fill-opacity:1;"
            d="M 17.65625 63.410156 C 18.257812 63.589844 18.460938 63.15625 18.632812 62.703125 C 18.699219 62.523438 18.71875 62.296875 18.964844 62.296875 C 19.210938 62.296875 19.269531 62.53125 19.308594 62.703125 C 19.457031 63.386719 19.863281 63.566406 20.511719 63.433594 C 20.679688 63.394531 20.910156 63.335938 21.03125 63.539062 C 21.15625 63.753906 20.957031 63.910156 20.835938 64.03125 C 20.367188 64.53125 20.40625 64.984375 20.882812 65.457031 C 21.015625 65.589844 21.15625 65.746094 21.015625 65.957031 C 20.890625 66.144531 20.71875 66.039062 20.554688 66 C 19.921875 65.859375 19.492188 66.0625 19.308594 66.71875 C 19.261719 66.882812 19.203125 67.113281 18.949219 67.105469 C 18.710938 67.097656 18.632812 66.875 18.601562 66.703125 C 18.460938 65.972656 17.984375 65.875 17.375 66.007812 C 17.203125 66.046875 17.042969 66.113281 16.929688 65.910156 C 16.832031 65.730469 16.921875 65.554688 17.035156 65.449219 C 17.597656 64.925781 17.5 64.441406 16.996094 63.957031 C 16.886719 63.84375 16.832031 63.679688 16.929688 63.546875 C 17.117188 63.292969 17.398438 63.46875 17.65625 63.410156 Z M 17.65625 63.410156 " />
        <path
            style=" stroke:none;fill-rule:nonzero;fill:rgb(96.862745%,63.137255%,54.509804%);fill-opacity:1;"
            d="M 67.988281 58.328125 C 67.164062 58.246094 66.332031 57.425781 66.234375 56.632812 C 66.214844 56.433594 66.375 56.402344 66.445312 56.289062 C 67.960938 56.019531 69.480469 55.761719 70.996094 55.492188 C 71.546875 55.84375 71.273438 56.355469 71.183594 56.773438 C 71.078125 57.238281 70.8125 57.664062 70.378906 57.941406 C 69.585938 58.066406 68.785156 58.199219 67.988281 58.328125 Z M 67.988281 58.328125 " />
        <path
            style=" stroke:none;fill-rule:nonzero;fill:rgb(54.901961%,82.745098%,78.823529%);fill-opacity:1;"
            d="M 51.0625 25.132812 C 51.1875 24.664062 51.3125 24.191406 51.433594 23.722656 C 51.492188 23.484375 51.601562 23.335938 51.863281 23.347656 C 52.101562 23.363281 52.167969 23.519531 52.21875 23.722656 C 52.347656 24.238281 52.496094 24.746094 52.648438 25.3125 C 52.933594 24.820312 52.917969 24.28125 53.066406 23.804688 C 53.148438 23.542969 53.214844 23.273438 53.554688 23.378906 C 53.867188 23.476562 53.765625 23.765625 53.710938 23.976562 C 53.550781 24.65625 53.363281 25.328125 53.175781 26 C 53.117188 26.222656 53.050781 26.445312 52.730469 26.433594 C 52.425781 26.417969 52.339844 26.214844 52.273438 25.984375 C 52.136719 25.550781 52.019531 25.109375 51.765625 24.675781 C 51.625 25.132812 51.476562 25.582031 51.351562 26.035156 C 51.277344 26.304688 51.148438 26.4375 50.867188 26.425781 C 50.59375 26.417969 50.519531 26.214844 50.460938 26.015625 C 50.273438 25.320312 50.09375 24.625 49.917969 23.921875 C 49.859375 23.691406 49.789062 23.429688 50.117188 23.363281 C 50.414062 23.304688 50.511719 23.503906 50.5625 23.765625 C 50.636719 24.140625 50.734375 24.507812 50.816406 24.878906 C 50.800781 25.042969 50.777344 25.222656 50.957031 25.296875 C 51.039062 25.335938 51.054688 25.207031 51.046875 25.125 Z M 51.0625 25.132812 " />
        <path
            style=" stroke:none;fill-rule:nonzero;fill:rgb(96.862745%,63.529412%,54.509804%);fill-opacity:1;"
            d="M 42.183594 62.171875 C 42.167969 62.917969 41.640625 63.425781 40.882812 63.417969 C 40.132812 63.417969 39.621094 62.886719 39.621094 62.132812 C 39.621094 61.351562 40.15625 60.835938 40.953125 60.859375 C 41.703125 60.871094 42.191406 61.402344 42.183594 62.171875 Z M 42.183594 62.171875 " />
        <path
            style=" stroke:none;fill-rule:nonzero;fill:rgb(96.862745%,63.529412%,54.509804%);fill-opacity:1;"
            d="M 91.527344 25.664062 C 92.195312 25.664062 92.789062 26.222656 92.8125 26.894531 C 92.84375 27.574219 92.234375 28.199219 91.542969 28.199219 C 90.851562 28.199219 90.234375 27.589844 90.257812 26.910156 C 90.273438 26.246094 90.859375 25.671875 91.527344 25.664062 Z M 91.527344 25.664062 " />
        <path
            style=" stroke:none;fill-rule:nonzero;fill:rgb(96.862745%,63.529412%,54.509804%);fill-opacity:1;"
            d="M 15.691406 34.328125 C 16.402344 34.328125 16.898438 34.851562 16.898438 35.582031 C 16.898438 36.308594 16.386719 36.851562 15.691406 36.859375 C 14.96875 36.859375 14.441406 36.308594 14.449219 35.546875 C 14.457031 34.820312 14.96875 34.320312 15.691406 34.328125 Z M 15.691406 34.328125 " />
        <path
            style=" stroke:none;fill-rule:nonzero;fill:rgb(55.294118%,83.137255%,78.823529%);fill-opacity:1;"
            d="M 59.433594 24.820312 C 59.714844 24.550781 59.914062 24.339844 60.128906 24.148438 C 60.285156 24.003906 60.488281 23.953125 60.644531 24.117188 C 60.820312 24.304688 60.628906 24.4375 60.507812 24.535156 C 59.980469 24.953125 60.152344 25.34375 60.507812 25.761719 C 60.648438 25.925781 60.984375 26.140625 60.65625 26.371094 C 60.40625 26.550781 60.144531 26.394531 59.972656 26.117188 C 59.878906 25.960938 59.738281 25.828125 59.632812 25.691406 C 59.417969 25.714844 59.445312 25.863281 59.4375 25.984375 C 59.433594 26.253906 59.34375 26.445312 59.03125 26.417969 C 58.75 26.394531 58.710938 26.183594 58.710938 25.953125 C 58.710938 25.171875 58.710938 24.378906 58.710938 23.59375 C 58.710938 23.371094 58.742188 23.140625 59.015625 23.125 C 59.296875 23.109375 59.425781 23.328125 59.433594 23.585938 C 59.445312 23.96875 59.433594 24.347656 59.433594 24.820312 Z M 59.433594 24.820312 " />
        <path
            style=" stroke:none;fill-rule:nonzero;fill:rgb(55.294118%,83.137255%,78.823529%);fill-opacity:1;"
            d="M 80.855469 23.992188 C 81.574219 23.992188 82.070312 24.5 82.066406 25.238281 C 82.066406 26.015625 81.597656 26.519531 80.882812 26.527344 C 80.171875 26.535156 79.671875 26.019531 79.664062 25.265625 C 79.664062 24.507812 80.140625 23.992188 80.855469 23.984375 Z M 81.328125 25.230469 C 81.335938 24.960938 81.3125 24.601562 80.890625 24.582031 C 80.46875 24.558594 80.402344 24.902344 80.402344 25.246094 C 80.402344 25.582031 80.421875 25.917969 80.875 25.910156 C 81.292969 25.910156 81.328125 25.601562 81.328125 25.222656 Z M 81.328125 25.230469 " />
        <path
            style=" stroke:none;fill-rule:nonzero;fill:rgb(54.901961%,83.137255%,78.823529%);fill-opacity:1;"
            d="M 57.277344 25.460938 C 57.242188 25.992188 57.433594 26.664062 56.519531 26.328125 C 56.429688 26.296875 56.296875 26.425781 56.179688 26.460938 C 55.703125 26.609375 55.332031 26.460938 55.152344 26 C 54.984375 25.550781 55.273438 25.179688 55.800781 25.027344 C 56.042969 24.960938 56.566406 25.191406 56.476562 24.753906 C 56.378906 24.265625 55.976562 24.625 55.710938 24.714844 C 55.554688 24.765625 55.414062 24.753906 55.324219 24.59375 C 55.21875 24.417969 55.355469 24.3125 55.464844 24.230469 C 55.808594 23.960938 56.199219 23.929688 56.601562 24.035156 C 56.996094 24.140625 57.1875 24.429688 57.234375 24.820312 C 57.261719 25.050781 57.261719 25.28125 57.269531 25.460938 Z M 56.164062 25.992188 C 56.34375 25.925781 56.558594 25.886719 56.519531 25.632812 C 56.496094 25.460938 56.347656 25.394531 56.195312 25.425781 C 56.015625 25.453125 55.785156 25.476562 55.800781 25.730469 C 55.816406 25.933594 56.007812 25.960938 56.171875 25.992188 Z M 56.164062 25.992188 " />
        <path
            style=" stroke:none;fill-rule:nonzero;fill:rgb(55.294118%,83.137255%,78.823529%);fill-opacity:1;"
            d="M 70.378906 26.542969 C 69.859375 26.492188 69.46875 26.351562 69.273438 25.917969 C 69.035156 25.378906 69.058594 24.835938 69.445312 24.363281 C 69.765625 23.984375 70.203125 23.917969 70.65625 24.035156 C 71.085938 24.148438 71.332031 24.453125 71.390625 24.894531 C 71.433594 25.214844 71.367188 25.4375 70.96875 25.417969 C 70.738281 25.402344 70.5 25.402344 70.269531 25.417969 C 70.121094 25.425781 69.890625 25.34375 69.882812 25.609375 C 69.875 25.84375 70.070312 25.953125 70.261719 25.960938 C 70.417969 25.96875 70.589844 25.902344 70.746094 25.847656 C 70.921875 25.789062 71.128906 25.683594 71.234375 25.925781 C 71.324219 26.148438 71.128906 26.28125 70.960938 26.355469 C 70.75 26.453125 70.523438 26.5 70.375 26.550781 Z M 70.261719 24.507812 C 70.15625 24.574219 69.925781 24.574219 69.925781 24.78125 C 69.925781 25.007812 70.136719 25.007812 70.304688 25.007812 C 70.46875 25.007812 70.683594 25.027344 70.671875 24.789062 C 70.65625 24.609375 70.484375 24.527344 70.261719 24.511719 Z M 70.261719 24.507812 " />
        <path
            style=" stroke:none;fill-rule:nonzero;fill:rgb(54.901961%,82.745098%,78.823529%);fill-opacity:1;"
            d="M 64.410156 25.261719 C 64.410156 25.511719 64.410156 25.765625 64.410156 26.019531 C 64.410156 26.179688 64.328125 26.417969 64.222656 26.371094 C 63.753906 26.15625 63.382812 26.589844 62.953125 26.519531 C 62.671875 26.476562 62.417969 26.34375 62.328125 26.050781 C 62.152344 25.476562 62.246094 24.878906 62.261719 24.289062 C 62.261719 24.125 62.433594 24.050781 62.597656 24.074219 C 62.789062 24.101562 62.878906 24.238281 62.878906 24.429688 C 62.878906 24.765625 62.878906 25.109375 62.878906 25.445312 C 62.878906 25.714844 62.988281 25.894531 63.28125 25.910156 C 63.578125 25.925781 63.71875 25.746094 63.738281 25.492188 C 63.777344 25.15625 63.761719 24.8125 63.761719 24.476562 C 63.761719 24.257812 63.8125 24.082031 64.058594 24.074219 C 64.335938 24.066406 64.410156 24.253906 64.402344 24.5 C 64.402344 24.753906 64.402344 25.007812 64.402344 25.261719 Z M 64.410156 25.261719 " />
        <path
            style=" stroke:none;fill-rule:nonzero;fill:rgb(55.686275%,83.137255%,78.823529%);fill-opacity:1;"
            d="M 66.824219 26.542969 C 66.710938 26.519531 66.554688 26.515625 66.429688 26.453125 C 66.191406 26.351562 65.78125 26.28125 65.902344 25.953125 C 66.027344 25.597656 66.355469 25.804688 66.601562 25.925781 C 66.800781 26.019531 67.066406 26.101562 67.140625 25.847656 C 67.230469 25.542969 66.90625 25.574219 66.726562 25.519531 C 66.355469 25.425781 65.945312 25.347656 65.855469 24.902344 C 65.789062 24.558594 65.984375 24.28125 66.296875 24.125 C 66.71875 23.910156 67.15625 23.917969 67.558594 24.175781 C 67.691406 24.257812 67.863281 24.386719 67.757812 24.589844 C 67.660156 24.78125 67.484375 24.753906 67.320312 24.675781 C 67.058594 24.574219 66.695312 24.28125 66.578125 24.675781 C 66.496094 24.953125 66.964844 24.945312 67.207031 25.027344 C 67.582031 25.148438 67.960938 25.28125 67.890625 25.789062 C 67.808594 26.394531 67.34375 26.46875 66.828125 26.542969 Z M 66.824219 26.542969 " />
        <path
            style=" stroke:none;fill-rule:nonzero;fill:rgb(54.901961%,83.137255%,78.823529%);fill-opacity:1;"
            d="M 103.144531 56.671875 C 102.542969 56.671875 102.148438 56.265625 102.148438 55.683594 C 102.148438 55.09375 102.632812 54.609375 103.195312 54.640625 C 103.710938 54.664062 104.183594 55.175781 104.183594 55.707031 C 104.183594 56.261719 103.730469 56.679688 103.152344 56.679688 Z M 103.144531 56.671875 " />
        <path
            style=" stroke:none;fill-rule:nonzero;fill:rgb(55.686275%,83.137255%,78.823529%);fill-opacity:1;"
            d="M 76.871094 24.355469 C 77.175781 24.101562 77.167969 23.664062 77.503906 23.511719 C 77.808594 23.378906 77.859375 23.722656 78.039062 23.871094 C 78.425781 24.207031 78.515625 24.339844 78.082031 24.753906 C 77.882812 24.9375 77.703125 25.625 78.292969 25.925781 C 78.417969 25.992188 78.492188 26.074219 78.445312 26.222656 C 78.410156 26.351562 78.304688 26.476562 78.1875 26.46875 C 77.839844 26.445312 77.464844 26.460938 77.316406 26.019531 C 77.132812 25.476562 77.511719 24.8125 76.878906 24.355469 Z M 76.871094 24.355469 " />
        <path
            style=" stroke:none;fill-rule:nonzero;fill:rgb(57.647059%,83.921569%,80%);fill-opacity:1;"
            d="M 75.578125 24.894531 C 75.578125 25.253906 75.578125 25.617188 75.578125 25.976562 C 75.578125 26.214844 75.511719 26.402344 75.230469 26.417969 C 74.976562 26.433594 74.875 26.246094 74.875 26.050781 C 74.859375 25.265625 74.859375 24.484375 74.875 23.691406 C 74.875 23.492188 75 23.328125 75.246094 23.347656 C 75.484375 23.371094 75.566406 23.527344 75.574219 23.746094 C 75.574219 24.125 75.574219 24.511719 75.574219 24.894531 Z M 75.578125 24.894531 " />
        <path
            style=" stroke:none;fill-rule:nonzero;fill:rgb(85.490196%,94.509804%,92.941176%);fill-opacity:1;"
            d="M 51.0625 25.132812 C 51.0625 25.207031 51.046875 25.335938 50.972656 25.304688 C 50.792969 25.230469 50.824219 25.042969 50.832031 24.886719 C 50.90625 24.96875 50.988281 25.050781 51.0625 25.132812 Z M 51.0625 25.132812 " />
        <path
            style=" stroke:none;fill-rule:nonzero;fill:rgb(92.54902%,96.862745%,96.470588%);fill-opacity:1;"
            d="M 56.164062 25.992188 C 56 25.960938 55.808594 25.933594 55.792969 25.730469 C 55.777344 25.476562 56.015625 25.453125 56.1875 25.425781 C 56.34375 25.394531 56.492188 25.453125 56.511719 25.632812 C 56.550781 25.886719 56.335938 25.933594 56.15625 25.992188 Z M 56.164062 25.992188 " />
        <path
            style=" stroke:none;fill-rule:nonzero;fill:rgb(93.333333%,97.254902%,96.470588%);fill-opacity:1;"
            d="M 70.261719 24.507812 C 70.484375 24.519531 70.65625 24.601562 70.671875 24.78125 C 70.691406 25.027344 70.46875 25 70.304688 25 C 70.144531 25 69.925781 25 69.925781 24.773438 C 69.925781 24.566406 70.148438 24.574219 70.261719 24.5 Z M 70.261719 24.507812 " />
        <path
            style=" stroke:none;fill-rule:nonzero;fill:rgb(65.882353%,89.803922%,86.27451%);fill-opacity:1;"
            d="M 26.511719 38.914062 C 27.152344 38.917969 27.589844 39.367188 27.566406 39.996094 C 27.542969 40.570312 27.003906 41.097656 26.460938 41.085938 C 25.910156 41.070312 25.40625 40.523438 25.40625 39.949219 C 25.40625 39.332031 25.859375 38.914062 26.503906 38.917969 Z M 26.511719 38.914062 " />
    </g>
</svg>