<?xml version="1.0" encoding="UTF-8"?>
<svg id="_レイヤー_1" data-name="レイヤー 1" xmlns="http://www.w3.org/2000/svg" width="79.9469029891mm" height="32.2742629955mm" viewBox="0 0 226.6211457348 91.4861012038">
  <defs>
    <style>
      .cls-1 {
        fill: #feeb90;
      }

      .cls-1, .cls-2, .cls-3, .cls-4, .cls-5, .cls-6, .cls-7, .cls-8, .cls-9, .cls-10, .cls-11, .cls-12, .cls-13, .cls-14, .cls-15, .cls-16, .cls-17 {
        stroke-width: 0px;
      }

      .cls-2 {
        fill: #8dd4c9;
      }

      .cls-3 {
        fill: #f7a18b;
      }

      .cls-4 {
        fill: #8cd3c9;
      }

      .cls-5 {
        fill: #f7a18a;
      }

      .cls-6 {
        fill: #a8e5dc;
      }

      .cls-7 {
        fill: #fec6b6;
      }

      .cls-8 {
        fill: #a7e5dc;
      }

      .cls-9 {
        fill: #f7a28b;
      }

      .cls-10 {
        fill: #8cd4c9;
      }

      .cls-11 {
        fill: #8bd3c8;
      }

      .cls-12 {
        fill: #8ed4c9;
      }

      .cls-13 {
        fill: #daf1ed;
      }

      .cls-14 {
        fill: #8cd3c8;
      }

      .cls-15 {
        fill: #ecf7f6;
      }

      .cls-16 {
        fill: #eef8f6;
      }

      .cls-17 {
        fill: #93d6cc;
      }
    </style>
  </defs>
  <g id="surface1">
    <path class="cls-7" d="M183.5417339313,51.0791561169c-.9171195477.936226205-1.1209238917,2.2100033546-1.3884170931,3.3946161037-1.3438348928,5.8784815455-.3311820589,11.3557232888,3.2927139318,16.1833386859,3.4519360755,4.6047043959,8.0884849001,7.2095786668,13.8395887306,7.6936139837,6.3370413193.5349864028,11.629585376-1.7068613805,15.8903699415-6.3306724336,2.7895719577-3.0252207303,4.3372111944-6.6554856068,4.8594598258-10.7825235715.2165421154-1.7514435807,0-3.4455671897-.050951086-5.158797456-.0573199717-2.0061990106.9935461767-3.4328294182,2.553923185-3.5411004759,2.3246432981-.1592221437,3.6111582192.885275119,3.8786514206,3.1653362168.783372947,6.776494436-.6687330035,13.0180024691-4.7002376821,18.5334575269-4.1779890507,5.7192594018-9.7635018518,9.2603598777-16.7820139462,10.3685459979-7.9356316421,1.2419327209-14.9859881653-.8279551473-21.0173229687-6.0440725749-4.6747621391-4.04424245-7.4961785255-9.2412532205-8.4642491592-15.3999657389-.80884849-5.10784637-.0700577432-10.0246261675,1.9042968387-14.7885527071,2.0571500966.9043817762,4.1143001933,1.8151324382,6.1778191756,2.7195142144l.0063688857-.0127377715Z"/>
    <path class="cls-7" d="M119.5790143632,60.0720227932c-.0636888575,4.9167797975-1.0954483487,9.6042797081-3.4774116185,13.9223842453-2.7004075572,4.8913042545-6.4580501486,8.7253734749-11.3366166316,11.4767321181-5.158797456,2.9233185584-10.718834714,3.9168647351-16.533627402,3.4455671897-5.687414973-.4776664311-10.7888924573-2.6176120425-15.2471124809-6.2478769189-3.8468069918-3.1398606738-6.7064366927-7.0185120944-8.5597824454-11.629585376-.0955332862-.2611243157-.1592221437-.5286175171-.2292798869-.7961107185,2.1526833829-.4139775736,4.3117356515-.8406929187,6.4644190343-1.2483016066.910750662,2.5921364995,2.4456521273,4.8021398541,4.3499489659,6.7128055785,5.2543307422,5.3116507139,11.6232164903,7.5980806975,19.0493372725,6.572690092,10.4895548271-1.4329992933,18.3742353832-10.139266111,19.0174928438-20.9791096542,2.1654211544-.4139775736,4.3308423087-.8406929187,6.4898945773-1.2546704924l.0127377715.025475543Z"/>
    <path class="cls-11" d="M38.5222054473,31.533045756c2.2163722403,8.0439026998-2.9424252156,16.3298230581-11.2028700309,17.6099690935-9.3877375927,1.4329992933-15.826681084-5.8211615738-16.2024453431-12.9861580404-.3885020306-7.3496941533,4.7448198823-13.8268509591,11.9862429779-14.7503393926,5.4836106291-.706946318,10.0309950532,1.2419327209,13.3555534137,5.7829482593-1.9488790389,1.1909816349-4.0633491073,1.9552479247-6.2096636044,2.6876697857-1.2483016066-1.1718749776-2.7386208717-1.8851901814-4.4200067092-2.0698878681-3.1589673311-.3311820589-6.0568103464,1.3119904641-7.483440754,4.1525135078-1.3947859788,2.7449897574-.8980128905,6.1332369754,1.2355638351,8.5024624737,1.9234034959,2.1335767256,5.2798062852,2.9360563299,8.0884849001,1.8915590672,2.7131453287-1.0126528339,5.2224863134-3.8595447633,4.85309094-8.0948537858,0-.4394531166.050951086-.7451596325.5604619458-.9489639765,1.5349014653-.5986752603,3.0252207303-1.2928838069,4.5410155384-1.9234034959.3120754017-.1337466007.6559952321-.2356487727.8980128905.1592221437v-.0127377715Z"/>
    <path class="cls-11" d="M39.3565294803,17.3877505095c-9.7380263088,0-19.4760526177-.0127377715-29.2140789265-.025475543-1.7769191237,0-2.9615318729-.7642662898-3.4837805042-2.2354788976-.7515285183-2.1399456114.7642662898-4.222571251,3.184442874-4.3563178517.5413552886-.025475543,1.1018172344,0,1.6559102945,0,8.9037022758,0,17.8201423232-.0127377715,26.7174757132.025475543.885275119,0,1.2100882921-.1974354582,1.1782438634-1.1463994347-.076426629-2.0061990106-.025475543-4.018766907-.025475543-6.0377036892C39.3692672518,1.5101183395,40.7958976594-.0375208973,42.6874567266.0006924172c1.8151324382.0191066572,3.23539396,1.566745894,3.2545006173,3.5984204477.025475543,1.9743545819.0382133145,3.9550780496-.0127377715,5.9294326315-.0191066572.885275119.1337466007,1.2865149211,1.1655060919,1.2674082639,1.5603770083-.025475543,2.7258831002.9680706337,3.1398606738,2.3947010413.3821331449,1.3502037786-.0891644005,2.7131453287-1.2737771496,3.5665760189-.8980128905.6432574606-1.9488790389.6050441461-2.9806385301.6177819176-.3120754017.2674932014-.1910665724.6496263463-.1910665724.9744395195,0,1.4266304076-.0382133145,2.8341541579,0,4.2607845655.0127377715.6114130318-.2101732297.961701748-.7642662898,1.1782438634-1.5285325795.6114130318-3.0634340448,1.2291949494-4.5664910814,1.8979279529-.7005774323.3184442874-.910750662.1592221437-.910750662-.5923063746.025475543-2.2163722403.0127377715-4.4327444807,0-6.6427478353,0-.3693953734.1464843722-.7706351755-.2038043439-1.0763416914l.0127377715.0127377715Z"/>
    <path class="cls-8" d="M160.3271453795,17.6233992822c2.8978430154.2993376302,5.3880773429-.4904042026,7.3624319248-2.7195142144,1.2610393781-1.4202615218,1.9743545819-3.0634340448,1.9870923534-4.9868375408,0-1.3502037786-.0127377715-2.7004075572,0-4.0506113358.025475543-1.5985903228.9234884335-2.579398728,2.2673233263-2.5602920707,1.2483016066.025475543,2.0189367821,1.0636039199,2.0698878681,2.630349814.0700577432,2.1654211544-.2802309729,4.3563178517.5095108598,6.4771568058,1.1018172344,2.9806385301,4.0315046785,5.158797456,7.1777342381,5.1970107704,1.3820482073.0127377715,2.7640964147-.025475543,4.146144622,0,1.2355638351.0318444287,2.0444123251.6050441461,2.3628566125,1.6559102945.2738620872.9489639765-.1210088292,1.6750169517-.8406929187,2.2736922121-.4203464594.3502887161-.9298573192.3885020306-1.4521059506.4139775736-1.8151324382.0573199717-3.6430026479-.1719599152-5.4581350861.1846976867-3.464673847.6687330035-6.3370413193,3.9869224783-6.4198368341,7.5407607257-.0382133145,1.3884170931,0,2.7768341862-.0127377715,4.1652512792-.0127377715,1.4329992933-.9234884335,2.4711276703-2.1081011826,2.4583898988-1.3056215784-.0127377715-2.1654211544-.987177291-2.2291100118-2.4711276703-.0827955147-1.9361412674.2547554299-3.8850203063-.2038043439-5.7956860308-.8470618045-3.464673847-4.1525135078-6.0568103464-7.7127206409-6.0822858894h-3.9359713923c-1.3374660071,0-2.3883321555-.9043817762-2.4138076985-2.0444123251-.0382133145-1.1909816349.8725373475-2.1781589258,2.2291100118-2.2864299836.8980128905-.076426629,1.7896568952-.0127377715,2.6876697857-.0127377715l-.0127377715.0127377715Z"/>
    <path class="cls-7" d="M95.8867593803,60.632484739c.3184442874-.2101732297.4139775736-.4776664311.4649286596-.8534306902.152853258-1.4457370648,1.1209238917-2.579398728,2.3437499553-2.8341541579,1.541270351-.3311820589,2.9360563299.2802309729,3.6621093052,1.6559102945.2420176584.4712975454.5286175171.681470775,1.0381283769.6305196891-.3248131732.2038043439-.783372947.3502887161-.6050441461.8980128905.3248131732,1.0126528339.1719599152,2.0253056679-.025475543,3.0315896161-.4458220024,2.9615318729-1.9488790389,5.3180195997-4.324473423,7.0376187516-4.8658287115,3.5283627044-11.5850031758,2.2991677551-15.0496770227-2.6430875855-.2292798869-.3375509446-.4394531166-.7196840895-.9425950907-.681470775.0955332862-.1337466007.3120754017-.3184442874.2738620872-.3757642591-.4840353169-.8916440047-.7005774323-1.8724524099-1.0381283769-2.8150475007-.1210088292-.3248131732-.4267153451-.2993376302-.6942085465-.3375509446.6687330035-.1719599152.681470775-.6559952321.6305196891-1.2037194064-.2674932014-2.9933763016.7387907468-5.5791439153,2.5921364995-7.8655738989.9425950907-1.1655060919,2.1781589258-1.5540081225,3.5984204477-1.2674082639,1.1272927774.2356487727,1.9106657244.987177291,2.2163722403,2.0953634111.3502887161,1.3183593499.0955332862,2.5220787562-.8980128905,3.5411004759-.7133152038.7451596325-1.1463994347,1.6304347515-1.1018172344,2.7131453287.0127377715.3184442874.0827955147.5477241743.4394531166.5859374888-.1146399435.1846976867-.3885020306.2292798869-.3439198304.5604619458.1592221437,1.2992526926,1.515794808,2.6430875855,2.8596297009,2.7640964147.9425950907.7642662898,2.7131453287.4712975454,3.8977580778-.6368885748.706946318-.4458220024,1.1400305489-1.1400305489,1.3119904641-1.8979279529.1592221437-.681470775.6050441461-1.5221636938-.3057065159-2.0889945254v-.0127377715Z"/>
    <path class="cls-7" d="M62.7558157188,66.6701884282c.2738620872-.3057065159.152853258-.6114130318.0955332862-.961701748-1.4903192651-9.0056044478.6177819176-17.0686138049,6.4198368341-24.0871258993,1.5349014653-1.8597146384,3.3436650177-3.4965182757,5.3626017999-4.8339842828,1.719599152-1.1527683204,3.8277003346-.859799576,4.8594598258.6687330035,1.0381283769,1.5603770083.5923063746,3.4583049612-1.1527683204,4.6874999106-5.2352240849,3.7003226196-8.2349692723,8.7890623324-9.2985731922,15.06878368-.4776664311,2.7640964147-.2674932014,5.4963484006.4076086879,8.215862615-2.2291100118.4139775736-4.4582200237.834324033-6.6809611497,1.2483016066l-.0127377715-.0063688857Z"/>
    <path class="cls-11" d="M26.6760779559,64.1990607579c-2.350118841-.1337466007-5.1460596845.2547554299-7.9101560991-.4139775736-5.4453973146-1.3183593499-9.8781417953-6.7573877787-9.6870752228-12.438433866.076426629-1.9488790389,1.1782438634-3.3245583605,2.8851052439-3.3946161037,1.9743545819-.0891644005,3.3436650177,1.1018172344,3.5729449047,3.1016473593.5095108598,4.5537533099,2.8659985866,6.6682233782,7.4197518965,6.6682233782h9.935461767c1.9234034959,0,3.1971806455,1.2674082639,3.2162873028,3.1525984453.0127377715,1.9488790389-1.2546704924,3.286345046-3.1971806455,3.311820589-1.9234034959.025475543-3.8595447633,0-6.2224013759,0l-.0127377715.0127377715Z"/>
    <path class="cls-5" d="M62.7558157188,66.6701884282c2.2291100118-.4139775736,4.4518511379-.8406929187,6.6809611497-1.2546704924,3.8531758776-.6942085465,7.6936139837-1.3756793216,11.5404209755-2.0698878681.2674932014.0382133145.5731997173,0,.6942085465.3375509446.3502887161.9425950907.5540930601,1.9234034959,1.0381283769,2.8150475007.0382133145.0573199717-.1783288009.2420176584-.2738620872.3757642591-3.9232336208.706946318-7.8528361274,1.4266304076-11.7760697482,2.1272078399-2.1526833829.4139775736-4.3117356515.8406929187-6.4644190343,1.2546704924-2.375594384.025475543-2.4711276703.1210088292-1.5030570365,2.2291100118,3.6812159624,8.0311649283,9.6042797081,13.6676288154,17.9029378379,16.7246939745.152853258.0573199717.3248131732.1210088292.4840353169.1655910295.7133152038.2483865442,1.1718749776.7196840895.8789062332,1.4839503793-.2738620872.7451596325-.9425950907.706946318-1.5858525513.4904042026-3.6939537339-1.2674082639-7.0567254089-3.1143851308-10.0946839107-5.5727750296-4.6429177104-3.7767492486-8.0056893853-8.470618045-10.139266111-14.056130846-.2929687444-.757897404-.7260529753-.706946318-1.2865149211-.6114130318-1.6559102945.3184442874-3.3054517033.6432574606-4.9613619978.9489639765-1.6750169517.3057065159-2.7004075572-.5222486313-2.5475542992-2.0571500966.1146399435-1.1209238917.8980128905-1.4712126078,1.8406079812-1.643172523,1.592221437-.2929687444,3.1908117598-.5859374888,4.7766643111-.8406929187.6368885748-.0955332862.8470618045-.2929687444.7005774323-1.0062839482-.4012398021-1.9998301249-.6305196891-4.0315046785-.6559952321-6.0759170037,0-.7387907468.076426629-1.4584748363,1.0444972627-1.4457370648.9680706337,0,1.0253906054.7260529753,1.0253906054,1.4712126078-.0191066572,1.7769191237.2802309729,3.5028871614.5222486313,5.2543307422.1464843722,1.0508661484.5222486313,1.4266304076,1.541270351,1.0126528339.1783288009-.0700577432.4076086879-.050951086.6177819176-.0700577432v.0127377715Z"/>
    <path class="cls-11" d="M127.3745305189,34.5837420293v-2.8086786149c.025475543-1.9870923534,1.3119904641-3.337296132,3.1717051025-3.3564027892,1.7832880095-.025475543,3.209918417,1.4075237503,3.260869503,3.3181894748.0382133145,1.4839503793,0,2.9806385301.0127377715,4.4709577952.0700577432,5.3626017999,4.1397757363,9.5151153076,9.4705331074,9.6870752228,1.6113280943.0445822002,2.8659985866.9489639765,3.2927139318,2.3564877268.3885020306,1.2801460354-.1592221437,2.8405230436-1.2610393781,3.5920515619-1.2228260636.8406929187-2.6239809282.6114130318-3.9232336208.4394531166-6.7828633217-.8916440047-12.1072518071-5.7829482593-13.6867354726-12.4256960945-.4076086879-1.7387058092-.3375509446-3.5092560472-.3502887161-5.2734373994h.0127377715Z"/>
    <path class="cls-1" d="M93.4538450246,41.7168940672c.0382133145-1.3884170931.025475543-2.7640964147-.6751018893-4.0378735643-1.2228260636-2.2291100118-3.0761718163-3.3818783322-5.6109883441-3.4328294182-1.0062839482-.025475543-1.9998301249.025475543-2.9997451873,0-1.0827105772-.0382133145-1.719599152-.681470775-1.719599152-1.668648066s.6623641178-1.592221437,1.7259680377-1.6559102945c1.515794808-.0700577432,3.0315896161.1719599152,4.5346466526-.2038043439,2.7322519859-.6942085465,4.6747621391-3.1143851308,4.7193443393-5.967645946.0127377715-1.0317594912,0-2.0762567539.0127377715-3.1143851308.025475543-1.1400305489.6559952321-1.7769191237,1.7068613805-1.7641813522.9808084052.025475543,1.541270351.6559952321,1.5985903228,1.7769191237.076426629,1.4839503793-.1655910295,2.9679007586.1974354582,4.4518511379.6623641178,2.7386208717,3.1971806455,4.7830331968,5.993121489,4.8212465113h3.0061140731c1.1718749776.025475543,1.8023946667.6241508033,1.8023946667,1.6559102945s-.6432574606,1.6049592085-1.8151324382,1.668648066c-1.6750169517.0955332862-3.3691405607-.2547554299-5.031419741.3630264876-2.4201765843.9043817762-4.1143001933,3.1780739883-4.1652512792,5.7702104878-.0191066572,1.0317594912,0,2.0826256396,0,3.1143851308-.0191066572,1.0954483487-.6305196891,1.7514435807-1.5985903228,1.7769191237-1.0253906054.025475543-1.668648066-.6432574606-1.694123609-1.7896568952-.0127377715-.5795686031,0-1.1782438634,0-1.7641813522h.0127377715Z"/>
    <path class="cls-8" d="M39.3565294803,17.3877505095c.3502887161.3057065159.2038043439.706946318.2038043439,1.0699728057.0127377715,2.2163722403.025475543,4.4327444807,0,6.649116721,0,.7515285183.2101732297.8980128905.910750662.5923063746,1.5030570365-.6687330035,3.0379585018-1.2865149211,4.5664910814-1.8979279529.5540930601-.2165421154.7706351755-.5731997173.7642662898-1.1782438634-.0382133145-1.4138926361-.025475543-2.8341541579,0-4.2607845655,0-.3248131732-.1210088292-.706946318.1910665724-.9744395195,0,1.668648066.0127377715,3.3245583605,0,4.9932064265,0,.681470775.0955332862.961701748.8725373475.6305196891,4.04424245-1.7514435807,8.1139604431-3.4583049612,12.1582028931-5.1842729989,1.2737771496-.5349864028,2.4966032133-.1592221437,2.9933763016.9489639765.4967730884,1.0954483487,0,2.3119055266-1.2737771496,2.8596297009-4.6492865961,1.9998301249-9.3113109637,3.9678158211-13.9733353313,5.942170403-.1210088292.0445822002-.2292798869.1464843722-.3439198304.2165421154-1.5094259223.4267153451-2.9169496726,1.1336616632-4.3435800802,1.7641813522-.5349864028.2420176584-1.2483016066.2229110012-1.4648437221.9489639765-.8470618045-.1783288009-1.8278702097.2929687444-2.0826256396,1.0253906054-.2420176584-.3885020306-.5859374888-.2929687444-.8980128905-.1592221437-1.515794808.6432574606-3.0188518446,1.3247282356-4.5410155384,1.9234034959-.5095108598.1910665724-.5731997173.5095108598-.5604619458.9489639765-.1783288009-.3311820589-.2993376302-.6432574606-.8215862615-.3566576019-.6559952321.3693953734-1.3947859788.5986752603-2.0953634111.8916440047-1.4775814936.6050441461-2.5666609565.2420176584-3.1016473593-1.0317594912-.4712975454-1.1463994347.1464843722-2.2673233263,1.5285325795-2.8405230436.7515285183-.3120754017,1.5603770083-.5349864028,2.2291100118-1.0444972627,2.1399456114-.732421861,4.2607845655-1.4966881508,6.2096636044-2.6876697857.9553328622-.0382133145,1.7323369235-.6241508033,2.5921364995-.9425950907.4521908881-.1655910295.3184442874-.6432574606.3184442874-.9935461767v-7.8655738989l-.0382133145.0127377715Z"/>
    <path class="cls-7" d="M178.9816117357,44.8949680555c1.0381283769-.3630264876,1.3310971214-1.4457370648,1.9488790389-2.1908966973,3.8977580778-4.6110732816,8.7062668176-7.6554006692,14.6293305634-8.8973333901,1.745074695-.3630264876,3.5092560472-.6177819176,5.3052818282-.5986752603,1.5985903228.025475543,2.9296874441,1.1591372062,3.1717051025,2.5921364995.2802309729,1.694123609-.5349864028,3.286345046-2.0826256396,3.7003226196-.9808084052.2674932014-2.0380434394.2229110012-3.0634340448.3439198304-5.5600372581.6177819176-10.0182572817,3.1908117598-13.4192422712,7.6171873547-.0636888575.076426629-.050951086.1974354582-.0827955147.2929687444-2.1463144971-.961701748-4.2798912227-1.9234034959-6.4198368341-2.8851052439l.0127377715.025475543Z"/>
    <path class="cls-8" d="M55.316957165,52.8051241546c-.1337466007.6432574606-.4139775736,1.2037194064-1.2928838069,1.2164571779-1.1400305489,0-2.2673233263-.0127377715-3.4073538752.1592221437-2.2864299836.3502887161-4.1525135078,2.375594384-4.197095708,4.7002376821-.0127377715.859799576.0063688857,1.7259680377,0,2.5985053852-.025475543.9553328622-.6559952321,1.668648066-1.3947859788,1.6368036373-.8024796043-.0382133145-1.2737771496-.6751018893-1.3119904641-1.6813858375-.0318444287-1.3756793216.1846976867-2.7768341862-.3948709164-4.1015624218-.9808084052-2.2673233263-2.7895719577-3.2290250743-5.1460596845-3.311820589-.732421861-.025475543-1.4584748363,0-2.1845278116,0-.6878396608,0-1.1018172344-.3630264876-1.1718749776-1.0572350342-.0827955147-.732421861.0955332862-1.2928838069.9043817762-1.5094259223.9234884335-.2420176584,1.8660835242-.1846976867,2.7768341862-.0955332862,2.4711276703.2165421154,5.2161174277-2.0253056679,5.2161174277-5.2734373994v-2.1781589258c0-.8406929187.3566576019-1.4202615218,1.2291949494-1.5094259223.7260529753-.0700577432,1.4011548646.6114130318,1.4521059506,1.4584748363.0445822002.8661684617,0,1.7323369235.0127377715,2.604874271.0191066572,2.655825357,2.1526833829,4.8212465113,4.7830331968,4.8721975973.859799576.0127377715,1.7323369235-.025475543,2.5921364995.025475543.8916440047.0318444287,1.5476392368.6559952321,1.5349014653,1.4712126078v-.025475543Z"/>
    <path class="cls-11" d="M40.6048310869,30.5076551506c.2165421154-.7260529753.9298573192-.706946318,1.4648437221-.9489639765,1.4266304076-.6432574606,2.8341541579-1.3502037786,4.3499489659-1.7641813522,1.5603770083,3.1525984453,4.018766907,4.904042026,7.5917118117,4.9932064265,1.643172523.0318444287,2.9679007586,1.4839503793,2.9806385301,3.1271229023.0063688857,1.7259680377-1.2865149211,3.209918417-2.9233185584,3.3181894748-5.4963484006.3693953734-11.4894698896-3.5156249329-13.4510867-8.7253734749h-.0127377715Z"/>
    <path class="cls-5" d="M178.9816117357,44.8949680555c2.1399456114.961701748,4.273522337,1.9234034959,6.4134679483,2.8851052439,1.5285325795.706946318,3.0570651591,1.4075237503,4.5919666244,2.1017322969,1.2483016066.5604619458,1.7578124665,1.5476392368,1.3310971214,2.630349814-.4012398021,1.0381283769-1.5094259223,1.4011548646-2.7959408434.8406929187-1.668648066-.732421861-3.3181894748-1.5094259223-4.980468655-2.2609544406-2.0571500966-.9043817762-4.1143001933-1.8151324382-6.1714502899-2.7195142144-2.375594384-1.0954483487-4.7511887681-2.1908966973-7.1204142664-3.286345046-.4139775736-.1783288009-.8279551473-.3502887161-1.2228260636-.5540930601-1.2037194064-.6114130318-1.592221437-1.5731147798-1.0954483487-2.6430875855.4521908881-.9744395195,1.4903192651-1.2801460354,2.655825357-.757897404,2.7959408434,1.2546704924,5.5918816868,2.5093409847,8.394191416,3.7640114771Z"/>
    <path class="cls-3" d="M201.1389652533,88.5154665441c-10.1074216822-.3057065159-18.0303155528-4.248046794-23.9533792986-12.0881451499-.1655910295-.2165421154-.3502887161-.4521908881-.4203464594-.706946318-.1592221437-.5095108598-.1974354582-1.0317594912.3948709164-1.3502037786.5604619458-.3057065159,1.0190217197-.1210088292,1.3565726643.3439198304.7897418328,1.0572350342,1.5858525513,2.0889945254,2.4838654418,3.0506962733,4.120669079,4.3690556232,9.1329821628,7.0949387234,14.9796192795,8.2031248435,5.6109883441,1.0572350342,11.0372790014.3057065159,16.2279208861-2.0316745536.1592221437-.0700577432.3184442874-.1592221437.4649286596-.2292798869.6623641178-.3057065159,1.2228260636-.2292798869,1.5476392368.4840353169.3120754017.6942085465-.0827955147,1.1336616632-.6559952321,1.4138926361-2.5666609565,1.2291949494-5.2415929707,2.1081011826-8.0502715856,2.5093409847-1.5603770083.2292798869-3.1525984453.2993376302-4.3754245089.4139775736v-.0127377715Z"/>
    <path class="cls-11" d="M6.4484968199,56.9576376624c0,1.3502037786.0127377715,2.7004075572,0,4.0506113358-.0191066572,1.8151324382-1.3438348928,3.1398606738-3.1334917881,3.1908117598-1.7068613805.0318444287-3.23539396-1.3438348928-3.2672383888-3.0825407021-.0636888575-2.7768341862-.0636888575-5.5472994866,0-8.3241336728.0318444287-1.8023946667,1.4966865959-3.0061140731,3.4264605325-2.9679007586,1.694123609.0382133145,2.9679007586,1.3374660071,2.9870074159,3.0634340448.025475543,1.3502037786,0,2.7067764429,0,4.0569802215l-.0127377715.0127377715Z"/>
    <path class="cls-3" d="M102.7524182168,63.1481946095c.1974354582-1.0062839482.3566576019-2.0189367821.025475543-3.0315896161-.1783288009-.5477241743.2802309729-.681470775.6050441461-.8980128905,5.1842729989-.936226205,10.3558082264-1.8851901814,15.5400812253-2.8214163864,1.2483016066-.2356487727,2.4966032133-.4776664311,3.7512737056-.6942085465,1.0827105772-.1846976867,2.0125678964.4967730884,2.1972655831,1.566745894.1655910295.9744395195-.4967730884,1.9234034959-1.541270351,2.1335767256-1.2483016066.2420176584-2.5093409847.4458220024-3.7512737056.6687330035-2.1717900401.4139775736-4.3372111944.8406929187-6.4962634631,1.2546704924-3.439198304.6050441461-6.8783966079,1.2164571779-10.3175949119,1.821501324h-.0127377715Z"/>
    <path class="cls-8" d="M140.4052707595,70.6571109065c-1.643172523-.8980128905-2.2736922121.2929687444-2.7832030719,1.719599152-.1082710577.2929687444-.2547554299.6177819176-.6177819176.6177819176s-.4967730884-.3120754017-.6432574606-.5923063746c-.0445822002-.101902172-.0827955147-.1846976867-.1337466007-.2802309729-.7260529753-1.668648066-.7260529753-1.6559102945-2.4902343275-1.5094259223-.4267153451.0318444287-.9489639765.2292798869-1.2483016066-.2356487727-.3311820589-.5095108598.2420176584-.7897418328.4203464594-1.1655060919.1337466007-.2802309729.3375509446-.5095108598.5477241743-.757897404.4458220024-.4967730884.4458220024-.961701748-.0382133145-1.4457370648-.2420176584-.2420176584-.4203464594-.5349864028-.6177819176-.8279551473-.2165421154-.3248131732-.6177819176-.6559952321-.2993376302-1.0954483487.2611243157-.3757642591.6751018893-.2420176584,1.0381283769-.1719599152.2292798869.050951086.4712975454.076426629.7133152038.1210088292.8725373475.1592221437,1.4075237503-.1401154865,1.745074695-1.0062839482.2165421154-.5349864028.2929687444-1.4393681791.9935461767-1.4266304076.7642662898.0127377715.7642662898.936226205,1.0190217197,1.5094259223.4458220024,1.0253906054.7387907468,1.1463994347,2.3819632698.8152173758.4394531166-.0827955147.8279551473-.1592221437,1.1145550059.2547554299.2802309729.4139775736-.0955332862.6623641178-.2738620872.9043817762-1.3693104358,1.8724524099-1.3374660071,1.4712126078-.025475543,3.3309272463.1910665724.2802309729.4712975454.5349864028.2865998587.9298573192-.2038043439.4267153451-.5923063746.2420176584-1.1145550059.2993376302l.025475543.0127377715Z"/>
    <path class="cls-6" d="M20.0014856919,8.6496392631h-5.8848504312c-1.1463994347,0-1.8851901814-.6177819176-1.8788212957-1.566745894,0-.9043817762.706946318-1.5349014653,1.8406079812-1.5349014653,3.1653362168-.025475543,6.3370413193,0,9.5087464219,0,.8980128905,0,1.796025781-.025475543,2.6876697857,0,1.1018172344.025475543,1.745074695.6559952321,1.719599152,1.6304347515-.0191066572,1.0253906054-.5286175171,1.4839503793-1.6813858375,1.4839503793h-6.2988280049l-.0127377715-.0127377715Z"/>
    <path class="cls-7" d="M223.7548785447,48.117624244c-.050951086,1.3438348928-.7515285183,2.2800610978-1.9042968387,2.8468919294-1.2100882921.5986752603-2.579398728.4394531166-3.413722761-.5540930601-1.1272927774-1.3438348928-2.4966032133-2.6685631284-1.9870923534-4.7384509966.5668308316-2.350118841,3.1462295596-3.2481317315,5.1460596845-1.8023946667.885275119.6496263463,2.1590522686,3.1525984453,2.1654211544,4.2353090225l-.0063688857.0127377715Z"/>
    <path class="cls-14" d="M208.9281125232,26.2978216711c.8980128905.2802309729,1.3693104358-.1719599152,1.668648066-1.0126528339.1210088292-.3248131732.1592221437-.8152173758.6687330035-.8152173758.4394531166,0,.5477241743.4394531166.6177819176.7451596325.3120754017,1.2546704924,1.1973505206,1.2291949494,2.1654211544,1.0572350342.2420176584-.0445822002.4840353169-.1337466007.6687330035.101902172.2165421154.2738620872.0700577432.5413552886-.1337466007.7387907468-.9425950907.9234884335-.910750662,1.7769191237,0,2.7386208717.4840353169.5095108598.2420176584.8916440047-.4840353169.8406929187-.2420176584-.0127377715-.4967730884.0382133145-.7133152038-.0382133145-.8024796043-.2929687444-1.1527683204.1210088292-1.3565726643.8152173758-.076426629.2292798869-.1974354582.4521908881-.3057065159.6559952321-.3120754017.5986752603-.6368885748.5731997173-.9425950907-.0127377715-.1082710577-.2165421154-.2165421154-.4330842309-.2929687444-.6687330035-.2165421154-.7133152038-.6177819176-1.0444972627-1.3756793216-.8024796043-.1974354582.0636888575-.4139775736.0382133145-.6177819176.0382133145-.2674932014,0-.5986752603.1082710577-.7387907468-.2101732297-.1464843722-.2865998587.0573199717-.5477241743.2547554299-.7260529753.9043817762-.8534306902.8661684617-1.6813858375-.0127377715-2.5220787562-.1974354582-.1783288009-.4012398021-.4394531166-.2292798869-.7260529753.2865998587-.5158797456.757897404-.076426629,1.1718749776-.1974354582h-.0127377715Z"/>
    <path class="cls-7" d="M8.9196244902,73.5422161504c.9808084052.2929687444,1.3119904641-.4139775736,1.592221437-1.1527683204.1082710577-.2929687444.1401154865-.6623641178.5413552886-.6623641178s.4967730884.3821331449.5604619458.6623641178c.2420176584,1.1145550059.9043817762,1.4075237503,1.9616168104,1.1909816349.2738620872-.0636888575.6496263463-.1592221437.8470618045.1719599152.2038043439.3502887161-.1210088292.6050441461-.3184442874.8024796043-.7642662898.8152173758-.7005774323,1.5540081225.076426629,2.3246432981.2165421154.2165421154.4458220024.4712975454.2165421154.8152173758-.2038043439.3057065159-.4840353169.1337466007-.7515285183.0700577432-1.0317594912-.2292798869-1.7323369235.101902172-2.0316745536,1.1718749776-.076426629.2674932014-.1719599152.6432574606-.5859374888.6305196891-.3885020306-.0127377715-.5158797456-.3757642591-.5668308316-.6559952321-.2292798869-1.1909816349-1.0062839482-1.3502037786-1.9998301249-1.1336616632-.2802309729.0636888575-.5413552886.1719599152-.7260529753-.1592221437-.1592221437-.2929687444-.0127377715-.5795686031.1719599152-.7515285183.9171195477-.8534306902.757897404-1.643172523-.0636888575-2.4329143558-.1783288009-.1846976867-.2674932014-.4521908881-.1082710577-.6687330035.3057065159-.4139775736.7642662898-.127377715,1.1846127491-.2229110012Z"/>
    <path class="cls-3" d="M90.9827173543,65.2562957921c-1.3438348928-.1337466007-2.7004075572-1.4712126078-2.8596297009-2.7640964147-.0318444287-.3248131732.2292798869-.3757642591.3439198304-.5604619458,2.4711276703-.4394531166,4.9486242263-.859799576,7.4197518965-1.2992526926.8980128905.5731997173.4521908881,1.4075237503.3057065159,2.0889945254-.1719599152.757897404-.6050441461,1.4521059506-1.3119904641,1.9042968387-1.2928838069.2038043439-2.5985053852.4203464594-3.8977580778.6305196891Z"/>
    <path class="cls-4" d="M63.3863354078,11.1335047049c.2038043439-.7642662898.4076086879-1.5349014653.6050441461-2.2991677551.0955332862-.3885020306.2738620872-.6305196891.7005774323-.6114130318.3885020306.025475543.4967730884.2802309729.5795686031.6114130318.2101732297.8406929187.4521908881,1.668648066.7005774323,2.5921364995.4649286596-.8024796043.4394531166-1.6813858375.681470775-2.4583898988.1337466007-.4267153451.2420176584-.8661684617.7961107185-.6942085465.5095108598.1592221437.3439198304.6305196891.2547554299.9744395195-.2611243157,1.1081861202-.5668308316,2.2036344688-.8725373475,3.2990828175-.0955332862.3630264876-.2038043439.7260529753-.7260529753.706946318-.4967730884-.025475543-.6368885748-.3566576019-.7451596325-.732421861-.2229110012-.706946318-.4139775736-1.4266304076-.8279551473-2.1335767256-.2292798869.7451596325-.4712975454,1.4775814936-.6751018893,2.2163722403-.1210088292.4394531166-.3311820589.6559952321-.7897418328.6368885748-.4458220024-.0127377715-.5668308316-.3439198304-.6623641178-.6687330035-.3057065159-1.1336616632-.5986752603-2.2673233263-.885275119-3.413722761-.0955332862-.3757642591-.2101732297-.8024796043.3248131732-.910750662.4840353169-.0955332862.6432574606.2292798869.7260529753.6559952321.1210088292.6114130318.2802309729,1.2100882921.4139775736,1.8151324382-.025475543.2674932014-.0636888575.5604619458.2292798869.681470775.1337466007.0636888575.1592221437-.1464843722.1464843722-.2802309729l.025475543.0127377715Z"/>
    <path class="cls-9" d="M48.9098581024,71.5232793682c-.025475543,1.2164571779-.885275119,2.0444123251-2.1208389541,2.0316745536-1.2228260636,0-2.0571500966-.8661684617-2.0571500966-2.0953634111,0-1.2737771496.8725373475-2.1144700684,2.1717900401-2.0762567539,1.2228260636.0191066572,2.0189367821.885275119,2.0061990106,2.1399456114Z"/>
    <path class="cls-9" d="M129.3616228723,11.9996731666c1.0890794629,0,2.0571500966.910750662,2.0953634111,2.0061990106.050951086,1.1081861202-.9425950907,2.1272078399-2.0698878681,2.1272078399s-2.1335767256-.9935461767-2.0953634111-2.1017322969c.025475543-1.0827105772.9808084052-2.0189367821,2.0698878681-2.0316745536Z"/>
    <path class="cls-9" d="M5.7160749589,26.1258617559c1.1591372062,0,1.9679856962.8534306902,1.9679856962,2.0444123251,0,1.1846127491-.834324033,2.0698878681-1.9679856962,2.0826256396-1.1782438634,0-2.0380434394-.8980128905-2.0253056679-2.1399456114.0127377715-1.1846127491.8470618045-1.9998301249,2.0253056679-1.9870923534Z"/>
    <path class="cls-2" d="M77.034857566,10.623993845c.4585597739-.4394531166.783372947-.783372947,1.1336616632-1.0954483487.2547554299-.2356487727.5859374888-.3184442874.8406929187-.050951086.2865998587.3057065159-.025475543.5222486313-.2229110012.681470775-.859799576.681470775-.5795686031,1.3183593499,0,1.9998301249.2292798869.2674932014.7770040613.6177819176.2420176584.9935461767-.4076086879.2929687444-.834324033.0382133145-1.1145550059-.4139775736-.152853258-.2547554299-.3821331449-.4712975454-.5540930601-.6942085465-.3502887161.0382133145-.3057065159.2802309729-.3184442874.4776664311-.0063688857.4394531166-.152853258.7515285183-.6623641178.706946318-.4585597739-.0382133145-.5222486313-.3821331449-.5222486313-.757897404v-3.8468069918c0-.3630264876.050951086-.7387907468.4967730884-.7642662898.4585597739-.025475543.6687330035.3311820589.681470775.7515285183.0191066572.6241508033,0,1.2419327209,0,2.0125678964Z"/>
    <path class="cls-2" d="M111.9618270085,9.2737900664c1.1718749776,0,1.9807234677.8279551473,1.9743545819,2.0316745536,0,1.2674082639-.7642662898,2.0889945254-1.9297723817,2.1017322969-1.1591372062.0127377715-1.9743545819-.8279551473-1.9870923534-2.0571500966,0-1.2355638351.7770040613-2.0762567539,1.9425101532-2.0889945254v.0127377715ZM112.732462184,11.2927268486c.0127377715-.4394531166-.025475543-1.0253906054-.7133152038-1.0572350342-.6878396608-.0382133145-.7961107185.5222486313-.7961107185,1.0827105772,0,.5477241743.0318444287,1.0954483487.7706351755,1.0827105772.681470775,0,.7387907468-.5031419741.7387907468-1.1209238917v.0127377715Z"/>
    <path class="cls-10" d="M73.5192326331,11.6684911077c-.0573199717.8661684617.2547554299,1.9616168104-1.2355638351,1.4138926361-.1464843722-.050951086-.3630264876.1592221437-.5540930601.2165421154-.7770040613.2420176584-1.3820482073,0-1.6750169517-.7515285183-.2738620872-.732421861.1974354582-1.3374660071,1.0572350342-1.5858525513.3948709164-.1082710577,1.2483016066.2674932014,1.1018172344-.4458220024-.1592221437-.7961107185-.8152173758-.2101732297-1.2483016066-.0636888575-.2547554299.0827955147-.4840353169.0636888575-.6305196891-.1974354582-.1719599152-.2865998587.050951086-.4585597739.2292798869-.5923063746.5604619458-.4394531166,1.1973505206-.4904042026,1.8533457527-.3184442874.6432574606.1719599152.9553328622.6432574606,1.0317594912,1.2801460354.0445822002.3757642591.0445822002.7515285183.0573199717,1.0444972627h.0127377715ZM71.7041001949,12.5346595694c.2929687444-.1082710577.6432574606-.1719599152.5795686031-.5859374888-.0382133145-.2802309729-.2802309729-.3885020306-.5286175171-.3375509446-.2929687444.0445822002-.6687330035.0827955147-.6432574606.4967730884.025475543.3311820589.3375509446.3757642591.6050441461.4267153451h-.0127377715Z"/>
    <path class="cls-2" d="M94.8804754321,13.4326724599c-.8470618045-.0827955147-1.4839503793-.3120754017-1.8023946667-1.0190217197-.3885020306-.8789062332-.3502887161-1.7641813522.2802309729-2.5348165277.5222486313-.6177819176,1.2355638351-.7260529753,1.9743545819-.5349864028.7005774323.1846976867,1.1018172344.681470775,1.1973505206,1.4011548646.0700577432.5222486313-.0382133145.885275119-.6878396608.8534306902-.3757642591-.025475543-.7642662898-.025475543-1.1400305489,0-.2420176584.0127377715-.6177819176-.1210088292-.6305196891.3120754017-.0127377715.3821331449.3057065159.5604619458.6177819176.5731997173.2547554299.0127377715.5349864028-.0955332862.7897418328-.1846976867.2865998587-.0955332862.6241508033-.2674932014.7961107185.127377715.1464843722.3630264876-.1719599152.5795686031-.4458220024.7005774323-.3439198304.1592221437-.7133152038.2356487727-.9553328622.3184442874l.0063688857-.0127377715ZM94.6894088597,10.1144829852c-.1719599152.1082710577-.5477241743.1082710577-.5477241743.4458220024,0,.3693953734.3439198304.3693953734.6177819176.3693953734.2674932014,0,.6177819176.0318444287.5986752603-.3566576019-.025475543-.2929687444-.3057065159-.4267153451-.6687330035-.4521908881v-.0063688857Z"/>
    <path class="cls-4" d="M85.1488180091,11.3436779346v1.2355638351c0,.2611243157-.1337466007.6496263463-.3057065159.5731997173-.7642662898-.3502887161-1.3693104358.3566576019-2.0698878681.2420176584-.4585597739-.0700577432-.8725373475-.2865998587-1.0190217197-.7642662898-.2865998587-.936226205-.1337466007-1.9106657244-.1082710577-2.8723674724,0-.2674932014.2802309729-.3885020306.5477241743-.3502887161.3120754017.0445822002.4585597739.2674932014.4585597739.5795686031v1.6559102945c0,.4394531166.1783288009.732421861.6559952321.757897404.4840353169.025475543.7133152038-.2674932014.7451596325-.681470775.0636888575-.5477241743.0382133145-1.1081861202.0382133145-1.6559102945,0-.3566576019.0827955147-.6432574606.4840353169-.6559952321.4521908881-.0127377715.5731997173.2929687444.5604619458.6942085465v1.2419327209h.0127377715Z"/>
    <path class="cls-12" d="M89.0847894014,13.4326724599c-.1846976867-.0382133145-.4394531166-.0445822002-.6432574606-.1464843722-.3885020306-.1655910295-1.0572350342-.2802309729-.859799576-.8152173758.2038043439-.5795686031.7387907468-.2420176584,1.1400305489-.0445822002.3248131732.152853258.757897404.2865998587.8789062332-.127377715.1464843722-.4967730884-.3821331449-.4458220024-.6751018893-.5349864028-.6050441461-.152853258-1.2737771496-.2802309729-1.4202615218-1.0062839482-.1082710577-.5604619458.2101732297-1.0126528339.7196840895-1.2674082639.6878396608-.3502887161,1.4011548646-.3375509446,2.0571500966.0827955147.2165421154.1337466007.4967730884.3439198304.3248131732.6751018893-.1592221437.3120754017-.4458220024.2674932014-.7133152038.1401154865-.4267153451-.1655910295-1.0190217197-.6432574606-1.2100882921,0-.1337466007.4521908881.6305196891.4394531166,1.0253906054.5731997173.6114130318.1974354582,1.2291949494.4139775736,1.1145550059,1.2419327209-.1337466007.987177291-.8916440047,1.1081861202-1.7323369235,1.2291949494h-.0063688857Z"/>
    <path class="cls-10" d="M148.3026890871,62.5558882349c-.9808084052,0-1.6240658658-.6623641178-1.6240658658-1.6113280943,0-.961701748.7897418328-1.7514435807,1.7068613805-1.7004924947.8406929187.0382133145,1.6113280943.8725373475,1.6113280943,1.7387058092,0,.9043817762-.7387907468,1.5858525513-1.6813858375,1.5858525513l-.0127377715-.0127377715Z"/>
    <path class="cls-12" d="M105.4655635455,9.866096441c.4967730884-.4139775736.4840353169-1.1272927774,1.0317594912-1.3756793216.4967730884-.2165421154.5795686031.3439198304.8725373475.5859374888.6305196891.5477241743.7770040613.7642662898.0700577432,1.4393681791-.3248131732.2993376302-.6177819176,1.4202615218.3439198304,1.9106657244.2038043439.1082710577.3248131732.2420176584.2483865442.4840353169-.0573199717.2101732297-.2292798869.4139775736-.4203464594.4012398021-.5668308316-.0382133145-1.1782438634-.0127377715-1.4202615218-.732421861-.2993376302-.885275119.3184442874-1.9679856962-.7133152038-2.7131453287h-.0127377715Z"/>
    <path class="cls-17" d="M103.3574623629,10.7450026742v1.7641813522c0,.3885020306-.1082710577.6942085465-.5668308316.7196840895-.4139775736.025475543-.5795686031-.2802309729-.5795686031-.5986752603-.025475543-1.2801460354-.025475543-2.553923185,0-3.8468069918,0-.3248131732.2038043439-.5923063746.6050441461-.5604619458.3885020306.0382133145.5222486313.2929687444.5349864028.6496263463v1.8724524099h.0063688857Z"/>
    <path class="cls-13" d="M63.3863354078,11.1335047049c0,.1210088292-.025475543.3311820589-.1464843722.2802309729-.2929687444-.1210088292-.2420176584-.4267153451-.2292798869-.681470775.1210088292.1337466007.2547554299.2674932014.3757642591.4012398021Z"/>
    <path class="cls-15" d="M71.7041001949,12.5346595694c-.2674932014-.050951086-.5795686031-.0955332862-.6050441461-.4267153451-.025475543-.4139775736.3630264876-.4521908881.6432574606-.4967730884.2547554299-.050951086.4967730884.0445822002.5286175171.3375509446.0636888575.4139775736-.2865998587.4904042026-.5795686031.5859374888h.0127377715Z"/>
    <path class="cls-16" d="M94.6894088597,10.1144829852c.3630264876.0191066572.6432574606.152853258.6687330035.4458220024.0318444287.4012398021-.3311820589.3566576019-.5986752603.3566576019-.2611243157,0-.6177819176,0-.6177819176-.3693953734,0-.3375509446.3630264876-.3248131732.5477241743-.4458220024v.0127377715Z"/>
    <path class="cls-6" d="M23.3578884811,33.6029336241c1.0444972627.0063688857,1.7578124665.7387907468,1.719599152,1.7641813522-.0382133145.936226205-.9171195477,1.796025781-1.8023946667,1.7769191237-.8980128905-.025475543-1.719599152-.9171195477-1.719599152-1.8533457527,0-1.0062839482.7387907468-1.6877547232,1.7896568952-1.6813858375l.0127377715-.0063688857Z"/>
  </g>
</svg>